<?xml version="1.0" standalone="no"?>
<!DOCTYPE svg PUBLIC "-//W3C//DTD SVG 1.1//EN" "http://www.w3.org/Graphics/SVG/1.1/DTD/svg11.dtd" >
<svg xmlns="http://www.w3.org/2000/svg" xmlns:xlink="http://www.w3.org/1999/xlink" version="1.1">
<metadata>
Created by FontForge 20170731 at Sun Oct 27 17:54:43 2013
 By Aleksey,,,
Copyright (c) 2013 by Eimantas Paskonis. All rights reserved.
</metadata>
<defs>
<font id="Neris-ThinItalic" horiz-adv-x="555" >
  <font-face 
    font-family="Neris Thin"
    font-weight="250"
    font-style="italic"
    font-stretch="normal"
    units-per-em="1000"
    panose-1="0 0 3 0 0 0 0 0 0 0"
    ascent="755"
    descent="-245"
    x-height="476"
    cap-height="683"
    bbox="-133 -220.083 1132 963"
    underline-thickness="32"
    underline-position="-175"
    slope="-9.10001"
    unicode-range="U+000D-F6D0"
  />
<missing-glyph horiz-adv-x="371" 
 />
    <glyph glyph-name="Idieresis_Idieresis.liga" unicode="&#xcf;&#xcf;" horiz-adv-x="460" 
d="M205 842q26 0 26 -24q0 -16 -9.5 -25.5t-25.5 -9.5q-26 0 -26 24q0 35 35 35zM335 842q26 0 26 -24q0 -16 -9.5 -25.5t-25.5 -9.5q-26 0 -26 24q0 35 35 35zM464 842q26 0 26 -24q0 -16 -9.5 -25.5t-25.5 -9.5q-25 0 -25 24q0 35 34 35zM91 0h-27q-8 0 -8 9l107 667
q1 7 8 7h27q8 0 8 -9l-107 -667q-1 -7 -8 -7zM321 0h-27q-8 0 -8 9l107 667q1 7 8 7h27q8 0 8 -9l-107 -667q-1 -7 -8 -7z" />
    <glyph glyph-name="idieresis_idieresis.liga" unicode="&#xef;&#xef;" horiz-adv-x="474" 
d="M191 706q29 0 29 -28q0 -36 -34 -36q-28 0 -28 26q0 38 33 38zM309 706q29 0 29 -28q0 -36 -34 -36q-29 0 -29 27q0 37 34 37zM427 706q29 0 29 -28q0 -36 -34 -36q-29 0 -29 26q0 38 34 38zM116 0h-25q-8 0 -8 9l68 427h-43q-8 0 -7 9l4 24q1 7 8 7h78q8 0 8 -9
l-75 -460q-1 -7 -8 -7zM345 0h-25q-8 0 -8 9l68 427h-43q-9 0 -7 9l4 24q1 7 8 7h78q8 0 8 -9l-75 -460q-1 -7 -8 -7z" />
    <glyph glyph-name="uni021B_i.liga" unicode="&#x21b;i" horiz-adv-x="551" 
d="M509 706q29 0 29 -27q0 -38 -35 -38q-30 0 -30 27q0 38 36 38zM191 476h305q8 0 8 -9l-75 -460q-1 -7 -8 -7h-25q-8 0 -8 9l68 427h-272l-53 -333q-12 -72 47 -72q16 0 28 4q8 2 10 -6l6 -22q1 -7 -5 -10q-21 -7 -42 -7q-49 0 -71.5 30t-13.5 84l52 332h-43q-9 0 -7 9
l4 24q1 7 8 7h45l19 124q2 7 7 8l28 9q4 1 6.5 -0.5t1.5 -6.5zM99 -210l26 38q8 14 0 17q-21 6 -21 28q0 19 11.5 30t29.5 11q15 0 24 -9t9 -23q0 -25 -25 -64l-23 -33q-3 -5 -9 -5h-17q-12 0 -5 10z" />
    <glyph glyph-name="t_icircumflex.liga" unicode="t&#xee;" horiz-adv-x="554" 
d="M531 695l51 -104q5 -9 -6 -9h-23q-6 0 -9 6l-41 72l-65 -74q-4 -4 -10 -4h-20q-12 0 -5 10l83 104q4 5 10 5h25q7 0 10 -6zM191 476h305q8 0 8 -9l-75 -460q-1 -7 -8 -7h-25q-8 0 -8 9l68 427h-272l-53 -333q-12 -72 47 -72q16 0 28 4q8 2 10 -6l6 -22q1 -7 -5 -10
q-21 -7 -42 -7q-49 0 -71.5 30t-13.5 84l52 332h-43q-9 0 -7 9l4 24q1 7 8 7h45l19 124q2 7 7 8l28 9q4 1 6.5 -0.5t1.5 -6.5z" />
    <glyph glyph-name="f_f_thorn.liga" unicode="ff&#xfe;" horiz-adv-x="1145" 
d="M794 692l-33 -203q-10 -63 -17 -89q-3 -9 1 -9t7 3q69 92 174 92q82 0 126 -49t44 -138q0 -51 -13.5 -102.5t-41.5 -99t-79.5 -77.5t-119.5 -30q-66 0 -124 27l-30 14l-37 -234q-1 -7 -8 -7h-26q-8 0 -8 9l138 863h-164q-36 0 -61.5 -26.5t-32.5 -71.5l-14 -88h110
q9 0 7 -9l-4 -24q-1 -7 -8 -7h-112l-69 -429q-1 -7 -8 -7h-25q-8 0 -8 9l68 427h-242l-69 -429q-1 -7 -8 -7h-25q-8 0 -8 9l68 427h-43q-9 0 -7 9l4 24q1 7 8 7h45l16 100q11 64 47 100t91 36q21 0 41 -9l8 -4q9 -4 4 -10l-11 -21q-4 -7 -11 -4l-5 2q-11 5 -28 5
q-37 0 -62.5 -26.5t-32.5 -70.5l-15 -98h242l14 90q10 64 47 99.5t93 35.5h199q8 0 8 -9zM694 73l42 -19q48 -23 107 -23q56 0 98.5 26.5t65.5 68.5t34.5 86t11.5 86q0 70 -33 108.5t-96 38.5q-82 0 -136 -63.5t-70 -164.5z" />
    <glyph glyph-name="f_imacron.liga" unicode="f&#x12b;" horiz-adv-x="520" 
d="M149 476l16 100q11 64 47 100t91 36q23 0 44 -10l15 -7q9 -4 4 -10l-11 -22q-4 -7 -11 -4l-12 5q-18 7 -31 7q-37 0 -62.5 -26.5t-31.5 -70.5l-16 -98h275q8 0 8 -9l-74 -460q-1 -7 -8 -7h-26q-8 0 -8 9l69 427h-243l-69 -429q-1 -7 -8 -7h-25q-8 0 -8 9l68 427h-43
q-9 0 -7 9l4 24q1 7 8 7h45zM416 660h125q8 0 8 -9l-4 -21q-1 -7 -8 -7h-126q-9 0 -7 9l4 21q1 7 8 7z" />
    <glyph glyph-name="t_imacron.liga" unicode="t&#x12b;" horiz-adv-x="552" 
d="M425 660h146q8 0 8 -9l-4 -21q-1 -7 -8 -7h-147q-8 0 -7 9l4 21q1 7 8 7zM191 476h305q8 0 8 -9l-75 -460q-1 -7 -8 -7h-25q-8 0 -8 9l68 427h-272l-53 -333q-12 -72 47 -72q16 0 28 4q8 2 10 -6l6 -22q1 -7 -5 -10q-21 -7 -42 -7q-49 0 -71.5 30t-13.5 84l52 332h-43
q-9 0 -7 9l4 24q1 7 8 7h45l19 124q2 7 7 8l28 9q4 1 6.5 -0.5t1.5 -6.5z" />
    <glyph glyph-name="t_iogonek.liga" unicode="t&#x12f;" horiz-adv-x="551" 
d="M509 706q29 0 29 -27q0 -38 -35 -38q-30 0 -30 27q0 38 36 38zM191 476h305q8 0 8 -9l-76 -467q-5 -28 -34 -57l-51 -47q-23 -24 -23 -48q0 -28 31 -28q12 0 33 6l14 4q9 4 9 -6l4 -20q1 -7 -6 -10l-18 -6q-24 -8 -43 -8q-31 0 -48.5 16t-17.5 44q0 42 40 79l47 45
q20 20 21 31q0 2 1 5t1 5l68 431h-272l-53 -333q-12 -72 47 -72q16 0 28 4q8 2 10 -6l6 -22q1 -7 -5 -10q-21 -7 -42 -7q-49 0 -71.5 30t-13.5 84l52 332h-43q-9 0 -7 9l4 24q1 7 8 7h45l19 124q2 7 7 8l28 9q4 1 6.5 -0.5t1.5 -6.5z" />
    <glyph glyph-name="f_iacute.liga" unicode="f&#xed;" horiz-adv-x="520" 
d="M149 476l16 100q11 64 47 100t91 36q23 0 44 -10l15 -7q9 -4 4 -10l-11 -22q-4 -7 -11 -4l-12 5q-18 7 -31 7q-37 0 -62.5 -26.5t-31.5 -70.5l-16 -98h275q8 0 8 -9l-74 -460q-1 -7 -8 -7h-26q-8 0 -8 9l69 427h-243l-69 -429q-1 -7 -8 -7h-25q-8 0 -8 9l68 427h-43
q-9 0 -7 9l4 24q1 7 8 7h45zM544 691l-65 -104q-3 -5 -9 -5h-21q-11 0 -6 10l57 103q3 6 9 6h30q10 0 5 -10z" />
    <glyph glyph-name="f_lcaron.liga" unicode="f&#x13e;" horiz-adv-x="557" 
d="M510 692l-99 -623q-6 -38 20 -38q9 0 12 1q8 2 10 -5l7 -23q1 -7 -5 -10q-11 -4 -26 -4q-35 0 -51 22t-9 59l94 591h-164q-36 0 -61.5 -26.5t-32.5 -71.5l-14 -88h110q9 0 7 -9l-4 -24q-1 -7 -8 -7h-112l-69 -429q-1 -7 -8 -7h-25q-8 0 -8 9l68 427h-43q-9 0 -7 9l4 24
q1 7 8 7h45l14 90q10 64 47 99.5t93 35.5h199q8 0 8 -9zM597 701h24q9 0 8 -9l-4 -26q-5 -27 -28 -69l-6 -10q-3 -5 -9 -5h-17q-11 0 -6 9l8 16q14 31 18 61l4 26q1 7 8 7z" />
    <glyph glyph-name="t_iacute.liga" unicode="t&#xed;" horiz-adv-x="553" 
d="M539 701h30q10 0 5 -10l-65 -104q-3 -5 -9 -5h-21q-11 0 -6 10l57 103q3 6 9 6zM191 476h305q8 0 8 -9l-75 -460q-1 -7 -8 -7h-25q-8 0 -8 9l68 427h-272l-53 -333q-12 -72 47 -72q16 0 28 4q8 2 10 -6l6 -22q1 -7 -5 -10q-21 -7 -42 -7q-49 0 -71.5 30t-13.5 84l52 332
h-43q-9 0 -7 9l4 24q1 7 8 7h45l19 124q2 7 7 8l28 9q4 1 6.5 -0.5t1.5 -6.5z" />
    <glyph glyph-name="t_igrave.liga" unicode="t&#xec;" horiz-adv-x="551" 
d="M507 582h-22q-8 0 -9 7l-32 103q-4 9 6 9h30q8 0 9 -7l25 -103q2 -9 -7 -9zM191 476h305q8 0 8 -9l-75 -460q-1 -7 -8 -7h-25q-8 0 -8 9l68 427h-272l-53 -333q-12 -72 47 -72q16 0 28 4q8 2 10 -6l6 -22q1 -7 -5 -10q-21 -7 -42 -7q-49 0 -71.5 30t-13.5 84l52 332h-43
q-9 0 -7 9l4 24q1 7 8 7h45l19 124q2 7 7 8l28 9q4 1 6.5 -0.5t1.5 -6.5z" />
    <glyph glyph-name="tcaron_j.liga" unicode="&#x165;j" horiz-adv-x="551" 
d="M509 707q29 0 29 -28q0 -39 -35 -39q-30 0 -30 27q0 19 10 29.5t26 10.5zM310 597l-6 -10q-3 -5 -9 -5h-17q-11 0 -6 9l8 16q14 31 18 61l4 26q1 7 8 7h24q10 0 8 -9l-4 -26q-5 -27 -28 -69zM191 476h305q8 0 8 -9l-88 -544q-11 -81 -71 -117l-38 -25q-7 -3 -11 3l-13 21
q-4 7 3 11l37 24q44 27 53 85l80 511h-272l-53 -333q-12 -72 47 -72q16 0 28 4q8 2 10 -6l6 -22q1 -7 -5 -10q-21 -7 -42 -7q-49 0 -71.5 30t-13.5 84l52 332h-43q-9 0 -7 9l4 24q1 7 8 7h45l19 124q2 7 7 8l28 9q4 1 6.5 -0.5t1.5 -6.5z" />
    <glyph glyph-name="tcaron_t.liga" unicode="&#x165;t" horiz-adv-x="630" 
d="M310 701h24q10 0 8 -9l-4 -26q-5 -27 -28 -69l-6 -10q-3 -5 -9 -5h-17q-11 0 -6 9l8 16q14 31 18 61l4 26q1 7 8 7zM493 436l-53 -333q-12 -72 47 -72q16 0 28 4q8 2 10 -6l6 -22q1 -7 -5 -10q-21 -7 -42 -7q-49 0 -71.5 30t-13.5 84l52 332h-267l-53 -333
q-12 -72 47 -72q16 0 28 4q8 2 10 -6l6 -22q1 -7 -5 -10q-21 -7 -42 -7q-49 0 -71.5 30t-13.5 84l52 332h-43q-9 0 -7 9l4 24q1 7 8 7h45l19 124q2 7 7 8l28 9q4 1 6.5 -0.5t1.5 -6.5l-20 -134h267l19 124q2 7 7 8l28 9q4 1 6.5 -0.5t1.5 -6.5l-20 -134h110q8 0 7 -9l-4 -24
q-1 -7 -8 -7h-112z" />
    <glyph glyph-name="f_f_t_i.liga" unicode="ffti" horiz-adv-x="1117" 
d="M757 476h305q8 0 8 -9l-75 -460q-1 -7 -8 -7h-25q-8 0 -8 9l68 427h-272l-53 -333q-12 -72 47 -72q16 0 28 4q8 2 10 -6l6 -22q1 -7 -5 -10q-21 -7 -42 -7q-49 0 -71.5 30t-13.5 84l52 332h-241l-69 -429q-1 -7 -8 -7h-25q-8 0 -8 9l68 427h-241l-69 -429q-1 -7 -8 -7
h-25q-8 0 -8 9l68 427h-43q-9 0 -7 9l4 24q1 7 8 7h45l16 100q11 64 47 100t91 36q21 0 41 -9l8 -4q9 -4 4 -10l-11 -21q-4 -7 -11 -4l-5 2q-11 5 -28 5q-37 0 -62.5 -26.5t-32.5 -70.5l-15 -98h241l16 100q11 64 47 100t91 36q22 0 41 -9l8 -4q9 -4 4 -10l-11 -21
q-4 -7 -11 -4l-5 2q-11 5 -28 5q-37 0 -62.5 -26.5t-32.5 -70.5l-15 -98h241l19 124q2 7 7 8l28 9q4 1 6.5 -0.5t1.5 -6.5zM1075 706q29 0 29 -27q0 -38 -35 -38q-30 0 -30 27q0 38 36 38z" />
    <glyph glyph-name="f_t_t_i.liga" unicode="ftti" horiz-adv-x="1144" 
d="M784 476h306q8 0 8 -9l-75 -460q-1 -7 -8 -7h-25q-8 0 -8 9l68 427h-273l-53 -333q-12 -72 47 -72q16 0 28 4q8 2 10 -6l6 -22q1 -7 -5 -10q-21 -7 -42 -7q-49 0 -71.5 30t-13.5 84l52 332h-267l-53 -333q-12 -72 47 -72q16 0 28 4q8 2 10 -6l6 -22q1 -7 -5 -10
q-21 -7 -42 -7q-49 0 -71.5 30t-13.5 84l52 332h-242l-69 -429q-1 -7 -8 -7h-25q-8 0 -8 9l68 427h-43q-9 0 -7 9l4 24q1 7 8 7h45l16 100q11 64 47 100t91 36q21 0 41 -9l8 -4q9 -4 4 -10l-11 -21q-4 -7 -11 -4l-5 2q-11 5 -28 5q-37 0 -62.5 -26.5t-32.5 -70.5l-15 -98
h242l19 124q2 7 7 8l28 9q4 1 6.5 -0.5t1.5 -6.5l-20 -134h267l19 124q2 7 7 8l28 9q4 1 6.5 -0.5t1.5 -6.5zM1103 706q29 0 29 -27q0 -38 -35 -38q-30 0 -30 27q0 38 36 38z" />
    <glyph glyph-name="f_thorn.liga" unicode="f&#xfe;" horiz-adv-x="861" 
d="M510 692l-33 -203q-10 -63 -17 -89q-3 -9 1 -9t7 3q69 92 174 92q82 0 126 -49t44 -138q0 -51 -13.5 -102.5t-41.5 -99t-79.5 -77.5t-119.5 -30q-66 0 -124 27l-30 14l-37 -234q-1 -7 -8 -7h-26q-8 0 -8 9l138 863h-164q-36 0 -61.5 -26.5t-32.5 -71.5l-14 -88h110
q9 0 7 -9l-4 -24q-1 -7 -8 -7h-112l-69 -429q-1 -7 -8 -7h-25q-8 0 -8 9l68 427h-43q-9 0 -7 9l4 24q1 7 8 7h45l14 90q10 64 47 99.5t93 35.5h199q8 0 8 -9zM410 73l42 -19q48 -23 107 -23q56 0 98.5 26.5t65.5 68.5t34.5 86t11.5 86q0 70 -33 108.5t-96 38.5
q-82 0 -136 -63.5t-70 -164.5z" />
    <glyph glyph-name="f_f_b.liga" unicode="ffb" horiz-adv-x="1145" 
d="M794 692l-33 -203q-10 -63 -17 -89q-3 -8 1 -8.5t7 2.5q69 92 174 92q82 0 126 -49t44 -138q0 -51 -13.5 -102.5t-41.5 -99t-79.5 -77.5t-119.5 -30t-128 28l-59 27q-6 3 -5 10l97 607h-164q-36 0 -61.5 -26.5t-32.5 -71.5l-14 -88h110q9 0 7 -9l-4 -24q-1 -7 -8 -7h-112
l-69 -429q-1 -7 -8 -7h-25q-8 0 -8 9l68 427h-242l-69 -429q-1 -7 -8 -7h-25q-8 0 -8 9l68 427h-43q-9 0 -7 9l4 24q1 7 8 7h45l16 100q11 64 47 100t91 36q21 0 41 -9l8 -4q9 -4 4 -10l-11 -21q-4 -7 -11 -4l-5 2q-11 5 -28 5q-37 0 -62.5 -26.5t-32.5 -70.5l-15 -98h242
l14 90q10 64 47 99.5t93 35.5h199q8 0 8 -9zM694 72l42 -19q46 -22 107 -22q56 0 98.5 26.5t65.5 68.5t34.5 86t11.5 86q0 70 -33 108.5t-96 38.5q-82 0 -136 -63.5t-70 -164.5z" />
    <glyph glyph-name="f_f_h.liga" unicode="ffh" horiz-adv-x="1152" 
d="M794 692l-33 -203q-9 -59 -19 -94q-3 -7 3 -8q4 0 8 6q71 93 184 93q81 0 120 -53.5t25 -144.5l-46 -281q-1 -7 -8 -7h-25q-8 0 -8 9l45 281q12 73 -15.5 114t-89.5 41q-94 0 -147.5 -64.5t-69.5 -161.5l-34 -212q-1 -7 -8 -7h-26q-8 0 -8 9l105 653h-164
q-36 0 -61.5 -26.5t-32.5 -71.5l-14 -88h110q9 0 7 -9l-4 -24q-1 -7 -8 -7h-112l-69 -429q-1 -7 -8 -7h-25q-8 0 -8 9l68 427h-242l-69 -429q-1 -7 -8 -7h-25q-8 0 -8 9l68 427h-43q-9 0 -7 9l4 24q1 7 8 7h45l16 100q11 64 47 100t91 36q21 0 41 -9l8 -4q9 -4 4 -10
l-11 -21q-4 -7 -11 -4l-5 2q-11 5 -28 5q-37 0 -62.5 -26.5t-32.5 -70.5l-15 -98h242l14 90q10 64 47 99.5t93 35.5h199q8 0 8 -9z" />
    <glyph glyph-name="f_f_i.liga" unicode="ffi" horiz-adv-x="804" 
d="M475 476h275q8 0 8 -9l-74 -460q-1 -7 -8 -7h-26q-8 0 -8 9l69 427h-243l-69 -429q-1 -7 -8 -7h-25q-8 0 -8 9l68 427h-242l-69 -429q-1 -7 -8 -7h-25q-8 0 -8 9l68 427h-43q-9 0 -7 9l4 24q1 7 8 7h45l16 100q11 64 47 100t91 36q21 0 41 -9l8 -4q9 -4 4 -10l-11 -21
q-4 -7 -11 -4l-5 2q-11 5 -28 5q-37 0 -62.5 -26.5t-32.5 -70.5l-15 -98h242l16 100q11 64 47 100t91 36q20 0 43 -10l16 -7q8 -3 4 -10l-13 -22q-4 -6 -11 -3l-10 4q-18 7 -31 7q-37 0 -62.5 -26.5t-31.5 -70.5zM766 704q31 0 25 -32q-3 -27 -30 -27q-32 0 -26 32
q3 27 31 27z" />
    <glyph glyph-name="f_f_j.liga" unicode="ffj" horiz-adv-x="804" 
d="M475 476h275q8 0 8 -9l-88 -544q-10 -77 -71 -117l-38 -24q-6 -5 -11 2l-10 19q-4 7 2 11l35 26q44 29 53 85l81 511h-243l-69 -429q-1 -7 -8 -7h-25q-8 0 -8 9l68 427h-242l-69 -429q-1 -7 -8 -7h-25q-8 0 -8 9l68 427h-43q-9 0 -7 9l4 24q1 7 8 7h45l16 100
q11 64 47 100t91 36q21 0 41 -9l8 -4q9 -4 4 -10l-11 -21q-4 -7 -11 -4l-5 2q-11 5 -28 5q-37 0 -62.5 -26.5t-32.5 -70.5l-15 -98h242l16 100q11 64 47 100t91 36q22 0 43 -10l16 -7q8 -3 4 -10l-13 -22q-4 -6 -11 -3l-10 4q-18 7 -31 7q-37 0 -62.5 -26.5t-31.5 -70.5z
M766 704q31 0 25 -32q-3 -27 -30 -27q-32 0 -26 32q3 27 31 27z" />
    <glyph glyph-name="f_f_k.liga" unicode="ffk" horiz-adv-x="1092" 
d="M1064 466l-122 -121q-80 -82 -121 -98q-14 -5 -2 -9q26 -10 47 -33.5t49 -67.5l83 -127q5 -10 -6 -10h-30q-6 0 -9 5l-75 116q-22 33 -35.5 50t-40.5 33.5t-59 16.5h-25l-34 -214q-1 -7 -8 -7h-26q-8 0 -8 9l75 467l30 186h-164q-36 0 -61.5 -26.5t-32.5 -71.5l-14 -88
h110q9 0 7 -9l-4 -24q-1 -7 -8 -7h-112l-69 -429q-1 -7 -8 -7h-25q-8 0 -8 9l68 427h-242l-69 -429q-1 -7 -8 -7h-25q-8 0 -8 9l68 427h-43q-9 0 -7 9l4 24q1 7 8 7h45l16 100q11 64 47 100t91 36q21 0 41 -9l8 -4q9 -4 4 -10l-11 -21q-4 -7 -11 -4l-5 2q-11 5 -28 5
q-37 0 -62.5 -26.5t-32.5 -70.5l-15 -98h242l14 90q10 64 47 99.5t93 35.5h199q8 0 8 -9l-38 -226l-31 -206h22q26 0 58 18t51 35.5t51 49.5l108 109q4 4 10 4h35q5 0 6.5 -3t-2.5 -7z" />
    <glyph glyph-name="f_f_l.liga" unicode="ffl" horiz-adv-x="835" 
d="M794 692l-99 -623q-6 -38 20 -38q9 0 12 1q8 2 10 -5l7 -23q1 -7 -5 -10q-11 -4 -26 -4q-35 0 -51 22t-9 59l94 591h-164q-36 0 -61.5 -26.5t-32.5 -71.5l-14 -88h110q9 0 7 -9l-4 -24q-1 -7 -8 -7h-112l-69 -429q-1 -7 -8 -7h-25q-8 0 -8 9l68 427h-242l-69 -429
q-1 -7 -8 -7h-25q-8 0 -8 9l68 427h-43q-9 0 -7 9l4 24q1 7 8 7h45l16 100q11 64 47 100t91 36q21 0 41 -9l8 -4q9 -4 4 -10l-11 -21q-4 -7 -11 -4l-5 2q-11 5 -28 5q-37 0 -62.5 -26.5t-32.5 -70.5l-15 -98h242l14 90q10 64 47 99.5t93 35.5h199q8 0 8 -9z" />
    <glyph glyph-name="f_f_t.liga" unicode="fft" horiz-adv-x="889" 
d="M752 436l-53 -333q-12 -72 47 -72q16 0 28 4q8 2 10 -6l6 -22q1 -7 -5 -10q-21 -7 -42 -7q-49 0 -71.5 30t-13.5 84l52 332h-242l-69 -429q-1 -7 -8 -7h-25q-8 0 -8 9l68 427h-242l-69 -429q-1 -7 -8 -7h-25q-8 0 -8 9l68 427h-43q-9 0 -7 9l4 24q1 7 8 7h45l16 100
q11 64 47 100t91 36q21 0 41 -9l8 -4q9 -4 4 -10l-11 -21q-4 -7 -11 -4l-5 2q-11 5 -28 5q-37 0 -62.5 -26.5t-32.5 -70.5l-15 -98h242l16 100q11 64 47 100t91 36q21 0 41 -9l8 -4q9 -4 4 -10l-11 -21q-4 -7 -11 -4l-5 2q-11 5 -28 5q-37 0 -62.5 -26.5t-32.5 -70.5
l-15 -98h242l19 124q2 7 7 8l28 9q4 1 6.5 -0.5t1.5 -6.5l-20 -134h110q9 0 7 -9l-4 -24q-1 -7 -8 -7h-112z" />
    <glyph glyph-name="f_t_i.liga" unicode="fti" horiz-adv-x="834" 
d="M474 476h305q8 0 8 -9l-75 -460q-1 -7 -8 -7h-25q-8 0 -8 9l68 427h-272l-53 -333q-12 -72 47 -72q16 0 28 4q8 2 10 -6l6 -22q1 -7 -5 -10q-21 -7 -42 -7q-49 0 -71.5 30t-13.5 84l52 332h-241l-69 -429q-1 -7 -8 -7h-25q-8 0 -8 9l68 427h-43q-9 0 -7 9l4 24q1 7 8 7
h45l16 100q11 64 47 100t91 36q21 0 41 -9l8 -4q9 -4 4 -10l-11 -21q-4 -7 -11 -4l-5 2q-11 5 -28 5q-37 0 -62.5 -26.5t-32.5 -70.5l-15 -98h241l19 124q2 7 7 8l28 9q4 1 6.5 -0.5t1.5 -6.5zM792 706q29 0 29 -27q0 -38 -35 -38q-30 0 -30 27q0 38 36 38z" />
    <glyph glyph-name="f_t_t.liga" unicode="ftt" horiz-adv-x="914" 
d="M777 436l-53 -333q-12 -72 47 -72q16 0 28 4q8 2 10 -6l6 -22q1 -7 -5 -10q-21 -7 -42 -7q-49 0 -71.5 30t-13.5 84l52 332h-267l-53 -333q-12 -72 47 -72q16 0 28 4q8 2 10 -6l6 -22q1 -7 -5 -10q-21 -7 -42 -7q-49 0 -71.5 30t-13.5 84l52 332h-242l-69 -429
q-1 -7 -8 -7h-25q-8 0 -8 9l68 427h-43q-9 0 -7 9l4 24q1 7 8 7h45l16 100q11 64 47 100t91 36q21 0 41 -9l8 -4q9 -4 4 -10l-11 -21q-4 -7 -11 -4l-5 2q-11 5 -28 5q-37 0 -62.5 -26.5t-32.5 -70.5l-15 -98h242l19 124q2 7 7 8l28 9q4 1 6.5 -0.5t1.5 -6.5l-20 -134h267
l19 124q2 7 7 8l28 9q4 1 6.5 -0.5t1.5 -6.5l-20 -134h110q8 0 7 -9l-4 -24q-1 -7 -8 -7h-112z" />
    <glyph glyph-name="t_t_i.liga" unicode="tti" horiz-adv-x="860" 
d="M819 706q29 0 29 -27q0 -38 -35 -38q-30 0 -30 27q0 38 36 38zM500 476h306q8 0 8 -9l-75 -460q-1 -7 -8 -7h-25q-8 0 -8 9l68 427h-273l-53 -333q-12 -72 47 -72q16 0 28 4q8 2 10 -6l6 -22q1 -7 -5 -10q-21 -7 -42 -7q-49 0 -71.5 30t-13.5 84l52 332h-267l-53 -333
q-12 -72 47 -72q16 0 28 4q8 2 10 -6l6 -22q1 -7 -5 -10q-21 -7 -42 -7q-49 0 -71.5 30t-13.5 84l52 332h-43q-9 0 -7 9l4 24q1 7 8 7h45l19 124q2 7 7 8l28 9q4 1 6.5 -0.5t1.5 -6.5l-20 -134h267l19 124q2 7 7 8l28 9q4 1 6.5 -0.5t1.5 -6.5z" />
    <glyph glyph-name="t_t_j.liga" unicode="ttj" horiz-adv-x="860" 
d="M819 707q29 0 29 -28q0 -39 -35 -39q-30 0 -30 27q0 19 10 29.5t26 10.5zM500 476h306q8 0 8 -9l-88 -544q-11 -81 -71 -117l-38 -25q-7 -3 -11 3l-13 21q-4 7 3 11l37 24q44 27 53 85l80 511h-273l-53 -333q-12 -72 47 -72q16 0 28 4q8 2 10 -6l6 -22q1 -7 -5 -10
q-21 -7 -42 -7q-49 0 -71.5 30t-13.5 84l52 332h-267l-53 -333q-12 -72 47 -72q16 0 28 4q8 2 10 -6l6 -22q1 -7 -5 -10q-21 -7 -42 -7q-49 0 -71.5 30t-13.5 84l52 332h-43q-9 0 -7 9l4 24q1 7 8 7h45l19 124q2 7 7 8l28 9q4 1 6.5 -0.5t1.5 -6.5l-20 -134h267l19 124
q2 7 7 8l28 9q4 1 6.5 -0.5t1.5 -6.5z" />
    <glyph glyph-name="f_b.liga" unicode="fb" horiz-adv-x="861" 
d="M510 692l-33 -203q-10 -63 -17 -89q-3 -8 1 -8.5t7 2.5q69 92 174 92q82 0 126 -49t44 -138q0 -51 -13.5 -102.5t-41.5 -99t-79.5 -77.5t-119.5 -30t-128 28l-59 27q-6 3 -5 10l97 607h-164q-36 0 -61.5 -26.5t-32.5 -71.5l-14 -88h110q9 0 7 -9l-4 -24q-1 -7 -8 -7h-112
l-69 -429q-1 -7 -8 -7h-25q-8 0 -8 9l68 427h-43q-9 0 -7 9l4 24q1 7 8 7h45l14 90q10 64 47 99.5t93 35.5h199q8 0 8 -9zM410 72l42 -19q46 -22 107 -22q56 0 98.5 26.5t65.5 68.5t34.5 86t11.5 86q0 70 -33 108.5t-96 38.5q-82 0 -136 -63.5t-70 -164.5z" />
    <glyph glyph-name="f_f.liga" unicode="ff" horiz-adv-x="602" 
d="M634 701l13 -6q7 -3 4 -10l-13 -22q-4 -6 -11 -3l-10 4q-18 7 -32 7q-37 0 -62.5 -27t-32.5 -71l-15 -97h110q9 0 7 -9l-4 -24q-1 -7 -8 -7h-112l-69 -429q-1 -7 -8 -7h-25q-8 0 -8 9l68 427h-242l-69 -429q-1 -7 -8 -7h-25q-8 0 -8 9l68 427h-43q-9 0 -7 9l4 24q1 7 8 7
h45l16 100q11 64 47 100t91 36q21 0 41 -9l8 -4q9 -4 4 -10l-11 -21q-4 -7 -11 -4l-5 2q-11 5 -28 5q-37 0 -62.5 -26.5t-32.5 -70.5l-15 -98h242l16 100q10 63 47 99.5t92 36.5q22 0 46 -11z" />
    <glyph glyph-name="f_h.liga" unicode="fh" horiz-adv-x="868" 
d="M510 692l-33 -203q-9 -59 -19 -94q-3 -7 3 -8q4 0 8 6q71 93 184 93q81 0 120 -53.5t25 -144.5l-46 -281q-1 -7 -8 -7h-25q-8 0 -8 9l45 281q12 73 -15.5 114t-89.5 41q-94 0 -147.5 -64.5t-69.5 -161.5l-34 -212q-1 -7 -8 -7h-26q-8 0 -8 9l105 653h-164
q-36 0 -61.5 -26.5t-32.5 -71.5l-14 -88h110q9 0 7 -9l-4 -24q-1 -7 -8 -7h-112l-69 -429q-1 -7 -8 -7h-25q-8 0 -8 9l68 427h-43q-9 0 -7 9l4 24q1 7 8 7h45l14 90q10 64 47 99.5t93 35.5h199q8 0 8 -9z" />
    <glyph glyph-name="f_i.liga" unicode="fi" horiz-adv-x="520" 
d="M149 476l16 100q11 64 47 100t91 36q20 0 43 -10l16 -7q8 -3 4 -10l-13 -22q-4 -6 -11 -3l-10 4q-18 7 -31 7q-37 0 -62.5 -26.5t-31.5 -70.5l-16 -98h275q8 0 8 -9l-74 -460q-1 -7 -8 -7h-26q-8 0 -8 9l69 427h-243l-69 -429q-1 -7 -8 -7h-25q-8 0 -8 9l68 427h-43
q-9 0 -7 9l4 24q1 7 8 7h45zM482 704q31 0 25 -32q-3 -27 -30 -27q-32 0 -26 32q3 27 31 27z" />
    <glyph glyph-name="f_j.liga" unicode="fj" horiz-adv-x="520" 
d="M149 476l16 100q11 64 47 100t91 36q22 0 43 -10l16 -7q8 -3 4 -10l-13 -22q-4 -6 -11 -3l-10 4q-18 7 -31 7q-37 0 -62.5 -26.5t-31.5 -70.5l-16 -98h275q8 0 8 -9l-88 -544q-10 -77 -71 -117l-38 -24q-6 -5 -11 2l-10 19q-4 7 2 11l35 26q44 29 53 85l81 511h-243
l-69 -429q-1 -7 -8 -7h-25q-8 0 -8 9l68 427h-43q-9 0 -7 9l4 24q1 7 8 7h45zM482 704q31 0 25 -32q-3 -27 -30 -27q-32 0 -26 32q3 27 31 27z" />
    <glyph glyph-name="f_k.liga" unicode="fk" horiz-adv-x="808" 
d="M780 466l-122 -121q-80 -82 -121 -98q-14 -5 -2 -9q26 -10 47 -33.5t49 -67.5l83 -127q5 -10 -6 -10h-30q-6 0 -9 5l-75 116q-22 33 -35.5 50t-40.5 33.5t-59 16.5h-25l-34 -214q-1 -7 -8 -7h-26q-8 0 -8 9l75 467l30 186h-164q-36 0 -61.5 -26.5t-32.5 -71.5l-14 -88
h110q9 0 7 -9l-4 -24q-1 -7 -8 -7h-112l-69 -429q-1 -7 -8 -7h-25q-8 0 -8 9l68 427h-43q-9 0 -7 9l4 24q1 7 8 7h45l14 90q10 64 47 99.5t93 35.5h199q8 0 8 -9l-38 -226l-31 -206h22q26 0 58 18t51 35.5t51 49.5l108 109q4 4 10 4h35q5 0 6.5 -3t-2.5 -7z" />
    <glyph glyph-name="f_l.liga" unicode="fl" horiz-adv-x="550" 
d="M510 692l-99 -623q-6 -38 20 -38q9 0 12 1q8 2 10 -5l7 -23q1 -7 -5 -10q-11 -4 -26 -4q-35 0 -51 22t-9 59l94 591h-164q-36 0 -61.5 -26.5t-32.5 -71.5l-14 -88h110q9 0 7 -9l-4 -24q-1 -7 -8 -7h-112l-69 -429q-1 -7 -8 -7h-25q-8 0 -8 9l68 427h-43q-9 0 -7 9l4 24
q1 7 8 7h45l14 90q10 64 47 99.5t93 35.5h199q8 0 8 -9z" />
    <glyph glyph-name="f_t.liga" unicode="ft" horiz-adv-x="605" 
d="M468 436l-53 -333q-12 -72 47 -72q16 0 28 4q8 2 10 -6l6 -22q1 -7 -5 -10q-21 -7 -42 -7q-49 0 -71.5 30t-13.5 84l52 332h-242l-69 -429q-1 -7 -8 -7h-25q-8 0 -8 9l68 427h-43q-9 0 -7 9l4 24q1 7 8 7h45l16 100q11 64 47 100t91 36q21 0 41 -9l8 -4q9 -4 4 -10
l-11 -21q-4 -7 -11 -4l-5 2q-11 5 -28 5q-37 0 -62.5 -26.5t-32.5 -70.5l-15 -98h242l19 124q2 7 7 8l28 9q4 1 6.5 -0.5t1.5 -6.5l-20 -134h110q9 0 7 -9l-4 -24q-1 -7 -8 -7h-112z" />
    <glyph glyph-name="t_i.liga" unicode="ti" horiz-adv-x="551" 
d="M509 706q29 0 29 -27q0 -38 -35 -38q-30 0 -30 27q0 38 36 38zM191 476h305q8 0 8 -9l-75 -460q-1 -7 -8 -7h-25q-8 0 -8 9l68 427h-272l-53 -333q-12 -72 47 -72q16 0 28 4q8 2 10 -6l6 -22q1 -7 -5 -10q-21 -7 -42 -7q-49 0 -71.5 30t-13.5 84l52 332h-43q-9 0 -7 9
l4 24q1 7 8 7h45l19 124q2 7 7 8l28 9q4 1 6.5 -0.5t1.5 -6.5z" />
    <glyph glyph-name="t_j.liga" unicode="tj" horiz-adv-x="551" 
d="M509 707q29 0 29 -28q0 -39 -35 -39q-30 0 -30 27q0 19 10 29.5t26 10.5zM191 476h305q8 0 8 -9l-88 -544q-11 -81 -71 -117l-38 -25q-7 -3 -11 3l-13 21q-4 7 3 11l37 24q44 27 53 85l80 511h-272l-53 -333q-12 -72 47 -72q16 0 28 4q8 2 10 -6l6 -22q1 -7 -5 -10
q-21 -7 -42 -7q-49 0 -71.5 30t-13.5 84l52 332h-43q-9 0 -7 9l4 24q1 7 8 7h45l19 124q2 7 7 8l28 9q4 1 6.5 -0.5t1.5 -6.5z" />
    <glyph glyph-name="t_t.liga" unicode="tt" horiz-adv-x="630" 
d="M493 436l-53 -333q-12 -72 47 -72q16 0 28 4q8 2 10 -6l6 -22q1 -7 -5 -10q-21 -7 -42 -7q-49 0 -71.5 30t-13.5 84l52 332h-267l-53 -333q-12 -72 47 -72q16 0 28 4q8 2 10 -6l6 -22q1 -7 -5 -10q-21 -7 -42 -7q-49 0 -71.5 30t-13.5 84l52 332h-43q-9 0 -7 9l4 24
q1 7 8 7h45l19 124q2 7 7 8l28 9q4 1 6.5 -0.5t1.5 -6.5l-20 -134h267l19 124q2 7 7 8l28 9q4 1 6.5 -0.5t1.5 -6.5l-20 -134h110q8 0 7 -9l-4 -24q-1 -7 -8 -7h-112z" />
    <glyph glyph-name="uni04070407.liga" unicode="&#x407;&#x407;" horiz-adv-x="460" 
d="M205 842q26 0 26 -24q0 -16 -9.5 -25.5t-25.5 -9.5q-26 0 -26 24q0 35 35 35zM335 842q26 0 26 -24q0 -16 -9.5 -25.5t-25.5 -9.5q-26 0 -26 24q0 35 35 35zM464 842q26 0 26 -24q0 -16 -9.5 -25.5t-25.5 -9.5q-25 0 -25 24q0 35 34 35zM56 9l107 667q1 7 8 7h27
q8 0 8 -9l-107 -667q-1 -7 -8 -7h-27q-8 0 -8 9zM286 9l107 667q1 7 8 7h27q8 0 8 -9l-107 -667q-1 -7 -8 -7h-27q-8 0 -8 9z" />
    <glyph glyph-name="uni04570457.liga" unicode="&#x457;&#x457;" horiz-adv-x="474" 
d="M191 706q29 0 29 -28q0 -36 -34 -36q-28 0 -28 26q0 38 33 38zM309 706q29 0 29 -28q0 -36 -34 -36q-29 0 -29 27q0 37 34 37zM427 706q29 0 29 -28q0 -36 -34 -36q-29 0 -29 26q0 38 34 38zM151 436h-43q-8 0 -7 9l4 24q1 7 8 7h78q8 0 8 -9l-75 -460q-1 -7 -8 -7h-25
q-8 0 -8 9zM380 436h-43q-9 0 -7 9l4 24q1 7 8 7h78q8 0 8 -9l-75 -460q-1 -7 -8 -7h-25q-8 0 -8 9z" />
    <glyph glyph-name=".notdef" horiz-adv-x="371" 
 />
    <glyph glyph-name=".null" horiz-adv-x="43" 
 />
    <glyph glyph-name="uni000D" unicode="&#xd;" horiz-adv-x="371" 
 />
    <glyph glyph-name="space" unicode=" " horiz-adv-x="219" 
 />
    <glyph glyph-name="exclam" unicode="!" horiz-adv-x="223" 
d="M204 675l-52 -323q-6 -38 -20 -109.5t-18 -95.5q-1 -7 -8 -7h-16q-8 0 -8 9q6 33 14 101.5t14 101.5l52 325q1 7 8 7h26q8 0 8 -9zM86 69q19 0 28.5 -11t5.5 -30q-5 -38 -41 -38q-39 0 -33 42q6 37 40 37z" />
    <glyph glyph-name="quotedbl" unicode="&#x22;" horiz-adv-x="281" 
d="M183 692l-5 -30q-2 -12 -10.5 -44t-11.5 -46q-3 -7 -9 -7h-20q-8 0 -8 8q2 68 6 89l5 32q1 7 8 7h37q9 0 8 -9zM296 692l-5 -30q-2 -12 -10.5 -44t-11.5 -46q-3 -7 -9 -7h-20q-8 0 -8 8q2 68 6 89l5 32q1 7 8 7h37q10 0 8 -9z" />
    <glyph glyph-name="numbersign" unicode="#" horiz-adv-x="718" 
d="M542 492l-42 -300h106q10 0 8 -9l-4 -24q-1 -7 -8 -7h-108l-20 -145q-1 -7 -8 -7h-25q-9 0 -8 9l20 143h-243l-20 -145q-1 -7 -8 -7h-25q-9 0 -8 9l20 143h-104q-9 0 -8 9l4 24q1 7 8 7h106l42 300h-105q-9 0 -7 8l2 24q0 8 8 8h108l20 144q1 7 8 7h25q10 0 8 -9
l-20 -142h243l20 144q1 7 8 7h25q10 0 8 -9l-20 -142h106q9 0 7 -8l-2 -24q-2 -8 -9 -8h-108zM501 492h-243l-42 -300h243z" />
    <glyph glyph-name="dollar" unicode="$" horiz-adv-x="589" 
d="M527 616l-42 15q-47 16 -104 20l-46 -289l62 -25q120 -49 120 -138q0 -75 -62 -138.5t-178 -69.5l-14 -85q-1 -7 -8 -7h-27q-8 0 -8 9l14 82q-82 4 -162 35l-31 13q-9 4 -4 10l12 24q4 7 11 4l29 -13q70 -29 151 -31l49 304l-53 21q-116 45 -116 139q0 75 55 134.5
t171 62.5l13 81q1 7 8 7h26q8 0 8 -9l-13 -80q58 -5 113 -23l44 -13q9 -3 4 -11l-12 -24q-3 -6 -10 -5zM295 377l44 275q-78 -4 -127 -45.5t-49 -106.5q0 -70 91 -106zM329 320l-46 -287q87 7 138.5 55t51.5 104q0 71 -93 107z" />
    <glyph glyph-name="percent" unicode="%" horiz-adv-x="747" 
d="M276 684q67 0 98 -38.5t20 -106.5q-11 -69 -54 -107.5t-109 -38.5t-97 39t-20 107q10 68 53.5 106.5t108.5 38.5zM697 664l-566 -659q-4 -5 -10 -5h-32q-5 0 -6.5 3t1.5 7l566 659q4 5 10 5h32q5 0 6.5 -3t-1.5 -7zM271 645q-48 0 -78.5 -28t-38.5 -78t13.5 -78.5
t68.5 -28.5t78.5 28.5t39.5 78.5t-14.5 78t-68.5 28zM552 280q66 0 96.5 -38t19.5 -106q-11 -69 -54 -107.5t-108 -38.5q-67 0 -98 38.5t-20 107.5q10 68 54 106t110 38zM545 241q-47 0 -78 -27.5t-39 -77.5t14 -78t70 -28q46 0 77 28t39 78q8 49 -14 77t-69 28z" />
    <glyph glyph-name="ampersand" unicode="&#x26;" horiz-adv-x="672" 
d="M453 165l124 -155q7 -10 -5 -10h-36q-6 0 -10 5l-106 131l-86 -74q-46 -41 -85.5 -56.5t-88.5 -15.5q-58 0 -91 30.5t-33 82.5t22 87t77 83l102 89q-52 66 -52 136q0 87 63 141t158 54q56 0 129 -22l31 -11q9 -3 4 -11l-13 -24q-3 -6 -10 -5l-32 11q-63 21 -115 21
q-75 0 -123.5 -41t-48.5 -111q0 -55 46 -112l155 -194l12 10q55 48 75 72.5t26 61.5l5 32h-64q-9 0 -8 9l4 23q1 7 8 7h99q10 0 8 -9l-10 -62q-8 -46 -33 -77.5t-89 -87.5zM396 165l-135 168l-104 -90q-44 -38 -60.5 -66t-16.5 -68q0 -36 23 -56.5t64 -20.5q43 0 75 12.5
t70 47.5z" />
    <glyph glyph-name="quotesingle" unicode="'" horiz-adv-x="167" 
d="M183 692l-5 -30q-2 -12 -10.5 -44t-11.5 -46q-3 -7 -9 -7h-20q-8 0 -8 8q2 68 6 89l5 32q1 7 8 7h37q9 0 8 -9z" />
    <glyph glyph-name="parenleft" unicode="(" horiz-adv-x="326" 
d="M180 -98h-27q-8 0 -9 7q-32 122 -32 244q0 298 164 579q3 5 9 5h27q12 0 5 -10q-163 -288 -163 -572q0 -124 33 -244q1 -9 -7 -9z" />
    <glyph glyph-name="parenright" unicode=")" horiz-adv-x="326" 
d="M172 737h27q8 0 9 -7q32 -122 32 -244q0 -298 -164 -579q-3 -5 -9 -5h-27q-12 0 -5 10q163 288 163 572q0 124 -33 244q-1 9 7 9z" />
    <glyph glyph-name="asterisk" unicode="*" horiz-adv-x="383" 
d="M328 546h-67q-17 0 -39 3q-3 1 -4 -1t1 -5q23 -28 23 -29l43 -77q5 -10 -6 -10h-27q-6 0 -9 6l-35 61q-5 9 -13 33q-3 12 -7 0q-11 -29 -14 -34l-34 -60q-3 -6 -9 -6h-26q-11 0 -6 10l41 73q4 8 23 34q1 2 1 4q-1 3 -9 1q-1 0 -16 -1.5t-25 -1.5h-59q-8 0 -8 8v22
q0 8 8 8h59q7 0 14 -0.5t14.5 -1.5t12.5 -1h9q0 2 -1 4q-14 17 -21 28l-44 78q-5 10 6 10h26q6 0 9 -6l35 -60q8 -14 14 -34q1 -3 2.5 -4t3.5 0t2 4q4 18 12 32l36 62q3 6 9 6h27q11 0 6 -10l-45 -78q-3 -6 -21 -28q-2 -3 -1 -3q0 -1 9 -1q5 0 16 1.5t16 1.5h68q8 0 8 -8
v-22q0 -8 -8 -8z" />
    <glyph glyph-name="plus" unicode="+" horiz-adv-x="636" 
d="M556 274l-4 -24q-1 -7 -8 -7h-206l-36 -225q-1 -7 -8 -7h-25q-8 0 -8 9l36 223h-203q-8 0 -7 9l4 24q1 7 8 7h205l36 225q1 7 8 7h25q8 0 8 -9l-36 -223h204q9 0 7 -9z" />
    <glyph glyph-name="comma" unicode="," horiz-adv-x="208" 
d="M8 -95l44 71q10 13 -2 18q-18 5 -18 31q0 21 12.5 32.5t33.5 11.5q33 0 33 -33q0 -29 -28 -72l-39 -64q-3 -5 -9 -5h-22q-10 0 -5 10z" />
    <glyph glyph-name="hyphen" unicode="-" horiz-adv-x="442" 
d="M99 283h256q9 0 7 -9l-4 -24q-1 -7 -8 -7h-256q-8 0 -7 9l4 24q1 7 8 7z" />
    <glyph glyph-name="period" unicode="." horiz-adv-x="213" 
d="M76 69q19 0 28.5 -11t5.5 -30q-5 -38 -41 -38q-39 0 -33 42q6 37 40 37z" />
    <glyph glyph-name="slash" unicode="/" horiz-adv-x="449" 
d="M467 738h29q12 0 5 -10l-474 -820q-3 -6 -9 -6h-29q-12 0 -5 10l474 820q3 6 9 6z" />
    <glyph glyph-name="zero" unicode="0" horiz-adv-x="625" 
d="M383 693q97 0 149.5 -66.5t52.5 -186.5q0 -70 -17 -144t-51.5 -145t-97.5 -116t-144 -45q-97 0 -149.5 66.5t-52.5 186.5q0 56 10 114.5t34 119.5t58.5 108.5t88.5 77.5t119 30zM381 653q-69 0 -123 -42.5t-83.5 -108t-44 -132.5t-14.5 -128q0 -101 41.5 -156t119.5 -55
q70 0 123.5 41t83 106t44 132t14.5 131q0 102 -41.5 157t-119.5 55z" />
    <glyph glyph-name="one" unicode="1" horiz-adv-x="300" 
d="M271 689l2 -1q5 -5 4 -10l-107 -671q-1 -7 -8 -7h-26q-8 0 -8 9l90 562q6 36 10 47q4 15 -15 6l-83 -42q-8 -5 -11 4l-8 24q-1 7 5 10l144 70q7 3 11 -1z" />
    <glyph glyph-name="two" unicode="2" horiz-adv-x="564" 
d="M154 654l49 15q72 24 152 24q87 0 137 -37t50 -103q0 -52 -29 -96.5t-104 -92.5l-193 -127q-110 -71 -131 -197h361q8 0 7 -9l-4 -24q-1 -7 -8 -7h-396q-8 0 -8 9l5 28q26 154 153 235l194 126q110 71 110 148q0 49 -39.5 78t-106.5 29q-75 0 -142 -21l-49 -16
q-8 -3 -10 6l-4 23q-2 7 6 9z" />
    <glyph glyph-name="three" unicode="3" horiz-adv-x="551" 
d="M151 660l43 12q66 21 144 21q82 0 129.5 -39.5t47.5 -108.5q0 -120 -123 -179q-14 -6 -1 -13q44 -16 66.5 -55t22.5 -89q0 -36 -14 -72.5t-42 -70t-79 -55t-117 -21.5q-71 0 -147 24l-47 15q-9 3 -4 11l12 22q3 6 10 5l44 -15q65 -21 134 -21q90 0 148.5 49t58.5 128
q0 65 -44 98.5t-115 33.5h-32q-8 0 -7 9l4 23q1 7 8 7h31q81 0 135.5 47.5t54.5 114.5q0 52 -36.5 82t-99.5 30q-67 0 -134 -19l-43 -13q-9 -2 -9 6l-5 23q-2 8 6 10z" />
    <glyph glyph-name="four" unicode="4" horiz-adv-x="594" 
d="M529 234l-4 -23q-1 -7 -8 -7h-63l-32 -197q-1 -7 -8 -7h-25q-8 0 -8 9l32 195h-365q-8 0 -7 9l4 26q2 6 5 9q30 28 75 73l297 299q33 35 50 58q4 5 10 5h39q8 0 8 -9l-69 -431h62q8 0 7 -9zM419 243l48 302q3 28 13 64q2 7 -2 8.5t-9 -4.5l-301 -303q-47 -47 -57 -56
q-11 -11 1 -11h307z" />
    <glyph glyph-name="five" unicode="5" horiz-adv-x="586" 
d="M540 674l-11 -24q-3 -6 -10 -6h-310l-29 -177l-8 -44q0 -2 -1 -5t-2 -5q-1 -3 1.5 -4.5t8.5 -0.5l29 4q75 11 110 11q96 0 147 -44.5t51 -126.5q0 -46 -15 -89.5t-46 -83.5t-88 -64.5t-132 -24.5q-73 0 -147 24l-43 15q-9 3 -4 11l11 21q3 6 10 5l43 -14q59 -21 132 -21
q64 0 112.5 20.5t74 54.5t37.5 69.5t12 72.5q0 65 -40.5 99.5t-118.5 34.5q-36 0 -111 -11l-58 -7q-6 -1 -10 3l-7 8q-4 4 -3 10l47 291q1 7 8 7h354q10 0 6 -9z" />
    <glyph glyph-name="six" unicode="6" horiz-adv-x="596" 
d="M228 443l-55 -61q-4 -4 -2.5 -6.5t6.5 -0.5q7 5 8 5q66 37 145 37q98 0 151 -45t53 -127q0 -35 -8 -69t-28 -68.5t-50 -60t-78 -41.5t-107 -16q-101 0 -153.5 44.5t-52.5 128.5q0 80 31.5 150t106.5 154l190 212q4 4 10 4h35q5 0 6.5 -3t-2.5 -7zM324 377
q-61 0 -107 -20.5t-70.5 -53.5t-35.5 -67t-11 -69q0 -66 42 -101t123 -35q62 0 108.5 20t71 52.5t36 66.5t11.5 69q0 66 -43.5 102t-124.5 36z" />
    <glyph glyph-name="seven" unicode="7" horiz-adv-x="565" 
d="M579 677l3 -8q2 -6 -2 -11q-7 -8 -57 -82l-349 -571q-3 -5 -9 -5h-31q-10 0 -5 10l353 577q15 23 34 45q9 12 -6 12h-387q-9 0 -8 9l4 23q1 7 8 7h442q7 0 10 -6z" />
    <glyph glyph-name="eight" unicode="8" horiz-adv-x="607" 
d="M374 693q92 0 142.5 -39.5t50.5 -108.5q0 -57 -32 -106.5t-105 -71.5q-16 -4 -10 -10q1 -2 4 -3q52 -17 81 -57.5t29 -91.5q0 -38 -15 -74.5t-45.5 -69t-84.5 -52t-123 -19.5q-102 0 -158 41.5t-56 116.5q0 61 41 121.5t121 84.5q12 3 11 8q0 3 -6 5q-92 30 -92 121
q0 80 61.5 142.5t185.5 62.5zM371 653q-103 0 -152 -50.5t-49 -113.5q0 -52 40.5 -80.5t113.5 -28.5q101 0 150.5 49t49.5 111q0 53 -40.5 83t-112.5 30zM321 340q-107 0 -166.5 -59.5t-59.5 -126.5q0 -58 45 -90.5t127 -32.5q59 0 104.5 16.5t70.5 43.5t37 56t12 59
q0 62 -48 98t-122 36z" />
    <glyph glyph-name="nine" unicode="9" horiz-adv-x="596" 
d="M195 10l261 291q4 4 2.5 6.5t-6.5 0.5q-7 -5 -8 -5q-66 -37 -145 -37q-98 0 -151 45t-53 127q0 35 8 69t28 68.5t50 60t78 41.5t107 16q101 0 153.5 -44.5t52.5 -128.5q0 -80 -31.5 -150t-106.5 -154l-190 -212q-4 -4 -10 -4h-35q-5 0 -6.5 3t2.5 7zM305 306
q61 0 107 20.5t70.5 53.5t35.5 67t11 69q0 66 -42 101t-123 35q-62 0 -108.5 -20t-71 -52.5t-36 -66.5t-11.5 -69q0 -66 43.5 -102t124.5 -36z" />
    <glyph glyph-name="colon" unicode=":" horiz-adv-x="202" 
d="M143 486q19 0 28.5 -11t5.5 -30q-5 -38 -41 -38q-39 0 -33 42q6 37 40 37zM76 69q19 0 28.5 -11t5.5 -30q-5 -38 -41 -38q-39 0 -33 42q6 37 40 37z" />
    <glyph glyph-name="semicolon" unicode=";" horiz-adv-x="215" 
d="M150 486q19 0 28.5 -11t5.5 -30q-5 -38 -41 -38q-39 0 -33 42q6 37 40 37zM17 -91l44 71q10 13 -2 18q-18 5 -18 31q0 21 12.5 32.5t33.5 11.5q33 0 33 -33q0 -29 -28 -72l-39 -64q-3 -5 -9 -5h-22q-10 0 -5 10z" />
    <glyph glyph-name="less" unicode="&#x3c;" horiz-adv-x="636" 
d="M86 241l4 24q2 7 7 8l484 209q4 1 6.5 -0.5t1.5 -6.5l-4 -30q-2 -7 -7 -8l-439 -186l378 -186q6 -3 5 -10l-4 -26q-2 -8 -10 -5l-417 207q-6 3 -5 10z" />
    <glyph glyph-name="equal" unicode="=" horiz-adv-x="607" 
d="M116 390h422q8 0 7 -9l-4 -24q-1 -7 -8 -7h-422q-9 0 -7 9l4 24q1 7 8 7zM82 176h422q8 0 7 -9l-4 -24q-1 -7 -8 -7h-422q-9 0 -7 9l4 24q1 7 8 7z" />
    <glyph glyph-name="greater" unicode="&#x3e;" horiz-adv-x="636" 
d="M133 481l417 -207q6 -3 5 -10l-4 -24q-2 -7 -7 -8l-484 -209q-4 -1 -6.5 0.5t-1.5 6.5l4 30q2 7 7 8l439 186l-378 186q-6 3 -5 10l4 26q2 8 10 5z" />
    <glyph glyph-name="question" unicode="?" horiz-adv-x="543" 
d="M127 655l52 14q84 24 155 24q88 0 138 -36.5t50 -100.5q0 -55 -31.5 -99t-103.5 -89l-43 -27q-81 -52 -90 -118l-13 -77q-1 -7 -8 -7h-26q-8 0 -8 9l13 75q15 91 113 151l44 26q110 65 110 149q0 47 -41 74.5t-111 27.5q-67 0 -141 -20l-51 -15q-9 -2 -9 6l-5 23
q0 9 6 10zM207 69q19 0 28.5 -11t5.5 -30q-5 -38 -41 -38q-39 0 -33 42q6 37 40 37z" />
    <glyph glyph-name="at" unicode="@" horiz-adv-x="865" 
d="M631 -57l-57 -16q-114 -32 -205 -32q-138 0 -218 77t-80 207q0 53 14 109t46.5 112t78.5 99.5t117.5 71t156.5 27.5q145 0 230 -75t85 -200q0 -49 -11 -87.5t-41 -66t-76 -27.5q-47 0 -70.5 25.5t-42.5 98.5q-15 54 -40 75.5t-68 21.5q-62 0 -99.5 -38t-37.5 -103
q0 -44 28 -68t80 -24q47 0 91 13l18 5q7 1 11 -4q7 -11 17 -18q9 -7 -1 -10l-36 -10q-50 -16 -103 -16q-70 0 -108.5 33.5t-38.5 93.5q0 33 10 64t30.5 59.5t57.5 45.5t85 17q56 0 89 -27t51 -92q18 -62 33 -82t47 -20t51.5 23.5t25.5 51.5t6 61q0 110 -74.5 175t-201.5 65
q-76 0 -139.5 -25t-105 -64t-70.5 -89.5t-41.5 -100t-12.5 -96.5q0 -113 69.5 -180t189.5 -67q83 0 196 30l57 16q8 2 9 -6l4 -24q2 -7 -6 -9z" />
    <glyph glyph-name="A" unicode="A" horiz-adv-x="683" 
d="M510 195h-341l-112 -190q-3 -5 -9 -5h-31q-12 0 -5 10l314 525q46 80 73 142q3 6 10 6h27q7 0 9 -7q7 -58 25 -141l128 -526q2 -9 -7 -9h-27q-8 0 -9 7zM194 235h307l-66 267q-13 56 -17 108q0 3 -2 4.5t-5 0t-4 -4.5q-19 -49 -55 -108z" />
    <glyph glyph-name="B" unicode="B" horiz-adv-x="644" 
d="M171 683h266q81 0 126 -36t45 -101t-36 -115t-103 -72q-6 -2 -8 -4.5t-0.5 -5t7.5 -3.5q53 -13 80.5 -50.5t27.5 -92.5q0 -94 -63 -148.5t-172 -54.5h-277q-8 0 -8 9l107 667q1 7 8 7zM201 644l-44 -273h178q108 0 168.5 45.5t60.5 121.5q0 49 -35 77.5t-98 28.5h-230z
M151 331l-47 -291h243q85 0 135.5 42.5t50.5 116.5q0 64 -51.5 98t-150.5 34h-180z" />
    <glyph glyph-name="C" unicode="C" horiz-adv-x="595" 
d="M491 30l-44 -16q-68 -24 -144 -24q-113 0 -174 69.5t-61 194.5q0 55 11 112.5t37 117t64 105t98.5 75t134.5 29.5q63 0 139 -27l36 -15q8 -3 4 -10l-13 -23q-4 -7 -11 -4l-36 14q-61 24 -123 24q-80 0 -140.5 -40t-93 -103.5t-48 -128.5t-15.5 -127q0 -106 50 -163.5
t145 -57.5q73 1 132 21l43 15q8 3 10 -5l5 -24q1 -7 -6 -9z" />
    <glyph glyph-name="D" unicode="D" horiz-adv-x="657" 
d="M171 683h215q112 0 173.5 -68t61.5 -190q0 -54 -11 -109.5t-37 -113t-64 -102t-97.5 -72.5t-131.5 -28h-216q-8 0 -8 9l107 667q1 7 8 7zM201 644l-97 -604h179q64 0 116 26.5t84.5 67t54.5 93.5t30.5 102.5t8.5 96.5q0 104 -50 161t-145 57h-181z" />
    <glyph glyph-name="E" unicode="E" horiz-adv-x="597" 
d="M158 371h326q8 0 7 -9l-4 -24q-1 -7 -8 -7h-328l-46 -291h397q8 0 7 -9l-4 -24q-1 -7 -8 -7h-433q-8 0 -8 9l108 667q1 7 8 7h427q10 0 6 -9l-11 -24q-3 -6 -10 -6h-383z" />
    <glyph glyph-name="F" unicode="F" horiz-adv-x="582" 
d="M154 351h327q9 0 8 -9l-4 -24q-1 -7 -8 -7h-329l-49 -304q-1 -7 -8 -7h-27q-8 0 -8 9l107 667q1 7 8 7h418q10 0 6 -9l-10 -24q-3 -6 -10 -6h-374z" />
    <glyph glyph-name="G" unicode="G" horiz-adv-x="643" 
d="M380 294l11 24q3 6 10 6h168q8 0 8 -9l-43 -264q-2 -7 -7 -8l-11 -4l-68 -24q-68 -25 -145 -25q-113 0 -174 69.5t-61 194.5q0 55 11 112t37 116.5t64.5 105.5t99 75.5t134.5 29.5q67 0 138 -26l36 -15q9 -4 4 -10l-13 -24q-4 -7 -11 -4l-36 14q-61 24 -123 24
q-65 0 -117 -27t-85 -69.5t-55 -97t-31 -106t-9 -100.5q0 -106 50.5 -163t145.5 -57q68 1 130 22l57 20l33 211h-142q-10 0 -6 9z" />
    <glyph glyph-name="H" unicode="H" horiz-adv-x="684" 
d="M660 674l-107 -667q-1 -7 -8 -7h-27q-8 0 -8 9l52 322h-411l-52 -324q-1 -7 -8 -7h-27q-8 0 -8 9l107 667q1 7 8 7h27q10 0 8 -9l-48 -303h411l48 305q1 7 8 7h27q8 0 8 -9z" />
    <glyph glyph-name="I" unicode="I" horiz-adv-x="230" 
d="M206 674l-107 -667q-1 -7 -8 -7h-27q-8 0 -8 9l107 667q1 7 8 7h27q8 0 8 -9z" />
    <glyph glyph-name="J" unicode="J" horiz-adv-x="412" 
d="M384 674l-80 -502q-14 -84 -63.5 -133t-122.5 -49q-42 0 -72 11l-25 8q-9 3 -4 11l11 23q3 6 10 5l25 -8q25 -8 61 -8q54 0 90.5 36.5t46.5 102.5l81 505q1 7 8 7h26q8 0 8 -9z" />
    <glyph glyph-name="K" unicode="K" horiz-adv-x="617" 
d="M627 673l-164 -177q-42 -46 -94.5 -84.5t-89.5 -53.5q-16 -6 -2 -12q77 -33 147 -150l109 -186q7 -10 -5 -10h-32q-6 0 -9 6l-97 167q-37 67 -91.5 112.5t-122.5 45.5h-25l-52 -324q-1 -7 -8 -7h-27q-8 0 -8 9l108 667q1 7 8 7h27q8 0 8 -9l-49 -303h24q108 0 249 150
l147 158q4 4 10 4h35q5 0 6.5 -3t-2.5 -7z" />
    <glyph glyph-name="L" unicode="L" horiz-adv-x="558" 
d="M105 40h354q9 0 7 -9l-4 -24q-1 -7 -8 -7h-390q-8 0 -8 9l107 667q1 7 8 7h27q8 0 8 -9z" />
    <glyph glyph-name="M" unicode="M" horiz-adv-x="792" 
d="M768 674l-107 -667q-1 -7 -8 -7h-26q-9 0 -8 9l78 492q9 55 21 102q3 12 -4 11q-4 0 -8 -8q-17 -32 -47 -81l-206 -329q-38 -62 -56 -100q-3 -6 -10 -6h-29q-7 0 -8 7q-9 45 -25 101l-102 329q-6 20 -21 79q-2 12 -8 7q-3 -4 -4 -10q-4 -47 -12 -102l-79 -494
q-1 -7 -8 -7h-27q-8 0 -8 9l107 667q1 7 8 7h49q7 0 8 -7q2 -11 19 -83l113 -370q12 -46 15 -65q1 -5 3 -7.5t5 -0.5t5 8q27 51 36 66l230 369q31 48 46 84q3 6 10 6h50q8 0 8 -9z" />
    <glyph glyph-name="N" unicode="N" horiz-adv-x="696" 
d="M672 674l-108 -667q-1 -7 -8 -7h-32q-8 0 -9 7q-17 50 -41 96l-252 449q-17 34 -22 56q-1 3 -4 4t-5.5 -1.5t-2.5 -6.5q1 -19 -5 -73l-84 -524q-1 -7 -8 -7h-27q-8 0 -8 9l107 667q1 7 8 7h33q8 0 9 -7q16 -49 42 -94l250 -450q17 -30 23 -56q1 -4 4 -4.5t5.5 2t2.5 6.5
q-1 19 5 73l85 523q1 7 8 7h26q8 0 8 -9z" />
    <glyph glyph-name="O" unicode="O" horiz-adv-x="683" 
d="M412 693q112 0 173.5 -69.5t61.5 -194.5q0 -55 -11 -112.5t-37 -116.5t-64.5 -105.5t-98.5 -75.5t-133 -29q-113 0 -174 69.5t-61 194.5q0 55 11 112t37 116.5t64 105.5t98.5 75.5t133.5 29.5zM409 652q-65 0 -117 -27t-85 -69.5t-55 -97t-31 -106t-9 -100.5
q0 -106 50 -163t144 -57q65 0 117.5 27t85 69t54.5 96.5t31 105.5t9 99q0 106 -50 164.5t-144 58.5z" />
    <glyph glyph-name="P" unicode="P" horiz-adv-x="613" 
d="M171 683h235q104 0 154.5 -53t36.5 -147q-15 -102 -102 -155t-232 -53h-121l-43 -268q-1 -7 -8 -7h-27q-8 0 -8 9l107 667q1 7 8 7zM201 644l-53 -329h119q124 0 199 44t88 127q11 74 -29 116t-123 42h-201z" />
    <glyph glyph-name="Q" unicode="Q" horiz-adv-x="685" 
d="M579 -154l-21 -14q-7 -3 -11 3l-33 53q-60 102 -210 102q-110 0 -172.5 69.5t-62.5 194.5q0 111 37 208.5t117 164t189 66.5q112 0 173.5 -69.5t61.5 -194.5q0 -150 -62.5 -261.5t-146.5 -146.5q-7 -2 -9.5 -5t-1 -5.5t7.5 -3.5q30 -8 61 -33.5t53 -62.5l32 -54
q4 -7 -2 -11zM113 252q0 -108 50 -164t144 -56q134 0 215.5 114t81.5 283q0 106 -50 164.5t-144 58.5q-73 0 -131.5 -35.5t-93.5 -94t-53.5 -128t-18.5 -142.5z" />
    <glyph glyph-name="R" unicode="R" horiz-adv-x="650" 
d="M171 683h260q85 0 130 -38.5t45 -110.5q0 -155 -183 -211q-8 -2 -11 -5.5t-1.5 -6.5t6.5 -5q63 -32 87 -125l47 -172q1 -9 -7 -9h-27q-8 0 -9 7l-43 161q-36 136 -182 136h-136l-48 -297q-1 -7 -8 -7h-27q-8 0 -8 9l107 667q1 7 8 7zM153 344h141q136 0 202 52.5
t66 132.5q0 55 -34.5 85t-100.5 30h-226z" />
    <glyph glyph-name="S" unicode="S" horiz-adv-x="589" 
d="M380 299l-144 58q-116 45 -116 139q0 35 12.5 67.5t38.5 62.5t73.5 48.5t110.5 18.5q70 0 146 -24l44 -13q9 -3 4 -11l-12 -24q-3 -6 -10 -5l-42 15q-63 21 -133 21q-83 0 -136 -42t-53 -110q0 -70 91 -106l143 -57q120 -49 120 -138q0 -36 -16 -71.5t-46.5 -67t-83 -51
t-118.5 -19.5q-94 0 -181 35l-31 13q-9 4 -4 10l12 24q4 7 11 4l29 -13q77 -31 167 -31q99 0 158 49.5t59 110.5q0 71 -93 107z" />
    <glyph glyph-name="T" unicode="T" horiz-adv-x="618" 
d="M643 674l-4 -23q-1 -7 -8 -7h-236l-101 -637q-1 -7 -8 -7h-27q-8 0 -8 9l101 635h-234q-8 0 -7 9l4 23q1 7 8 7h513q8 0 7 -9z" />
    <glyph glyph-name="U" unicode="U" horiz-adv-x="663" 
d="M650 674l-66 -410q-21 -129 -98 -201.5t-194 -72.5t-171 73t-33 202l66 411q1 7 8 7h27q8 0 8 -9l-67 -410q-17 -110 27 -171t142 -61t161.5 61t80.5 172l66 411q1 7 8 7h27q8 0 8 -9z" />
    <glyph glyph-name="V" unicode="V" horiz-adv-x="666" 
d="M692 673l-304 -521q-39 -69 -70 -146q-2 -6 -9 -6h-26q-7 0 -9 8q-5 78 -22 144l-139 522q-1 9 7 9h27q8 0 9 -7l133 -497q13 -53 13 -99q0 -3 2 -4.5t5 0t4 4.5q14 47 45 100l290 498q3 5 9 5h30q12 0 5 -10z" />
    <glyph glyph-name="W" unicode="W" horiz-adv-x="959" 
d="M977 674l-244 -527q-41 -89 -58 -140q-1 -7 -9 -7h-29q-8 0 -8 8q-4 91 -15 147l-68 389q-4 26 -4 51q0 4 -1.5 6t-4 0t-4.5 -6q-2 -6 -6 -15t-9 -20t-7 -16l-195 -399q-35 -70 -59 -139q-2 -6 -9 -6h-28q-8 0 -8 8q-3 71 -13 139l-77 527q-1 9 8 9h26q7 0 8 -7l73 -494
q5 -37 5 -93q0 -6 3.5 -6t5.5 6q11 38 38 93l242 495q3 6 10 6h18q7 0 8 -7l86 -494q7 -42 7 -94q0 -7 6 -5q3 1 4 6q20 61 35 93l229 495q3 6 10 6h28q10 0 6 -9z" />
    <glyph glyph-name="X" unicode="X" horiz-adv-x="646" 
d="M646 673l-244 -293q-17 -22 -28 -28q-9 -6 -2 -11q4 -4 18 -28l154 -304q5 -9 -6 -9h-30q-6 0 -9 6l-153 304q-2 5 -7.5 5t-9.5 -5l-252 -305q-4 -5 -10 -5h-33q-5 0 -6.5 3t1.5 7l251 303q12 16 25 25q6 4 7 6q3 4 -1 8q-7 7 -18 28l-150 294q-5 9 6 9h29q6 0 9 -6
l150 -293q7 -14 17 0l243 294q4 5 10 5h34q5 0 6.5 -3t-1.5 -7z" />
    <glyph glyph-name="Y" unicode="Y" horiz-adv-x="642" 
d="M667 673l-226 -274q-51 -61 -73.5 -100t-31.5 -94l-31 -198q-1 -7 -8 -7h-27q-10 0 -8 9l31 196q9 56 -0.5 95.5t-38.5 98.5l-138 275q-5 9 6 9h29q7 0 10 -6l126 -251q30 -62 41 -104q4 -13 11 0q38 64 72 104l207 252q4 5 10 5h34q12 0 5 -10z" />
    <glyph glyph-name="Z" unicode="Z" horiz-adv-x="600" 
d="M605 677l3 -8q2 -6 -3 -11q-25 -25 -71 -81l-392 -481q-6 -7 -19.5 -21.5t-20.5 -22.5q-7 -7 -6 -11.5t9 -3.5q35 3 62 3h329q10 0 6 -9l-11 -25q-3 -6 -10 -6h-442q-8 0 -9 7l-3 8q-2 6 3 11q17 17 75 89l386 473q10 13 41 44q7 7 6 11.5t-9 3.5q-36 -3 -61 -3h-314
q-8 0 -7 9l4 23q1 7 8 7h436q7 0 10 -6z" />
    <glyph glyph-name="bracketleft" unicode="[" horiz-adv-x="317" 
d="M108 -59h77q9 0 7 -9l-4 -23q-1 -7 -8 -7h-111q-8 0 -8 9l133 819q1 7 8 7h111q9 0 7 -9l-4 -23q-1 -7 -8 -7h-80z" />
    <glyph glyph-name="backslash" unicode="\" horiz-adv-x="444" 
d="M145 731l213 -820q2 -9 -7 -9h-26q-8 0 -9 7l-213 820q-1 9 7 9h26q8 0 9 -7z" />
    <glyph glyph-name="bracketright" unicode="]" horiz-adv-x="317" 
d="M235 698h-77q-8 0 -7 9l4 23q1 7 8 7h111q8 0 8 -9l-133 -819q-1 -7 -8 -7h-111q-8 0 -7 9l4 23q1 7 8 7h80z" />
    <glyph glyph-name="asciicircum" unicode="^" horiz-adv-x="472" 
d="M414 344h-27q-8 0 -9 7l-79 274l-167 -276q-3 -5 -9 -5h-29q-10 0 -5 10l194 316q3 5 9 5h26q8 0 9 -7l93 -315q3 -9 -6 -9z" />
    <glyph glyph-name="underscore" unicode="_" horiz-adv-x="475" 
d="M419 -179l-4 -24q-1 -7 -8 -7h-480q-9 0 -7 9l4 24q1 7 8 7h480q8 0 7 -9z" />
    <glyph glyph-name="grave" unicode="`" horiz-adv-x="236" 
d="M174 696l64 -104q5 -10 -5 -10h-26q-6 0 -9 5l-70 104q-7 10 5 10h32q6 0 9 -5z" />
    <glyph glyph-name="a" unicode="a" horiz-adv-x="545" 
d="M391 9l19 108q2 10 -3 9q-3 -1 -8 -8q-39 -60 -82.5 -94t-106.5 -34q-76 0 -118 47t-42 131q0 51 15 104t44.5 102t82.5 80.5t121 31.5q60 0 111 -20l66 -24q7 -3 6 -10l-67 -425q-1 -7 -8 -7h-22q-8 0 -8 9zM453 414l-42 15q-46 16 -99 16q-56 0 -100.5 -27.5t-69.5 -71
t-37.5 -88.5t-12.5 -87q0 -66 32 -103t89 -37q80 0 144 91.5t85 223.5z" />
    <glyph glyph-name="b" unicode="b" horiz-adv-x="549" 
d="M198 692l-33 -203q-10 -63 -17 -89q-3 -8 1 -8.5t7 2.5q69 92 174 92q82 0 126 -49t44 -138q0 -51 -13.5 -102.5t-41.5 -99t-79.5 -77.5t-119.5 -30t-128 28l-59 27q-6 3 -5 10l102 639q1 7 8 7h26q8 0 8 -9zM98 72l42 -19q46 -22 107 -22q56 0 98.5 26.5t65.5 68.5
t34.5 86t11.5 86q0 70 -33 108.5t-96 38.5q-82 0 -136 -63.5t-70 -164.5z" />
    <glyph glyph-name="c" unicode="c" horiz-adv-x="466" 
d="M369 15l-27 -8q-58 -17 -104 -17q-92 0 -140 50t-48 140q0 41 8 81.5t27.5 81.5t48.5 72.5t75.5 51t103.5 19.5q43 0 94 -16l22 -7q8 -3 5 -11l-10 -22q-3 -6 -10 -5l-22 8q-41 12 -80 12q-50 0 -89.5 -18t-63 -45.5t-39.5 -64t-22 -70t-6 -66.5q0 -72 37 -111t109 -39
q44 0 96 15l27 8q9 2 9 -6l5 -24q2 -7 -6 -9z" />
    <glyph glyph-name="d" unicode="d" horiz-adv-x="549" 
d="M539 692l-110 -685q-1 -7 -8 -7h-22q-9 0 -8 9l11 67q1 6 -0.5 7.5t-4 0t-6.5 -5.5q-76 -88 -172 -88q-81 0 -125 49.5t-44 138.5q0 40 8 80.5t27 82t47 73.5t72 52t99 20q69 0 124 -28l30 -15l40 251q1 7 8 7h26q8 0 8 -9zM451 403l-35 17q-48 25 -113 25
q-46 0 -83.5 -18t-60.5 -46t-38.5 -63.5t-22 -69.5t-6.5 -67q0 -71 33.5 -110.5t96.5 -39.5q82 0 135.5 63t69.5 163z" />
    <glyph glyph-name="e" unicode="e" horiz-adv-x="496" 
d="M302 221l-211 -34q-1 -75 35.5 -115.5t105.5 -40.5q51 0 102 13l28 8q8 2 9 -7l3 -22q2 -8 -6 -10l-26 -6q-64 -17 -112 -17q-86 0 -133 51t-47 141q0 49 14 99.5t42.5 98t79.5 77t117 29.5q75 0 116.5 -32t41.5 -88t-40.5 -94t-118.5 -51zM95 226l201 33q65 11 94 39.5
t29 62.5q0 40 -31 62t-87 22q-82 0 -136 -56.5t-70 -162.5z" />
    <glyph glyph-name="f" unicode="f" horiz-adv-x="317" 
d="M149 476l16 100q10 63 47 99.5t92 36.5q22 0 46 -11l13 -6q8 -3 4 -10l-13 -22q-4 -6 -11 -3l-10 4q-17 7 -32 7q-37 0 -62.5 -27t-32.5 -71l-15 -97h110q9 0 7 -9l-4 -24q-1 -7 -8 -7h-112l-69 -429q-1 -7 -8 -7h-25q-8 0 -8 9l68 427h-43q-9 0 -7 9l4 24q1 7 8 7h45z
" />
    <glyph glyph-name="g" unicode="g" horiz-adv-x="546" 
d="M50 -153l36 -11q49 -14 101 -14q165 0 197 154q4 25 8.5 49t8 39.5t3.5 18.5q1 7 -3 7t-9 -7q-73 -93 -175 -93q-92 0 -135.5 66.5t-26.5 180.5q17 116 83.5 182.5t169.5 66.5q64 0 122 -28l61 -29q6 -3 5 -10l-71 -445q-14 -92 -75 -142.5t-163 -50.5q-61 0 -117 16
l-39 12q-7 3 -4 11l13 23q3 5 10 4zM450 400l-40 23q-41 22 -106 22q-84 -1 -138 -56t-69 -154q-15 -93 17.5 -148.5t106.5 -55.5q82 0 136.5 63.5t69.5 163.5z" />
    <glyph glyph-name="h" unicode="h" horiz-adv-x="556" 
d="M198 692l-33 -203q-9 -59 -19 -94q-3 -7 3 -8q4 0 8 6q71 93 184 93q81 0 120 -53.5t25 -144.5l-46 -281q-1 -7 -8 -7h-25q-8 0 -8 9l45 281q12 73 -15.5 114t-89.5 41q-94 0 -147.5 -64.5t-69.5 -161.5l-34 -212q-1 -7 -8 -7h-26q-8 0 -8 9l110 685q1 7 8 7h26q8 0 8 -9
z" />
    <glyph glyph-name="i" unicode="i" horiz-adv-x="236" 
d="M195 706q29 0 29 -27q0 -38 -35 -38q-30 0 -30 27q0 38 36 38zM190 467l-75 -460q-1 -7 -8 -7h-25q-8 0 -8 9l68 427h-43q-9 0 -7 9l4 24q1 7 8 7h78q8 0 8 -9z" />
    <glyph glyph-name="j" unicode="j" horiz-adv-x="236" 
d="M195 707q29 0 29 -28q0 -39 -35 -39q-30 0 -30 27q0 19 10 29.5t26 10.5zM190 467l-88 -544q-11 -81 -71 -117l-38 -25q-7 -3 -11 3l-13 21q-4 7 3 11l37 24q44 27 53 85l80 511h-43q-9 0 -7 9l4 24q1 7 8 7h78q8 0 8 -9z" />
    <glyph glyph-name="k" unicode="k" horiz-adv-x="496" 
d="M468 466l-122 -121q-80 -82 -121 -98q-14 -5 -2 -9q26 -10 47 -33.5t49 -67.5l83 -127q5 -10 -6 -10h-30q-6 0 -9 5l-75 116q-22 33 -35.5 50t-40.5 33.5t-59 16.5h-25l-34 -214q-1 -7 -8 -7h-26q-8 0 -8 9l75 467l35 218q1 7 8 7h26q8 0 8 -9l-38 -226l-31 -206h22
q26 0 58 18t51 35.5t51 49.5l108 109q4 4 10 4h35q5 0 6.5 -3t-2.5 -7z" />
    <glyph glyph-name="l" unicode="l" horiz-adv-x="238" 
d="M198 692l-99 -623q-6 -38 20 -38q9 0 12 1q8 2 10 -5l7 -23q1 -7 -5 -10q-11 -4 -26 -4q-35 0 -51 22t-9 59l99 623q1 7 8 7h26q8 0 8 -9z" />
    <glyph glyph-name="m" unicode="m" horiz-adv-x="862" 
d="M158 467l-12 -69q0 -4 1.5 -5.5t4.5 0t6 5.5q71 88 174 88q55 0 86.5 -29t40.5 -75q5 -13 17 3q72 101 187 101q74 0 108.5 -53.5t20.5 -144.5l-45 -281q-1 -7 -8 -7h-26q-8 0 -8 9l45 281q12 74 -11.5 114.5t-78.5 40.5q-87 0 -139.5 -61.5t-68.5 -164.5l-35 -212
q-1 -7 -8 -7h-25q-8 0 -8 9l45 281q11 74 -13 114.5t-79 40.5q-86 0 -138 -61.5t-69 -164.5l-34 -212q-1 -7 -8 -7h-26q-8 0 -8 9l74 460q1 7 8 7h22q8 0 8 -9z" />
    <glyph glyph-name="n" unicode="n" 
d="M158 467l-11 -67q0 -6 3.5 -7t7.5 5q71 88 183 88q81 0 119.5 -53.5t24.5 -144.5l-46 -281q-1 -7 -8 -7h-25q-8 0 -8 9l45 281q12 73 -15.5 114t-89.5 41q-85 0 -141.5 -59t-74.5 -167l-34 -212q-1 -7 -8 -7h-26q-8 0 -8 9l74 460q1 7 8 7h22q10 0 8 -9z" />
    <glyph glyph-name="o" unicode="o" horiz-adv-x="533" 
d="M304 486q85 0 132.5 -50.5t47.5 -140.5q0 -49 -14.5 -100t-43 -98t-79.5 -77t-117 -30q-85 0 -132.5 51t-47.5 141q0 39 8.5 79t28 81t47.5 72.5t72.5 51.5t97.5 20zM302 445q-56 0 -99 -26t-66 -67.5t-34 -84.5t-11 -85q0 -72 36 -111.5t103 -39.5q56 0 99 26.5t66 68
t34 84.5t11 85q0 72 -36 111t-103 39z" />
    <glyph glyph-name="p" unicode="p" horiz-adv-x="548" 
d="M158 467l-11 -66q-1 -8 2 -8.5t8 5.5q76 88 173 88q81 0 125 -49.5t44 -138.5q0 -51 -13.5 -102t-41.5 -98.5t-79.5 -77.5t-119.5 -30t-124 28l-29 15l-38 -236q-1 -7 -8 -7h-25q-8 0 -8 9l107 670q1 7 8 7h22q8 0 8 -9zM97 73l36 -17q48 -25 113 -25q57 0 100 26.5
t65.5 68t33.5 84.5t11 85q0 71 -33.5 110.5t-95.5 39.5q-82 0 -135.5 -63t-70.5 -163z" />
    <glyph glyph-name="q" unicode="q" horiz-adv-x="546" 
d="M355 -201l29 188q9 56 18 88q1 6 -0.5 8t-4 1.5t-4.5 -2.5q-69 -92 -174 -92q-82 0 -125.5 49t-43.5 138q0 51 13.5 102.5t41.5 99t79.5 77.5t119.5 30t128 -28l58 -28q6 -3 5 -10l-98 -623q-1 -7 -8 -7h-26q-9 0 -8 9zM450 402l-40 20q-48 23 -107 23q-56 0 -99 -26.5
t-66 -68.5t-34.5 -86t-11.5 -86q0 -70 33.5 -108.5t95.5 -38.5q83 0 137 63.5t70 164.5z" />
    <glyph glyph-name="r" unicode="r" horiz-adv-x="362" 
d="M346 477l-4 -25q-1 -7 -8 -7q-82 -3 -140.5 -72.5t-77.5 -189.5l-28 -176q-1 -7 -8 -7h-26q-8 0 -8 9l74 460q1 7 8 7h22q10 0 8 -9l-13 -85q-1 -5 3 -6t8 4q70 102 182 106q10 0 8 -9z" />
    <glyph glyph-name="s" unicode="s" horiz-adv-x="466" 
d="M289 208l-118 36q-87 25 -87 99q0 66 49.5 104.5t135.5 38.5q65 0 113 -15l35 -11q9 -3 4 -11l-11 -23q-3 -6 -10 -5l-33 11q-42 13 -99 13q-65 0 -103.5 -27t-38.5 -72t63 -65l118 -36q88 -27 88 -100q0 -62 -48 -108.5t-151 -46.5q-90 0 -148 25l-19 8q-7 3 -4 10
l12 22q4 7 11 4l18 -7q47 -21 132 -21q79 0 117 33t38 78q0 47 -64 66z" />
    <glyph glyph-name="t" unicode="t" horiz-adv-x="322" 
d="M191 476h110q9 0 7 -9l-4 -24q-1 -7 -8 -7h-112l-53 -333q-12 -72 47 -72q16 0 28 4q8 2 10 -6l6 -22q1 -7 -5 -10q-21 -7 -42 -7q-49 0 -71.5 30t-13.5 84l52 332h-43q-9 0 -7 9l4 24q1 7 8 7h45l19 124q2 7 7 8l28 9q4 1 6.5 -0.5t1.5 -6.5z" />
    <glyph glyph-name="u" unicode="u" 
d="M397 9l11 67q0 6 -3 7t-8 -5q-71 -88 -183 -88q-81 0 -119.5 53.5t-24.5 144.5l46 281q1 7 8 7h25q8 0 8 -9l-45 -281q-12 -73 15.5 -114t89.5 -41q85 0 141.5 59t74.5 167l34 212q1 7 8 7h26q8 0 8 -9l-74 -460q-1 -7 -8 -7h-22q-9 0 -8 9z" />
    <glyph glyph-name="v" unicode="v" horiz-adv-x="527" 
d="M520 466l-196 -315q-32 -50 -75 -145q-3 -6 -10 -6h-27q-7 0 -9 8q-6 63 -28 143l-95 316q-3 9 6 9h27q8 0 9 -7l88 -292q14 -54 20 -98q1 -3 3 -4.5t4.5 0t4.5 4.5q20 45 51 98l183 294q3 5 9 5h30q10 0 5 -10z" />
    <glyph glyph-name="w" unicode="w" horiz-adv-x="748" 
d="M737 467l-154 -319q-52 -109 -65 -142q-3 -6 -10 -6h-26q-7 0 -9 7q-9 70 -21 134l-41 201q-6 26 -6 45q0 6 -2.5 8t-5.5 -0.5t-5 -7.5q-12 -31 -20 -45l-104 -201q-35 -68 -65 -135q-3 -6 -10 -6h-29q-7 0 -9 8q-4 58 -18 140l-54 319q0 9 8 9h27q7 0 8 -7l48 -292
q9 -71 11 -98q1 -6 5 -6t6 6q20 45 48 99l150 292q3 6 9 6h15q7 0 8 -7l59 -291q4 -22 14 -99q1 -6 6 -6t6 6q9 27 43 98l140 293q3 6 10 6h28q10 0 5 -9z" />
    <glyph glyph-name="x" unicode="x" horiz-adv-x="509" 
d="M486 466l-176 -202q-11 -11 -23 -19q-5 -4 0 -8q3 -2 13 -19l116 -208q5 -10 -6 -10h-29q-6 0 -9 6l-114 203q-4 9 -12 0l-180 -205q-4 -4 -10 -4h-32q-5 0 -6.5 3t2.5 7l182 208q12 14 20 19q7 4 2 8q-5 5 -12 19l-114 202q-5 10 6 10h30q6 0 9 -6l111 -197q5 -9 12 0
l174 199q4 4 10 4h32q5 0 6.5 -3t-2.5 -7z" />
    <glyph glyph-name="y" unicode="y" horiz-adv-x="535" 
d="M527 466l-415 -671q-3 -5 -9 -5h-28q-10 0 -5 10l105 171q35 59 12 141l-107 355q-3 9 6 9h27q8 0 9 -7l90 -300q17 -53 19 -92q1 -10 5 -10.5t10 10.5q21 42 51 92l186 302q3 5 9 5h30q10 0 5 -10z" />
    <glyph glyph-name="z" unicode="z" horiz-adv-x="464" 
d="M446 470l2 -4q1 -5 -3 -11q-25 -24 -48 -51l-274 -326q-16 -18 -29 -30q-5 -5 -4 -8t7 -2q34 2 44 2h226q11 0 6 -9l-12 -25q-3 -6 -10 -6h-323q-7 0 -10 6l-1 4q-3 5 2 11q20 18 54 58l269 319q20 23 29 30q5 4 4 7.5t-6 2.5q-36 -2 -45 -2h-221q-9 0 -7 9l4 24q1 7 8 7
h329q7 0 9 -6z" />
    <glyph glyph-name="braceleft" unicode="{" horiz-adv-x="329" 
d="M334 736l-4 -23q-1 -7 -8 -7q-37 -2 -61.5 -21.5t-29.5 -52.5l-37 -235q-9 -52 -38 -69q-13 -9 -13 -11t6 -5q28 -15 20 -72l-37 -233q-12 -68 65 -73q10 0 8 -8l-4 -24q-1 -7 -9 -7q-55 2 -82 32t-18 82l37 233q4 28 -7.5 43t-33.5 15h-4q-8 0 -7 9l4 24q1 7 8 7h3
q22 0 40 16.5t22 43.5l36 235q8 50 44 79t92 31q8 0 8 -9z" />
    <glyph glyph-name="bar" unicode="|" horiz-adv-x="267" 
d="M233 729l-149 -932q-1 -7 -8 -7h-26q-8 0 -8 9l149 932q1 7 8 7h26q8 0 8 -9z" />
    <glyph glyph-name="braceright" unicode="}" horiz-adv-x="329" 
d="M21 -96l4 23q1 7 8 7q37 2 61.5 21.5t29.5 52.5l37 235q9 52 38 69q13 9 13 11t-6 5q-28 15 -20 72l37 233q12 68 -65 73q-10 0 -8 8l4 24q1 7 9 7q55 -2 82 -32t18 -82l-37 -233q-4 -28 7.5 -43t33.5 -15h4q9 0 7 -9l-4 -24q-1 -7 -8 -7h-3q-22 0 -40 -16.5t-22 -43.5
l-36 -235q-8 -50 -44 -79t-92 -31q-8 0 -8 9z" />
    <glyph glyph-name="asciitilde" unicode="~" horiz-adv-x="502" 
d="M72 295l34 44q39 52 97 52q34 0 62 -25l33 -28q21 -16 40 -16q32 0 56 32l24 30q4 5 10 5h31q12 0 4 -10l-35 -45q-39 -51 -95 -51q-35 0 -63 24l-33 29q-19 15 -41 15q-32 0 -56 -31l-23 -30q-4 -5 -10 -5h-31q-12 0 -4 10z" />
    <glyph glyph-name="exclamdown" unicode="&#xa1;" horiz-adv-x="225" 
d="M136 405q-19 0 -28.5 11t-5.5 30q5 38 41 38q39 0 33 -42q-6 -37 -40 -37zM18 -201l52 323q6 38 20 109.5t18 95.5q1 7 8 7h16q8 0 8 -9q-6 -33 -14 -101.5t-14 -101.5l-52 -325q-1 -7 -8 -7h-26q-8 0 -8 9z" />
    <glyph glyph-name="cent" unicode="&#xa2;" horiz-adv-x="466" 
d="M436 678l22 -7q8 -3 5 -11l-10 -22q-3 -6 -10 -5l-22 8q-41 12 -80 12l-67 -414q41 2 89 15l27 8q9 2 9 -6l5 -24q2 -7 -6 -9l-27 -8q-58 -17 -103 -17l-13 -80q-1 -7 -8 -7h-26q-8 0 -8 9l14 81q-73 10 -110.5 59t-37.5 128q0 48 12 96t37 93t71 76.5t107 38.5l13 81
q1 7 8 7h25q8 0 8 -9l-13 -77q40 -1 89 -16zM233 242l66 408q-49 -9 -86 -37.5t-56 -68t-27.5 -78.5t-8.5 -77q0 -130 112 -147z" />
    <glyph glyph-name="sterling" unicode="&#xa3;" horiz-adv-x="561" 
d="M493 632l-26 8q-38 11 -76 11q-70 0 -116.5 -40t-56.5 -110l-25 -154h183q8 0 7 -9l-4 -24q-1 -7 -8 -7h-185l-14 -89q-12 -88 -74 -168q-4 -4 -5 -7.5t1.5 -5t6.5 -0.5q23 3 58 3h313q8 0 7 -9l-4 -24q-1 -7 -8 -7h-425q-8 0 -9 7l-3 8q-2 7 2 11l26 36q60 82 72 157
l14 88h-90q-8 0 -7 9l4 24q1 7 8 7h91l25 157q14 89 72 139t146 50q39 0 89 -14l26 -8q8 -3 5 -11l-10 -23q-3 -6 -10 -5z" />
    <glyph glyph-name="currency" unicode="&#xa4;" horiz-adv-x="582" 
d="M176 528l66 -77q51 35 103 35q50 0 89 -31l88 76q7 5 11 -1l16 -18q5 -7 -1 -11l-89 -77q27 -41 18 -95t-51 -98l64 -76q5 -7 -1 -11l-19 -16q-7 -5 -11 1l-63 76q-47 -33 -102 -33q-56 0 -90 32l-91 -78q-7 -5 -11 1l-16 18q-5 7 1 11l91 78q-24 39 -15 95q9 53 48 97
l-65 76q-5 7 1 11l18 16q7 5 11 -1zM338 445q-49 0 -87.5 -33.5t-46.5 -82.5t20 -83t77 -34t88 34t47 83t-20.5 82.5t-77.5 33.5z" />
    <glyph glyph-name="yen" unicode="&#xa5;" horiz-adv-x="652" 
d="M672 673l-226 -274q-45 -53 -63 -83h136q9 0 7 -9l-4 -23q-1 -7 -8 -7h-152q-15 -31 -21 -72v-3h159q10 0 8 -9l-4 -23q-1 -7 -8 -7h-162l-24 -156q-1 -7 -8 -7h-27q-9 0 -8 9l24 154h-159q-8 0 -7 9l4 23q1 7 8 7h161v3q6 41 3 72h-151q-8 0 -7 9l4 23q1 7 8 7h139
q-9 29 -35 83l-138 275q-5 9 6 9h29q7 0 10 -6l126 -251q30 -62 41 -104q4 -13 11 0q38 64 72 104l207 252q4 5 10 5h34q12 0 5 -10z" />
    <glyph glyph-name="brokenbar" unicode="&#xa6;" horiz-adv-x="267" 
d="M233 729l-56 -353q-1 -7 -8 -7h-26q-9 0 -8 9l56 353q1 7 8 7h26q9 0 8 -9zM142 152l-58 -355q-1 -7 -8 -7h-26q-8 0 -8 9l57 355q1 7 8 7h27q8 0 8 -9z" />
    <glyph glyph-name="section" unicode="&#xa7;" horiz-adv-x="587" 
d="M262 432l146 -58q115 -44 115 -144q0 -57 -24 -94.5t-78 -65.5q-3 -1 -9 -4q-11 -4 -2 -11q30 -20 46.5 -41.5t16.5 -57.5q0 -32 -13.5 -61.5t-42 -56t-81 -42.5t-122.5 -16q-90 0 -181 35l-30 13q-9 4 -4 10l12 23q3 7 10 4l29 -12q72 -32 165 -32q109 0 162 39t53 92
q0 59 -93 97l-148 59q-114 46 -114 138q0 109 107 167q14 6 7 13q-19 14 -29.5 23.5t-21.5 30t-11 46.5q0 67 56.5 117t172.5 50q74 0 146 -24l45 -14q9 -3 4 -11l-12 -23q-3 -6 -10 -5l-42 15q-62 22 -130 22q-86 0 -136.5 -33t-50.5 -90q0 -61 92 -98zM389 338l-109 43
q-18 5 -34 5q-58 0 -93 -44t-35 -90q0 -72 93 -108l105 -42q17 -7 36 -7q58 0 93.5 41.5t35.5 87.5q0 38 -26 68t-66 46z" />
    <glyph glyph-name="dieresis" unicode="&#xa8;" horiz-adv-x="291" 
d="M147 707q29 0 29 -28q0 -36 -34 -36q-29 0 -29 27q0 37 34 37zM288 707q29 0 29 -28q0 -36 -34 -36q-29 0 -29 27q0 37 34 37z" />
    <glyph glyph-name="copyright" unicode="&#xa9;" horiz-adv-x="789" 
d="M394 693q154 0 248.5 -97t94.5 -254q0 -158 -94.5 -255t-248.5 -97t-248.5 97t-94.5 255q0 157 94.5 254t248.5 97zM394 655q-137 0 -220.5 -86t-83.5 -227t83.5 -227.5t220.5 -86.5t220.5 86.5t83.5 227.5t-83.5 227t-220.5 86zM500 168l-22 -7q-41 -13 -83 -13
q-78 0 -123 52.5t-45 142.5q0 89 45 141.5t123 52.5q43 0 84 -14l21 -7q8 -3 5 -11l-7 -20q-3 -8 -11 -5l-20 7q-39 12 -72 12q-60 0 -95 -41.5t-35 -114.5q0 -75 35 -116.5t95 -41.5q38 0 71 12l21 7q8 3 11 -5l7 -21q3 -8 -5 -10z" />
    <glyph glyph-name="ordfeminine" unicode="&#xaa;" horiz-adv-x="395" 
d="M147 666l29 9q42 11 85 11q69 0 101.5 -40.5t21.5 -110.5l-35 -219q-1 -7 -8 -7h-17q-8 0 -8 9l6 34q0 18 -13 3q-49 -54 -137 -54q-56 0 -83 31t-19 82q8 50 47 79.5t104 29.5h122l2 11q8 53 -15.5 83t-75.5 30q-40 0 -73 -10l-27 -8q-8 -1 -9 6l-4 22q-2 7 6 9z
M338 485h-123q-94 0 -105 -70q-5 -35 13 -55t58 -20q133 0 155 135zM37 172l3 23q2 7 9 7h275q10 0 8 -9l-4 -22q-1 -7 -8 -7h-275q-10 0 -8 8z" />
    <glyph glyph-name="guillemotleft" unicode="&#xab;" horiz-adv-x="505" 
d="M130 238l110 -164q5 -10 -6 -10h-31q-6 0 -9 5l-106 155q-3 4 -3 9v8q0 6 4 10l154 157q4 4 10 4h34q5 0 6.5 -3t-2.5 -7zM277 238l110 -164q5 -10 -6 -10h-31q-6 0 -9 5l-106 155q-3 4 -3 9v8q0 6 4 10l154 157q4 4 10 4h34q5 0 6.5 -3t-2.5 -7z" />
    <glyph glyph-name="registered" unicode="&#xae;" horiz-adv-x="789" 
d="M394 693q154 0 248.5 -97t94.5 -254q0 -158 -94.5 -255t-248.5 -97t-248.5 97t-94.5 255q0 157 94.5 254t248.5 97zM394 655q-137 0 -220.5 -86t-83.5 -227t83.5 -227.5t220.5 -86.5t220.5 86.5t83.5 227.5t-83.5 227t-220.5 86zM281 522h139q53 0 84 -27t31 -74
q0 -68 -78 -95q-2 0 -5 -1t-5 -1q-3 -2 4 -6q40 -21 54 -61l39 -85q4 -9 -6 -9h-20q-7 0 -10 6l-33 78q-29 62 -105 62h-59v-138q0 -8 -8 -8h-22q-8 0 -8 8v343q0 8 8 8zM311 484v-138h75q111 0 111 74q0 64 -77 64h-109z" />
    <glyph glyph-name="macron" unicode="&#xaf;" horiz-adv-x="344" 
d="M128 660h221q9 0 7 -9l-4 -21q-1 -7 -8 -7h-220q-8 0 -8 9l4 21q1 7 8 7z" />
    <glyph glyph-name="degree" unicode="&#xb0;" horiz-adv-x="240" 
d="M190 694q41 0 63 -20.5t22 -56.5q0 -44 -27.5 -80.5t-84.5 -36.5q-40 0 -61.5 20t-21.5 57q0 53 29.5 85t80.5 32zM188 655q-30 0 -49 -19.5t-19 -52.5q0 -44 46 -44q35 0 52 23t17 49q0 44 -47 44z" />
    <glyph glyph-name="plusminus" unicode="&#xb1;" horiz-adv-x="636" 
d="M352 327h204q8 0 7 -9l-4 -24q-1 -7 -8 -7h-206l-36 -225q-1 -7 -8 -7h-25q-8 0 -8 9l36 223h-203q-9 0 -7 9l4 24q1 7 8 7h205l36 225q1 7 8 7h25q8 0 8 -9zM52 -54l4 24q1 7 8 7h422q8 0 7 -9l-4 -24q-1 -7 -8 -7h-422q-9 0 -7 9z" />
    <glyph glyph-name="acute" unicode="&#xb4;" horiz-adv-x="238" 
d="M218 701h33q5 0 6.5 -3t-2.5 -7l-103 -105q-4 -4 -10 -4h-26q-5 0 -6.5 3t2.5 7l96 105q4 4 10 4z" />
    <glyph glyph-name="uni00B5" unicode="&#xb5;" horiz-adv-x="565" 
d="M485 476h26q8 0 8 -9l-74 -460q-1 -7 -8 -7h-22q-9 0 -8 9l11 67q0 6 -3 7t-8 -5q-71 -88 -183 -88q-92 0 -128 67l-42 -260q-1 -7 -8 -7h-25q-8 0 -8 9l73 454q1 7 8 7q-2 0 -1 9l33 200q1 7 8 7h25q8 0 8 -9l-45 -281q-12 -73 15.5 -114t89.5 -41q85 0 141.5 59
t74.5 167l34 212q1 7 8 7z" />
    <glyph glyph-name="paragraph" unicode="&#xb6;" horiz-adv-x="651" 
d="M588 674l-106 -667q-1 -7 -8 -7h-23q-8 0 -8 9l102 637h-92l-102 -639q-1 -7 -8 -7h-23q-8 0 -8 9l49 297q-107 0 -167.5 41t-60.5 117q0 35 11.5 71t35.5 70.5t69 56t104 21.5h227q8 0 8 -9z" />
    <glyph glyph-name="periodcentered" unicode="&#xb7;" horiz-adv-x="202" 
d="M111 286q19 0 28.5 -11t5.5 -30q-5 -38 -41 -38q-39 0 -33 42q6 37 40 37z" />
    <glyph glyph-name="cedilla" unicode="&#xb8;" horiz-adv-x="259" 
d="M65 -57h6q38 0 58.5 -17.5t20.5 -48.5q0 -38 -26 -67.5t-79 -29.5q-22 0 -43 8l-15 5q-9 3 -4 11l11 20q3 6 10 5l13 -5q16 -5 30 -5q29 0 47.5 15t18.5 41q0 33 -50 33h-32q-6 0 -9 5l-2 3q-3 5 0 11l39 78q3 6 10 6h20q11 0 6 -9z" />
    <glyph glyph-name="ordmasculine" unicode="&#xba;" horiz-adv-x="434" 
d="M274 687q77 0 113.5 -52.5t22.5 -141.5t-67 -141t-131 -52q-77 0 -113 52t-22 141t67.5 141.5t129.5 52.5zM267 648q-58 0 -98 -41t-52 -114q-11 -72 16 -113t85 -41q60 0 100.5 41t51.5 113q11 73 -16 114t-87 41zM58 202h276q10 0 8 -9l-4 -22q-1 -7 -8 -7h-276
q-10 0 -8 9l4 22q1 7 8 7z" />
    <glyph glyph-name="guillemotright" unicode="&#xbb;" horiz-adv-x="508" 
d="M231 238l-110 164q-5 10 6 10h31q6 0 9 -5l106 -155q3 -4 3 -9v-8q0 -6 -4 -10l-154 -157q-4 -4 -10 -4h-34q-5 0 -6.5 3t2.5 7zM378 238l-110 164q-5 10 6 10h31q6 0 9 -5l106 -155q3 -4 3 -9v-8q0 -6 -4 -10l-154 -157q-4 -4 -10 -4h-34q-5 0 -6.5 3t2.5 7z" />
    <glyph glyph-name="onequarter" unicode="&#xbc;" horiz-adv-x="712" 
d="M153 628l-42 -19q-8 -5 -10 4l-6 20q-1 7 5 10l93 41q6 3 11 -2q2 -2 1 -8l-58 -364q-1 -7 -8 -7h-23q-10 0 -8 9l45 282q5 28 6 31q2 4 0.5 4.5t-6.5 -1.5zM621 683h27q5 0 6.5 -3t-1.5 -7l-555 -668q-4 -5 -10 -5h-27q-5 0 -6.5 3t1.5 7l555 668q4 5 10 5zM702 134
l-4 -22q-1 -7 -8 -7h-34l-15 -97q-1 -7 -8 -7h-23q-8 0 -8 9l16 95h-187q-10 0 -8 8l3 28q2 7 5 10q16 14 42 40l145 151q29 32 31 34q4 4 10 4h32q8 0 8 -9l-37 -228h32q8 0 8 -9zM624 143l21 134q3 21 11 44q1 3 -1 3l-6 -3l-137 -142q-6 -7 -28 -26q-6 -4 -7 -7
q-1 -1 0 -2t3 -1h144z" />
    <glyph glyph-name="onehalf" unicode="&#xbd;" horiz-adv-x="759" 
d="M203 684q3 -5 2 -10l-58 -364q-1 -7 -8 -7h-23q-10 0 -8 9l45 282q5 28 6 31q2 4 0.5 4.5t-6.5 -1.5l-42 -19q-8 -5 -10 4l-6 20q-1 7 5 10l93 41q6 3 10 0zM653 673l-555 -668q-4 -5 -10 -5h-27q-5 0 -6.5 3t1.5 7l555 668q4 5 10 5h27q5 0 6.5 -3t-1.5 -7zM557 361
l27 9q38 14 87 14q50 0 78.5 -22t27.5 -61q-2 -60 -75 -108l-101 -64q-54 -34 -63 -91h186q8 0 8 -9l-4 -21q-1 -7 -8 -7h-221q-9 0 -8 9l3 18q17 89 90 135l101 63q53 34 53 70q0 23 -19 36t-51 13q-35 0 -75 -11l-28 -9q-8 -2 -10 6l-4 21q-1 8 6 9z" />
    <glyph glyph-name="threequarters" unicode="&#xbe;" horiz-adv-x="833" 
d="M118 667l23 7q38 13 81 13q48 0 76 -22.5t27 -62.5q0 -68 -60 -95q-2 -1 -5.5 -2t-4.5 -1q-3 -4 1 -5q51 -20 51 -79q-1 -57 -40.5 -88.5t-103.5 -31.5q-38 0 -84 14l-24 8q-9 3 -4 11l11 21q3 6 10 5l23 -8q40 -12 70 -12q45 0 73.5 21.5t28.5 59.5q0 29 -21.5 46
t-55.5 17h-18q-8 0 -8 9l4 21q1 7 8 7h17q40 0 66 21t26 56q0 24 -18 38t-48 14q-37 0 -68 -9l-26 -8q-9 -2 -9 6l-4 20q-2 7 6 9zM742 683h27q5 0 6.5 -3t-1.5 -7l-555 -668q-4 -5 -10 -5h-27q-5 0 -6.5 3t1.5 7l555 668q4 5 10 5zM823 134l-4 -22q-1 -7 -8 -7h-34l-15 -97
q-1 -7 -8 -7h-23q-8 0 -8 9l16 95h-187q-10 0 -8 8l3 28q2 7 5 10q16 14 42 40l145 151q29 32 31 34q4 4 10 4h32q8 0 8 -9l-37 -228h32q8 0 8 -9zM745 143l21 134q3 21 11 44q1 3 -1 3l-6 -3l-137 -142q-6 -7 -28 -26q-6 -4 -7 -7q-1 -1 0.5 -2t2.5 -1h144z" />
    <glyph glyph-name="questiondown" unicode="&#xbf;" horiz-adv-x="504" 
d="M331 405q-19 0 -28.5 11t-5.5 30q5 38 41 38q39 0 33 -42q-6 -37 -40 -37zM411 -181l-52 -14q-84 -24 -155 -24q-88 0 -138 36.5t-50 100.5q0 55 31.5 99t103.5 89l43 27q81 52 90 118l13 77q1 7 8 7h26q8 0 8 -9l-13 -75q-15 -91 -113 -151l-44 -26q-110 -65 -110 -149
q0 -47 41 -74.5t111 -27.5q67 0 141 20l51 15q9 2 9 -6l5 -23q0 -9 -6 -10z" />
    <glyph glyph-name="Agrave" unicode="&#xc0;" horiz-adv-x="683" 
d="M397 857l65 -83q8 -10 -4 -10h-28q-6 0 -10 4l-79 84q-4 4 -2.5 7t6.5 3h42q6 0 10 -5zM169 195l-112 -190q-3 -5 -9 -5h-31q-12 0 -5 10l314 525q46 80 73 142q3 6 10 6h27q7 0 9 -7q7 -58 25 -141l128 -526q2 -9 -7 -9h-27q-8 0 -9 7l-45 188h-341zM501 235l-66 267
q-13 56 -17 108q0 3 -2 4.5t-5 0t-4 -4.5q-19 -49 -55 -108l-158 -267h307z" />
    <glyph glyph-name="Aacute" unicode="&#xc1;" horiz-adv-x="683" 
d="M516 862h42q6 0 7 -3t-4 -7l-109 -85q-4 -3 -10 -3h-28q-6 0 -7 3t3 7l96 84q4 4 10 4zM169 195l-112 -190q-3 -5 -9 -5h-31q-12 0 -5 10l314 525q46 80 73 142q3 6 10 6h27q7 0 9 -7q7 -58 25 -141l128 -526q2 -9 -7 -9h-27q-8 0 -9 7l-45 188h-341zM501 235l-66 267
q-13 56 -17 108q0 3 -2 4.5t-5 0t-4 -4.5q-19 -49 -55 -108l-158 -267h307z" />
    <glyph glyph-name="Acircumflex" unicode="&#xc2;" horiz-adv-x="683" 
d="M449 826l-84 -59q-5 -3 -9 -3h-24q-3 0 -5 1.5t-1.5 4t3.5 4.5l99 84q4 4 10 4h32q6 0 10 -4l73 -84q3 -4 1.5 -7t-6.5 -3h-26q-6 0 -10 4zM470 535l128 -526q2 -9 -7 -9h-27q-8 0 -9 7l-45 188h-341l-112 -190q-3 -5 -9 -5h-31q-12 0 -5 10l314 525q46 80 73 142
q3 6 10 6h27q7 0 9 -7q7 -58 25 -141zM501 235l-66 267q-13 56 -17 108q0 3 -2 4.5t-5 0t-4 -4.5q-19 -49 -55 -108l-158 -267h307z" />
    <glyph glyph-name="Atilde" unicode="&#xc3;" horiz-adv-x="683" 
d="M280 785l24 31q25 37 73 37q21 0 48 -13l61 -25q26 -8 32 -8q23 0 38 19l15 19q4 5 10 5h25q12 0 4 -10l-24 -31q-27 -37 -73 -37q-19 0 -49 14l-59 23q-22 9 -33 9q-24 0 -38 -18l-16 -20q-4 -5 -10 -5h-24q-12 0 -4 10zM169 195l-112 -190q-3 -5 -9 -5h-31q-12 0 -5 10
l314 525q46 80 73 142q3 6 10 6h27q7 0 9 -7q7 -58 25 -141l128 -526q2 -9 -7 -9h-27q-8 0 -9 7l-45 188h-341zM501 235l-66 267q-13 56 -17 108q0 3 -2 4.5t-5 0t-4 -4.5q-19 -49 -55 -108l-158 -267h307z" />
    <glyph glyph-name="Adieresis" unicode="&#xc4;" horiz-adv-x="683" 
d="M388 842q26 0 26 -24q0 -16 -9.5 -25.5t-25.5 -9.5q-26 0 -26 24q0 35 35 35zM517 842q26 0 26 -24q0 -16 -9.5 -25.5t-25.5 -9.5q-26 0 -26 24q0 35 35 35zM169 195l-112 -190q-3 -5 -9 -5h-31q-12 0 -5 10l314 525q46 80 73 142q3 6 10 6h27q7 0 9 -7q7 -58 25 -141
l128 -526q2 -9 -7 -9h-27q-8 0 -9 7l-45 188h-341zM501 235l-66 267q-13 56 -17 108q0 3 -2 4.5t-5 0t-4 -4.5q-19 -49 -55 -108l-158 -267h307z" />
    <glyph glyph-name="Aring" unicode="&#xc5;" horiz-adv-x="683" 
d="M455 874q30 0 47.5 -14t17.5 -37q0 -34 -23 -53t-62 -19q-30 0 -46.5 14t-16.5 38q0 33 22.5 52t60.5 19zM450 841q-40 0 -40 -33q0 -24 31 -24q41 0 41 32q0 25 -32 25zM169 195l-112 -190q-3 -5 -9 -5h-31q-12 0 -5 10l314 525q46 80 73 142q3 6 10 6h27q7 0 9 -7
q7 -58 25 -141l128 -526q2 -9 -7 -9h-27q-8 0 -9 7l-45 188h-341zM501 235l-66 267q-13 56 -17 108q0 3 -2 4.5t-5 0t-4 -4.5q-19 -49 -55 -108l-158 -267h307z" />
    <glyph glyph-name="AE" unicode="&#xc6;" horiz-adv-x="904" 
d="M891 644h-425q-13 0 -13 -17q1 -20 19 -101l38 -155h280q8 0 7 -9l-4 -24q-1 -7 -8 -7h-266l72 -291h219q8 0 7 -9l-4 -24q-1 -7 -8 -7h-241q-8 0 -9 7l-46 188h-340l-112 -190q-3 -5 -9 -5h-31q-12 0 -5 10l313 523q39 66 74 144q3 6 10 6h496q10 0 6 -9l-10 -24
q-3 -6 -10 -6zM501 235l-66 270q-13 48 -17 104q-1 6 -5 6t-6 -6q-16 -42 -54 -105l-159 -269h307z" />
    <glyph glyph-name="Ccedilla" unicode="&#xc7;" horiz-adv-x="595" 
d="M552 666l36 -15q8 -3 4 -10l-13 -23q-4 -7 -11 -4l-36 14q-61 24 -123 24q-80 0 -140.5 -40t-93 -103.5t-48 -128.5t-15.5 -127q0 -106 50 -163.5t145 -57.5q73 1 132 21l43 15q8 3 10 -5l5 -24q1 -7 -6 -9l-44 -16q-68 -24 -144 -24q-13 0 -37 2l-25 -49h6
q38 0 58.5 -17.5t20.5 -48.5q0 -38 -26 -67.5t-79 -29.5q-22 0 -43 8l-15 5q-9 3 -4 11l11 20q3 6 10 5l13 -5q16 -5 30 -5q29 0 47.5 15t18.5 41q0 33 -50 33h-32q-6 0 -9 5l-2 3q-3 5 0 11l36 71q-79 21 -121.5 87t-42.5 169q0 55 11 112.5t37 117t64 105t98.5 75
t134.5 29.5q63 0 139 -27z" />
    <glyph glyph-name="Egrave" unicode="&#xc8;" horiz-adv-x="597" 
d="M360 857l65 -83q8 -10 -4 -10h-28q-6 0 -10 4l-79 84q-4 4 -2.5 7t6.5 3h42q6 0 10 -5zM158 371h326q8 0 7 -9l-4 -24q-1 -7 -8 -7h-328l-46 -291h397q8 0 7 -9l-4 -24q-1 -7 -8 -7h-433q-8 0 -8 9l108 667q1 7 8 7h427q10 0 6 -9l-11 -24q-3 -6 -10 -6h-383z" />
    <glyph glyph-name="Eacute" unicode="&#xc9;" horiz-adv-x="597" 
d="M479 862h42q6 0 7 -3t-4 -7l-109 -85q-5 -3 -10 -3h-28q-6 0 -7 3t3 7l96 84q4 4 10 4zM158 371h326q8 0 7 -9l-4 -24q-1 -7 -8 -7h-328l-46 -291h397q8 0 7 -9l-4 -24q-1 -7 -8 -7h-433q-8 0 -8 9l108 667q1 7 8 7h427q10 0 6 -9l-11 -24q-3 -6 -10 -6h-383z" />
    <glyph glyph-name="Ecircumflex" unicode="&#xca;" horiz-adv-x="597" 
d="M412 826l-84 -59q-4 -3 -9 -3h-24q-3 0 -5 1.5t-1.5 4t3.5 4.5l99 84q4 4 10 4h32q6 0 10 -4l73 -84q3 -4 1.5 -7t-6.5 -3h-26q-6 0 -10 4zM201 644l-43 -273h326q8 0 7 -9l-4 -24q-1 -7 -8 -7h-328l-46 -291h397q8 0 7 -9l-4 -24q-1 -7 -8 -7h-433q-8 0 -8 9l108 667
q1 7 8 7h427q10 0 6 -9l-11 -24q-3 -6 -10 -6h-383z" />
    <glyph glyph-name="Edieresis" unicode="&#xcb;" horiz-adv-x="597" 
d="M351 842q26 0 26 -24q0 -16 -9.5 -25.5t-25.5 -9.5q-26 0 -26 24q0 35 35 35zM480 842q26 0 26 -24q0 -16 -9.5 -25.5t-25.5 -9.5q-26 0 -26 24q0 35 35 35zM158 371h326q8 0 7 -9l-4 -24q-1 -7 -8 -7h-328l-46 -291h397q8 0 7 -9l-4 -24q-1 -7 -8 -7h-433q-8 0 -8 9
l108 667q1 7 8 7h427q10 0 6 -9l-11 -24q-3 -6 -10 -6h-383z" />
    <glyph glyph-name="Igrave" unicode="&#xcc;" horiz-adv-x="230" 
d="M157 857l65 -83q8 -10 -4 -10h-28q-6 0 -10 4l-79 84q-4 4 -2.5 7t6.5 3h42q6 0 10 -5zM91 0h-27q-8 0 -8 9l107 667q1 7 8 7h27q8 0 8 -9l-107 -667q-1 -7 -8 -7z" />
    <glyph glyph-name="Iacute" unicode="&#xcd;" horiz-adv-x="230" 
d="M276 862h42q6 0 7 -3t-4 -7l-109 -85q-5 -3 -10 -3h-28q-6 0 -7 3t3 7l96 84q4 4 10 4zM91 0h-27q-8 0 -8 9l107 667q1 7 8 7h27q8 0 8 -9l-107 -667q-1 -7 -8 -7z" />
    <glyph glyph-name="Icircumflex" unicode="&#xce;" horiz-adv-x="230" 
d="M308 764h-26q-6 0 -10 4l-63 58l-84 -59q-5 -3 -9 -3h-24q-3 0 -5 1.5t-1.5 4t3.5 4.5l99 84q4 4 10 4h32q6 0 10 -4l73 -84q3 -4 1.5 -7t-6.5 -3zM56 9l107 667q1 7 8 7h27q8 0 8 -9l-107 -667q-1 -7 -8 -7h-27q-8 0 -8 9z" />
    <glyph glyph-name="Idieresis" unicode="&#xcf;" horiz-adv-x="230" 
d="M148 842q26 0 26 -24q0 -16 -9.5 -25.5t-25.5 -9.5q-26 0 -26 24q0 35 35 35zM277 842q26 0 26 -24q0 -16 -9.5 -25.5t-25.5 -9.5q-26 0 -26 24q0 35 35 35zM91 0h-27q-8 0 -8 9l107 667q1 7 8 7h27q8 0 8 -9l-107 -667q-1 -7 -8 -7z" />
    <glyph glyph-name="Eth" unicode="&#xd0;" horiz-adv-x="700" 
d="M214 683h215q112 0 173.5 -68t61.5 -190q0 -54 -11 -109.5t-37 -113t-64 -102t-97.5 -72.5t-131.5 -28h-216q-8 0 -8 9l51 317h-88q-8 0 -7 9l4 24q1 7 8 7h89l50 310q1 7 8 7zM147 40h179q64 0 116 26.5t84.5 67t54.5 93.5t30.5 102.5t8.5 96.5q0 104 -50 161t-145 57
h-181l-45 -278h167q8 0 7 -9l-4 -24q-1 -7 -8 -7h-168z" />
    <glyph glyph-name="Ntilde" unicode="&#xd1;" horiz-adv-x="696" 
d="M274 785l24 31q25 37 73 37q21 0 48 -13l61 -25q26 -8 32 -8q23 0 38 19l15 19q4 5 10 5h25q12 0 4 -10l-24 -31q-27 -37 -73 -37q-19 0 -49 14l-59 23q-22 9 -33 9q-24 0 -38 -18l-16 -20q-4 -5 -10 -5h-24q-12 0 -4 10zM556 0h-32q-8 0 -9 7q-17 50 -41 96l-252 449
q-17 34 -22 56q-1 3 -4 4t-5.5 -1.5t-2.5 -6.5q1 -19 -5 -73l-84 -524q-1 -7 -8 -7h-27q-8 0 -8 9l107 667q1 7 8 7h33q8 0 9 -7q16 -49 42 -94l250 -450q17 -30 23 -56q1 -4 4 -4.5t5.5 2t2.5 6.5q-1 19 5 73l85 523q1 7 8 7h26q8 0 8 -9l-108 -667q-1 -7 -8 -7z" />
    <glyph glyph-name="Ograve" unicode="&#xd2;" horiz-adv-x="683" 
d="M406 857l65 -83q8 -10 -4 -10h-28q-6 0 -10 4l-79 84q-4 4 -2.5 7t6.5 3h42q6 0 10 -5zM412 693q112 0 173.5 -69.5t61.5 -194.5q0 -55 -11 -112.5t-37 -116.5t-64.5 -105.5t-98.5 -75.5t-133 -29q-113 0 -174 69.5t-61 194.5q0 55 11 112t37 116.5t64 105.5t98.5 75.5
t133.5 29.5zM409 652q-65 0 -117 -27t-85 -69.5t-55 -97t-31 -106t-9 -100.5q0 -106 50 -163t144 -57q65 0 117.5 27t85 69t54.5 96.5t31 105.5t9 99q0 106 -50 164.5t-144 58.5z" />
    <glyph glyph-name="Oacute" unicode="&#xd3;" horiz-adv-x="683" 
d="M525 862h42q6 0 7 -3t-4 -7l-109 -85q-5 -3 -10 -3h-28q-6 0 -7 3t3 7l96 84q4 4 10 4zM412 693q112 0 173.5 -69.5t61.5 -194.5q0 -55 -11 -112.5t-37 -116.5t-64.5 -105.5t-98.5 -75.5t-133 -29q-113 0 -174 69.5t-61 194.5q0 55 11 112t37 116.5t64 105.5t98.5 75.5
t133.5 29.5zM409 652q-65 0 -117 -27t-85 -69.5t-55 -97t-31 -106t-9 -100.5q0 -106 50 -163t144 -57q65 0 117.5 27t85 69t54.5 96.5t31 105.5t9 99q0 106 -50 164.5t-144 58.5z" />
    <glyph glyph-name="Ocircumflex" unicode="&#xd4;" horiz-adv-x="683" 
d="M457 826l-84 -59q-5 -3 -9 -3h-24q-3 0 -5 1.5t-1.5 4t3.5 4.5l99 84q4 4 10 4h32q6 0 10 -4l73 -84q3 -4 1.5 -7t-6.5 -3h-26q-6 0 -10 4zM412 693q112 0 173.5 -69.5t61.5 -194.5q0 -55 -11 -112.5t-37 -116.5t-64.5 -105.5t-98.5 -75.5t-133 -29q-113 0 -174 69.5
t-61 194.5q0 55 11 112t37 116.5t64 105.5t98.5 75.5t133.5 29.5zM306 32q65 0 117.5 27t85 69t54.5 96.5t31 105.5t9 99q0 106 -50 164.5t-144 58.5q-65 0 -117 -27t-85 -69.5t-55 -97t-31 -106t-9 -100.5q0 -106 50 -163t144 -57z" />
    <glyph glyph-name="Otilde" unicode="&#xd5;" horiz-adv-x="683" 
d="M289 785l24 31q25 37 73 37q21 0 48 -13l61 -25q26 -8 32 -8q23 0 38 19l15 19q4 5 10 5h25q12 0 4 -10l-24 -31q-27 -37 -73 -37q-19 0 -49 14l-59 23q-22 9 -33 9q-24 0 -38 -18l-16 -20q-4 -5 -10 -5h-24q-12 0 -4 10zM412 693q112 0 173.5 -69.5t61.5 -194.5
q0 -55 -11 -112.5t-37 -116.5t-64.5 -105.5t-98.5 -75.5t-133 -29q-113 0 -174 69.5t-61 194.5q0 55 11 112t37 116.5t64 105.5t98.5 75.5t133.5 29.5zM409 652q-65 0 -117 -27t-85 -69.5t-55 -97t-31 -106t-9 -100.5q0 -106 50 -163t144 -57q65 0 117.5 27t85 69t54.5 96.5
t31 105.5t9 99q0 106 -50 164.5t-144 58.5z" />
    <glyph glyph-name="Odieresis" unicode="&#xd6;" horiz-adv-x="683" 
d="M397 842q26 0 26 -24q0 -16 -9.5 -25.5t-25.5 -9.5q-26 0 -26 24q0 35 35 35zM526 842q26 0 26 -24q0 -16 -9.5 -25.5t-25.5 -9.5q-26 0 -26 24q0 35 35 35zM412 693q112 0 173.5 -69.5t61.5 -194.5q0 -55 -11 -112.5t-37 -116.5t-64.5 -105.5t-98.5 -75.5t-133 -29
q-113 0 -174 69.5t-61 194.5q0 55 11 112t37 116.5t64 105.5t98.5 75.5t133.5 29.5zM409 652q-65 0 -117 -27t-85 -69.5t-55 -97t-31 -106t-9 -100.5q0 -106 50 -163t144 -57q65 0 117.5 27t85 69t54.5 96.5t31 105.5t9 99q0 106 -50 164.5t-144 58.5z" />
    <glyph glyph-name="multiply" unicode="&#xd7;" horiz-adv-x="582" 
d="M508 453l16 -18q5 -7 -1 -11l-202 -174l144 -172q5 -7 -1 -11l-19 -16q-7 -5 -11 1l-144 172l-201 -175q-7 -5 -11 1l-15 18q-5 7 1 11l201 175l-143 171q-5 7 1 11l17 16q7 5 11 -1l145 -171l201 174q7 5 11 -1z" />
    <glyph glyph-name="Oslash" unicode="&#xd8;" horiz-adv-x="693" 
d="M690 673l-76 -82q38 -65 38 -162q0 -55 -11 -112.5t-37 -116.5t-64.5 -105.5t-98.5 -75.5t-133 -29q-115 0 -177 74l-55 -60q-4 -4 -10 -4h-27q-5 0 -6.5 3t2.5 7l76 82q-38 65 -38 162q0 55 11 112t37 116.5t64 105.5t98.5 75.5t133.5 29.5q115 0 177 -74l55 60
q4 4 10 4h27q5 0 6.5 -3t-2.5 -7zM142 127l422 459q-51 66 -150 66q-65 0 -117 -27t-85 -69.5t-55 -97t-31 -106t-9 -100.5q0 -73 25 -125zM583 556l-422 -459q50 -65 150 -65q65 0 117.5 27t85 69t54.5 96.5t31 105.5t9 99q0 74 -25 127z" />
    <glyph glyph-name="Ugrave" unicode="&#xd9;" horiz-adv-x="663" 
d="M370 857l65 -83q8 -10 -4 -10h-28q-6 0 -10 4l-79 84q-4 4 -2.5 7t6.5 3h42q6 0 10 -5zM650 674l-66 -410q-21 -129 -98 -201.5t-194 -72.5t-171 73t-33 202l66 411q1 7 8 7h27q8 0 8 -9l-67 -410q-17 -110 27 -171t142 -61t161.5 61t80.5 172l66 411q1 7 8 7h27
q8 0 8 -9z" />
    <glyph glyph-name="Uacute" unicode="&#xda;" horiz-adv-x="663" 
d="M489 862h42q6 0 7 -3t-4 -7l-109 -85q-5 -3 -10 -3h-28q-6 0 -7 3t3 7l96 84q4 4 10 4zM650 674l-66 -410q-21 -129 -98 -201.5t-194 -72.5t-171 73t-33 202l66 411q1 7 8 7h27q8 0 8 -9l-67 -410q-17 -110 27 -171t142 -61t161.5 61t80.5 172l66 411q1 7 8 7h27
q8 0 8 -9z" />
    <glyph glyph-name="Ucircumflex" unicode="&#xdb;" horiz-adv-x="663" 
d="M422 826l-84 -59q-4 -3 -9 -3h-24q-3 0 -5 1.5t-1.5 4t3.5 4.5l99 84q4 4 10 4h32q6 0 10 -4l73 -84q3 -4 1.5 -7t-6.5 -3h-26q-6 0 -10 4zM615 683h27q8 0 8 -9l-66 -410q-21 -129 -98 -201.5t-194 -72.5t-171 73t-33 202l66 411q1 7 8 7h27q8 0 8 -9l-67 -410
q-17 -110 27 -171t142 -61t161.5 61t80.5 172l66 411q1 7 8 7z" />
    <glyph glyph-name="Udieresis" unicode="&#xdc;" horiz-adv-x="663" 
d="M361 842q26 0 26 -24q0 -16 -9.5 -25.5t-25.5 -9.5q-26 0 -26 24q0 35 35 35zM490 842q26 0 26 -24q0 -16 -9.5 -25.5t-25.5 -9.5q-26 0 -26 24q0 35 35 35zM650 674l-66 -410q-21 -129 -98 -201.5t-194 -72.5t-171 73t-33 202l66 411q1 7 8 7h27q8 0 8 -9l-67 -410
q-17 -110 27 -171t142 -61t161.5 61t80.5 172l66 411q1 7 8 7h27q8 0 8 -9z" />
    <glyph glyph-name="Yacute" unicode="&#xdd;" horiz-adv-x="642" 
d="M482 862h42q6 0 7 -3t-4 -7l-109 -85q-5 -3 -10 -3h-28q-6 0 -7 3t3 7l96 84q4 4 10 4zM667 673l-226 -274q-51 -61 -73.5 -100t-31.5 -94l-31 -198q-1 -7 -8 -7h-27q-10 0 -8 9l31 196q9 56 -0.5 95.5t-38.5 98.5l-138 275q-5 9 6 9h29q7 0 10 -6l126 -251
q30 -62 41 -104q4 -13 11 0q38 64 72 104l207 252q4 5 10 5h34q12 0 5 -10z" />
    <glyph glyph-name="Thorn" unicode="&#xde;" horiz-adv-x="619" 
d="M186 555h196q93 0 145 -47.5t52 -128.5q0 -44 -14 -84.5t-42.5 -77t-81.5 -58.5t-123 -22h-198l-21 -130q-1 -7 -8 -7h-27q-8 0 -8 9l107 667q1 7 8 7h27q8 0 8 -9zM180 515l-54 -338h196q58 0 101.5 19t66.5 49.5t34 63t11 65.5q0 64 -41.5 102.5t-115.5 38.5h-198z" />
    <glyph glyph-name="germandbls" unicode="&#xdf;" horiz-adv-x="556" 
d="M46 9l79 494q17 99 75 154t147 55q65 0 101.5 -26t36.5 -72q0 -59 -63 -114l-81 -72q-42 -38 -42 -77q0 -35 41 -62l81 -51q73 -47 73 -102q0 -65 -51.5 -105.5t-138.5 -40.5q-59 0 -117 26l-20 9q-8 3 -3 10l13 22q4 7 11 4l18 -8q49 -22 99 -22q73 0 110 30.5t37 71.5
q0 37 -55 72l-81 52q-60 40 -60 91q0 59 58 110l81 71q47 40 47 80q0 29 -26 45.5t-72 16.5q-70 0 -117 -45.5t-60 -125.5l-79 -493q-1 -7 -8 -7h-26q-8 0 -8 9z" />
    <glyph glyph-name="agrave" unicode="&#xe0;" horiz-adv-x="545" 
d="M290 696l64 -104q5 -10 -5 -10h-26q-6 0 -9 5l-70 104q-7 10 5 10h32q6 0 9 -5zM391 9l19 108q2 10 -3 9q-3 -1 -8 -8q-39 -60 -82.5 -94t-106.5 -34q-76 0 -118 47t-42 131q0 51 15 104t44.5 102t82.5 80.5t121 31.5q60 0 111 -20l66 -24q7 -3 6 -10l-67 -425
q-1 -7 -8 -7h-22q-8 0 -8 9zM453 414l-42 15q-46 16 -99 16q-56 0 -100.5 -27.5t-69.5 -71t-37.5 -88.5t-12.5 -87q0 -66 32 -103t89 -37q80 0 144 91.5t85 223.5z" />
    <glyph glyph-name="aacute" unicode="&#xe1;" horiz-adv-x="545" 
d="M411 701h33q5 0 6.5 -3t-2.5 -7l-103 -105q-4 -4 -10 -4h-26q-5 0 -6.5 3t2.5 7l96 105q4 4 10 4zM391 9l19 108q2 10 -3 9q-3 -1 -8 -8q-39 -60 -82.5 -94t-106.5 -34q-76 0 -118 47t-42 131q0 51 15 104t44.5 102t82.5 80.5t121 31.5q60 0 111 -20l66 -24q7 -3 6 -10
l-67 -425q-1 -7 -8 -7h-22q-8 0 -8 9zM453 414l-42 15q-46 16 -99 16q-56 0 -100.5 -27.5t-69.5 -71t-37.5 -88.5t-12.5 -87q0 -66 32 -103t89 -37q80 0 144 91.5t85 223.5z" />
    <glyph glyph-name="acircumflex" unicode="&#xe2;" horiz-adv-x="545" 
d="M345 663l-85 -77q-4 -4 -10 -4h-22q-5 0 -6.5 3t2.5 7l105 105q4 4 10 4h25q6 0 9 -5l72 -104q7 -10 -5 -10h-25q-6 0 -10 5zM424 466l66 -24q7 -3 6 -10l-67 -425q-1 -7 -8 -7h-22q-8 0 -8 9l19 108q2 10 -3 9q-3 -1 -8 -8q-39 -60 -82.5 -94t-106.5 -34q-76 0 -118 47
t-42 131q0 51 15 104t44.5 102t82.5 80.5t121 31.5q60 0 111 -20zM453 414l-42 15q-46 16 -99 16q-56 0 -100.5 -27.5t-69.5 -71t-37.5 -88.5t-12.5 -87q0 -66 32 -103t89 -37q80 0 144 91.5t85 223.5z" />
    <glyph glyph-name="atilde" unicode="&#xe3;" horiz-adv-x="545" 
d="M200 616l22 34q23 38 62 38q18 0 43 -14l50 -28q16 -9 27 -9q17 0 31 21l15 22q5 5 10 5h22q11 0 6 -10l-22 -33q-26 -38 -62 -38q-19 0 -44 14l-48 26q-20 10 -28 10q-18 0 -32 -19l-16 -24q-3 -5 -9 -5h-22q-10 0 -5 10zM391 9l19 108q2 10 -3 9q-3 -1 -8 -8
q-39 -60 -82.5 -94t-106.5 -34q-76 0 -118 47t-42 131q0 51 15 104t44.5 102t82.5 80.5t121 31.5q60 0 111 -20l66 -24q7 -3 6 -10l-67 -425q-1 -7 -8 -7h-22q-8 0 -8 9zM453 414l-42 15q-46 16 -99 16q-56 0 -100.5 -27.5t-69.5 -71t-37.5 -88.5t-12.5 -87q0 -66 32 -103
t89 -37q80 0 144 91.5t85 223.5z" />
    <glyph glyph-name="adieresis" unicode="&#xe4;" horiz-adv-x="545" 
d="M280 707q29 0 29 -28q0 -36 -34 -36q-29 0 -29 27q0 37 34 37zM421 707q29 0 29 -28q0 -36 -34 -36q-29 0 -29 27q0 37 34 37zM391 9l19 108q2 10 -3 9q-3 -1 -8 -8q-39 -60 -82.5 -94t-106.5 -34q-76 0 -118 47t-42 131q0 51 15 104t44.5 102t82.5 80.5t121 31.5
q60 0 111 -20l66 -24q7 -3 6 -10l-67 -425q-1 -7 -8 -7h-22q-8 0 -8 9zM453 414l-42 15q-46 16 -99 16q-56 0 -100.5 -27.5t-69.5 -71t-37.5 -88.5t-12.5 -87q0 -66 32 -103t89 -37q80 0 144 91.5t85 223.5z" />
    <glyph glyph-name="aring" unicode="&#xe5;" horiz-adv-x="545" 
d="M353 710q63 0 63 -54q0 -30 -20 -55.5t-64 -25.5q-63 0 -63 53q0 33 20.5 57.5t63.5 24.5zM347 676q-34 0 -40 -35q-5 -33 30 -33q42 0 42 42q0 26 -32 26zM391 9l19 108q2 10 -3 9q-3 -1 -8 -8q-39 -60 -82.5 -94t-106.5 -34q-76 0 -118 47t-42 131q0 51 15 104
t44.5 102t82.5 80.5t121 31.5q60 0 111 -20l66 -24q7 -3 6 -10l-67 -425q-1 -7 -8 -7h-22q-8 0 -8 9zM453 414l-42 15q-46 16 -99 16q-56 0 -100.5 -27.5t-69.5 -71t-37.5 -88.5t-12.5 -87q0 -66 32 -103t89 -37q80 0 144 91.5t85 223.5z" />
    <glyph glyph-name="ae" unicode="&#xe6;" horiz-adv-x="866" 
d="M492 433l-2 -15q-2 -10 1.5 -13t12.5 7q60 74 170 74q75 0 116 -31.5t41 -88.5t-41 -95t-118 -51l-210 -35q-1 -74 35.5 -114t104.5 -40q51 0 102 13l28 8q8 2 9 -6l4 -23q2 -8 -7 -10l-26 -6q-64 -17 -112 -17q-121 0 -161 96q-14 34 -22 36t-27 -23q-78 -109 -176 -109
q-164 0 -164 177q0 40 9 82t29.5 85t50 76.5t74.5 54.5t100 21q57 0 109 -19l64 -24q7 -3 6 -10zM453 413l-44 16q-43 16 -97 16q-58 0 -102.5 -28t-69 -71t-36.5 -88t-12 -87q0 -140 125 -140q79 0 140.5 93t82.5 210zM466 225l200 33q65 11 94 40t29 63q0 40 -31 62
t-87 22q-82 0 -136 -57t-69 -163z" />
    <glyph glyph-name="ccedilla" unicode="&#xe7;" horiz-adv-x="466" 
d="M407 470l22 -7q8 -3 5 -11l-10 -22q-3 -6 -10 -5l-22 8q-41 12 -80 12q-50 0 -89.5 -18t-63 -45.5t-39.5 -64t-22 -70t-6 -66.5q0 -72 37 -111t109 -39q44 0 96 15l27 8q9 2 9 -6l5 -24q2 -7 -6 -9l-27 -8q-58 -17 -104 -17h-11l-24 -47h6q38 0 58.5 -17.5t20.5 -48.5
q0 -38 -26 -67.5t-79 -29.5q-22 0 -43 8l-15 5q-9 3 -4 11l11 20q3 6 10 5l13 -5q16 -5 30 -5q29 0 47.5 15t18.5 41q0 33 -50 33h-32q-6 0 -9 5l-2 3q-3 5 0 11l33 67q-69 12 -105 60.5t-36 125.5q0 41 8 81.5t27.5 81.5t48.5 72.5t75.5 51t103.5 19.5q43 0 94 -16z" />
    <glyph glyph-name="egrave" unicode="&#xe8;" horiz-adv-x="496" 
d="M268 696l64 -104q5 -10 -5 -10h-26q-6 0 -9 5l-70 104q-7 10 5 10h32q6 0 9 -5zM302 221l-211 -34q-1 -75 35.5 -115.5t105.5 -40.5q51 0 102 13l28 8q8 2 9 -7l3 -22q2 -8 -6 -10l-26 -6q-64 -17 -112 -17q-86 0 -133 51t-47 141q0 49 14 99.5t42.5 98t79.5 77t117 29.5
q75 0 116.5 -32t41.5 -88t-40.5 -94t-118.5 -51zM95 226l201 33q65 11 94 39.5t29 62.5q0 40 -31 62t-87 22q-82 0 -136 -56.5t-70 -162.5z" />
    <glyph glyph-name="eacute" unicode="&#xe9;" horiz-adv-x="496" 
d="M389 701h33q5 0 6.5 -3t-2.5 -7l-103 -105q-4 -4 -10 -4h-26q-5 0 -6.5 3t2.5 7l96 105q4 4 10 4zM302 221l-211 -34q-1 -75 35.5 -115.5t105.5 -40.5q51 0 102 13l28 8q8 2 9 -7l3 -22q2 -8 -6 -10l-26 -6q-64 -17 -112 -17q-86 0 -133 51t-47 141q0 49 14 99.5t42.5 98
t79.5 77t117 29.5q75 0 116.5 -32t41.5 -88t-40.5 -94t-118.5 -51zM95 226l201 33q65 11 94 39.5t29 62.5q0 40 -31 62t-87 22q-82 0 -136 -56.5t-70 -162.5z" />
    <glyph glyph-name="ecircumflex" unicode="&#xea;" horiz-adv-x="496" 
d="M323 663l-85 -77q-4 -4 -10 -4h-22q-5 0 -6.5 3t2.5 7l105 105q4 4 10 4h25q6 0 9 -5l72 -104q7 -10 -5 -10h-25q-6 0 -10 5zM302 221l-211 -34q-1 -75 35.5 -115.5t105.5 -40.5q51 0 102 13l28 8q8 2 9 -7l3 -22q2 -8 -6 -10l-26 -6q-64 -17 -112 -17q-86 0 -133 51
t-47 141q0 49 14 99.5t42.5 98t79.5 77t117 29.5q75 0 116.5 -32t41.5 -88t-40.5 -94t-118.5 -51zM95 226l201 33q65 11 94 39.5t29 62.5q0 40 -31 62t-87 22q-82 0 -136 -56.5t-70 -162.5z" />
    <glyph glyph-name="edieresis" unicode="&#xeb;" horiz-adv-x="496" 
d="M259 707q29 0 29 -28q0 -36 -34 -36q-29 0 -29 27q0 37 34 37zM400 707q29 0 29 -28q0 -36 -34 -36q-29 0 -29 27q0 37 34 37zM302 221l-211 -34q-1 -75 35.5 -115.5t105.5 -40.5q51 0 102 13l28 8q8 2 9 -7l3 -22q2 -8 -6 -10l-26 -6q-64 -17 -112 -17q-86 0 -133 51
t-47 141q0 49 14 99.5t42.5 98t79.5 77t117 29.5q75 0 116.5 -32t41.5 -88t-40.5 -94t-118.5 -51zM95 226l201 33q65 11 94 39.5t29 62.5q0 40 -31 62t-87 22q-82 0 -136 -56.5t-70 -162.5z" />
    <glyph glyph-name="igrave" unicode="&#xec;" horiz-adv-x="236" 
d="M136 701h30q8 0 9 -7l25 -103q2 -9 -7 -9h-22q-8 0 -9 7l-32 103q-4 9 6 9zM107 0h-25q-8 0 -8 9l68 427h-43q-9 0 -7 9l4 24q1 7 8 7h78q8 0 8 -9l-75 -460q-1 -7 -8 -7z" />
    <glyph glyph-name="iacute" unicode="&#xed;" horiz-adv-x="236" 
d="M260 691l-65 -104q-3 -5 -9 -5h-21q-11 0 -6 10l57 103q3 6 9 6h30q10 0 5 -10zM107 0h-25q-8 0 -8 9l68 427h-43q-9 0 -7 9l4 24q1 7 8 7h78q8 0 8 -9l-75 -460q-1 -7 -8 -7z" />
    <glyph glyph-name="icircumflex" unicode="&#xee;" horiz-adv-x="236" 
d="M217 695l51 -104q5 -9 -6 -9h-23q-6 0 -9 6l-41 72l-65 -74q-4 -4 -10 -4h-20q-12 0 -5 10l83 104q4 5 10 5h25q7 0 10 -6zM92 445l4 24q1 7 8 7h78q8 0 8 -9l-75 -460q-1 -7 -8 -7h-25q-8 0 -8 9l68 427h-43q-9 0 -7 9z" />
    <glyph glyph-name="idieresis" unicode="&#xef;" horiz-adv-x="236" 
d="M143 707q29 0 29 -28q0 -36 -34 -36q-29 0 -29 27q0 37 34 37zM247 707q29 0 29 -28q0 -36 -34 -36q-29 0 -29 27q0 37 34 37zM107 0h-25q-8 0 -8 9l68 427h-43q-9 0 -7 9l4 24q1 7 8 7h78q8 0 8 -9l-75 -460q-1 -7 -8 -7z" />
    <glyph glyph-name="eth" unicode="&#xf0;" horiz-adv-x="536" 
d="M486 640l-96 -47q97 -105 97 -256q0 -62 -13.5 -120t-42 -110.5t-81 -84.5t-122.5 -32q-85 0 -132 49t-47 136q0 49 14 97.5t42 93t78.5 72.5t114.5 28q79 0 125 -46q9 -8 12.5 -4.5t1.5 13.5q-21 76 -84 145l-104 -51q-7 -4 -11 3l-8 16q-4 6 3 11l95 47l-18 17l-74 74
q-4 4 -2.5 7t6.5 3h37q6 0 10 -4l56 -56l23 -22l105 52q6 4 11 -3l8 -17q3 -7 -4 -11zM230 31q56 0 99 25t65.5 64.5t33 79.5t10.5 80q0 69 -36.5 107.5t-103.5 38.5q-56 0 -99 -25t-65.5 -64.5t-33 -80t-10.5 -80.5q0 -69 36.5 -107t103.5 -38z" />
    <glyph glyph-name="ntilde" unicode="&#xf1;" 
d="M210 616l22 34q23 38 62 38q18 0 43 -14l50 -28q16 -9 27 -9q17 0 31 21l15 22q5 5 10 5h22q11 0 6 -10l-22 -33q-26 -38 -62 -38q-19 0 -44 14l-48 26q-20 10 -28 10q-18 0 -32 -19l-16 -24q-3 -5 -9 -5h-22q-10 0 -5 10zM158 467l-11 -67q0 -6 3.5 -7t7.5 5
q71 88 183 88q81 0 119.5 -53.5t24.5 -144.5l-46 -281q-1 -7 -8 -7h-25q-8 0 -8 9l45 281q12 73 -15.5 114t-89.5 41q-85 0 -141.5 -59t-74.5 -167l-34 -212q-1 -7 -8 -7h-26q-8 0 -8 9l74 460q1 7 8 7h22q10 0 8 -9z" />
    <glyph glyph-name="ograve" unicode="&#xf2;" horiz-adv-x="533" 
d="M282 696l64 -104q5 -10 -5 -10h-26q-6 0 -9 5l-70 104q-7 10 5 10h32q6 0 9 -5zM304 486q85 0 132.5 -50.5t47.5 -140.5q0 -49 -14.5 -100t-43 -98t-79.5 -77t-117 -30q-85 0 -132.5 51t-47.5 141q0 39 8.5 79t28 81t47.5 72.5t72.5 51.5t97.5 20zM302 445q-56 0 -99 -26
t-66 -67.5t-34 -84.5t-11 -85q0 -72 36 -111.5t103 -39.5q56 0 99 26.5t66 68t34 84.5t11 85q0 72 -36 111t-103 39z" />
    <glyph glyph-name="oacute" unicode="&#xf3;" horiz-adv-x="533" 
d="M403 701h33q5 0 6.5 -3t-2.5 -7l-103 -105q-4 -4 -10 -4h-26q-5 0 -6.5 3t2.5 7l96 105q4 4 10 4zM304 486q85 0 132.5 -50.5t47.5 -140.5q0 -49 -14.5 -100t-43 -98t-79.5 -77t-117 -30q-85 0 -132.5 51t-47.5 141q0 39 8.5 79t28 81t47.5 72.5t72.5 51.5t97.5 20z
M302 445q-56 0 -99 -26t-66 -67.5t-34 -84.5t-11 -85q0 -72 36 -111.5t103 -39.5q56 0 99 26.5t66 68t34 84.5t11 85q0 72 -36 111t-103 39z" />
    <glyph glyph-name="ocircumflex" unicode="&#xf4;" horiz-adv-x="533" 
d="M337 663l-85 -77q-4 -4 -10 -4h-22q-5 0 -6.5 3t2.5 7l105 105q4 4 10 4h25q6 0 9 -5l72 -104q7 -10 -5 -10h-25q-6 0 -10 5zM304 486q85 0 132.5 -50.5t47.5 -140.5q0 -49 -14.5 -100t-43 -98t-79.5 -77t-117 -30q-85 0 -132.5 51t-47.5 141q0 39 8.5 79t28 81
t47.5 72.5t72.5 51.5t97.5 20zM231 31q56 0 99 26.5t66 68t34 84.5t11 85q0 72 -36 111t-103 39q-56 0 -99 -26t-66 -67.5t-34 -84.5t-11 -85q0 -72 36 -111.5t103 -39.5z" />
    <glyph glyph-name="otilde" unicode="&#xf5;" horiz-adv-x="533" 
d="M193 616l22 34q23 38 62 38q18 0 43 -14l50 -28q16 -9 27 -9q17 0 31 21l15 22q5 5 10 5h22q11 0 6 -10l-22 -33q-26 -38 -62 -38q-19 0 -44 14l-48 26q-20 10 -28 10q-18 0 -32 -19l-16 -24q-3 -5 -9 -5h-22q-10 0 -5 10zM304 486q85 0 132.5 -50.5t47.5 -140.5
q0 -49 -14.5 -100t-43 -98t-79.5 -77t-117 -30q-85 0 -132.5 51t-47.5 141q0 39 8.5 79t28 81t47.5 72.5t72.5 51.5t97.5 20zM302 445q-56 0 -99 -26t-66 -67.5t-34 -84.5t-11 -85q0 -72 36 -111.5t103 -39.5q56 0 99 26.5t66 68t34 84.5t11 85q0 72 -36 111t-103 39z" />
    <glyph glyph-name="odieresis" unicode="&#xf6;" horiz-adv-x="533" 
d="M273 707q29 0 29 -28q0 -36 -34 -36q-29 0 -29 27q0 37 34 37zM414 707q29 0 29 -28q0 -36 -34 -36q-29 0 -29 27q0 37 34 37zM304 486q85 0 132.5 -50.5t47.5 -140.5q0 -49 -14.5 -100t-43 -98t-79.5 -77t-117 -30q-85 0 -132.5 51t-47.5 141q0 39 8.5 79t28 81
t47.5 72.5t72.5 51.5t97.5 20zM302 445q-56 0 -99 -26t-66 -67.5t-34 -84.5t-11 -85q0 -72 36 -111.5t103 -39.5q56 0 99 26.5t66 68t34 84.5t11 85q0 72 -36 111t-103 39z" />
    <glyph glyph-name="oslash" unicode="&#xf8;" horiz-adv-x="534" 
d="M508 466l-53 -55q29 -46 29 -116q0 -49 -14 -100t-42.5 -98t-79.5 -77t-117 -30q-84 0 -131 49l-33 -35q-4 -4 -10 -4h-26q-5 0 -7 3t2 7l54 56q-29 46 -29 116q0 39 8.5 79t28 81t47.5 72.5t72.5 51.5t97.5 20q82 0 130 -48l32 34q4 4 10 4h26q5 0 7 -3t-2 -7zM110 98
l295 309q-35 38 -102 38q-56 0 -99 -26t-66 -67.5t-34 -84.5t-11 -85q0 -48 17 -84zM425 380l-296 -310q36 -39 103 -39q56 0 99.5 26.5t66.5 68t34 84.5t11 85q0 51 -18 85z" />
    <glyph glyph-name="ugrave" unicode="&#xf9;" 
d="M286 696l64 -104q5 -10 -5 -10h-26q-6 0 -9 5l-70 104q-7 10 5 10h32q6 0 9 -5zM397 9l11 67q0 6 -3 7t-8 -5q-71 -88 -183 -88q-81 0 -119.5 53.5t-24.5 144.5l46 281q1 7 8 7h25q8 0 8 -9l-45 -281q-12 -73 15.5 -114t89.5 -41q85 0 141.5 59t74.5 167l34 212q1 7 8 7
h26q8 0 8 -9l-74 -460q-1 -7 -8 -7h-22q-9 0 -8 9z" />
    <glyph glyph-name="uacute" unicode="&#xfa;" 
d="M408 701h33q5 0 6.5 -3t-2.5 -7l-103 -105q-4 -4 -10 -4h-26q-5 0 -6.5 3t2.5 7l96 105q4 4 10 4zM397 9l11 67q0 6 -3 7t-8 -5q-71 -88 -183 -88q-81 0 -119.5 53.5t-24.5 144.5l46 281q1 7 8 7h25q8 0 8 -9l-45 -281q-12 -73 15.5 -114t89.5 -41q85 0 141.5 59
t74.5 167l34 212q1 7 8 7h26q8 0 8 -9l-74 -460q-1 -7 -8 -7h-22q-9 0 -8 9z" />
    <glyph glyph-name="ucircumflex" unicode="&#xfb;" 
d="M341 663l-85 -77q-4 -4 -10 -4h-22q-5 0 -6.5 3t2.5 7l105 105q4 4 10 4h25q6 0 9 -5l72 -104q7 -10 -5 -10h-25q-6 0 -10 5zM475 476h26q8 0 8 -9l-74 -460q-1 -7 -8 -7h-22q-9 0 -8 9l11 67q0 6 -3 7t-8 -5q-71 -88 -183 -88q-81 0 -119.5 53.5t-24.5 144.5l46 281
q1 7 8 7h25q8 0 8 -9l-45 -281q-12 -73 15.5 -114t89.5 -41q85 0 141.5 59t74.5 167l34 212q1 7 8 7z" />
    <glyph glyph-name="udieresis" unicode="&#xfc;" 
d="M277 707q29 0 29 -28q0 -36 -34 -36q-29 0 -29 27q0 37 34 37zM418 707q29 0 29 -28q0 -36 -34 -36q-29 0 -29 27q0 37 34 37zM397 9l11 67q0 6 -3 7t-8 -5q-71 -88 -183 -88q-81 0 -119.5 53.5t-24.5 144.5l46 281q1 7 8 7h25q8 0 8 -9l-45 -281q-12 -73 15.5 -114
t89.5 -41q85 0 141.5 59t74.5 167l34 212q1 7 8 7h26q8 0 8 -9l-74 -460q-1 -7 -8 -7h-22q-9 0 -8 9z" />
    <glyph glyph-name="yacute" unicode="&#xfd;" horiz-adv-x="535" 
d="M398 701h33q5 0 6.5 -3t-2.5 -7l-103 -105q-4 -4 -10 -4h-26q-5 0 -6.5 3t2.5 7l96 105q4 4 10 4zM103 -210h-28q-10 0 -5 10l105 171q35 59 12 141l-107 355q-3 9 6 9h27q8 0 9 -7l90 -300q17 -53 19 -92q1 -10 5 -10.5t10 10.5q21 42 51 92l186 302q3 5 9 5h30
q10 0 5 -10l-415 -671q-3 -5 -9 -5z" />
    <glyph glyph-name="thorn" unicode="&#xfe;" horiz-adv-x="549" 
d="M198 692l-33 -203q-10 -63 -17 -89q-3 -9 1 -9t7 3q69 92 174 92q82 0 126 -49t44 -138q0 -51 -13.5 -102.5t-41.5 -99t-79.5 -77.5t-119.5 -30q-66 0 -124 27l-30 14l-37 -234q-1 -7 -8 -7h-26q-8 0 -8 9l143 895q1 7 8 7h26q8 0 8 -9zM98 73l42 -19q48 -23 107 -23
q56 0 98.5 26.5t65.5 68.5t34.5 86t11.5 86q0 70 -33 108.5t-96 38.5q-82 0 -136 -63.5t-70 -164.5z" />
    <glyph glyph-name="ydieresis" unicode="&#xff;" horiz-adv-x="535" 
d="M267 707q29 0 29 -28q0 -36 -34 -36q-29 0 -29 27q0 37 34 37zM408 707q29 0 29 -28q0 -36 -34 -36q-29 0 -29 27q0 37 34 37zM103 -210h-28q-10 0 -5 10l105 171q35 59 12 141l-107 355q-3 9 6 9h27q8 0 9 -7l90 -300q17 -53 19 -92q1 -10 5 -10.5t10 10.5q21 42 51 92
l186 302q3 5 9 5h30q10 0 5 -10l-415 -671q-3 -5 -9 -5z" />
    <glyph glyph-name="Amacron" unicode="&#x100;" horiz-adv-x="683" 
d="M320 827h254q8 0 8 -9l-4 -21q-1 -7 -8 -7h-254q-8 0 -8 9l4 21q1 7 8 7zM169 195l-112 -190q-3 -5 -9 -5h-31q-12 0 -5 10l314 525q46 80 73 142q3 6 10 6h27q7 0 9 -7q7 -58 25 -141l128 -526q2 -9 -7 -9h-27q-8 0 -9 7l-45 188h-341zM501 235l-66 267q-13 56 -17 108
q0 3 -2 4.5t-5 0t-4 -4.5q-19 -49 -55 -108l-158 -267h307z" />
    <glyph glyph-name="amacron" unicode="&#x101;" horiz-adv-x="545" 
d="M235 660h221q8 0 7 -9l-4 -21q-1 -7 -8 -7h-220q-8 0 -8 9l4 21q1 7 8 7zM391 9l19 108q2 10 -3 9q-3 -1 -8 -8q-39 -60 -82.5 -94t-106.5 -34q-76 0 -118 47t-42 131q0 51 15 104t44.5 102t82.5 80.5t121 31.5q60 0 111 -20l66 -24q7 -3 6 -10l-67 -425q-1 -7 -8 -7h-22
q-8 0 -8 9zM453 414l-42 15q-46 16 -99 16q-56 0 -100.5 -27.5t-69.5 -71t-37.5 -88.5t-12.5 -87q0 -66 32 -103t89 -37q80 0 144 91.5t85 223.5z" />
    <glyph glyph-name="Abreve" unicode="&#x102;" horiz-adv-x="683" 
d="M563 853l-2 -12q-14 -88 -125 -88q-54 0 -78.5 22.5t-17.5 65.5l2 14q1 7 8 7h23q9 0 8 -9l-2 -11q-5 -25 11.5 -38t52.5 -13q71 0 80 51l2 13q1 7 8 7h22q9 0 8 -9zM169 195l-112 -190q-3 -5 -9 -5h-31q-12 0 -5 10l314 525q46 80 73 142q3 6 10 6h27q7 0 9 -7
q7 -58 25 -141l128 -526q2 -9 -7 -9h-27q-8 0 -9 7l-45 188h-341zM501 235l-66 267q-13 56 -17 108q0 3 -2 4.5t-5 0t-4 -4.5q-19 -49 -55 -108l-158 -267h307z" />
    <glyph glyph-name="abreve" unicode="&#x103;" horiz-adv-x="545" 
d="M457 691l-4 -25q-8 -46 -39 -70.5t-80 -24.5q-50 0 -74.5 26t-16.5 72l4 24q1 7 8 7h21q10 0 8 -9l-4 -25q-9 -60 56 -60q33 0 53.5 16.5t25.5 45.5l4 25q1 7 8 7h22q9 0 8 -9zM391 9l19 108q2 10 -3 9q-3 -1 -8 -8q-39 -60 -82.5 -94t-106.5 -34q-76 0 -118 47t-42 131
q0 51 15 104t44.5 102t82.5 80.5t121 31.5q60 0 111 -20l66 -24q7 -3 6 -10l-67 -425q-1 -7 -8 -7h-22q-8 0 -8 9zM453 414l-42 15q-46 16 -99 16q-56 0 -100.5 -27.5t-69.5 -71t-37.5 -88.5t-12.5 -87q0 -66 32 -103t89 -37q80 0 144 91.5t85 223.5z" />
    <glyph glyph-name="Aogonek" unicode="&#x104;" horiz-adv-x="683" 
d="M556 -174l14 4q8 3 9 -6l3 -20q1 -7 -6 -10l-17 -6q-24 -8 -44 -8q-31 0 -48 16t-17 45q0 42 40 78l47 45q25 25 21 36q-1 0 -2 5l-46 190h-341l-112 -190q-3 -5 -9 -5h-31q-12 0 -5 10l314 525q46 80 73 142q3 6 10 6h27q7 0 9 -7q7 -58 25 -141l129 -530q1 -4 1 -10
q-3 -22 -36 -52l-49 -47q-24 -26 -24 -47q0 -29 31 -29q12 0 34 6zM501 235l-66 267q-13 56 -17 108q0 3 -2 4.5t-5 0t-4 -4.5q-19 -49 -55 -108l-158 -267h307z" />
    <glyph glyph-name="aogonek" unicode="&#x105;" horiz-adv-x="545" 
d="M394 -57l-51 -47q-23 -24 -23 -48q0 -28 31 -28q12 0 33 6l14 4q9 4 9 -6l4 -20q1 -7 -6 -10l-18 -6q-24 -8 -43 -8q-31 0 -48.5 16t-17.5 44q0 42 40 79l48 46q20 20 24 35l2 11v3l18 103q2 10 -3 9q-3 -1 -8 -8q-39 -60 -82.5 -94t-106.5 -34q-76 0 -118 47t-42 131
q0 51 15 104t44.5 102t82.5 80.5t121 31.5q60 0 111 -20l66 -24q7 -3 6 -10l-68 -432q-5 -28 -34 -57zM453 414l-42 15q-46 16 -99 16q-56 0 -100.5 -27.5t-69.5 -71t-37.5 -88.5t-12.5 -87q0 -66 32 -103t89 -37q80 0 144 91.5t85 223.5z" />
    <glyph glyph-name="Cacute" unicode="&#x106;" horiz-adv-x="595" 
d="M492 862h42q6 0 7 -3t-4 -7l-109 -85q-4 -3 -10 -3h-28q-6 0 -7 3t3 7l96 84q4 4 10 4zM491 30l-44 -16q-68 -24 -144 -24q-113 0 -174 69.5t-61 194.5q0 55 11 112.5t37 117t64 105t98.5 75t134.5 29.5q63 0 139 -27l36 -15q8 -3 4 -10l-13 -23q-4 -7 -11 -4l-36 14
q-61 24 -123 24q-80 0 -140.5 -40t-93 -103.5t-48 -128.5t-15.5 -127q0 -106 50 -163.5t145 -57.5q73 1 132 21l43 15q8 3 10 -5l5 -24q1 -7 -6 -9z" />
    <glyph glyph-name="cacute" unicode="&#x107;" horiz-adv-x="466" 
d="M385 701h33q5 0 6.5 -3t-2.5 -7l-103 -105q-4 -4 -10 -4h-26q-5 0 -6.5 3t2.5 7l96 105q4 4 10 4zM369 15l-27 -8q-58 -17 -104 -17q-92 0 -140 50t-48 140q0 41 8 81.5t27.5 81.5t48.5 72.5t75.5 51t103.5 19.5q43 0 94 -16l22 -7q8 -3 5 -11l-10 -22q-3 -6 -10 -5
l-22 8q-41 12 -80 12q-50 0 -89.5 -18t-63 -45.5t-39.5 -64t-22 -70t-6 -66.5q0 -72 37 -111t109 -39q44 0 96 15l27 8q9 2 9 -6l5 -24q2 -7 -6 -9z" />
    <glyph glyph-name="Ccircumflex" unicode="&#x108;" horiz-adv-x="595" 
d="M425 826l-84 -59q-5 -3 -9 -3h-24q-3 0 -5 1.5t-1.5 4t3.5 4.5l99 84q4 4 10 4h32q6 0 10 -4l73 -84q3 -4 1.5 -7t-6.5 -3h-26q-6 0 -10 4zM552 666l36 -15q8 -3 4 -10l-13 -23q-4 -7 -11 -4l-36 14q-61 24 -123 24q-80 0 -140.5 -40t-93 -103.5t-48 -128.5t-15.5 -127
q0 -106 50 -163.5t145 -57.5q73 1 132 21l43 15q8 3 10 -5l5 -24q1 -7 -6 -9l-44 -16q-68 -24 -144 -24q-113 0 -174 69.5t-61 194.5q0 55 11 112.5t37 117t64 105t98.5 75t134.5 29.5q63 0 139 -27z" />
    <glyph glyph-name="ccircumflex" unicode="&#x109;" horiz-adv-x="466" 
d="M319 663l-85 -77q-4 -4 -10 -4h-22q-5 0 -6.5 3t2.5 7l105 105q4 4 10 4h25q6 0 9 -5l72 -104q7 -10 -5 -10h-25q-6 0 -10 5zM407 470l22 -7q8 -3 5 -11l-10 -22q-3 -6 -10 -5l-22 8q-41 12 -80 12q-50 0 -89.5 -18t-63 -45.5t-39.5 -64t-22 -70t-6 -66.5q0 -72 37 -111
t109 -39q44 0 96 15l27 8q9 2 9 -6l5 -24q2 -7 -6 -9l-27 -8q-58 -17 -104 -17q-92 0 -140 50t-48 140q0 41 8 81.5t27.5 81.5t48.5 72.5t75.5 51t103.5 19.5q43 0 94 -16z" />
    <glyph glyph-name="Cdotaccent" unicode="&#x10a;" horiz-adv-x="595" 
d="M426 842q26 0 26 -24q0 -16 -9.5 -25.5t-25.5 -9.5q-26 0 -26 24q0 35 35 35zM491 30l-44 -16q-68 -24 -144 -24q-113 0 -174 69.5t-61 194.5q0 55 11 112.5t37 117t64 105t98.5 75t134.5 29.5q63 0 139 -27l36 -15q8 -3 4 -10l-13 -23q-4 -7 -11 -4l-36 14
q-61 24 -123 24q-80 0 -140.5 -40t-93 -103.5t-48 -128.5t-15.5 -127q0 -106 50 -163.5t145 -57.5q73 1 132 21l43 15q8 3 10 -5l5 -24q1 -7 -6 -9z" />
    <glyph glyph-name="cdotaccent" unicode="&#x10b;" horiz-adv-x="466" 
d="M324 707q29 0 29 -28q0 -37 -34 -37q-29 0 -29 27q0 38 34 38zM369 15l-27 -8q-58 -17 -104 -17q-92 0 -140 50t-48 140q0 41 8 81.5t27.5 81.5t48.5 72.5t75.5 51t103.5 19.5q43 0 94 -16l22 -7q8 -3 5 -11l-10 -22q-3 -6 -10 -5l-22 8q-41 12 -80 12q-50 0 -89.5 -18
t-63 -45.5t-39.5 -64t-22 -70t-6 -66.5q0 -72 37 -111t109 -39q44 0 96 15l27 8q9 2 9 -6l5 -24q2 -7 -6 -9z" />
    <glyph glyph-name="Ccaron" unicode="&#x10c;" horiz-adv-x="595" 
d="M431 763h-32q-6 0 -10 4l-73 84q-3 4 -1.5 7t6.5 3h26q6 0 10 -4l63 -58l84 59q4 3 9 3h24q3 0 5 -1.5t1.5 -4t-3.5 -4.5l-99 -84q-4 -4 -10 -4zM552 666l36 -15q8 -3 4 -10l-13 -23q-4 -7 -11 -4l-36 14q-61 24 -123 24q-80 0 -140.5 -40t-93 -103.5t-48 -128.5
t-15.5 -127q0 -106 50 -163.5t145 -57.5q73 1 132 21l43 15q8 3 10 -5l5 -24q1 -7 -6 -9l-44 -16q-68 -24 -144 -24q-113 0 -174 69.5t-61 194.5q0 55 11 112.5t37 117t64 105t98.5 75t134.5 29.5q63 0 139 -27z" />
    <glyph glyph-name="ccaron" unicode="&#x10d;" horiz-adv-x="466" 
d="M320 583h-25q-6 0 -9 5l-72 104q-7 10 5 10h25q6 0 10 -5l60 -76l85 77q4 4 10 4h22q5 0 6.5 -3t-2.5 -7l-105 -105q-4 -4 -10 -4zM369 15l-27 -8q-58 -17 -104 -17q-92 0 -140 50t-48 140q0 41 8 81.5t27.5 81.5t48.5 72.5t75.5 51t103.5 19.5q43 0 94 -16l22 -7
q8 -3 5 -11l-10 -22q-3 -6 -10 -5l-22 8q-41 12 -80 12q-50 0 -89.5 -18t-63 -45.5t-39.5 -64t-22 -70t-6 -66.5q0 -72 37 -111t109 -39q44 0 96 15l27 8q9 2 9 -6l5 -24q2 -7 -6 -9z" />
    <glyph glyph-name="Dcaron" unicode="&#x10e;" horiz-adv-x="657" 
d="M413 763h-32q-6 0 -10 4l-73 84q-3 4 -1.5 7t6.5 3h26q6 0 10 -4l63 -58l84 59q4 3 9 3h24q3 0 5 -1.5t1.5 -4t-3.5 -4.5l-99 -84q-4 -4 -10 -4zM171 683h215q112 0 173.5 -68t61.5 -190q0 -54 -11 -109.5t-37 -113t-64 -102t-97.5 -72.5t-131.5 -28h-216q-8 0 -8 9
l107 667q1 7 8 7zM104 40h179q64 0 116 26.5t84.5 67t54.5 93.5t30.5 102.5t8.5 96.5q0 104 -50 161t-145 57h-181z" />
    <glyph glyph-name="dcaron" unicode="&#x10f;" horiz-adv-x="557" 
d="M539 692l-110 -685q-1 -7 -8 -7h-22q-9 0 -8 9l11 67q1 6 -0.5 7.5t-4 0t-6.5 -5.5q-76 -88 -172 -88q-81 0 -125 49.5t-44 138.5q0 40 8 80.5t27 82t47 73.5t72 52t99 20q69 0 124 -28l30 -15l40 251q1 7 8 7h26q8 0 8 -9zM623 701h24q9 0 8 -9l-4 -26q-5 -27 -28 -69
l-6 -10q-3 -5 -9 -5h-17q-11 0 -6 9l8 16q14 31 18 61l4 26q1 7 8 7zM451 403l-35 17q-48 25 -113 25q-46 0 -83.5 -18t-60.5 -46t-38.5 -63.5t-22 -69.5t-6.5 -67q0 -71 33.5 -110.5t96.5 -39.5q82 0 135.5 63t69.5 163z" />
    <glyph glyph-name="Dcroat" unicode="&#x110;" horiz-adv-x="700" 
d="M214 683h215q112 0 173.5 -68t61.5 -190q0 -54 -11 -109.5t-37 -113t-64 -102t-97.5 -72.5t-131.5 -28h-216q-8 0 -8 9l51 317h-88q-8 0 -7 9l4 24q1 7 8 7h89l50 310q1 7 8 7zM147 40h179q64 0 116 26.5t84.5 67t54.5 93.5t30.5 102.5t8.5 96.5q0 104 -50 161t-145 57
h-181l-45 -278h167q8 0 7 -9l-4 -24q-1 -7 -8 -7h-168z" />
    <glyph glyph-name="dcroat" unicode="&#x111;" 
d="M583 588l-4 -21q-1 -7 -8 -7h-54l-88 -553q-1 -7 -8 -7h-22q-9 0 -8 9l11 67q1 6 -0.5 7.5t-4 0t-6.5 -5.5q-76 -88 -172 -88q-81 0 -125 49.5t-44 138.5q0 40 8 80.5t27 82t47 73.5t72 52t99 20q69 0 124 -28l30 -15l19 117h-149q-8 0 -8 9l4 21q1 7 8 7h150l16 97
q1 7 8 7h26q8 0 8 -9l-16 -95h52q8 0 8 -9zM451 403l-35 17q-48 25 -113 25q-46 0 -83.5 -18t-60.5 -46t-38.5 -63.5t-22 -69.5t-6.5 -67q0 -71 33.5 -110.5t96.5 -39.5q82 0 135.5 63t69.5 163z" />
    <glyph glyph-name="Emacron" unicode="&#x112;" horiz-adv-x="597" 
d="M283 827h254q8 0 8 -9l-4 -21q-1 -7 -8 -7h-254q-8 0 -8 9l4 21q1 7 8 7zM158 371h326q8 0 7 -9l-4 -24q-1 -7 -8 -7h-328l-46 -291h397q8 0 7 -9l-4 -24q-1 -7 -8 -7h-433q-8 0 -8 9l108 667q1 7 8 7h427q10 0 6 -9l-11 -24q-3 -6 -10 -6h-383z" />
    <glyph glyph-name="emacron" unicode="&#x113;" horiz-adv-x="496" 
d="M213 660h221q8 0 7 -9l-4 -21q-1 -7 -8 -7h-220q-8 0 -8 9l4 21q1 7 8 7zM302 221l-211 -34q-1 -75 35.5 -115.5t105.5 -40.5q51 0 102 13l28 8q8 2 9 -7l3 -22q2 -8 -6 -10l-26 -6q-64 -17 -112 -17q-86 0 -133 51t-47 141q0 49 14 99.5t42.5 98t79.5 77t117 29.5
q75 0 116.5 -32t41.5 -88t-40.5 -94t-118.5 -51zM95 226l201 33q65 11 94 39.5t29 62.5q0 40 -31 62t-87 22q-82 0 -136 -56.5t-70 -162.5z" />
    <glyph glyph-name="Ebreve" unicode="&#x114;" horiz-adv-x="597" 
d="M526 853l-2 -12q-14 -88 -125 -88q-54 0 -78.5 22.5t-17.5 65.5l2 14q1 7 8 7h23q10 0 8 -9l-2 -11q-5 -25 11.5 -38t52.5 -13q71 0 80 51l2 13q1 7 8 7h22q10 0 8 -9zM158 371h326q8 0 7 -9l-4 -24q-1 -7 -8 -7h-328l-46 -291h397q8 0 7 -9l-4 -24q-1 -7 -8 -7h-433
q-8 0 -8 9l108 667q1 7 8 7h427q10 0 6 -9l-11 -24q-3 -6 -10 -6h-383z" />
    <glyph glyph-name="ebreve" unicode="&#x115;" horiz-adv-x="496" 
d="M435 691l-4 -25q-8 -46 -39 -70.5t-80 -24.5q-50 0 -74.5 26t-16.5 72l4 24q1 7 8 7h21q10 0 8 -9l-4 -25q-9 -60 56 -60q33 0 53.5 16.5t25.5 45.5l4 25q1 7 8 7h22q9 0 8 -9zM302 221l-211 -34q-1 -75 35.5 -115.5t105.5 -40.5q51 0 102 13l28 8q8 2 9 -7l3 -22
q2 -8 -6 -10l-26 -6q-64 -17 -112 -17q-86 0 -133 51t-47 141q0 49 14 99.5t42.5 98t79.5 77t117 29.5q75 0 116.5 -32t41.5 -88t-40.5 -94t-118.5 -51zM95 226l201 33q65 11 94 39.5t29 62.5q0 40 -31 62t-87 22q-82 0 -136 -56.5t-70 -162.5z" />
    <glyph glyph-name="Edotaccent" unicode="&#x116;" horiz-adv-x="597" 
d="M413 842q26 0 26 -24q0 -16 -9.5 -25.5t-25.5 -9.5q-26 0 -26 24q0 35 35 35zM158 371h326q8 0 7 -9l-4 -24q-1 -7 -8 -7h-328l-46 -291h397q8 0 7 -9l-4 -24q-1 -7 -8 -7h-433q-8 0 -8 9l108 667q1 7 8 7h427q10 0 6 -9l-11 -24q-3 -6 -10 -6h-383z" />
    <glyph glyph-name="edotaccent" unicode="&#x117;" horiz-adv-x="496" 
d="M328 707q29 0 29 -28q0 -37 -34 -37q-29 0 -29 27q0 38 34 38zM302 221l-211 -34q-1 -75 35.5 -115.5t105.5 -40.5q51 0 102 13l28 8q8 2 9 -7l3 -22q2 -8 -6 -10l-26 -6q-64 -17 -112 -17q-86 0 -133 51t-47 141q0 49 14 99.5t42.5 98t79.5 77t117 29.5q75 0 116.5 -32
t41.5 -88t-40.5 -94t-118.5 -51zM95 226l201 33q65 11 94 39.5t29 62.5q0 40 -31 62t-87 22q-82 0 -136 -56.5t-70 -162.5z" />
    <glyph glyph-name="Eogonek" unicode="&#x118;" horiz-adv-x="602" 
d="M201 644l-43 -273h326q8 0 7 -9l-4 -24q-1 -7 -8 -7h-328l-46 -291h397q8 0 7 -9l-5 -31q6 0 -6 -10l-102 -94q-22 -22 -22 -48q0 -28 30 -28q12 0 34 6l14 4q8 3 10 -5l4 -21q2 -8 -6 -9l-18 -7q-23 -8 -44 -8q-31 0 -48.5 16.5t-17.5 44.5q0 41 40 78l57 53l4 4
q10 10 13 14t0 7t-17 3h-365q-8 0 -8 9l108 667q1 7 8 7h427q10 0 6 -9l-11 -24q-3 -6 -10 -6h-383z" />
    <glyph glyph-name="eogonek" unicode="&#x119;" horiz-adv-x="496" 
d="M302 221l-211 -34q-1 -75 35.5 -115.5t105.5 -40.5q51 0 102 13l28 8q8 2 9 -7l4 -30l-4 -4l-145 -112q-32 -24 -32 -52q0 -29 34 -29q17 0 36 6l14 4q8 3 10 -5l4 -19q1 -7 -6 -10l-17 -6q-29 -8 -43 -8q-33 0 -51.5 16.5t-18.5 45.5q0 48 48 85l58 45q24 20 8 20
q-24 -2 -40 -2q-86 0 -133 51t-47 141q0 49 14 99.5t42.5 98t79.5 77t117 29.5q75 0 116.5 -32t41.5 -88t-40.5 -94t-118.5 -51zM95 226l201 33q65 11 94 39.5t29 62.5q0 40 -31 62t-87 22q-82 0 -136 -56.5t-70 -162.5z" />
    <glyph glyph-name="Ecaron" unicode="&#x11a;" horiz-adv-x="597" 
d="M418 763h-32q-6 0 -10 4l-73 84q-3 4 -1.5 7t6.5 3h26q6 0 10 -4l63 -58l84 59q5 3 9 3h24q3 0 5 -1.5t1.5 -4t-3.5 -4.5l-99 -84q-4 -4 -10 -4zM201 644l-43 -273h326q8 0 7 -9l-4 -24q-1 -7 -8 -7h-328l-46 -291h397q8 0 7 -9l-4 -24q-1 -7 -8 -7h-433q-8 0 -8 9
l108 667q1 7 8 7h427q10 0 6 -9l-11 -24q-3 -6 -10 -6h-383z" />
    <glyph glyph-name="ecaron" unicode="&#x11b;" horiz-adv-x="496" 
d="M324 583h-25q-6 0 -9 5l-72 104q-7 10 5 10h25q6 0 10 -5l60 -76l85 77q4 4 10 4h22q5 0 6.5 -3t-2.5 -7l-105 -105q-4 -4 -10 -4zM302 221l-211 -34q-1 -75 35.5 -115.5t105.5 -40.5q51 0 102 13l28 8q8 2 9 -7l3 -22q2 -8 -6 -10l-26 -6q-64 -17 -112 -17
q-86 0 -133 51t-47 141q0 49 14 99.5t42.5 98t79.5 77t117 29.5q75 0 116.5 -32t41.5 -88t-40.5 -94t-118.5 -51zM95 226l201 33q65 11 94 39.5t29 62.5q0 40 -31 62t-87 22q-82 0 -136 -56.5t-70 -162.5z" />
    <glyph glyph-name="Gcircumflex" unicode="&#x11c;" horiz-adv-x="643" 
d="M419 826l-84 -59q-5 -3 -9 -3h-24q-3 0 -5 1.5t-1.5 4t3.5 4.5l99 84q4 4 10 4h32q6 0 10 -4l73 -84q3 -4 1.5 -7t-6.5 -3h-26q-6 0 -10 4zM380 294l11 24q3 6 10 6h168q8 0 8 -9l-43 -264q-2 -7 -7 -8l-79 -28q-68 -25 -145 -25q-113 0 -174 69.5t-61 194.5q0 55 11 112
t37 116.5t64.5 105.5t99 75.5t134.5 29.5q67 0 138 -26l36 -15q9 -4 4 -10l-13 -24q-4 -7 -11 -4l-36 14q-61 24 -123 24q-65 0 -117 -27t-85 -69.5t-55 -97t-31 -106t-9 -100.5q0 -106 50.5 -163t145.5 -57q68 1 130 22l57 20l33 211h-142q-10 0 -6 9z" />
    <glyph glyph-name="gcircumflex" unicode="&#x11d;" horiz-adv-x="546" 
d="M344 663l-85 -77q-4 -4 -10 -4h-22q-5 0 -6.5 3t2.5 7l105 105q4 4 10 4h25q6 0 9 -5l72 -104q7 -10 -5 -10h-25q-6 0 -10 5zM430 458l61 -29q6 -3 5 -10l-71 -445q-14 -92 -75 -142.5t-163 -50.5q-61 0 -117 16l-39 12q-7 3 -4 11l13 23q3 5 10 4l36 -11q49 -14 101 -14
q165 0 197 154q4 25 8.5 49t8 39.5t3.5 18.5q1 7 -3 7t-9 -7q-73 -93 -175 -93q-92 0 -135.5 66.5t-26.5 180.5q17 116 83.5 182.5t169.5 66.5q64 0 122 -28zM450 400l-40 23q-41 22 -106 22q-84 -1 -138 -56t-69 -154q-15 -93 17.5 -148.5t106.5 -55.5q82 0 136.5 63.5
t69.5 163.5z" />
    <glyph glyph-name="Gbreve" unicode="&#x11e;" horiz-adv-x="643" 
d="M534 853l-2 -12q-14 -88 -125 -88q-54 0 -78.5 22.5t-17.5 65.5l2 14q1 7 8 7h23q10 0 8 -9l-2 -11q-5 -25 11.5 -38t52.5 -13q71 0 80 51l2 13q1 7 8 7h22q10 0 8 -9zM401 324h168q8 0 8 -9l-43 -264q-2 -7 -7 -8l-79 -28q-68 -25 -145 -25q-113 0 -174 69.5t-61 194.5
q0 55 11 112t37 116.5t64.5 105.5t99 75.5t134.5 29.5q67 0 138 -26l36 -15q9 -4 4 -10l-13 -24q-4 -7 -11 -4l-36 14q-61 24 -123 24q-65 0 -117 -27t-85 -69.5t-55 -97t-31 -106t-9 -100.5q0 -106 50.5 -163t145.5 -57q68 1 130 22l57 20l33 211h-142q-10 0 -6 9l11 24
q3 6 10 6z" />
    <glyph glyph-name="gbreve" unicode="&#x11f;" horiz-adv-x="546" 
d="M457 691l-4 -25q-8 -46 -39 -70.5t-80 -24.5q-50 0 -74.5 26t-16.5 72l4 24q1 7 8 7h21q10 0 8 -9l-4 -25q-9 -60 56 -60q33 0 53.5 16.5t25.5 45.5l4 25q1 7 8 7h22q9 0 8 -9zM50 -153l36 -11q49 -14 101 -14q165 0 197 154q4 25 8.5 49t8 39.5t3.5 18.5q1 7 -3 7t-9 -7
q-73 -93 -175 -93q-92 0 -135.5 66.5t-26.5 180.5q17 116 83.5 182.5t169.5 66.5q64 0 122 -28l61 -29q6 -3 5 -10l-71 -445q-14 -92 -75 -142.5t-163 -50.5q-61 0 -117 16l-39 12q-7 3 -4 11l13 23q3 5 10 4zM450 400l-40 23q-41 22 -106 22q-84 -1 -138 -56t-69 -154
q-15 -93 17.5 -148.5t106.5 -55.5q82 0 136.5 63.5t69.5 163.5z" />
    <glyph glyph-name="Gdotaccent" unicode="&#x120;" horiz-adv-x="643" 
d="M421 842q26 0 26 -24q0 -16 -9.5 -25.5t-25.5 -9.5q-26 0 -26 24q0 35 35 35zM401 324h168q8 0 8 -9l-43 -264q-2 -7 -7 -8l-79 -28q-68 -25 -145 -25q-113 0 -174 69.5t-61 194.5q0 55 11 112t37 116.5t64.5 105.5t99 75.5t134.5 29.5q67 0 138 -26l36 -15q9 -4 4 -10
l-13 -24q-4 -7 -11 -4l-36 14q-61 24 -123 24q-65 0 -117 -27t-85 -69.5t-55 -97t-31 -106t-9 -100.5q0 -106 50.5 -163t145.5 -57q68 1 130 22l57 20l33 211h-142q-10 0 -6 9l11 24q3 6 10 6z" />
    <glyph glyph-name="gdotaccent" unicode="&#x121;" horiz-adv-x="546" 
d="M350 707q29 0 29 -28q0 -37 -34 -37q-29 0 -29 27q0 38 34 38zM50 -153l36 -11q49 -14 101 -14q165 0 197 154q4 25 8.5 49t8 39.5t3.5 18.5q1 7 -3 7t-9 -7q-73 -93 -175 -93q-92 0 -135.5 66.5t-26.5 180.5q17 116 83.5 182.5t169.5 66.5q64 0 122 -28l61 -29
q6 -3 5 -10l-71 -445q-14 -92 -75 -142.5t-163 -50.5q-61 0 -117 16l-39 12q-7 3 -4 11l13 23q3 5 10 4zM450 400l-40 23q-41 22 -106 22q-84 -1 -138 -56t-69 -154q-15 -93 17.5 -148.5t106.5 -55.5q82 0 136.5 63.5t69.5 163.5z" />
    <glyph glyph-name="Gcommaaccent" unicode="&#x122;" horiz-adv-x="643" 
d="M401 324h168q8 0 8 -9l-43 -264q-2 -7 -7 -8l-79 -28q-68 -25 -145 -25q-113 0 -174 69.5t-61 194.5q0 55 11 112t37 116.5t64.5 105.5t99 75.5t134.5 29.5q67 0 138 -26l36 -15q9 -4 4 -10l-13 -24q-4 -7 -11 -4l-36 14q-61 24 -123 24q-65 0 -117 -27t-85 -69.5
t-55 -97t-31 -106t-9 -100.5q0 -106 50.5 -163t145.5 -57q68 1 130 22l57 20l33 211h-142q-10 0 -6 9l11 24q3 6 10 6zM222 -210l26 38q8 14 0 17q-21 6 -21 28q0 19 11.5 30t29.5 11q15 0 24 -9t9 -23q0 -25 -25 -64l-23 -33q-3 -5 -9 -5h-17q-12 0 -5 10z" />
    <glyph glyph-name="gcommaaccent" unicode="&#x123;" horiz-adv-x="546" 
d="M369 692l-26 -38q-8 -14 0 -17q21 -6 21 -28q0 -19 -11.5 -30t-29.5 -11q-15 0 -24 9t-9 23q0 25 25 64l23 33q3 5 9 5h17q12 0 5 -10zM50 -153l36 -11q49 -14 101 -14q165 0 197 154q4 25 8.5 49t8 39.5t3.5 18.5q1 7 -3 7t-9 -7q-73 -93 -175 -93q-92 0 -135.5 66.5
t-26.5 180.5q17 116 83.5 182.5t169.5 66.5q64 0 122 -28l61 -29q6 -3 5 -10l-71 -445q-14 -92 -75 -142.5t-163 -50.5q-61 0 -117 16l-39 12q-7 3 -4 11l13 23q3 5 10 4zM450 400l-40 23q-41 22 -106 22q-84 -1 -138 -56t-69 -154q-15 -93 17.5 -148.5t106.5 -55.5
q82 0 136.5 63.5t69.5 163.5z" />
    <glyph glyph-name="Hcircumflex" unicode="&#x124;" horiz-adv-x="684" 
d="M439 826l-84 -59q-5 -3 -9 -3h-24q-3 0 -5 1.5t-1.5 4t3.5 4.5l99 84q4 4 10 4h32q6 0 10 -4l73 -84q3 -4 1.5 -7t-6.5 -3h-26q-6 0 -10 4zM625 683h27q8 0 8 -9l-107 -667q-1 -7 -8 -7h-27q-8 0 -8 9l52 322h-411l-52 -324q-1 -7 -8 -7h-27q-8 0 -8 9l107 667q1 7 8 7
h27q10 0 8 -9l-48 -303h411l48 305q1 7 8 7z" />
    <glyph glyph-name="hcircumflex" unicode="&#x125;" horiz-adv-x="556" 
d="M202 844l-84 -59q-4 -3 -9 -3h-24q-3 0 -5 1.5t-1.5 4t3.5 4.5l99 84q4 4 10 4h32q6 0 10 -4l73 -84q3 -4 1.5 -7t-6.5 -3h-26q-6 0 -10 4zM198 692l-33 -203q-9 -59 -19 -94q-3 -7 3 -8q4 0 8 6q71 93 184 93q81 0 120 -53.5t25 -144.5l-46 -281q-1 -7 -8 -7h-25
q-8 0 -8 9l45 281q12 73 -15.5 114t-89.5 41q-94 0 -147.5 -64.5t-69.5 -161.5l-34 -212q-1 -7 -8 -7h-26q-8 0 -8 9l110 685q1 7 8 7h26q8 0 8 -9z" />
    <glyph glyph-name="Hbar" unicode="&#x126;" horiz-adv-x="684" 
d="M625 683h27q8 0 8 -9l-107 -667q-1 -7 -8 -7h-27q-8 0 -8 9l52 322h-411l-52 -324q-1 -7 -8 -7h-27q-8 0 -8 9l107 667q1 7 8 7h27q10 0 8 -9l-26 -160h411l26 162q1 7 8 7zM569 371l16 105h-411l-16 -105h411z" />
    <glyph glyph-name="hbar" unicode="&#x127;" horiz-adv-x="561" 
d="M181 560l-11 -71q-9 -59 -19 -94q-3 -7 3 -8q4 0 8 6q71 93 184 93q82 0 120.5 -53.5t24.5 -144.5l-46 -281q-1 -7 -8 -7h-25q-8 0 -8 9l45 281q12 73 -15.5 114t-89.5 41q-94 0 -147.5 -64.5t-69.5 -161.5l-34 -212q-1 -7 -8 -7h-26q-8 0 -8 9l88 551h-51q-8 0 -8 9
l4 21q1 7 8 7h53l16 97q1 7 8 7h26q8 0 8 -9l-16 -95h149q10 0 8 -9l-3 -21q-1 -7 -8 -7h-152z" />
    <glyph glyph-name="Itilde" unicode="&#x128;" horiz-adv-x="230" 
d="M41 785l24 31q25 37 73 37q21 0 48 -13l61 -25q26 -8 32 -8q23 0 38 19l15 19q4 5 10 5h25q12 0 4 -10l-24 -31q-27 -37 -73 -37q-19 0 -49 14l-59 23q-22 9 -33 9q-24 0 -38 -18l-16 -20q-4 -5 -10 -5h-24q-12 0 -4 10zM91 0h-27q-8 0 -8 9l107 667q1 7 8 7h27q8 0 8 -9
l-107 -667q-1 -7 -8 -7z" />
    <glyph glyph-name="itilde" unicode="&#x129;" horiz-adv-x="236" 
d="M74 617l18 28q26 35 55 35q16 0 34 -15l28 -20q9 -6 16 -6q10 0 24 17l12 17q4 5 10 5h19q11 0 6 -10l-18 -27q-23 -36 -53 -36q-15 0 -35 13l-26 21q-11 7 -19 7q-12 0 -24 -18l-11 -16q-4 -5 -10 -5h-21q-10 0 -5 10zM107 0h-25q-8 0 -8 9l68 427h-43q-9 0 -7 9l4 24
q1 7 8 7h78q8 0 8 -9l-75 -460q-1 -7 -8 -7z" />
    <glyph glyph-name="Imacron" unicode="&#x12a;" horiz-adv-x="230" 
d="M81 827h254q8 0 8 -9l-4 -21q-1 -7 -8 -7h-254q-8 0 -8 9l4 21q1 7 8 7zM91 0h-27q-8 0 -8 9l107 667q1 7 8 7h27q8 0 8 -9l-107 -667q-1 -7 -8 -7z" />
    <glyph glyph-name="imacron" unicode="&#x12b;" horiz-adv-x="236" 
d="M111 660h146q8 0 8 -9l-4 -21q-1 -7 -8 -7h-147q-8 0 -7 9l4 21q1 7 8 7zM107 0h-25q-8 0 -8 9l68 427h-43q-9 0 -7 9l4 24q1 7 8 7h78q8 0 8 -9l-75 -460q-1 -7 -8 -7z" />
    <glyph glyph-name="Ibreve" unicode="&#x12c;" horiz-adv-x="230" 
d="M323 853l-2 -12q-14 -88 -125 -88q-54 0 -78.5 22.5t-17.5 65.5l2 14q1 7 8 7h23q9 0 8 -9l-2 -11q-5 -25 11.5 -38t52.5 -13q71 0 80 51l2 13q1 7 8 7h22q9 0 8 -9zM91 0h-27q-8 0 -8 9l107 667q1 7 8 7h27q8 0 8 -9l-107 -667q-1 -7 -8 -7z" />
    <glyph glyph-name="ibreve" unicode="&#x12d;" horiz-adv-x="236" 
d="M277 691l-6 -37q-12 -77 -92 -77q-39 0 -58 21t-12 58l6 37q1 7 8 7h21q8 0 8 -9l-7 -38q-4 -19 6 -30t30 -11q47 0 53 43l7 38q1 7 8 7h20q9 0 8 -9zM107 0h-25q-8 0 -8 9l68 427h-43q-9 0 -7 9l4 24q1 7 8 7h78q8 0 8 -9l-75 -460q-1 -7 -8 -7z" />
    <glyph glyph-name="Iogonek" unicode="&#x12e;" horiz-adv-x="230" 
d="M64 -57l-51 -47q-23 -24 -23 -48q0 -28 31 -28q12 0 33 6l14 4q9 4 9 -6l4 -20q1 -7 -6 -10l-18 -6q-24 -8 -43 -8q-31 0 -48.5 16t-17.5 44q0 42 40 79l47 45q22 22 22 36q-1 0 -1 9l107 667q1 7 8 7h27q8 0 8 -9l-108 -674q-5 -28 -34 -57z" />
    <glyph glyph-name="iogonek" unicode="&#x12f;" horiz-adv-x="236" 
d="M195 706q29 0 29 -27q0 -38 -35 -38q-30 0 -30 27q0 38 36 38zM92 445l4 24q1 7 8 7h78q8 0 8 -9l-76 -467q-5 -28 -34 -57l-51 -47q-23 -24 -23 -48q0 -28 31 -28q12 0 33 6l14 4q9 4 9 -6l4 -20q1 -7 -6 -10l-18 -6q-24 -8 -43 -8q-31 0 -48.5 16t-17.5 44q0 42 40 79
l47 45q20 20 21 31q0 2 1 5t1 5l68 431h-43q-9 0 -7 9z" />
    <glyph glyph-name="Idotaccent" unicode="&#x130;" horiz-adv-x="230" 
d="M210 842q26 0 26 -24q0 -16 -9.5 -25.5t-25.5 -9.5q-26 0 -26 24q0 35 35 35zM91 0h-27q-8 0 -8 9l107 667q1 7 8 7h27q8 0 8 -9l-107 -667q-1 -7 -8 -7z" />
    <glyph glyph-name="dotlessi" unicode="&#x131;" horiz-adv-x="236" 
d="M190 467l-75 -460q-1 -7 -8 -7h-25q-8 0 -8 9l68 427h-43q-9 0 -7 9l4 24q1 7 8 7h78q8 0 8 -9z" />
    <glyph glyph-name="IJ" unicode="&#x132;" horiz-adv-x="604" 
d="M91 0h-27q-8 0 -8 9l107 667q1 7 8 7h27q8 0 8 -9l-107 -667q-1 -7 -8 -7zM575 674l-82 -520q-13 -77 -58.5 -120.5t-115.5 -43.5q-27 0 -50 9l-11 4q-9 3 -4 11l12 22q3 6 10 5l10 -4q18 -5 39 -5q49 0 82 32t43 89l83 523q1 7 8 7h26q9 0 8 -9z" />
    <glyph glyph-name="ij" unicode="&#x133;" horiz-adv-x="472" 
d="M431 707q29 0 29 -28q0 -39 -35 -39q-30 0 -30 27q0 19 10 29.5t26 10.5zM195 706q29 0 29 -27q0 -38 -35 -38q-30 0 -30 27q0 38 36 38zM107 0h-25q-8 0 -8 9l68 427h-43q-9 0 -7 9l4 24q1 7 8 7h78q8 0 8 -9l-75 -460q-1 -7 -8 -7zM426 467l-88 -544q-11 -81 -71 -117
l-38 -25q-7 -3 -11 3l-13 21q-4 7 3 11l37 24q44 27 53 85l80 511h-43q-9 0 -7 9l4 24q1 7 8 7h78q8 0 8 -9z" />
    <glyph glyph-name="Jcircumflex" unicode="&#x134;" horiz-adv-x="412" 
d="M486 764h-26q-6 0 -10 4l-63 58l-84 -59q-5 -3 -9 -3h-24q-3 0 -5 1.5t-1.5 4t3.5 4.5l99 84q4 4 10 4h32q6 0 10 -4l73 -84q3 -4 1.5 -7t-6.5 -3zM261 171l81 505q1 7 8 7h26q8 0 8 -9l-80 -502q-14 -84 -63.5 -133t-122.5 -49q-42 0 -72 11l-25 8q-9 3 -4 11l11 23
q3 6 10 5l25 -8q25 -8 61 -8q54 0 90.5 36.5t46.5 102.5z" />
    <glyph glyph-name="jcircumflex" unicode="&#x135;" horiz-adv-x="236" 
d="M217 695l51 -104q5 -9 -6 -9h-23q-6 0 -9 6l-41 72l-65 -74q-4 -4 -10 -4h-20q-12 0 -5 10l83 104q4 5 10 5h25q7 0 10 -6zM92 445l4 24q1 7 8 7h78q8 0 8 -9l-88 -544q-11 -81 -71 -117l-38 -25q-7 -3 -11 3l-13 21q-4 7 3 11l37 24q44 27 53 85l80 511h-43q-9 0 -7 9z
" />
    <glyph glyph-name="Kcommaaccent" unicode="&#x136;" horiz-adv-x="617" 
d="M627 673l-164 -177q-42 -46 -94.5 -84.5t-89.5 -53.5q-16 -6 -2 -12q77 -33 147 -150l109 -186q7 -10 -5 -10h-32q-6 0 -9 6l-97 167q-37 67 -91.5 112.5t-122.5 45.5h-25l-52 -324q-1 -7 -8 -7h-27q-8 0 -8 9l108 667q1 7 8 7h27q8 0 8 -9l-49 -303h24q108 0 249 150
l147 158q4 4 10 4h35q5 0 6.5 -3t-2.5 -7zM211 -210l26 38q8 14 0 17q-21 6 -21 28q0 19 11.5 30t29.5 11q15 0 24 -9t9 -23q0 -25 -25 -64l-23 -33q-3 -5 -9 -5h-17q-12 0 -5 10z" />
    <glyph glyph-name="kcommaaccent" unicode="&#x137;" horiz-adv-x="496" 
d="M468 466l-122 -121q-80 -82 -121 -98q-14 -5 -2 -9q26 -10 47 -33.5t49 -67.5l83 -127q5 -10 -6 -10h-30q-6 0 -9 5l-75 116q-22 33 -35.5 50t-40.5 33.5t-59 16.5h-25l-34 -214q-1 -7 -8 -7h-26q-8 0 -8 9l75 467l35 218q1 7 8 7h26q8 0 8 -9l-38 -226l-31 -206h22
q26 0 58 18t51 35.5t51 49.5l108 109q4 4 10 4h35q5 0 6.5 -3t-2.5 -7zM145 -210l26 38q8 14 0 17q-21 6 -21 28q0 19 11.5 30t29.5 11q15 0 24 -9t9 -23q0 -25 -25 -64l-23 -33q-3 -5 -9 -5h-17q-12 0 -5 10z" />
    <glyph glyph-name="kgreenlandic" unicode="&#x138;" horiz-adv-x="496" 
d="M129 260h22q26 0 58 18t51 35.5t51 49.5l108 109q4 4 10 4h35q5 0 6.5 -3t-2.5 -7l-122 -121q-80 -82 -121 -98q-14 -5 -2 -9q26 -10 47 -33.5t49 -67.5l83 -127q5 -10 -6 -10h-30q-6 0 -9 5l-75 116q-22 33 -35.5 50t-40.5 33.5t-59 16.5h-25l-34 -214q-1 -7 -8 -7h-26
q-8 0 -8 9l74 460q1 7 8 7h25q9 0 8 -9z" />
    <glyph glyph-name="Lacute" unicode="&#x139;" horiz-adv-x="558" 
d="M285 862h42q6 0 7 -3t-4 -7l-109 -85q-5 -3 -10 -3h-28q-6 0 -7 3t3 7l96 84q4 4 10 4zM105 40h354q9 0 7 -9l-4 -24q-1 -7 -8 -7h-390q-8 0 -8 9l107 667q1 7 8 7h27q8 0 8 -9z" />
    <glyph glyph-name="lacute" unicode="&#x13a;" horiz-adv-x="238" 
d="M269 880h42q6 0 7 -3t-4 -7l-109 -85q-5 -3 -10 -3h-28q-6 0 -7 3t3 7l96 84q4 4 10 4zM198 692l-99 -623q-6 -38 20 -38q9 0 12 1q8 2 10 -5l7 -23q1 -7 -5 -10q-11 -4 -26 -4q-35 0 -51 22t-9 59l99 623q1 7 8 7h26q8 0 8 -9z" />
    <glyph glyph-name="Lcommaaccent" unicode="&#x13b;" horiz-adv-x="558" 
d="M105 40h354q9 0 7 -9l-4 -24q-1 -7 -8 -7h-390q-8 0 -8 9l107 667q1 7 8 7h27q8 0 8 -9zM200 -210l26 38q8 14 0 17q-21 6 -21 28q0 19 11.5 30t29.5 11q15 0 24 -9t9 -23q0 -25 -25 -64l-23 -33q-3 -5 -9 -5h-17q-12 0 -5 10z" />
    <glyph glyph-name="lcommaaccent" unicode="&#x13c;" horiz-adv-x="238" 
d="M198 692l-99 -623q-6 -38 20 -38q9 0 12 1q8 2 10 -5l7 -23q1 -7 -5 -10q-11 -4 -26 -4q-35 0 -51 22t-9 59l99 623q1 7 8 7h26q8 0 8 -9zM26 -210l26 38q8 14 0 17q-21 6 -21 28q0 19 11.5 30t29.5 11q15 0 24 -9t9 -23q0 -25 -25 -64l-23 -33q-3 -5 -9 -5h-17
q-12 0 -5 10z" />
    <glyph glyph-name="Lcaron" unicode="&#x13d;" horiz-adv-x="558" 
d="M105 40h354q9 0 7 -9l-4 -24q-1 -7 -8 -7h-390q-8 0 -8 9l107 667q1 7 8 7h27q8 0 8 -9zM342 683h24q10 0 8 -9l-4 -26q-5 -27 -28 -69l-6 -10q-3 -5 -9 -5h-17q-11 0 -6 9l8 16q14 31 18 61l4 26q1 7 8 7z" />
    <glyph glyph-name="lcaron" unicode="&#x13e;" horiz-adv-x="245" 
d="M199 692l-99 -623q-6 -38 20 -38q9 0 12 1q8 2 10 -5l7 -23q1 -7 -5 -10q-11 -4 -26 -4q-35 0 -51 22t-9 59l99 623q1 7 8 7h26q8 0 8 -9zM286 701h24q10 0 8 -9l-4 -26q-5 -27 -28 -69l-6 -10q-3 -5 -9 -5h-17q-11 0 -6 9l8 16q14 31 18 61l4 26q1 7 8 7z" />
    <glyph glyph-name="Ldot" unicode="&#x13f;" horiz-adv-x="558" 
d="M105 40h354q9 0 7 -9l-4 -24q-1 -7 -8 -7h-390q-8 0 -8 9l107 667q1 7 8 7h27q8 0 8 -9zM468 405q19 0 28.5 -11t5.5 -30q-5 -38 -41 -38q-39 0 -33 42q6 37 40 37z" />
    <glyph glyph-name="ldot" unicode="&#x140;" horiz-adv-x="245" 
d="M198 692l-99 -623q-6 -38 20 -38q9 0 12 1q8 2 10 -5l7 -23q1 -7 -5 -10q-11 -4 -26 -4q-35 0 -51 22t-9 59l99 623q1 7 8 7h26q8 0 8 -9zM287 405q19 0 28.5 -11t5.5 -30q-5 -38 -41 -38q-39 0 -33 42q6 37 40 37z" />
    <glyph glyph-name="Lslash" unicode="&#x141;" horiz-adv-x="597" 
d="M144 40h354q8 0 7 -9l-4 -24q-1 -7 -8 -7h-390q-8 0 -8 9l40 249l-78 -39q-5 -2 -7.5 0t-1.5 7l4 25q2 6 7 9l83 41l60 375q1 7 8 7h27q8 0 8 -9l-56 -350l238 118q5 2 7.5 0t1.5 -7l-4 -25q-2 -6 -7 -9l-243 -120z" />
    <glyph glyph-name="lslash" unicode="&#x142;" horiz-adv-x="287" 
d="M170 334l-42 -265q-6 -38 20 -38q9 0 12 1q8 2 10 -5l7 -23q1 -7 -5 -10q-11 -4 -26 -4q-35 0 -51 22t-9 59l39 244l-62 -27q-4 -1 -6.5 0.5t-1.5 6.5l4 31q2 7 7 8l66 28l53 332q1 7 8 7h26q8 0 8 -9l-50 -311l74 31q4 2 7 0.5t2 -6.5l-6 -30q-2 -7 -7 -8z" />
    <glyph glyph-name="Nacute" unicode="&#x143;" horiz-adv-x="696" 
d="M509 862h42q6 0 7 -3t-4 -7l-109 -85q-5 -3 -10 -3h-28q-6 0 -7 3t3 7l96 84q4 4 10 4zM556 0h-32q-8 0 -9 7q-17 50 -41 96l-252 449q-17 34 -22 56q-1 3 -4 4t-5.5 -1.5t-2.5 -6.5q1 -19 -5 -73l-84 -524q-1 -7 -8 -7h-27q-8 0 -8 9l107 667q1 7 8 7h33q8 0 9 -7
q16 -49 42 -94l250 -450q17 -30 23 -56q1 -4 4 -4.5t5.5 2t2.5 6.5q-1 19 5 73l85 523q1 7 8 7h26q8 0 8 -9l-108 -667q-1 -7 -8 -7z" />
    <glyph glyph-name="nacute" unicode="&#x144;" 
d="M421 701h33q5 0 6.5 -3t-2.5 -7l-103 -105q-4 -4 -10 -4h-26q-5 0 -6.5 3t2.5 7l96 105q4 4 10 4zM158 467l-11 -67q0 -6 3.5 -7t7.5 5q71 88 183 88q81 0 119.5 -53.5t24.5 -144.5l-46 -281q-1 -7 -8 -7h-25q-8 0 -8 9l45 281q12 73 -15.5 114t-89.5 41
q-85 0 -141.5 -59t-74.5 -167l-34 -212q-1 -7 -8 -7h-26q-8 0 -8 9l74 460q1 7 8 7h22q10 0 8 -9z" />
    <glyph glyph-name="Ncommaaccent" unicode="&#x145;" horiz-adv-x="696" 
d="M556 0h-32q-8 0 -9 7q-17 50 -41 96l-252 449q-17 34 -22 56q-1 3 -4 4t-5.5 -1.5t-2.5 -6.5q1 -19 -5 -73l-84 -524q-1 -7 -8 -7h-27q-8 0 -8 9l107 667q1 7 8 7h33q8 0 9 -7q16 -49 42 -94l250 -450q17 -30 23 -56q1 -4 4 -4.5t5.5 2t2.5 6.5q-1 19 5 73l85 523
q1 7 8 7h26q8 0 8 -9l-108 -667q-1 -7 -8 -7zM247 -210l26 38q8 14 0 17q-21 6 -21 28q0 19 11.5 30t29.5 11q15 0 24 -9t9 -23q0 -25 -25 -64l-23 -33q-3 -5 -9 -5h-17q-12 0 -5 10z" />
    <glyph glyph-name="ncommaaccent" unicode="&#x146;" 
d="M158 467l-11 -67q0 -6 3.5 -7t7.5 5q71 88 183 88q81 0 119.5 -53.5t24.5 -144.5l-46 -281q-1 -7 -8 -7h-25q-8 0 -8 9l45 281q12 73 -15.5 114t-89.5 41q-85 0 -141.5 -59t-74.5 -167l-34 -212q-1 -7 -8 -7h-26q-8 0 -8 9l74 460q1 7 8 7h22q10 0 8 -9zM181 -210l26 38
q8 14 0 17q-21 6 -21 28q0 19 11.5 30t29.5 11q15 0 24 -9t9 -23q0 -25 -25 -64l-23 -33q-3 -5 -9 -5h-17q-12 0 -5 10z" />
    <glyph glyph-name="Ncaron" unicode="&#x147;" horiz-adv-x="696" 
d="M448 763h-32q-6 0 -10 4l-73 84q-3 4 -1.5 7t6.5 3h26q6 0 10 -4l63 -58l84 59q5 3 9 3h24q3 0 5 -1.5t1.5 -4t-3.5 -4.5l-99 -84q-4 -4 -10 -4zM638 683h26q8 0 8 -9l-108 -667q-1 -7 -8 -7h-32q-8 0 -9 7q-17 50 -41 96l-252 449q-17 34 -22 56q-1 3 -4 4t-5.5 -1.5
t-2.5 -6.5q1 -19 -5 -73l-84 -524q-1 -7 -8 -7h-27q-8 0 -8 9l107 667q1 7 8 7h33q8 0 9 -7q16 -49 42 -94l250 -450q17 -30 23 -56q1 -4 4 -4.5t5.5 2t2.5 6.5q-1 19 5 73l85 523q1 7 8 7z" />
    <glyph glyph-name="ncaron" unicode="&#x148;" 
d="M355 583h-25q-6 0 -9 5l-72 104q-7 10 5 10h25q6 0 10 -5l60 -76l85 77q4 4 10 4h22q5 0 6.5 -3t-2.5 -7l-105 -105q-4 -4 -10 -4zM158 467l-11 -67q0 -6 3.5 -7t7.5 5q71 88 183 88q81 0 119.5 -53.5t24.5 -144.5l-46 -281q-1 -7 -8 -7h-25q-8 0 -8 9l45 281
q12 73 -15.5 114t-89.5 41q-85 0 -141.5 -59t-74.5 -167l-34 -212q-1 -7 -8 -7h-26q-8 0 -8 9l74 460q1 7 8 7h22q10 0 8 -9z" />
    <glyph glyph-name="Eng" unicode="&#x14a;" horiz-adv-x="691" 
d="M201 674l-18 -116q-1 -8 3.5 -9t9.5 6q96 143 251 143q109 0 157.5 -75t26.5 -210l-64 -405q-13 -84 -64.5 -132t-125.5 -48q-45 0 -73 9l-27 8q-7 3 -4 11l13 24q3 5 10 4l25 -8q25 -7 63 -7q55 0 92.5 36.5t47.5 102.5l64 404q19 115 -20.5 179.5t-128.5 64.5
q-115 0 -190 -90t-101 -255l-49 -304q-1 -7 -8 -7h-27q-8 0 -8 9l107 667q1 7 8 7h22q9 0 8 -9z" />
    <glyph glyph-name="eng" unicode="&#x14b;" 
d="M384 -77l59 367q12 74 -15.5 114.5t-88.5 40.5q-86 0 -143 -59.5t-74 -166.5l-34 -212q-1 -7 -8 -7h-26q-8 0 -8 9l74 460q1 7 8 7h22q8 0 8 -9l-11 -66q0 -7 3.5 -8t7.5 5q73 88 184 88q81 0 119 -53.5t24 -144.5l-59 -367q-11 -67 -50 -104t-100 -37q-27 0 -56 8l-22 6
q-9 3 -4 11l11 22q3 6 10 5l17 -5q19 -6 45 -6q43 0 71 27t36 75z" />
    <glyph glyph-name="Omacron" unicode="&#x14c;" horiz-adv-x="683" 
d="M329 827h254q8 0 8 -9l-4 -21q-1 -7 -8 -7h-254q-8 0 -8 9l4 21q1 7 8 7zM412 693q112 0 173.5 -69.5t61.5 -194.5q0 -55 -11 -112.5t-37 -116.5t-64.5 -105.5t-98.5 -75.5t-133 -29q-113 0 -174 69.5t-61 194.5q0 55 11 112t37 116.5t64 105.5t98.5 75.5t133.5 29.5z
M409 652q-65 0 -117 -27t-85 -69.5t-55 -97t-31 -106t-9 -100.5q0 -106 50 -163t144 -57q65 0 117.5 27t85 69t54.5 96.5t31 105.5t9 99q0 106 -50 164.5t-144 58.5z" />
    <glyph glyph-name="omacron" unicode="&#x14d;" horiz-adv-x="533" 
d="M227 660h221q8 0 7 -9l-4 -21q-1 -7 -8 -7h-220q-8 0 -8 9l4 21q1 7 8 7zM304 486q85 0 132.5 -50.5t47.5 -140.5q0 -49 -14.5 -100t-43 -98t-79.5 -77t-117 -30q-85 0 -132.5 51t-47.5 141q0 39 8.5 79t28 81t47.5 72.5t72.5 51.5t97.5 20zM302 445q-56 0 -99 -26
t-66 -67.5t-34 -84.5t-11 -85q0 -72 36 -111.5t103 -39.5q56 0 99 26.5t66 68t34 84.5t11 85q0 72 -36 111t-103 39z" />
    <glyph glyph-name="Obreve" unicode="&#x14e;" horiz-adv-x="683" 
d="M572 853l-2 -12q-14 -88 -125 -88q-54 0 -78.5 22.5t-17.5 65.5l2 14q1 7 8 7h23q10 0 8 -9l-2 -11q-5 -25 11.5 -38t52.5 -13q71 0 80 51l2 13q1 7 8 7h22q10 0 8 -9zM412 693q112 0 173.5 -69.5t61.5 -194.5q0 -55 -11 -112.5t-37 -116.5t-64.5 -105.5t-98.5 -75.5
t-133 -29q-113 0 -174 69.5t-61 194.5q0 55 11 112t37 116.5t64 105.5t98.5 75.5t133.5 29.5zM409 652q-65 0 -117 -27t-85 -69.5t-55 -97t-31 -106t-9 -100.5q0 -106 50 -163t144 -57q65 0 117.5 27t85 69t54.5 96.5t31 105.5t9 99q0 106 -50 164.5t-144 58.5z" />
    <glyph glyph-name="obreve" unicode="&#x14f;" horiz-adv-x="533" 
d="M449 691l-4 -25q-8 -46 -39 -70.5t-80 -24.5q-50 0 -74.5 26t-16.5 72l4 24q1 7 8 7h21q10 0 8 -9l-4 -25q-9 -60 56 -60q33 0 53.5 16.5t25.5 45.5l4 25q1 7 8 7h22q9 0 8 -9zM304 486q85 0 132.5 -50.5t47.5 -140.5q0 -49 -14.5 -100t-43 -98t-79.5 -77t-117 -30
q-85 0 -132.5 51t-47.5 141q0 39 8.5 79t28 81t47.5 72.5t72.5 51.5t97.5 20zM302 445q-56 0 -99 -26t-66 -67.5t-34 -84.5t-11 -85q0 -72 36 -111.5t103 -39.5q56 0 99 26.5t66 68t34 84.5t11 85q0 72 -36 111t-103 39z" />
    <glyph glyph-name="Ohungarumlaut" unicode="&#x150;" horiz-adv-x="683" 
d="M466 852l-73 -84q-4 -4 -10 -4h-22q-12 0 -5 10l63 83q4 5 10 5h32q5 0 6.5 -3t-1.5 -7zM591 852l-73 -84q-4 -4 -10 -4h-23q-12 0 -5 10l63 83q4 5 10 5h34q5 0 6.5 -3t-2.5 -7zM412 693q112 0 173.5 -69.5t61.5 -194.5q0 -55 -11 -112.5t-37 -116.5t-64.5 -105.5
t-98.5 -75.5t-133 -29q-113 0 -174 69.5t-61 194.5q0 55 11 112t37 116.5t64 105.5t98.5 75.5t133.5 29.5zM409 652q-65 0 -117 -27t-85 -69.5t-55 -97t-31 -106t-9 -100.5q0 -106 50 -163t144 -57q65 0 117.5 27t85 69t54.5 96.5t31 105.5t9 99q0 106 -50 164.5t-144 58.5z
" />
    <glyph glyph-name="ohungarumlaut" unicode="&#x151;" horiz-adv-x="533" 
d="M352 691l-73 -104q-5 -5 -10 -5h-21q-10 0 -5 10l66 104q3 5 9 5h29q12 0 5 -10zM470 691l-74 -104q-4 -5 -10 -5h-21q-10 0 -5 10l67 104q3 5 9 5h29q12 0 5 -10zM304 486q85 0 132.5 -50.5t47.5 -140.5q0 -49 -14.5 -100t-43 -98t-79.5 -77t-117 -30q-85 0 -132.5 51
t-47.5 141q0 39 8.5 79t28 81t47.5 72.5t72.5 51.5t97.5 20zM302 445q-56 0 -99 -26t-66 -67.5t-34 -84.5t-11 -85q0 -72 36 -111.5t103 -39.5q56 0 99 26.5t66 68t34 84.5t11 85q0 72 -36 111t-103 39z" />
    <glyph glyph-name="OE" unicode="&#x152;" horiz-adv-x="1069" 
d="M530 9l17 102q2 13 -2 14t-14 -11q-90 -124 -235 -124q-107 0 -167.5 68t-60.5 194q0 114 38 213t115.5 163.5t179.5 64.5q154 0 202 -125q13 -30 18 0l16 108q1 7 8 7h426q10 0 6 -9l-10 -24q-3 -6 -10 -6h-384l-44 -278h326q9 0 7 -9l-4 -24q-1 -7 -8 -7h-328l-45 -286
h398q9 0 7 -9l-4 -24q-1 -7 -8 -7h-432q-8 0 -8 9zM394 652q-120 0 -201 -115t-81 -282q0 -110 50 -166.5t140 -56.5q69 0 125 35t90.5 93t52.5 127t18 142q0 223 -194 223z" />
    <glyph glyph-name="oe" unicode="&#x153;" horiz-adv-x="877" 
d="M749 13l-27 -7q-54 -16 -111 -16q-134 0 -166 123q-4 14 -16 -4q-69 -119 -199 -119q-85 0 -132.5 51t-47.5 141q0 49 14 99.5t42.5 98t79.5 77t117 29.5q135 0 166 -123q5 -15 16 3q67 120 200 120q74 0 115.5 -32t41.5 -88t-41 -94.5t-119 -51.5l-208 -34
q-1 -74 34.5 -114.5t103.5 -40.5q52 0 103 13l28 8q8 2 9 -7l3 -23q2 -7 -6 -9zM302 445q-56 0 -98.5 -26.5t-65.5 -68.5t-34.5 -85t-11.5 -83q0 -72 36 -111.5t103 -39.5q56 0 98.5 27t65.5 69t34.5 85t11.5 83q0 72 -36 111t-103 39zM477 225l200 33q64 11 93.5 39
t29.5 65q0 39 -30.5 61t-86.5 22q-82 0 -135 -56t-71 -164z" />
    <glyph glyph-name="Racute" unicode="&#x154;" horiz-adv-x="650" 
d="M472 862h42q6 0 7 -3t-4 -7l-109 -85q-4 -3 -10 -3h-28q-6 0 -7 3t3 7l96 84q4 4 10 4zM171 683h260q85 0 130 -38.5t45 -110.5q0 -155 -183 -211q-8 -2 -11 -5.5t-1.5 -6.5t6.5 -5q63 -32 87 -125l47 -172q1 -9 -7 -9h-27q-8 0 -9 7l-43 161q-36 136 -182 136h-136
l-48 -297q-1 -7 -8 -7h-27q-8 0 -8 9l107 667q1 7 8 7zM153 344h141q136 0 202 52.5t66 132.5q0 55 -34.5 85t-100.5 30h-226z" />
    <glyph glyph-name="racute" unicode="&#x155;" horiz-adv-x="362" 
d="M331 701h33q5 0 6.5 -3t-2.5 -7l-103 -105q-4 -4 -10 -4h-26q-5 0 -6.5 3t2.5 7l96 105q4 4 10 4zM346 477l-4 -25q-1 -7 -8 -7q-82 -3 -140.5 -72.5t-77.5 -189.5l-28 -176q-1 -7 -8 -7h-26q-8 0 -8 9l74 460q1 7 8 7h22q10 0 8 -9l-13 -85q-1 -5 3 -6t8 4
q70 102 182 106q10 0 8 -9z" />
    <glyph glyph-name="Rcommaaccent" unicode="&#x156;" horiz-adv-x="650" 
d="M171 683h260q85 0 130 -38.5t45 -110.5q0 -155 -183 -211q-8 -2 -11 -5.5t-1.5 -6.5t6.5 -5q63 -32 87 -125l47 -172q1 -9 -7 -9h-27q-8 0 -9 7l-43 161q-36 136 -182 136h-136l-48 -297q-1 -7 -8 -7h-27q-8 0 -8 9l107 667q1 7 8 7zM153 344h141q136 0 202 52.5
t66 132.5q0 55 -34.5 85t-100.5 30h-226zM229 -210l26 38q8 14 0 17q-21 6 -21 28q0 19 11.5 30t29.5 11q15 0 24 -9t9 -23q0 -25 -25 -64l-23 -33q-3 -5 -9 -5h-17q-12 0 -5 10z" />
    <glyph glyph-name="rcommaaccent" unicode="&#x157;" horiz-adv-x="362" 
d="M346 477l-4 -25q-1 -7 -8 -7q-82 -3 -140.5 -72.5t-77.5 -189.5l-28 -176q-1 -7 -8 -7h-26q-8 0 -8 9l74 460q1 7 8 7h22q10 0 8 -9l-13 -85q-1 -5 3 -6t8 4q70 102 182 106q10 0 8 -9zM5 -210l26 38q8 14 0 17q-21 6 -21 28q0 19 11.5 30t29.5 11q15 0 24 -9t9 -23
q0 -25 -25 -64l-23 -33q-3 -5 -9 -5h-17q-12 0 -5 10z" />
    <glyph glyph-name="Rcaron" unicode="&#x158;" horiz-adv-x="650" 
d="M411 763h-32q-6 0 -10 4l-73 84q-3 4 -1.5 7t6.5 3h26q6 0 10 -4l63 -58l84 59q4 3 9 3h24q3 0 5 -1.5t1.5 -4t-3.5 -4.5l-99 -84q-4 -4 -10 -4zM171 683h260q85 0 130 -38.5t45 -110.5q0 -155 -183 -211q-8 -2 -11 -5.5t-1.5 -6.5t6.5 -5q63 -32 87 -125l47 -172
q1 -9 -7 -9h-27q-8 0 -9 7l-43 161q-36 136 -182 136h-136l-48 -297q-1 -7 -8 -7h-27q-8 0 -8 9l107 667q1 7 8 7zM153 344h141q136 0 202 52.5t66 132.5q0 55 -34.5 85t-100.5 30h-226z" />
    <glyph glyph-name="rcaron" unicode="&#x159;" horiz-adv-x="362" 
d="M265 583h-25q-6 0 -9 5l-72 104q-7 10 5 10h25q6 0 10 -5l60 -76l85 77q4 4 10 4h22q5 0 6.5 -3t-2.5 -7l-105 -105q-4 -4 -10 -4zM158 467l-13 -85q-1 -5 3 -6t8 4q70 102 182 106q10 0 8 -9l-4 -25q-1 -7 -8 -7q-82 -3 -140.5 -72.5t-77.5 -189.5l-28 -176q-1 -7 -8 -7
h-26q-8 0 -8 9l74 460q1 7 8 7h22q10 0 8 -9z" />
    <glyph glyph-name="Sacute" unicode="&#x15a;" horiz-adv-x="589" 
d="M446 862h42q6 0 7 -3t-4 -7l-109 -85q-5 -3 -10 -3h-28q-6 0 -7 3t3 7l96 84q4 4 10 4zM380 299l-144 58q-116 45 -116 139q0 35 12.5 67.5t38.5 62.5t73.5 48.5t110.5 18.5q70 0 146 -24l44 -13q9 -3 4 -11l-12 -24q-3 -6 -10 -5l-42 15q-63 21 -133 21q-83 0 -136 -42
t-53 -110q0 -70 91 -106l143 -57q120 -49 120 -138q0 -36 -16 -71.5t-46.5 -67t-83 -51t-118.5 -19.5q-94 0 -181 35l-31 13q-9 4 -4 10l12 24q4 7 11 4l29 -13q77 -31 167 -31q99 0 158 49.5t59 110.5q0 71 -93 107z" />
    <glyph glyph-name="sacute" unicode="&#x15b;" horiz-adv-x="466" 
d="M365 701h33q5 0 6.5 -3t-2.5 -7l-103 -105q-4 -4 -10 -4h-26q-5 0 -6.5 3t2.5 7l96 105q4 4 10 4zM289 208l-118 36q-87 25 -87 99q0 66 49.5 104.5t135.5 38.5q65 0 113 -15l35 -11q9 -3 4 -11l-11 -23q-3 -6 -10 -5l-33 11q-42 13 -99 13q-65 0 -103.5 -27t-38.5 -72
t63 -65l118 -36q88 -27 88 -100q0 -62 -48 -108.5t-151 -46.5q-90 0 -148 25l-19 8q-7 3 -4 10l12 22q4 7 11 4l18 -7q47 -21 132 -21q79 0 117 33t38 78q0 47 -64 66z" />
    <glyph glyph-name="Scircumflex" unicode="&#x15c;" horiz-adv-x="589" 
d="M379 826l-84 -59q-5 -3 -9 -3h-24q-3 0 -5 1.5t-1.5 4t3.5 4.5l99 84q4 4 10 4h32q6 0 10 -4l73 -84q3 -4 1.5 -7t-6.5 -3h-26q-6 0 -10 4zM527 616l-42 15q-63 21 -133 21q-83 0 -136 -42t-53 -110q0 -70 91 -106l143 -57q120 -49 120 -138q0 -36 -16 -71.5t-46.5 -67
t-83 -51t-118.5 -19.5q-94 0 -181 35l-31 13q-9 4 -4 10l12 24q4 7 11 4l29 -13q77 -31 167 -31q99 0 158 49.5t59 110.5q0 71 -93 107l-144 58q-116 45 -116 139q0 35 12.5 67.5t38.5 62.5t73.5 48.5t110.5 18.5q70 0 146 -24l44 -13q9 -3 4 -11l-12 -24q-3 -6 -10 -5z" />
    <glyph glyph-name="scircumflex" unicode="&#x15d;" horiz-adv-x="466" 
d="M299 663l-85 -77q-4 -4 -10 -4h-22q-5 0 -6.5 3t2.5 7l105 105q4 4 10 4h25q6 0 9 -5l72 -104q7 -10 -5 -10h-25q-6 0 -10 5zM400 421l-33 11q-42 13 -99 13q-65 0 -103.5 -27t-38.5 -72t63 -65l118 -36q88 -27 88 -100q0 -62 -48 -108.5t-151 -46.5q-90 0 -148 25l-19 8
q-7 3 -4 10l12 22q4 7 11 4l18 -7q47 -21 132 -21q79 0 117 33t38 78q0 47 -64 66l-118 36q-87 25 -87 99q0 66 49.5 104.5t135.5 38.5q65 0 113 -15l35 -11q9 -3 4 -11l-11 -23q-3 -6 -10 -5z" />
    <glyph glyph-name="Scedilla" unicode="&#x15e;" horiz-adv-x="589" 
d="M527 616l-42 15q-63 21 -133 21q-83 0 -136 -42t-53 -110q0 -70 91 -106l143 -57q120 -49 120 -138q0 -76 -63 -139.5t-181 -69.5l-24 -47h6q38 0 58.5 -17.5t20.5 -48.5q0 -38 -26 -67.5t-79 -29.5q-22 0 -43 8l-15 5q-9 3 -4 11l11 20q3 6 10 5l13 -5q16 -5 30 -5
q29 0 47.5 15t18.5 41q0 33 -50 33h-32q-6 0 -9 5l-2 3q-3 5 0 11l32 63q-84 2 -164 35l-31 13q-9 4 -4 10l12 24q4 7 11 4l29 -13q77 -31 167 -31q99 0 158 49.5t59 110.5q0 71 -93 107l-144 58q-116 45 -116 139q0 35 12.5 67.5t38.5 62.5t73.5 48.5t110.5 18.5
q70 0 146 -24l44 -13q9 -3 4 -11l-12 -24q-3 -6 -10 -5z" />
    <glyph glyph-name="scedilla" unicode="&#x15f;" horiz-adv-x="466" 
d="M400 421l-33 11q-42 13 -99 13q-65 0 -103.5 -27t-38.5 -72t63 -65l118 -36q88 -27 88 -100q0 -60 -45 -106t-142 -49l-24 -47h6q38 0 58.5 -17.5t20.5 -48.5q0 -38 -26 -67.5t-79 -29.5q-22 0 -43 8l-15 5q-9 3 -4 11l11 20q3 6 10 5l13 -5q16 -5 30 -5q29 0 47.5 15
t18.5 41q0 33 -50 33h-32q-6 0 -9 5l-2 3q-3 5 0 11l32 64q-74 3 -123 24l-19 8q-7 3 -4 10l12 22q4 7 11 4l18 -7q47 -21 132 -21q79 0 117 33t38 78q0 47 -64 66l-118 36q-87 25 -87 99q0 66 49.5 104.5t135.5 38.5q65 0 113 -15l35 -11q9 -3 4 -11l-11 -23q-3 -6 -10 -5z
" />
    <glyph glyph-name="Scaron" unicode="&#x160;" horiz-adv-x="589" 
d="M385 763h-32q-6 0 -10 4l-73 84q-3 4 -1.5 7t6.5 3h26q6 0 10 -4l63 -58l84 59q4 3 9 3h24q3 0 5 -1.5t1.5 -4t-3.5 -4.5l-99 -84q-4 -4 -10 -4zM527 616l-42 15q-63 21 -133 21q-83 0 -136 -42t-53 -110q0 -70 91 -106l143 -57q120 -49 120 -138q0 -36 -16 -71.5
t-46.5 -67t-83 -51t-118.5 -19.5q-94 0 -181 35l-31 13q-9 4 -4 10l12 24q4 7 11 4l29 -13q77 -31 167 -31q99 0 158 49.5t59 110.5q0 71 -93 107l-144 58q-116 45 -116 139q0 35 12.5 67.5t38.5 62.5t73.5 48.5t110.5 18.5q70 0 146 -24l44 -13q9 -3 4 -11l-12 -24
q-3 -6 -10 -5z" />
    <glyph glyph-name="scaron" unicode="&#x161;" horiz-adv-x="466" 
d="M300 583h-25q-6 0 -9 5l-72 104q-7 10 5 10h25q6 0 10 -5l60 -76l85 77q4 4 10 4h22q5 0 6.5 -3t-2.5 -7l-105 -105q-4 -4 -10 -4zM289 208l-118 36q-87 25 -87 99q0 66 49.5 104.5t135.5 38.5q65 0 113 -15l35 -11q9 -3 4 -11l-11 -23q-3 -6 -10 -5l-33 11
q-42 13 -99 13q-65 0 -103.5 -27t-38.5 -72t63 -65l118 -36q88 -27 88 -100q0 -62 -48 -108.5t-151 -46.5q-90 0 -148 25l-19 8q-7 3 -4 10l12 22q4 7 11 4l18 -7q47 -21 132 -21q79 0 117 33t38 78q0 47 -64 66z" />
    <glyph glyph-name="Tcedilla" unicode="&#x162;" horiz-adv-x="618" 
d="M123 683h513q8 0 7 -9l-4 -23q-1 -7 -8 -7h-236l-100 -633l-1 -4q-1 -7 -8 -7q4 0 -1 -9l-24 -48h6q38 0 58.5 -17.5t20.5 -48.5q0 -38 -26 -67.5t-79 -29.5q-22 0 -43 8l-15 5q-9 3 -4 11l11 20q3 6 10 5l13 -5q16 -5 30 -5q29 0 47.5 15t18.5 41q0 33 -50 33h-32
q-6 0 -9 5l-2 3q-3 5 0 11l37 73q-2 0 -2 9l101 635h-234q-8 0 -7 9l4 23q1 7 8 7z" />
    <glyph glyph-name="tcedilla" unicode="&#x163;" horiz-adv-x="322" 
d="M184 436l-53 -333q-12 -72 47 -72q16 0 28 4q8 2 10 -6l6 -22q1 -7 -5 -10q-21 -7 -42 -7q-9 0 -23 2l-25 -49h6q38 0 58.5 -17.5t20.5 -48.5q0 -38 -26 -67.5t-79 -29.5q-22 0 -43 8l-15 5q-9 3 -4 11l11 20q3 6 10 5l13 -5q16 -5 30 -5q29 0 47.5 15t18.5 41
q0 33 -50 33h-32q-6 0 -9 5l-2 3q-3 5 0 11l39 77q-43 28 -31 100l52 332h-43q-9 0 -7 9l4 24q1 7 8 7h45l19 124q2 7 7 8l28 9q4 1 6.5 -0.5t1.5 -6.5l-20 -134h110q9 0 7 -9l-4 -24q-1 -7 -8 -7h-112z" />
    <glyph glyph-name="Tcaron" unicode="&#x164;" horiz-adv-x="618" 
d="M410 763h-32q-6 0 -10 4l-73 84q-3 4 -1.5 7t6.5 3h26q6 0 10 -4l63 -58l84 59q5 3 9 3h24q3 0 5 -1.5t1.5 -4t-3.5 -4.5l-99 -84q-4 -4 -10 -4zM123 683h513q8 0 7 -9l-4 -23q-1 -7 -8 -7h-236l-101 -637q-1 -7 -8 -7h-27q-8 0 -8 9l101 635h-234q-8 0 -7 9l4 23
q1 7 8 7z" />
    <glyph glyph-name="tcaron" unicode="&#x165;" horiz-adv-x="322" 
d="M310 701h24q10 0 8 -9l-4 -26q-5 -27 -28 -69l-6 -10q-3 -5 -9 -5h-17q-11 0 -6 9l8 16q14 31 18 61l4 26q1 7 8 7zM191 476h110q9 0 7 -9l-4 -24q-1 -7 -8 -7h-112l-53 -333q-12 -72 47 -72q16 0 28 4q8 2 10 -6l6 -22q1 -7 -5 -10q-21 -7 -42 -7q-49 0 -71.5 30
t-13.5 84l52 332h-43q-9 0 -7 9l4 24q1 7 8 7h45l19 124q2 7 7 8l28 9q4 1 6.5 -0.5t1.5 -6.5z" />
    <glyph glyph-name="Tbar" unicode="&#x166;" horiz-adv-x="638" 
d="M405 644l-44 -278h161q8 0 7 -9l-4 -24q-1 -7 -8 -7h-162l-51 -319q-1 -7 -8 -7h-27q-8 0 -8 9l51 317h-161q-9 0 -7 9l4 24q1 7 8 7h162l44 278h-234q-8 0 -7 9l4 23q1 7 8 7h513q8 0 7 -9l-4 -23q-1 -7 -8 -7h-236z" />
    <glyph glyph-name="tbar" unicode="&#x167;" horiz-adv-x="332" 
d="M190 436l-20 -123h110q10 0 8 -9l-3 -22q-1 -7 -8 -7h-113l-27 -172q-12 -72 47 -72q16 0 28 4q8 2 10 -6l6 -22q1 -7 -5 -10q-21 -7 -42 -7q-49 0 -71.5 30t-13.5 84l27 171h-44q-9 0 -8 9l4 22q1 7 8 7h46l19 123h-43q-9 0 -7 9l4 24q1 7 8 7h45l19 124q2 7 7 8l28 9
q4 1 6.5 -0.5t1.5 -6.5l-20 -134h110q9 0 7 -9l-4 -24q-1 -7 -8 -7h-112z" />
    <glyph glyph-name="Utilde" unicode="&#x168;" horiz-adv-x="663" 
d="M254 785l24 31q25 37 73 37q21 0 48 -13l61 -25q26 -8 32 -8q23 0 38 19l15 19q4 5 10 5h25q12 0 4 -10l-24 -31q-27 -37 -73 -37q-19 0 -49 14l-59 23q-22 9 -33 9q-24 0 -38 -18l-16 -20q-4 -5 -10 -5h-24q-12 0 -4 10zM650 674l-66 -410q-21 -129 -98 -201.5
t-194 -72.5t-171 73t-33 202l66 411q1 7 8 7h27q8 0 8 -9l-67 -410q-17 -110 27 -171t142 -61t161.5 61t80.5 172l66 411q1 7 8 7h27q8 0 8 -9z" />
    <glyph glyph-name="utilde" unicode="&#x169;" 
d="M197 616l22 34q23 38 62 38q18 0 43 -14l50 -28q16 -9 27 -9q17 0 31 21l15 22q5 5 10 5h22q11 0 6 -10l-22 -33q-26 -38 -62 -38q-19 0 -44 14l-48 26q-20 10 -28 10q-18 0 -32 -19l-16 -24q-3 -5 -9 -5h-22q-10 0 -5 10zM397 9l11 67q0 6 -3 7t-8 -5q-71 -88 -183 -88
q-81 0 -119.5 53.5t-24.5 144.5l46 281q1 7 8 7h25q8 0 8 -9l-45 -281q-12 -73 15.5 -114t89.5 -41q85 0 141.5 59t74.5 167l34 212q1 7 8 7h26q8 0 8 -9l-74 -460q-1 -7 -8 -7h-22q-9 0 -8 9z" />
    <glyph glyph-name="Umacron" unicode="&#x16a;" horiz-adv-x="663" 
d="M294 827h254q8 0 8 -9l-4 -21q-1 -7 -8 -7h-254q-8 0 -8 9l4 21q1 7 8 7zM650 674l-66 -410q-21 -129 -98 -201.5t-194 -72.5t-171 73t-33 202l66 411q1 7 8 7h27q8 0 8 -9l-67 -410q-17 -110 27 -171t142 -61t161.5 61t80.5 172l66 411q1 7 8 7h27q8 0 8 -9z" />
    <glyph glyph-name="umacron" unicode="&#x16b;" 
d="M231 660h221q8 0 7 -9l-4 -21q-1 -7 -8 -7h-220q-8 0 -8 9l4 21q1 7 8 7zM397 9l11 67q0 6 -3 7t-8 -5q-71 -88 -183 -88q-81 0 -119.5 53.5t-24.5 144.5l46 281q1 7 8 7h25q8 0 8 -9l-45 -281q-12 -73 15.5 -114t89.5 -41q85 0 141.5 59t74.5 167l34 212q1 7 8 7h26
q8 0 8 -9l-74 -460q-1 -7 -8 -7h-22q-9 0 -8 9z" />
    <glyph glyph-name="Ubreve" unicode="&#x16c;" horiz-adv-x="663" 
d="M536 853l-2 -12q-14 -88 -125 -88q-54 0 -78.5 22.5t-17.5 65.5l2 14q1 7 8 7h23q10 0 8 -9l-2 -11q-5 -25 11.5 -38t52.5 -13q71 0 80 51l2 13q1 7 8 7h22q10 0 8 -9zM650 674l-66 -410q-21 -129 -98 -201.5t-194 -72.5t-171 73t-33 202l66 411q1 7 8 7h27q8 0 8 -9
l-67 -410q-17 -110 27 -171t142 -61t161.5 61t80.5 172l66 411q1 7 8 7h27q8 0 8 -9z" />
    <glyph glyph-name="ubreve" unicode="&#x16d;" 
d="M454 691l-4 -25q-8 -46 -39 -70.5t-80 -24.5q-50 0 -74.5 26t-16.5 72l4 24q1 7 8 7h21q9 0 8 -9l-4 -25q-9 -60 56 -60q33 0 53.5 16.5t25.5 45.5l4 25q1 7 8 7h22q10 0 8 -9zM397 9l11 67q0 6 -3 7t-8 -5q-71 -88 -183 -88q-81 0 -119.5 53.5t-24.5 144.5l46 281
q1 7 8 7h25q8 0 8 -9l-45 -281q-12 -73 15.5 -114t89.5 -41q85 0 141.5 59t74.5 167l34 212q1 7 8 7h26q8 0 8 -9l-74 -460q-1 -7 -8 -7h-22q-9 0 -8 9z" />
    <glyph glyph-name="Uring" unicode="&#x16e;" horiz-adv-x="663" 
d="M428 874q30 0 47.5 -14t17.5 -37q0 -34 -23 -53t-62 -19q-30 0 -46.5 14t-16.5 38q0 33 22.5 52t60.5 19zM423 841q-40 0 -40 -33q0 -24 31 -24q41 0 41 32q0 25 -32 25zM650 674l-66 -410q-21 -129 -98 -201.5t-194 -72.5t-171 73t-33 202l66 411q1 7 8 7h27q8 0 8 -9
l-67 -410q-17 -110 27 -171t142 -61t161.5 61t80.5 172l66 411q1 7 8 7h27q8 0 8 -9z" />
    <glyph glyph-name="uring" unicode="&#x16f;" 
d="M350 710q63 0 63 -54q0 -30 -20 -55.5t-64 -25.5q-63 0 -63 53q0 33 20.5 57.5t63.5 24.5zM344 676q-34 0 -40 -35q-5 -33 30 -33q42 0 42 42q0 26 -32 26zM397 9l11 67q0 6 -3 7t-8 -5q-71 -88 -183 -88q-81 0 -119.5 53.5t-24.5 144.5l46 281q1 7 8 7h25q8 0 8 -9
l-45 -281q-12 -73 15.5 -114t89.5 -41q85 0 141.5 59t74.5 167l34 212q1 7 8 7h26q8 0 8 -9l-74 -460q-1 -7 -8 -7h-22q-9 0 -8 9z" />
    <glyph glyph-name="Uhungarumlaut" unicode="&#x170;" horiz-adv-x="663" 
d="M430 852l-73 -84q-4 -4 -10 -4h-22q-12 0 -5 10l63 83q4 5 10 5h32q5 0 6.5 -3t-1.5 -7zM555 852l-73 -84q-4 -4 -10 -4h-23q-12 0 -5 10l63 83q4 5 10 5h34q5 0 6.5 -3t-2.5 -7zM650 674l-66 -410q-21 -129 -98 -201.5t-194 -72.5t-171 73t-33 202l66 411q1 7 8 7h27
q8 0 8 -9l-67 -410q-17 -110 27 -171t142 -61t161.5 61t80.5 172l66 411q1 7 8 7h27q8 0 8 -9z" />
    <glyph glyph-name="uhungarumlaut" unicode="&#x171;" 
d="M356 691l-73 -104q-5 -5 -10 -5h-21q-10 0 -5 10l66 104q3 5 9 5h29q12 0 5 -10zM474 691l-74 -104q-4 -5 -10 -5h-21q-10 0 -5 10l67 104q3 5 9 5h29q12 0 5 -10zM397 9l11 67q0 6 -3 7t-8 -5q-71 -88 -183 -88q-81 0 -119.5 53.5t-24.5 144.5l46 281q1 7 8 7h25
q8 0 8 -9l-45 -281q-12 -73 15.5 -114t89.5 -41q85 0 141.5 59t74.5 167l34 212q1 7 8 7h26q8 0 8 -9l-74 -460q-1 -7 -8 -7h-22q-9 0 -8 9z" />
    <glyph glyph-name="Uogonek" unicode="&#x172;" horiz-adv-x="663" 
d="M615 683h27q8 0 8 -9l-66 -410q-26 -161 -137 -232l-183 -136q-25 -19 -25 -47q0 -29 31 -29q12 0 34 6l14 4q9 4 9 -6l4 -20q1 -7 -6 -10l-17 -6q-24 -8 -45 -8q-31 0 -48.5 16.5t-17.5 44.5q0 46 47 82l54 41q9 7 14 11.5t6 8t-3.5 5t-15.5 1.5h-7h-2q-117 1 -170 73.5
t-32 201.5l66 411q1 7 8 7h27q8 0 8 -9l-67 -410q-17 -110 27 -171t142 -61t161.5 61t80.5 172l66 411q1 7 8 7z" />
    <glyph glyph-name="uogonek" unicode="&#x173;" 
d="M400 -57l-51 -47q-23 -24 -23 -48q0 -28 31 -28q12 0 33 6l14 4q9 4 9 -6l4 -20q1 -7 -6 -10l-18 -6q-24 -8 -43 -8q-31 0 -48.5 16t-17.5 44q0 42 40 79l48 46q20 20 24 35l2 13v1l10 62q0 6 -3 7t-8 -5q-71 -88 -183 -88q-81 0 -119.5 53.5t-24.5 144.5l46 281q1 7 8 7
h25q8 0 8 -9l-45 -281q-12 -73 15.5 -114t89.5 -41q85 0 141.5 59t74.5 167l34 212q1 7 8 7h26q8 0 8 -9l-75 -467q-5 -28 -34 -57z" />
    <glyph glyph-name="Wcircumflex" unicode="&#x174;" horiz-adv-x="959" 
d="M574 826l-84 -59q-4 -3 -9 -3h-24q-3 0 -5 1.5t-1.5 4t3.5 4.5l99 84q4 4 10 4h32q6 0 10 -4l73 -84q3 -4 1.5 -7t-6.5 -3h-26q-6 0 -10 4zM943 683h28q10 0 6 -9l-244 -527q-41 -89 -58 -140q-1 -7 -9 -7h-29q-8 0 -8 8q-4 91 -15 147l-68 389q-4 26 -4 51q0 4 -1.5 6
t-4 0t-4.5 -6q-2 -6 -6 -15t-9 -20t-7 -16l-195 -399q-35 -70 -59 -139q-2 -6 -9 -6h-28q-8 0 -8 8q-3 71 -13 139l-77 527q-1 9 8 9h26q7 0 8 -7l73 -494q5 -37 5 -93q0 -6 3.5 -6t5.5 6q11 38 38 93l242 495q3 6 10 6h18q7 0 8 -7l86 -494q7 -42 7 -94q0 -7 6 -5q3 1 4 6
q20 61 35 93l229 495q3 6 10 6z" />
    <glyph glyph-name="wcircumflex" unicode="&#x175;" horiz-adv-x="748" 
d="M440 663l-85 -77q-4 -4 -10 -4h-22q-5 0 -6.5 3t2.5 7l105 105q4 4 10 4h25q6 0 9 -5l72 -104q7 -10 -5 -10h-25q-6 0 -10 5zM704 476h28q10 0 5 -9l-154 -319q-52 -109 -65 -142q-3 -6 -10 -6h-26q-7 0 -9 7q-9 70 -21 134l-41 201q-6 26 -6 45q0 6 -2.5 8t-5.5 -0.5
t-5 -7.5q-12 -31 -20 -45l-104 -201q-35 -68 -65 -135q-3 -6 -10 -6h-29q-7 0 -9 8q-4 58 -18 140l-54 319q0 9 8 9h27q7 0 8 -7l48 -292q9 -71 11 -98q1 -6 5 -6t6 6q20 45 48 99l150 292q3 6 9 6h15q7 0 8 -7l59 -291q4 -22 14 -99q1 -6 6 -6t6 6q9 27 43 98l140 293
q3 6 10 6z" />
    <glyph glyph-name="Ycircumflex" unicode="&#x176;" horiz-adv-x="642" 
d="M414 826l-84 -59q-4 -3 -9 -3h-24q-3 0 -5 1.5t-1.5 4t3.5 4.5l99 84q4 4 10 4h32q6 0 10 -4l73 -84q3 -4 1.5 -7t-6.5 -3h-26q-6 0 -10 4zM628 683h34q12 0 5 -10l-226 -274q-51 -61 -73.5 -100t-31.5 -94l-31 -198q-1 -7 -8 -7h-27q-10 0 -8 9l31 196q9 56 -0.5 95.5
t-38.5 98.5l-138 275q-5 9 6 9h29q7 0 10 -6l126 -251q30 -62 41 -104q4 -13 11 0q38 64 72 104l207 252q4 5 10 5z" />
    <glyph glyph-name="ycircumflex" unicode="&#x177;" horiz-adv-x="535" 
d="M331 663l-85 -77q-4 -4 -10 -4h-22q-5 0 -6.5 3t2.5 7l105 105q4 4 10 4h25q6 0 9 -5l72 -104q7 -10 -5 -10h-25q-6 0 -10 5zM492 476h30q10 0 5 -10l-415 -671q-3 -5 -9 -5h-28q-10 0 -5 10l105 171q35 59 12 141l-107 355q-3 9 6 9h27q8 0 9 -7l90 -300q17 -53 19 -92
q1 -10 5 -10.5t10 10.5q21 42 51 92l186 302q3 5 9 5z" />
    <glyph glyph-name="Ydieresis" unicode="&#x178;" horiz-adv-x="642" 
d="M354 842q26 0 26 -24q0 -16 -9.5 -25.5t-25.5 -9.5q-26 0 -26 24q0 35 35 35zM483 842q26 0 26 -24q0 -16 -9.5 -25.5t-25.5 -9.5q-26 0 -26 24q0 35 35 35zM667 673l-226 -274q-51 -61 -73.5 -100t-31.5 -94l-31 -198q-1 -7 -8 -7h-27q-10 0 -8 9l31 196q9 56 -0.5 95.5
t-38.5 98.5l-138 275q-5 9 6 9h29q7 0 10 -6l126 -251q30 -62 41 -104q4 -13 11 0q38 64 72 104l207 252q4 5 10 5h34q12 0 5 -10z" />
    <glyph glyph-name="Zacute" unicode="&#x179;" horiz-adv-x="600" 
d="M466 862h42q6 0 7 -3t-4 -7l-109 -85q-4 -3 -10 -3h-28q-6 0 -7 3t3 7l96 84q4 4 10 4zM605 677l3 -8q2 -6 -3 -11q-25 -25 -71 -81l-392 -481q-6 -7 -19.5 -21.5t-20.5 -22.5q-7 -7 -6 -11.5t9 -3.5q35 3 62 3h329q10 0 6 -9l-11 -25q-3 -6 -10 -6h-442q-8 0 -9 7l-3 8
q-2 6 3 11q17 17 75 89l386 473q10 13 41 44q7 7 6 11.5t-9 3.5q-36 -3 -61 -3h-314q-8 0 -7 9l4 23q1 7 8 7h436q7 0 10 -6z" />
    <glyph glyph-name="zacute" unicode="&#x17a;" horiz-adv-x="464" 
d="M367 701h33q5 0 6.5 -3t-2.5 -7l-103 -105q-4 -4 -10 -4h-26q-5 0 -6.5 3t2.5 7l96 105q4 4 10 4zM446 470l2 -4q1 -5 -3 -11q-25 -24 -48 -51l-274 -326q-16 -18 -29 -30q-5 -5 -4 -8t7 -2q34 2 44 2h226q11 0 6 -9l-12 -25q-3 -6 -10 -6h-323q-7 0 -10 6l-1 4
q-3 5 2 11q20 18 54 58l269 319q20 23 29 30q5 4 4 7.5t-6 2.5q-36 -2 -45 -2h-221q-9 0 -7 9l4 24q1 7 8 7h329q7 0 9 -6z" />
    <glyph glyph-name="Zdotaccent" unicode="&#x17b;" horiz-adv-x="600" 
d="M400 842q26 0 26 -24q0 -16 -9.5 -25.5t-25.5 -9.5q-26 0 -26 24q0 35 35 35zM605 677l3 -8q2 -6 -3 -11q-25 -25 -71 -81l-392 -481q-6 -7 -19.5 -21.5t-20.5 -22.5q-7 -7 -6 -11.5t9 -3.5q35 3 62 3h329q10 0 6 -9l-11 -25q-3 -6 -10 -6h-442q-8 0 -9 7l-3 8q-2 6 3 11
q17 17 75 89l386 473q10 13 41 44q7 7 6 11.5t-9 3.5q-36 -3 -61 -3h-314q-8 0 -7 9l4 23q1 7 8 7h436q7 0 10 -6z" />
    <glyph glyph-name="zdotaccent" unicode="&#x17c;" horiz-adv-x="464" 
d="M306 707q29 0 29 -28q0 -37 -34 -37q-29 0 -29 27q0 38 34 38zM446 470l2 -4q1 -5 -3 -11q-25 -24 -48 -51l-274 -326q-16 -18 -29 -30q-5 -5 -4 -8t7 -2q34 2 44 2h226q11 0 6 -9l-12 -25q-3 -6 -10 -6h-323q-7 0 -10 6l-1 4q-3 5 2 11q20 18 54 58l269 319q20 23 29 30
q5 4 4 7.5t-6 2.5q-36 -2 -45 -2h-221q-9 0 -7 9l4 24q1 7 8 7h329q7 0 9 -6z" />
    <glyph glyph-name="Zcaron" unicode="&#x17d;" horiz-adv-x="600" 
d="M405 763h-32q-6 0 -10 4l-73 84q-3 4 -1.5 7t6.5 3h26q6 0 10 -4l63 -58l84 59q4 3 9 3h24q3 0 5 -1.5t1.5 -4t-3.5 -4.5l-99 -84q-4 -4 -10 -4zM534 577l-392 -481q-6 -7 -19.5 -21.5t-20.5 -22.5q-7 -7 -6 -11.5t9 -3.5q35 3 62 3h329q10 0 6 -9l-11 -25q-3 -6 -10 -6
h-442q-8 0 -9 7l-3 8q-2 6 3 11q17 17 75 89l386 473q10 13 41 44q7 7 6 11.5t-9 3.5q-36 -3 -61 -3h-314q-8 0 -7 9l4 23q1 7 8 7h436q7 0 9 -6l3 -8q3 -5 -2 -11q-25 -25 -71 -81z" />
    <glyph glyph-name="zcaron" unicode="&#x17e;" horiz-adv-x="464" 
d="M302 583h-25q-6 0 -9 5l-72 104q-7 10 5 10h25q6 0 10 -5l60 -76l85 77q4 4 10 4h22q5 0 6.5 -3t-2.5 -7l-105 -105q-4 -4 -10 -4zM446 470l2 -4q1 -5 -3 -11q-25 -24 -48 -51l-274 -326q-16 -18 -29 -30q-5 -5 -4 -8t7 -2q34 2 44 2h226q11 0 6 -9l-12 -25q-3 -6 -10 -6
h-323q-7 0 -10 6l-1 4q-3 5 2 11q20 18 54 58l269 319q20 23 29 30q5 4 4 7.5t-6 2.5q-36 -2 -45 -2h-221q-9 0 -7 9l4 24q1 7 8 7h329q7 0 9 -6z" />
    <glyph glyph-name="Schwa" unicode="&#x18f;" horiz-adv-x="632" 
d="M162 650l32 12q82 31 171 31q109 0 169 -65.5t62 -185.5q1 -58 -9.5 -118.5t-36.5 -121t-64.5 -107t-98 -76t-132.5 -29.5q-97 0 -150.5 41.5t-55.5 113.5q-1 88 51 139.5t162 71.5l290 53q1 32 -2 61.5t-14.5 64t-31 59t-56 41.5t-85.5 17q-78 0 -159 -29l-34 -11
q-8 -3 -10 6l-4 23q-2 7 6 9zM548 368l-282 -53q-91 -17 -133 -56t-41 -108q2 -55 44.5 -87t119.5 -32q116 0 191 85.5t101 250.5z" />
    <glyph glyph-name="LJ" unicode="&#x1c7;" horiz-adv-x="887" 
d="M104 40h324q10 0 8 -9l-4 -24q-1 -7 -8 -7h-360q-8 0 -8 9l107 667q1 7 8 7h27q8 0 8 -9zM858 674l-82 -520q-13 -77 -58.5 -120.5t-115.5 -43.5q-28 0 -50 9l-11 4q-9 3 -4 11l12 22q3 6 10 5l10 -4q18 -5 39 -5q49 0 82 32t43 89l83 523q1 7 8 7h26q10 0 8 -9z" />
    <glyph glyph-name="lj" unicode="&#x1c9;" horiz-adv-x="455" 
d="M414 707q29 0 29 -28q0 -39 -35 -39q-30 0 -30 27q0 19 10 29.5t26 10.5zM198 692l-99 -623q-6 -38 20 -38q9 0 12 1q8 2 10 -5l7 -23q1 -7 -5 -10q-11 -4 -26 -4q-35 0 -51 22t-9 59l99 623q1 7 8 7h26q8 0 8 -9zM409 467l-88 -544q-11 -81 -71 -117l-38 -25
q-7 -3 -11 3l-13 21q-4 7 3 11l37 24q44 27 53 85l80 511h-43q-8 0 -7 9l4 24q1 7 8 7h78q8 0 8 -9z" />
    <glyph glyph-name="NJ" unicode="&#x1ca;" horiz-adv-x="1073" 
d="M556 0h-32q-8 0 -9 7q-17 50 -41 96l-252 449q-17 34 -22 56q-1 3 -4 4t-5.5 -1.5t-2.5 -6.5q1 -19 -5 -73l-84 -524q-1 -7 -8 -7h-27q-8 0 -8 9l107 667q1 7 8 7h33q8 0 9 -7q16 -49 42 -94l250 -450q17 -30 23 -56q1 -4 4 -4.5t5.5 2t2.5 6.5q-1 19 5 73l85 523
q1 7 8 7h26q8 0 8 -9l-108 -667q-1 -7 -8 -7zM1045 674l-83 -521q-13 -77 -59 -120t-116 -43q-25 0 -49 9l-11 4q-9 3 -4 11l11 22q3 6 10 5l11 -4q20 -5 39 -5q50 0 82.5 31.5t41.5 89.5l83 523q1 7 8 7h28q8 0 8 -9z" />
    <glyph glyph-name="nj" unicode="&#x1cc;" horiz-adv-x="782" 
d="M741 707q29 0 29 -28q0 -39 -35 -39q-30 0 -30 27q0 19 10 29.5t26 10.5zM158 467l-11 -67q0 -6 3.5 -7t7.5 5q71 88 183 88q81 0 119.5 -53.5t24.5 -144.5l-46 -281q-1 -7 -8 -7h-25q-8 0 -8 9l45 281q12 73 -15.5 114t-89.5 41q-85 0 -141.5 -59t-74.5 -167l-34 -212
q-1 -7 -8 -7h-26q-8 0 -8 9l74 460q1 7 8 7h22q10 0 8 -9zM736 467l-88 -544q-11 -81 -71 -117l-38 -25q-7 -3 -11 3l-13 21q-4 7 3 11l37 24q44 27 53 85l80 511h-43q-9 0 -7 9l4 24q1 7 8 7h78q8 0 8 -9z" />
    <glyph glyph-name="Acaron" unicode="&#x1cd;" horiz-adv-x="683" 
d="M455 763h-32q-6 0 -10 4l-73 84q-3 4 -1.5 7t6.5 3h26q6 0 10 -4l63 -58l84 59q4 3 9 3h24q3 0 5 -1.5t1.5 -4t-3.5 -4.5l-99 -84q-4 -4 -10 -4zM470 535l128 -526q2 -9 -7 -9h-27q-8 0 -9 7l-45 188h-341l-112 -190q-3 -5 -9 -5h-31q-12 0 -5 10l314 525q46 80 73 142
q3 6 10 6h27q7 0 9 -7q7 -58 25 -141zM501 235l-66 267q-13 56 -17 108q0 3 -2 4.5t-5 0t-4 -4.5q-19 -49 -55 -108l-158 -267h307z" />
    <glyph glyph-name="acaron" unicode="&#x1ce;" horiz-adv-x="545" 
d="M346 583h-25q-6 0 -9 5l-72 104q-7 10 5 10h25q6 0 10 -5l60 -76l85 77q4 4 10 4h22q5 0 6.5 -3t-2.5 -7l-105 -105q-4 -4 -10 -4zM424 466l66 -24q7 -3 6 -10l-67 -425q-1 -7 -8 -7h-22q-8 0 -8 9l19 108q2 10 -3 9q-3 -1 -8 -8q-39 -60 -82.5 -94t-106.5 -34
q-76 0 -118 47t-42 131q0 51 15 104t44.5 102t82.5 80.5t121 31.5q60 0 111 -20zM453 414l-42 15q-46 16 -99 16q-56 0 -100.5 -27.5t-69.5 -71t-37.5 -88.5t-12.5 -87q0 -66 32 -103t89 -37q80 0 144 91.5t85 223.5z" />
    <glyph glyph-name="Icaron" unicode="&#x1cf;" horiz-adv-x="230" 
d="M297 861h24q3 0 5 -1.5t1.5 -4t-3.5 -4.5l-99 -84q-4 -4 -10 -4h-32q-6 0 -10 4l-73 84q-3 4 -1.5 7t6.5 3h26q6 0 10 -4l63 -58l84 59q4 3 9 3zM56 9l107 667q1 7 8 7h27q8 0 8 -9l-107 -667q-1 -7 -8 -7h-27q-8 0 -8 9z" />
    <glyph glyph-name="icaron" unicode="&#x1d0;" horiz-adv-x="236" 
d="M259 702h20q12 0 5 -10l-83 -104q-4 -5 -10 -5h-25q-7 0 -10 6l-51 104q-5 9 6 9h23q6 0 9 -6l41 -72l65 74q4 4 10 4zM92 445l4 24q1 7 8 7h78q8 0 8 -9l-75 -460q-1 -7 -8 -7h-25q-8 0 -8 9l68 427h-43q-9 0 -7 9z" />
    <glyph glyph-name="Ocaron" unicode="&#x1d1;" horiz-adv-x="683" 
d="M463 763h-32q-6 0 -10 4l-73 84q-3 4 -1.5 7t6.5 3h26q6 0 10 -4l63 -58l84 59q4 3 9 3h24q3 0 5 -1.5t1.5 -4t-3.5 -4.5l-99 -84q-4 -4 -10 -4zM412 693q112 0 173.5 -69.5t61.5 -194.5q0 -55 -11 -112.5t-37 -116.5t-64.5 -105.5t-98.5 -75.5t-133 -29
q-113 0 -174 69.5t-61 194.5q0 55 11 112t37 116.5t64 105.5t98.5 75.5t133.5 29.5zM306 32q65 0 117.5 27t85 69t54.5 96.5t31 105.5t9 99q0 106 -50 164.5t-144 58.5q-65 0 -117 -27t-85 -69.5t-55 -97t-31 -106t-9 -100.5q0 -106 50 -163t144 -57z" />
    <glyph glyph-name="ocaron" unicode="&#x1d2;" horiz-adv-x="533" 
d="M338 583h-25q-6 0 -9 5l-72 104q-7 10 5 10h25q6 0 10 -5l60 -76l85 77q4 4 10 4h22q5 0 6.5 -3t-2.5 -7l-105 -105q-4 -4 -10 -4zM304 486q85 0 132.5 -50.5t47.5 -140.5q0 -49 -14.5 -100t-43 -98t-79.5 -77t-117 -30q-85 0 -132.5 51t-47.5 141q0 39 8.5 79t28 81
t47.5 72.5t72.5 51.5t97.5 20zM231 31q56 0 99 26.5t66 68t34 84.5t11 85q0 72 -36 111t-103 39q-56 0 -99 -26t-66 -67.5t-34 -84.5t-11 -85q0 -72 36 -111.5t103 -39.5z" />
    <glyph glyph-name="Ucaron" unicode="&#x1d3;" horiz-adv-x="663" 
d="M428 763h-32q-6 0 -10 4l-73 84q-3 4 -1.5 7t6.5 3h26q6 0 10 -4l63 -58l84 59q5 3 9 3h24q3 0 5 -1.5t1.5 -4t-3.5 -4.5l-99 -84q-4 -4 -10 -4zM615 683h27q8 0 8 -9l-66 -410q-21 -129 -98 -201.5t-194 -72.5t-171 73t-33 202l66 411q1 7 8 7h27q8 0 8 -9l-67 -410
q-17 -110 27 -171t142 -61t161.5 61t80.5 172l66 411q1 7 8 7z" />
    <glyph glyph-name="ucaron" unicode="&#x1d4;" 
d="M342 583h-25q-6 0 -9 5l-72 104q-7 10 5 10h25q6 0 10 -5l60 -76l85 77q4 4 10 4h22q5 0 6.5 -3t-2.5 -7l-105 -105q-4 -4 -10 -4zM475 476h26q8 0 8 -9l-74 -460q-1 -7 -8 -7h-22q-9 0 -8 9l11 67q0 6 -3 7t-8 -5q-71 -88 -183 -88q-81 0 -119.5 53.5t-24.5 144.5
l46 281q1 7 8 7h25q8 0 8 -9l-45 -281q-12 -73 15.5 -114t89.5 -41q85 0 141.5 59t74.5 167l34 212q1 7 8 7z" />
    <glyph glyph-name="Udieresismacron" unicode="&#x1d5;" horiz-adv-x="663" 
d="M314 890h254q8 0 8 -9l-4 -21q-1 -7 -8 -7h-254q-8 0 -8 9l4 21q1 7 8 7zM353 787q26 0 26 -24q0 -16 -9.5 -25.5t-25.5 -9.5q-26 0 -26 24q0 35 35 35zM482 787q26 0 26 -24q0 -16 -9.5 -25.5t-25.5 -9.5q-26 0 -26 24q0 35 35 35zM650 674l-66 -410
q-21 -129 -98 -201.5t-194 -72.5t-171 73t-33 202l66 411q1 7 8 7h27q8 0 8 -9l-67 -410q-17 -110 27 -171t142 -61t161.5 61t80.5 172l66 411q1 7 8 7h27q8 0 8 -9z" />
    <glyph glyph-name="udieresismacron" unicode="&#x1d6;" 
d="M238 734h221q9 0 7 -9l-4 -21q-1 -7 -8 -7h-220q-8 0 -8 9l4 21q1 7 8 7zM254 597q29 0 29 -28q0 -36 -34 -36q-29 0 -29 27q0 37 34 37zM395 597q29 0 29 -28q0 -36 -34 -36q-29 0 -29 27q0 37 34 37zM397 9l11 67q0 6 -3 7t-8 -5q-71 -88 -183 -88q-81 0 -119.5 53.5
t-24.5 144.5l46 281q1 7 8 7h25q8 0 8 -9l-45 -281q-12 -73 15.5 -114t89.5 -41q85 0 141.5 59t74.5 167l34 212q1 7 8 7h26q8 0 8 -9l-74 -460q-1 -7 -8 -7h-22q-9 0 -8 9z" />
    <glyph glyph-name="Udieresisacute" unicode="&#x1d7;" horiz-adv-x="663" 
d="M521 925h42q6 0 7 -3t-4 -7l-109 -85q-5 -3 -10 -3h-28q-6 0 -7 3t3 7l96 84q4 4 10 4zM353 787q26 0 26 -24q0 -16 -9.5 -25.5t-25.5 -9.5q-26 0 -26 24q0 35 35 35zM482 787q26 0 26 -24q0 -16 -9.5 -25.5t-25.5 -9.5q-26 0 -26 24q0 35 35 35zM650 674l-66 -410
q-21 -129 -98 -201.5t-194 -72.5t-171 73t-33 202l66 411q1 7 8 7h27q8 0 8 -9l-67 -410q-17 -110 27 -171t142 -61t161.5 61t80.5 172l66 411q1 7 8 7h27q8 0 8 -9z" />
    <glyph glyph-name="udieresisacute" unicode="&#x1d8;" 
d="M415 775h33q5 0 6.5 -3t-2.5 -7l-103 -105q-4 -4 -10 -4h-26q-5 0 -6.5 3t2.5 7l96 105q4 4 10 4zM254 597q29 0 29 -28q0 -36 -34 -36q-29 0 -29 27q0 37 34 37zM395 597q29 0 29 -28q0 -36 -34 -36q-29 0 -29 27q0 37 34 37zM397 9l11 67q0 6 -3 7t-8 -5
q-71 -88 -183 -88q-81 0 -119.5 53.5t-24.5 144.5l46 281q1 7 8 7h25q8 0 8 -9l-45 -281q-12 -73 15.5 -114t89.5 -41q85 0 141.5 59t74.5 167l34 212q1 7 8 7h26q8 0 8 -9l-74 -460q-1 -7 -8 -7h-22q-9 0 -8 9z" />
    <glyph glyph-name="Udieresiscaron" unicode="&#x1d9;" horiz-adv-x="663" 
d="M452 827h-32q-6 0 -10 4l-73 84q-3 4 -1.5 7t6.5 3h26q6 0 10 -4l63 -58l84 59q5 3 9 3h24q3 0 5 -1.5t1.5 -4t-3.5 -4.5l-99 -84q-4 -4 -10 -4zM344 728q-26 0 -26 24q0 35 35 35q26 0 26 -24q0 -16 -9.5 -25.5t-25.5 -9.5zM447 752q0 35 35 35q26 0 26 -24
q0 -16 -9.5 -25.5t-25.5 -9.5q-26 0 -26 24zM615 683h27q8 0 8 -9l-66 -410q-21 -129 -98 -201.5t-194 -72.5t-171 73t-33 202l66 411q1 7 8 7h27q8 0 8 -9l-67 -410q-17 -110 27 -171t142 -61t161.5 61t80.5 172l66 411q1 7 8 7z" />
    <glyph glyph-name="udieresiscaron" unicode="&#x1da;" 
d="M350 657h-25q-6 0 -9 5l-72 104q-7 10 5 10h25q6 0 10 -5l60 -76l85 77q4 4 10 4h22q5 0 6.5 -3t-2.5 -7l-105 -105q-4 -4 -10 -4zM249 533q-29 0 -29 27q0 37 34 37q29 0 29 -28q0 -36 -34 -36zM361 560q0 37 34 37q29 0 29 -28q0 -36 -34 -36q-29 0 -29 27zM475 476h26
q8 0 8 -9l-74 -460q-1 -7 -8 -7h-22q-9 0 -8 9l11 67q0 6 -3 7t-8 -5q-71 -88 -183 -88q-81 0 -119.5 53.5t-24.5 144.5l46 281q1 7 8 7h25q8 0 8 -9l-45 -281q-12 -73 15.5 -114t89.5 -41q85 0 141.5 59t74.5 167l34 212q1 7 8 7z" />
    <glyph glyph-name="Udieresisgrave" unicode="&#x1db;" horiz-adv-x="663" 
d="M383 920l65 -83q8 -10 -4 -10h-28q-6 0 -10 4l-79 84q-4 4 -2.5 7t6.5 3h42q6 0 10 -5zM353 787q26 0 26 -24q0 -16 -9.5 -25.5t-25.5 -9.5q-26 0 -26 24q0 35 35 35zM482 787q26 0 26 -24q0 -16 -9.5 -25.5t-25.5 -9.5q-26 0 -26 24q0 35 35 35zM650 674l-66 -410
q-21 -129 -98 -201.5t-194 -72.5t-171 73t-33 202l66 411q1 7 8 7h27q8 0 8 -9l-67 -410q-17 -110 27 -171t142 -61t161.5 61t80.5 172l66 411q1 7 8 7h27q8 0 8 -9z" />
    <glyph glyph-name="udieresisgrave" unicode="&#x1dc;" 
d="M294 770l64 -104q5 -10 -5 -10h-26q-6 0 -9 5l-70 104q-7 10 5 10h32q6 0 9 -5zM254 597q29 0 29 -28q0 -36 -34 -36q-29 0 -29 27q0 37 34 37zM395 597q29 0 29 -28q0 -36 -34 -36q-29 0 -29 27q0 37 34 37zM397 9l11 67q0 6 -3 7t-8 -5q-71 -88 -183 -88
q-81 0 -119.5 53.5t-24.5 144.5l46 281q1 7 8 7h25q8 0 8 -9l-45 -281q-12 -73 15.5 -114t89.5 -41q85 0 141.5 59t74.5 167l34 212q1 7 8 7h26q8 0 8 -9l-74 -460q-1 -7 -8 -7h-22q-9 0 -8 9z" />
    <glyph glyph-name="Oogonek" unicode="&#x1ea;" horiz-adv-x="683" 
d="M466 35l-188 -139q-26 -17 -26 -48q0 -28 31 -28q11 0 34 6l14 4q9 4 9 -6l4 -20q1 -7 -6 -10l-17 -6q-25 -8 -45 -8q-31 0 -48 16t-17 44q0 48 46 83l54 41q10 8 14.5 12t6 7.5t-4 5t-16.5 1.5h-8q-113 0 -174 69.5t-61 194.5q0 55 11 112t37 116.5t64 105.5t98.5 75.5
t133.5 29.5q112 0 173.5 -69.5t61.5 -194.5q0 -70 -17 -141t-59.5 -142t-104.5 -111zM112 252q0 -106 50 -163t144 -57q65 0 117.5 27t85 69t54.5 96.5t31 105.5t9 99q0 106 -50 164.5t-144 58.5q-65 0 -117 -27t-85 -69.5t-55 -97t-31 -106t-9 -100.5z" />
    <glyph glyph-name="oogonek" unicode="&#x1eb;" horiz-adv-x="533" 
d="M371 36l-170 -141q-26 -21 -26 -48q0 -28 29 -28q11 0 34 7l15 4q9 4 9 -5l4 -22q1 -7 -6 -10l-15 -5q-24 -8 -43 -8q-32 0 -50 17.5t-18 45.5q0 42 45 81l50 41q21 17 20.5 21t-24.5 4q-83 1 -129 52t-46 140q0 39 8.5 79t28 81t47.5 72.5t72.5 51.5t97.5 20
q85 0 132.5 -50.5t47.5 -140.5q0 -70 -28.5 -143t-84.5 -116zM92 182q0 -72 36 -111.5t103 -39.5q56 0 99 26.5t66 68t34 84.5t11 85q0 72 -36 111t-103 39q-56 0 -99 -26t-66 -67.5t-34 -84.5t-11 -85z" />
    <glyph glyph-name="Gacute" unicode="&#x1f4;" horiz-adv-x="643" 
d="M487 862h42q6 0 7 -3t-4 -7l-109 -85q-5 -3 -10 -3h-28q-6 0 -7 3t3 7l96 84q4 4 10 4zM401 324h168q8 0 8 -9l-43 -264q-2 -7 -7 -8l-79 -28q-68 -25 -145 -25q-113 0 -174 69.5t-61 194.5q0 55 11 112t37 116.5t64.5 105.5t99 75.5t134.5 29.5q67 0 138 -26l36 -15
q9 -4 4 -10l-13 -24q-4 -7 -11 -4l-36 14q-61 24 -123 24q-65 0 -117 -27t-85 -69.5t-55 -97t-31 -106t-9 -100.5q0 -106 50.5 -163t145.5 -57q68 1 130 22l57 20l33 211h-142q-10 0 -6 9l11 24q3 6 10 6z" />
    <glyph glyph-name="gacute" unicode="&#x1f5;" horiz-adv-x="546" 
d="M411 701h33q5 0 6.5 -3t-2.5 -7l-103 -105q-4 -4 -10 -4h-26q-5 0 -6.5 3t2.5 7l96 105q4 4 10 4zM50 -153l36 -11q49 -14 101 -14q165 0 197 154q4 25 8.5 49t8 39.5t3.5 18.5q1 7 -3 7t-9 -7q-73 -93 -175 -93q-92 0 -135.5 66.5t-26.5 180.5q17 116 83.5 182.5
t169.5 66.5q64 0 122 -28l61 -29q6 -3 5 -10l-71 -445q-14 -92 -75 -142.5t-163 -50.5q-61 0 -117 16l-39 12q-7 3 -4 11l13 23q3 5 10 4zM450 400l-40 23q-41 22 -106 22q-84 -1 -138 -56t-69 -154q-15 -93 17.5 -148.5t106.5 -55.5q82 0 136.5 63.5t69.5 163.5z" />
    <glyph glyph-name="Aringacute" unicode="&#x1fa;" horiz-adv-x="683" 
d="M560 963h42q6 0 7 -3t-4 -7l-109 -85q-5 -3 -10 -3h-28q-6 0 -7 3t3 7l96 84q4 4 10 4zM455 836q30 0 47.5 -14t17.5 -37q0 -34 -23 -53t-62 -19q-30 0 -46.5 14t-16.5 38q0 33 22.5 52t60.5 19zM450 803q-40 0 -40 -33q0 -24 31 -24q41 0 41 32q0 25 -32 25zM169 195
l-112 -190q-3 -5 -9 -5h-31q-12 0 -5 10l314 525q46 80 73 142q3 6 10 6h27q7 0 9 -7q7 -58 25 -141l128 -526q2 -9 -7 -9h-27q-8 0 -9 7l-45 188h-341zM501 235l-66 267q-13 56 -17 108q0 3 -2 4.5t-5 0t-4 -4.5q-19 -49 -55 -108l-158 -267h307z" />
    <glyph glyph-name="aringacute" unicode="&#x1fb;" horiz-adv-x="545" 
d="M419 775h33q5 0 6.5 -3t-2.5 -7l-103 -105q-4 -4 -10 -4h-26q-5 0 -6.5 3t2.5 7l96 105q4 4 10 4zM331 638q63 0 63 -54q0 -30 -20 -55.5t-64 -25.5q-63 0 -63 53q0 33 20.5 57.5t63.5 24.5zM325 604q-34 0 -40 -35q-5 -33 30 -33q42 0 42 42q0 26 -32 26zM391 9l19 108
q2 10 -3 9q-3 -1 -8 -8q-39 -60 -82.5 -94t-106.5 -34q-76 0 -118 47t-42 131q0 51 15 104t44.5 102t82.5 80.5t121 31.5q60 0 111 -20l66 -24q7 -3 6 -10l-67 -425q-1 -7 -8 -7h-22q-8 0 -8 9zM453 414l-42 15q-46 16 -99 16q-56 0 -100.5 -27.5t-69.5 -71t-37.5 -88.5
t-12.5 -87q0 -66 32 -103t89 -37q80 0 144 91.5t85 223.5z" />
    <glyph glyph-name="AEacute" unicode="&#x1fc;" horiz-adv-x="904" 
d="M646 862h42q6 0 7 -3t-4 -7l-109 -85q-4 -3 -10 -3h-28q-6 0 -7 3t3 7l96 84q4 4 10 4zM891 644h-425q-13 0 -13 -17q1 -20 19 -101l38 -155h280q8 0 7 -9l-4 -24q-1 -7 -8 -7h-266l72 -291h219q8 0 7 -9l-4 -24q-1 -7 -8 -7h-241q-8 0 -9 7l-46 188h-340l-112 -190
q-3 -5 -9 -5h-31q-12 0 -5 10l313 523q39 66 74 144q3 6 10 6h496q10 0 6 -9l-10 -24q-3 -6 -10 -6zM501 235l-66 270q-13 48 -17 104q-1 6 -5 6t-6 -6q-16 -42 -54 -105l-159 -269h307z" />
    <glyph glyph-name="aeacute" unicode="&#x1fd;" horiz-adv-x="866" 
d="M553 701h33q5 0 6.5 -3t-2.5 -7l-103 -105q-4 -4 -10 -4h-26q-5 0 -6.5 3t2.5 7l96 105q4 4 10 4zM492 433l-2 -15q-2 -10 1.5 -13t12.5 7q60 74 170 74q75 0 116 -31.5t41 -88.5t-41 -95t-118 -51l-210 -35q-1 -74 35.5 -114t104.5 -40q51 0 102 13l28 8q8 2 9 -6l4 -23
q2 -8 -7 -10l-26 -6q-64 -17 -112 -17q-121 0 -161 96q-14 34 -22 36t-27 -23q-78 -109 -176 -109q-164 0 -164 177q0 40 9 82t29.5 85t50 76.5t74.5 54.5t100 21q57 0 109 -19l64 -24q7 -3 6 -10zM453 413l-44 16q-43 16 -97 16q-58 0 -102.5 -28t-69 -71t-36.5 -88
t-12 -87q0 -140 125 -140q79 0 140.5 93t82.5 210zM466 225l200 33q65 11 94 40t29 63q0 40 -31 62t-87 22q-82 0 -136 -57t-69 -163z" />
    <glyph glyph-name="Oslashacute" unicode="&#x1fe;" horiz-adv-x="693" 
d="M512 862h42q6 0 7 -3t-4 -7l-109 -85q-5 -3 -10 -3h-28q-6 0 -7 3t3 7l96 84q4 4 10 4zM690 673l-76 -82q38 -65 38 -162q0 -55 -11 -112.5t-37 -116.5t-64.5 -105.5t-98.5 -75.5t-133 -29q-115 0 -177 74l-55 -60q-4 -4 -10 -4h-27q-5 0 -6.5 3t2.5 7l76 82
q-38 65 -38 162q0 55 11 112t37 116.5t64 105.5t98.5 75.5t133.5 29.5q115 0 177 -74l55 60q4 4 10 4h27q5 0 6.5 -3t-2.5 -7zM142 127l422 459q-51 66 -150 66q-65 0 -117 -27t-85 -69.5t-55 -97t-31 -106t-9 -100.5q0 -73 25 -125zM583 556l-422 -459q50 -65 150 -65
q65 0 117.5 27t85 69t54.5 96.5t31 105.5t9 99q0 74 -25 127z" />
    <glyph glyph-name="oslashacute" unicode="&#x1ff;" horiz-adv-x="534" 
d="M404 701h33q5 0 6.5 -3t-2.5 -7l-103 -105q-4 -4 -10 -4h-26q-5 0 -6.5 3t2.5 7l96 105q4 4 10 4zM508 466l-53 -55q29 -46 29 -116q0 -49 -14 -100t-42.5 -98t-79.5 -77t-117 -30q-84 0 -131 49l-33 -35q-4 -4 -10 -4h-26q-5 0 -7 3t2 7l54 56q-29 46 -29 116
q0 39 8.5 79t28 81t47.5 72.5t72.5 51.5t97.5 20q82 0 130 -48l32 34q4 4 10 4h26q5 0 7 -3t-2 -7zM110 98l295 309q-35 38 -102 38q-56 0 -99 -26t-66 -67.5t-34 -84.5t-11 -85q0 -48 17 -84zM425 380l-296 -310q36 -39 103 -39q56 0 99.5 26.5t66.5 68t34 84.5t11 85
q0 51 -18 85z" />
    <glyph glyph-name="Adblgrave" unicode="&#x200;" horiz-adv-x="683" 
d="M304 862h34q6 0 9 -5l51 -83q5 -10 -5 -10h-24q-6 0 -10 5l-60 83q-7 10 5 10zM430 862h33q6 0 9 -5l49 -83q7 -10 -5 -10h-22q-6 0 -10 5l-59 83q-7 10 5 10zM169 195l-112 -190q-3 -5 -9 -5h-31q-12 0 -5 10l314 525q46 80 73 142q3 6 10 6h27q7 0 9 -7q7 -58 25 -141
l128 -526q2 -9 -7 -9h-27q-8 0 -9 7l-45 188h-341zM501 235l-66 267q-13 56 -17 108q0 3 -2 4.5t-5 0t-4 -4.5q-19 -49 -55 -108l-158 -267h307z" />
    <glyph glyph-name="adblgrave" unicode="&#x201;" horiz-adv-x="545" 
d="M218 701h29q8 0 9 -7l34 -103q4 -9 -7 -9h-21q-8 0 -9 6l-41 104q-5 9 6 9zM335 701h30q8 0 9 -7l33 -103q4 -9 -7 -9h-21q-7 0 -9 6l-41 104q-5 9 6 9zM391 9l19 108q2 10 -3 9q-3 -1 -8 -8q-39 -60 -82.5 -94t-106.5 -34q-76 0 -118 47t-42 131q0 51 15 104t44.5 102
t82.5 80.5t121 31.5q60 0 111 -20l66 -24q7 -3 6 -10l-67 -425q-1 -7 -8 -7h-22q-8 0 -8 9zM453 414l-42 15q-46 16 -99 16q-56 0 -100.5 -27.5t-69.5 -71t-37.5 -88.5t-12.5 -87q0 -66 32 -103t89 -37q80 0 144 91.5t85 223.5z" />
    <glyph glyph-name="Ainvertedbreve" unicode="&#x202;" horiz-adv-x="683" 
d="M328 773l2 12q14 88 125 88q54 0 78.5 -22.5t17.5 -65.5l-2 -14q-1 -7 -8 -7h-23q-10 0 -8 9l2 11q5 25 -11.5 38t-52.5 13q-71 0 -80 -51l-2 -13q-1 -7 -8 -7h-22q-10 0 -8 9zM169 195l-112 -190q-3 -5 -9 -5h-31q-12 0 -5 10l314 525q46 80 73 142q3 6 10 6h27
q7 0 9 -7q7 -58 25 -141l128 -526q2 -9 -7 -9h-27q-8 0 -9 7l-45 188h-341zM501 235l-66 267q-13 56 -17 108q0 3 -2 4.5t-5 0t-4 -4.5q-19 -49 -55 -108l-158 -267h307z" />
    <glyph glyph-name="ainvertedbreve" unicode="&#x203;" horiz-adv-x="545" 
d="M230 592l4 25q8 46 39 70.5t80 24.5q50 0 74.5 -26t16.5 -72l-4 -24q-1 -7 -8 -7h-21q-9 0 -8 9l4 25q9 60 -56 60q-33 0 -53.5 -16.5t-25.5 -45.5l-4 -25q-1 -7 -8 -7h-22q-10 0 -8 9zM391 9l19 108q2 10 -3 9q-3 -1 -8 -8q-39 -60 -82.5 -94t-106.5 -34q-76 0 -118 47
t-42 131q0 51 15 104t44.5 102t82.5 80.5t121 31.5q60 0 111 -20l66 -24q7 -3 6 -10l-67 -425q-1 -7 -8 -7h-22q-8 0 -8 9zM453 414l-42 15q-46 16 -99 16q-56 0 -100.5 -27.5t-69.5 -71t-37.5 -88.5t-12.5 -87q0 -66 32 -103t89 -37q80 0 144 91.5t85 223.5z" />
    <glyph glyph-name="Edblgrave" unicode="&#x204;" horiz-adv-x="597" 
d="M267 862h34q6 0 9 -5l51 -83q5 -10 -5 -10h-24q-6 0 -10 5l-60 83q-7 10 5 10zM393 862h33q6 0 9 -5l49 -83q7 -10 -5 -10h-22q-6 0 -10 5l-59 83q-7 10 5 10zM158 371h326q8 0 7 -9l-4 -24q-1 -7 -8 -7h-328l-46 -291h397q8 0 7 -9l-4 -24q-1 -7 -8 -7h-433q-8 0 -8 9
l108 667q1 7 8 7h427q10 0 6 -9l-11 -24q-3 -6 -10 -6h-383z" />
    <glyph glyph-name="edblgrave" unicode="&#x205;" horiz-adv-x="496" 
d="M196 701h29q8 0 9 -7l34 -103q4 -9 -7 -9h-21q-8 0 -9 6l-41 104q-5 9 6 9zM313 701h30q8 0 9 -7l33 -103q4 -9 -7 -9h-21q-7 0 -9 6l-41 104q-5 9 6 9zM302 221l-211 -34q-1 -75 35.5 -115.5t105.5 -40.5q51 0 102 13l28 8q8 2 9 -7l3 -22q2 -8 -6 -10l-26 -6
q-64 -17 -112 -17q-86 0 -133 51t-47 141q0 49 14 99.5t42.5 98t79.5 77t117 29.5q75 0 116.5 -32t41.5 -88t-40.5 -94t-118.5 -51zM95 226l201 33q65 11 94 39.5t29 62.5q0 40 -31 62t-87 22q-82 0 -136 -56.5t-70 -162.5z" />
    <glyph glyph-name="Einvertedbreve" unicode="&#x206;" horiz-adv-x="597" 
d="M291 773l2 12q14 88 125 88q54 0 78.5 -22.5t17.5 -65.5l-2 -14q-1 -7 -8 -7h-23q-9 0 -8 9l2 11q5 25 -11.5 38t-52.5 13q-71 0 -80 -51l-2 -13q-1 -7 -8 -7h-22q-9 0 -8 9zM158 371h326q8 0 7 -9l-4 -24q-1 -7 -8 -7h-328l-46 -291h397q8 0 7 -9l-4 -24q-1 -7 -8 -7
h-433q-8 0 -8 9l108 667q1 7 8 7h427q10 0 6 -9l-11 -24q-3 -6 -10 -6h-383z" />
    <glyph glyph-name="einvertedbreve" unicode="&#x207;" horiz-adv-x="496" 
d="M208 592l4 25q8 46 39 70.5t80 24.5q50 0 74.5 -26t16.5 -72l-4 -24q-1 -7 -8 -7h-21q-9 0 -8 9l4 25q9 60 -56 60q-33 0 -53.5 -16.5t-25.5 -45.5l-4 -25q-1 -7 -8 -7h-22q-10 0 -8 9zM302 221l-211 -34q-1 -75 35.5 -115.5t105.5 -40.5q51 0 102 13l28 8q8 2 9 -7
l3 -22q2 -8 -6 -10l-26 -6q-64 -17 -112 -17q-86 0 -133 51t-47 141q0 49 14 99.5t42.5 98t79.5 77t117 29.5q75 0 116.5 -32t41.5 -88t-40.5 -94t-118.5 -51zM95 226l201 33q65 11 94 39.5t29 62.5q0 40 -31 62t-87 22q-82 0 -136 -56.5t-70 -162.5z" />
    <glyph glyph-name="Idblgrave" unicode="&#x208;" horiz-adv-x="230" 
d="M64 862h34q6 0 9 -5l51 -83q5 -10 -5 -10h-24q-6 0 -10 5l-60 83q-7 10 5 10zM190 862h33q6 0 9 -5l49 -83q7 -10 -5 -10h-22q-6 0 -10 5l-59 83q-7 10 5 10zM91 0h-27q-8 0 -8 9l107 667q1 7 8 7h27q8 0 8 -9l-107 -667q-1 -7 -8 -7z" />
    <glyph glyph-name="idblgrave" unicode="&#x209;" horiz-adv-x="236" 
d="M49 701h29q8 0 9 -7l33 -103q4 -9 -7 -9h-20q-7 0 -9 6l-41 104q-5 9 6 9zM166 701h30q8 0 9 -7l31 -103q3 -9 -6 -9h-21q-7 0 -9 6l-40 104q-5 9 6 9zM107 0h-25q-8 0 -8 9l68 427h-43q-9 0 -7 9l4 24q1 7 8 7h78q8 0 8 -9l-75 -460q-1 -7 -8 -7z" />
    <glyph glyph-name="Iinvertedbreve" unicode="&#x20a;" horiz-adv-x="230" 
d="M89 773l2 12q14 88 125 88q54 0 78.5 -22.5t17.5 -65.5l-2 -14q-1 -7 -8 -7h-23q-9 0 -8 9l2 11q5 25 -11.5 38t-52.5 13q-71 0 -80 -51l-2 -13q-1 -7 -8 -7h-22q-9 0 -8 9zM91 0h-27q-8 0 -8 9l107 667q1 7 8 7h27q8 0 8 -9l-107 -667q-1 -7 -8 -7z" />
    <glyph glyph-name="iinvertedbreve" unicode="&#x20b;" horiz-adv-x="236" 
d="M98 590l6 37q12 77 92 77q39 0 58 -21t12 -58l-6 -37q-1 -7 -8 -7h-21q-8 0 -8 9l7 38q4 19 -6 30t-30 11q-47 0 -53 -43l-7 -38q-1 -7 -8 -7h-20q-10 0 -8 9zM107 0h-25q-8 0 -8 9l68 427h-43q-9 0 -7 9l4 24q1 7 8 7h78q8 0 8 -9l-75 -460q-1 -7 -8 -7z" />
    <glyph glyph-name="Odblgrave" unicode="&#x20c;" horiz-adv-x="683" 
d="M313 862h34q6 0 9 -5l51 -83q5 -10 -5 -10h-24q-6 0 -10 5l-60 83q-7 10 5 10zM439 862h33q6 0 9 -5l49 -83q7 -10 -5 -10h-22q-6 0 -10 5l-59 83q-7 10 5 10zM412 693q112 0 173.5 -69.5t61.5 -194.5q0 -55 -11 -112.5t-37 -116.5t-64.5 -105.5t-98.5 -75.5t-133 -29
q-113 0 -174 69.5t-61 194.5q0 55 11 112t37 116.5t64 105.5t98.5 75.5t133.5 29.5zM409 652q-65 0 -117 -27t-85 -69.5t-55 -97t-31 -106t-9 -100.5q0 -106 50 -163t144 -57q65 0 117.5 27t85 69t54.5 96.5t31 105.5t9 99q0 106 -50 164.5t-144 58.5z" />
    <glyph glyph-name="odblgrave" unicode="&#x20d;" horiz-adv-x="533" 
d="M210 701h29q8 0 9 -7l34 -103q4 -9 -7 -9h-21q-8 0 -9 6l-41 104q-5 9 6 9zM327 701h30q8 0 9 -7l33 -103q4 -9 -7 -9h-21q-7 0 -9 6l-41 104q-5 9 6 9zM304 486q85 0 132.5 -50.5t47.5 -140.5q0 -49 -14.5 -100t-43 -98t-79.5 -77t-117 -30q-85 0 -132.5 51t-47.5 141
q0 39 8.5 79t28 81t47.5 72.5t72.5 51.5t97.5 20zM302 445q-56 0 -99 -26t-66 -67.5t-34 -84.5t-11 -85q0 -72 36 -111.5t103 -39.5q56 0 99 26.5t66 68t34 84.5t11 85q0 72 -36 111t-103 39z" />
    <glyph glyph-name="Oinvertedbreve" unicode="&#x20e;" horiz-adv-x="683" 
d="M337 773l2 12q14 88 125 88q54 0 78.5 -22.5t17.5 -65.5l-2 -14q-1 -7 -8 -7h-23q-9 0 -8 9l2 11q5 25 -11.5 38t-52.5 13q-71 0 -80 -51l-2 -13q-1 -7 -8 -7h-22q-9 0 -8 9zM412 693q112 0 173.5 -69.5t61.5 -194.5q0 -55 -11 -112.5t-37 -116.5t-64.5 -105.5
t-98.5 -75.5t-133 -29q-113 0 -174 69.5t-61 194.5q0 55 11 112t37 116.5t64 105.5t98.5 75.5t133.5 29.5zM409 652q-65 0 -117 -27t-85 -69.5t-55 -97t-31 -106t-9 -100.5q0 -106 50 -163t144 -57q65 0 117.5 27t85 69t54.5 96.5t31 105.5t9 99q0 106 -50 164.5t-144 58.5z
" />
    <glyph glyph-name="oinvertedbreve" unicode="&#x20f;" horiz-adv-x="533" 
d="M222 592l4 25q8 46 39 70.5t80 24.5q50 0 74.5 -26t16.5 -72l-4 -24q-1 -7 -8 -7h-21q-9 0 -8 9l4 25q9 60 -56 60q-33 0 -53.5 -16.5t-25.5 -45.5l-4 -25q-1 -7 -8 -7h-22q-10 0 -8 9zM304 486q85 0 132.5 -50.5t47.5 -140.5q0 -49 -14.5 -100t-43 -98t-79.5 -77
t-117 -30q-85 0 -132.5 51t-47.5 141q0 39 8.5 79t28 81t47.5 72.5t72.5 51.5t97.5 20zM302 445q-56 0 -99 -26t-66 -67.5t-34 -84.5t-11 -85q0 -72 36 -111.5t103 -39.5q56 0 99 26.5t66 68t34 84.5t11 85q0 72 -36 111t-103 39z" />
    <glyph glyph-name="Rdblgrave" unicode="&#x210;" horiz-adv-x="650" 
d="M260 862h34q6 0 9 -5l51 -83q5 -10 -5 -10h-24q-6 0 -10 5l-60 83q-7 10 5 10zM386 862h33q6 0 9 -5l49 -83q7 -10 -5 -10h-22q-6 0 -10 5l-59 83q-7 10 5 10zM171 683h260q85 0 130 -38.5t45 -110.5q0 -155 -183 -211q-8 -2 -11 -5.5t-1.5 -6.5t6.5 -5q63 -32 87 -125
l47 -172q1 -9 -7 -9h-27q-8 0 -9 7l-43 161q-36 136 -182 136h-136l-48 -297q-1 -7 -8 -7h-27q-8 0 -8 9l107 667q1 7 8 7zM153 344h141q136 0 202 52.5t66 132.5q0 55 -34.5 85t-100.5 30h-226z" />
    <glyph glyph-name="rdblgrave" unicode="&#x211;" horiz-adv-x="362" 
d="M137 701h29q8 0 9 -7l34 -103q4 -9 -7 -9h-21q-7 0 -9 6l-41 104q-5 9 6 9zM254 701h30q8 0 9 -7l33 -103q4 -9 -7 -9h-21q-8 0 -9 6l-41 104q-5 9 6 9zM346 477l-4 -25q-1 -7 -8 -7q-82 -3 -140.5 -72.5t-77.5 -189.5l-28 -176q-1 -7 -8 -7h-26q-8 0 -8 9l74 460
q1 7 8 7h22q10 0 8 -9l-13 -85q-1 -5 3 -6t8 4q70 102 182 106q10 0 8 -9z" />
    <glyph glyph-name="Rinvertedbreve" unicode="&#x212;" horiz-adv-x="650" 
d="M285 773l2 12q14 88 125 88q54 0 78.5 -22.5t17.5 -65.5l-2 -14q-1 -7 -8 -7h-23q-9 0 -8 9l2 11q5 25 -11.5 38t-52.5 13q-71 0 -80 -51l-2 -13q-1 -7 -8 -7h-22q-9 0 -8 9zM171 683h260q85 0 130 -38.5t45 -110.5q0 -155 -183 -211q-8 -2 -11 -5.5t-1.5 -6.5t6.5 -5
q63 -32 87 -125l47 -172q1 -9 -7 -9h-27q-8 0 -9 7l-43 161q-36 136 -182 136h-136l-48 -297q-1 -7 -8 -7h-27q-8 0 -8 9l107 667q1 7 8 7zM153 344h141q136 0 202 52.5t66 132.5q0 55 -34.5 85t-100.5 30h-226z" />
    <glyph glyph-name="rinvertedbreve" unicode="&#x213;" horiz-adv-x="362" 
d="M150 592l4 25q8 46 39 70.5t80 24.5q50 0 74.5 -26t16.5 -72l-4 -24q-1 -7 -8 -7h-21q-9 0 -8 9l4 25q9 60 -56 60q-33 0 -53.5 -16.5t-25.5 -45.5l-4 -25q-1 -7 -8 -7h-22q-10 0 -8 9zM346 477l-4 -25q-1 -7 -8 -7q-82 -3 -140.5 -72.5t-77.5 -189.5l-28 -176
q-1 -7 -8 -7h-26q-8 0 -8 9l74 460q1 7 8 7h22q10 0 8 -9l-13 -85q-1 -5 3 -6t8 4q70 102 182 106q10 0 8 -9z" />
    <glyph glyph-name="Udblgrave" unicode="&#x214;" horiz-adv-x="663" 
d="M277 862h34q6 0 9 -5l51 -83q5 -10 -5 -10h-24q-6 0 -10 5l-60 83q-7 10 5 10zM403 862h33q6 0 9 -5l49 -83q7 -10 -5 -10h-22q-6 0 -10 5l-59 83q-7 10 5 10zM650 674l-66 -410q-21 -129 -98 -201.5t-194 -72.5t-171 73t-33 202l66 411q1 7 8 7h27q8 0 8 -9l-67 -410
q-17 -110 27 -171t142 -61t161.5 61t80.5 172l66 411q1 7 8 7h27q8 0 8 -9z" />
    <glyph glyph-name="udblgrave" unicode="&#x215;" 
d="M214 701h29q8 0 9 -7l34 -103q4 -9 -7 -9h-21q-8 0 -9 6l-41 104q-5 9 6 9zM331 701h30q8 0 9 -7l33 -103q4 -9 -7 -9h-21q-7 0 -9 6l-41 104q-5 9 6 9zM397 9l11 67q0 6 -3 7t-8 -5q-71 -88 -183 -88q-81 0 -119.5 53.5t-24.5 144.5l46 281q1 7 8 7h25q8 0 8 -9
l-45 -281q-12 -73 15.5 -114t89.5 -41q85 0 141.5 59t74.5 167l34 212q1 7 8 7h26q8 0 8 -9l-74 -460q-1 -7 -8 -7h-22q-9 0 -8 9z" />
    <glyph glyph-name="Uinvertedbreve" unicode="&#x216;" horiz-adv-x="663" 
d="M302 773l2 12q14 88 125 88q54 0 78.5 -22.5t17.5 -65.5l-2 -14q-1 -7 -8 -7h-23q-10 0 -8 9l2 11q5 25 -11.5 38t-52.5 13q-71 0 -80 -51l-2 -13q-1 -7 -8 -7h-22q-10 0 -8 9zM650 674l-66 -410q-21 -129 -98 -201.5t-194 -72.5t-171 73t-33 202l66 411q1 7 8 7h27
q8 0 8 -9l-67 -410q-17 -110 27 -171t142 -61t161.5 61t80.5 172l66 411q1 7 8 7h27q8 0 8 -9z" />
    <glyph glyph-name="uinvertedbreve" unicode="&#x217;" 
d="M227 592l4 25q8 46 39 70.5t80 24.5q50 0 74.5 -26t16.5 -72l-4 -24q-1 -7 -8 -7h-21q-10 0 -8 9l4 25q9 60 -56 60q-33 0 -53.5 -16.5t-25.5 -45.5l-4 -25q-1 -7 -8 -7h-22q-9 0 -8 9zM397 9l11 67q0 6 -3 7t-8 -5q-71 -88 -183 -88q-81 0 -119.5 53.5t-24.5 144.5
l46 281q1 7 8 7h25q8 0 8 -9l-45 -281q-12 -73 15.5 -114t89.5 -41q85 0 141.5 59t74.5 167l34 212q1 7 8 7h26q8 0 8 -9l-74 -460q-1 -7 -8 -7h-22q-9 0 -8 9z" />
    <glyph glyph-name="Scommaaccent" unicode="&#x218;" horiz-adv-x="589" 
d="M380 299l-144 58q-116 45 -116 139q0 35 12.5 67.5t38.5 62.5t73.5 48.5t110.5 18.5q70 0 146 -24l44 -13q9 -3 4 -11l-12 -24q-3 -6 -10 -5l-42 15q-63 21 -133 21q-83 0 -136 -42t-53 -110q0 -70 91 -106l143 -57q120 -49 120 -138q0 -36 -16 -71.5t-46.5 -67t-83 -51
t-118.5 -19.5q-94 0 -181 35l-31 13q-9 4 -4 10l12 24q4 7 11 4l29 -13q77 -31 167 -31q99 0 158 49.5t59 110.5q0 71 -93 107zM197 -210l26 38q8 14 0 17q-21 6 -21 28q0 19 11.5 30t29.5 11q15 0 24 -9t9 -23q0 -25 -25 -64l-23 -33q-3 -5 -9 -5h-17q-12 0 -5 10z" />
    <glyph glyph-name="scommaaccent" unicode="&#x219;" horiz-adv-x="466" 
d="M289 208l-118 36q-87 25 -87 99q0 66 49.5 104.5t135.5 38.5q65 0 113 -15l35 -11q9 -3 4 -11l-11 -23q-3 -6 -10 -5l-33 11q-42 13 -99 13q-65 0 -103.5 -27t-38.5 -72t63 -65l118 -36q88 -27 88 -100q0 -62 -48 -108.5t-151 -46.5q-90 0 -148 25l-19 8q-7 3 -4 10
l12 22q4 7 11 4l18 -7q47 -21 132 -21q79 0 117 33t38 78q0 47 -64 66zM133 -210l26 38q8 14 0 17q-21 6 -21 28q0 19 11.5 30t29.5 11q15 0 24 -9t9 -23q0 -25 -25 -64l-23 -33q-3 -5 -9 -5h-17q-12 0 -5 10z" />
    <glyph glyph-name="uni021A" unicode="&#x21a;" horiz-adv-x="618" 
d="M395 644l-101 -637q-1 -7 -8 -7h-27q-8 0 -8 9l101 635h-234q-8 0 -7 9l4 23q1 7 8 7h513q8 0 7 -9l-4 -23q-1 -7 -8 -7h-236zM210 -210l26 38q8 14 0 17q-21 6 -21 28q0 19 11.5 30t29.5 11q15 0 24 -9t9 -23q0 -25 -25 -64l-23 -33q-3 -5 -9 -5h-17q-12 0 -5 10z" />
    <glyph glyph-name="uni021B" unicode="&#x21b;" horiz-adv-x="322" 
d="M191 476h110q9 0 7 -9l-4 -24q-1 -7 -8 -7h-112l-53 -333q-12 -72 47 -72q16 0 28 4q8 2 10 -6l6 -22q1 -7 -5 -10q-21 -7 -42 -7q-49 0 -71.5 30t-13.5 84l52 332h-43q-9 0 -7 9l4 24q1 7 8 7h45l19 124q2 7 7 8l28 9q4 1 6.5 -0.5t1.5 -6.5zM76 -210l26 38q8 14 0 17
q-21 6 -21 28q0 19 11.5 30t29.5 11q15 0 24 -9t9 -23q0 -25 -25 -64l-23 -33q-3 -5 -9 -5h-17q-12 0 -5 10z" />
    <glyph glyph-name="schwa" unicode="&#x259;" horiz-adv-x="493" 
d="M125 463l26 6q64 17 111 17q86 0 133.5 -51t47.5 -141q0 -49 -14.5 -100t-43 -98t-79.5 -76.5t-117 -29.5q-75 0 -116 31.5t-41 87.5q0 57 41 95t118 51l210 34q1 75 -35.5 115.5t-105.5 40.5q-46 0 -101 -13l-28 -8q-7 -2 -9 6l-4 23q-2 8 7 10zM398 250l-202 -33
q-65 -11 -93.5 -39.5t-28.5 -63.5q0 -40 30.5 -61.5t86.5 -21.5q83 0 137 56.5t70 162.5z" />
    <glyph glyph-name="commaturnedmod" unicode="&#x2bb;" horiz-adv-x="170" 
d="M127 683l-30 -39q-20 -25 -20 -48q0 -11 7.5 -18.5t19.5 -7.5q20 0 29 12.5t9 24.5q0 15 -12 24q-9 4 -3 12l31 40h-31z" />
    <glyph glyph-name="circumflex" unicode="&#x2c6;" horiz-adv-x="334" 
d="M329 582h-25q-6 0 -10 5l-60 76l-85 -77q-4 -4 -10 -4h-22q-5 0 -6.5 3t2.5 7l105 105q4 4 10 4h25q6 0 9 -5l72 -104q7 -10 -5 -10z" />
    <glyph glyph-name="caron" unicode="&#x2c7;" horiz-adv-x="334" 
d="M324 702h22q5 0 6.5 -3t-2.5 -7l-105 -105q-4 -4 -10 -4h-25q-6 0 -9 5l-72 104q-7 10 5 10h25q6 0 10 -5l60 -76l85 77q4 4 10 4z" />
    <glyph glyph-name="breve" unicode="&#x2d8;" horiz-adv-x="306" 
d="M331 691l-4 -25q-8 -46 -39 -70.5t-80 -24.5q-50 0 -74.5 26t-16.5 72l4 24q1 7 8 7h21q10 0 8 -9l-4 -25q-9 -60 56 -60q33 0 53.5 16.5t25.5 45.5l4 25q1 7 8 7h22q9 0 8 -9z" />
    <glyph glyph-name="dotaccent" unicode="&#x2d9;" horiz-adv-x="151" 
d="M148 707q29 0 29 -28q0 -37 -34 -37q-29 0 -29 27q0 38 34 38z" />
    <glyph glyph-name="ring" unicode="&#x2da;" horiz-adv-x="232" 
d="M192 710q63 0 63 -54q0 -30 -20 -55.5t-64 -25.5q-63 0 -63 53q0 33 20.5 57.5t63.5 24.5zM186 676q-34 0 -40 -35q-5 -33 30 -33q42 0 42 42q0 26 -32 26z" />
    <glyph glyph-name="ogonek" unicode="&#x2db;" horiz-adv-x="241" 
d="M141 0h25q8 0 7 -9q-7 -23 -32 -48l-51 -47q-23 -24 -23 -48q0 -28 31 -28q12 0 33 6l14 4q9 4 9 -6l4 -20q1 -7 -6 -10l-18 -6q-24 -8 -43 -8q-31 0 -48.5 16t-17.5 44q0 42 40 79l47 45q16 16 21 29q1 7 8 7z" />
    <glyph glyph-name="tilde" unicode="&#x2dc;" horiz-adv-x="379" 
d="M111 609l22 34q23 38 62 38q18 0 43 -14l50 -28q16 -9 27 -9q17 0 31 21l15 22q5 5 10 5h22q11 0 6 -10l-22 -33q-26 -38 -62 -38q-19 0 -44 14l-48 26q-20 10 -28 10q-18 0 -32 -19l-16 -24q-3 -5 -9 -5h-22q-10 0 -5 10z" />
    <glyph glyph-name="hungarumlaut" unicode="&#x2dd;" horiz-adv-x="317" 
d="M208 691l-73 -104q-5 -5 -10 -5h-21q-10 0 -5 10l66 104q3 5 9 5h29q12 0 5 -10zM326 691l-74 -104q-4 -5 -10 -5h-21q-10 0 -5 10l67 104q3 5 9 5h29q12 0 5 -10z" />
    <glyph glyph-name="dblgravecmb" unicode="&#x30f;" horiz-adv-x="0" 
d="M133 701h29q8 0 9 -7l34 -103q4 -9 -7 -9h-21q-7 0 -9 6l-41 104q-5 9 6 9zM250 701h30q8 0 9 -7l33 -103q4 -9 -7 -9h-21q-8 0 -9 6l-41 104q-5 9 6 9z" />
    <glyph glyph-name="breveinvertedcomb" unicode="&#x311;" horiz-adv-x="0" 
d="M104 592l4 25q8 46 39 70.5t80 24.5q50 0 74.5 -26t16.5 -72l-4 -24q-1 -7 -8 -7h-21q-9 0 -8 9l4 25q9 60 -56 60q-33 0 -53.5 -16.5t-25.5 -45.5l-4 -25q-1 -7 -8 -7h-22q-10 0 -8 9z" />
    <glyph glyph-name="commaaccentcomb" unicode="&#x326;" horiz-adv-x="0" 
d="M16 -66l26 38q8 14 0 17q-21 6 -21 28q0 19 11.5 30t29.5 11q15 0 24 -9t9 -23q0 -25 -25 -64l-23 -33q-3 -5 -9 -5h-17q-12 0 -5 10z" />
    <glyph glyph-name="uni0400" unicode="&#x400;" horiz-adv-x="597" 
d="M360 857l65 -83q8 -10 -4 -10h-28q-6 0 -10 4l-79 84q-4 4 -2.5 7t6.5 3h42q6 0 10 -5zM158 371h326q8 0 7 -9l-4 -24q-1 -7 -8 -7h-328l-46 -291h397q8 0 7 -9l-4 -24q-1 -7 -8 -7h-433q-8 0 -8 9l108 667q1 7 8 7h427q10 0 6 -9l-11 -24q-3 -6 -10 -6h-383z" />
    <glyph glyph-name="uni0401" unicode="&#x401;" horiz-adv-x="597" 
d="M351 842q26 0 26 -24q0 -16 -9.5 -25.5t-25.5 -9.5q-26 0 -26 24q0 35 35 35zM480 842q26 0 26 -24q0 -16 -9.5 -25.5t-25.5 -9.5q-26 0 -26 24q0 35 35 35zM158 371h326q8 0 7 -9l-4 -24q-1 -7 -8 -7h-328l-46 -291h397q8 0 7 -9l-4 -24q-1 -7 -8 -7h-433q-8 0 -8 9
l108 667q1 7 8 7h427q10 0 6 -9l-11 -24q-3 -6 -10 -6h-383z" />
    <glyph glyph-name="uni0402" unicode="&#x402;" horiz-adv-x="739" 
d="M301 375l75 25q65 22 136 22q80 0 123 -43.5t43 -123.5q0 -37 -7.5 -72t-25.5 -70.5t-45.5 -62.5t-70.5 -43.5t-97 -16.5q-40 0 -90 14l-14 4q-8 2 -5 10l10 23q3 6 10 5l16 -4q40 -10 75 -10q55 0 95.5 20t62.5 53.5t32.5 69t10.5 73.5q0 63 -32.5 97.5t-92.5 34.5
q-70 0 -126 -19l-89 -29l-52 -325q-1 -7 -8 -7h-27q-8 0 -8 9l102 635h-209q-9 0 -8 9l4 23q1 7 8 7h516q9 0 8 -9l-4 -23q-1 -7 -8 -7h-264z" />
    <glyph glyph-name="uni0403" unicode="&#x403;" horiz-adv-x="563" 
d="M444 862h42q6 0 7 -3t-4 -7l-109 -85q-5 -3 -10 -3h-28q-6 0 -7 3t3 7l96 84q4 4 10 4zM201 644l-102 -637q-1 -7 -8 -7h-27q-8 0 -8 9l107 667q1 7 8 7h403q10 0 6 -9l-11 -24q-3 -6 -10 -6h-358z" />
    <glyph glyph-name="uni0404" unicode="&#x404;" horiz-adv-x="595" 
d="M552 666l36 -15q8 -3 4 -10l-13 -23q-4 -7 -11 -4l-36 14q-61 24 -123 24t-112.5 -24t-84 -66t-54.5 -89.5t-33 -101.5h333q8 0 7 -9l-4 -24q-1 -7 -8 -7h-335q-6 -41 -6 -78q0 -106 50 -163.5t145 -57.5q73 1 132 21l43 15q8 3 10 -5l5 -24q1 -7 -6 -9l-44 -16
q-68 -24 -144 -24q-113 0 -174 69.5t-61 194.5q0 55 11 112.5t37 117t64 105t98.5 75t134.5 29.5q63 0 139 -27z" />
    <glyph glyph-name="uni0405" unicode="&#x405;" horiz-adv-x="589" 
d="M380 299l-144 58q-116 45 -116 139q0 35 12.5 67.5t38.5 62.5t73.5 48.5t110.5 18.5q70 0 146 -24l44 -13q9 -3 4 -11l-12 -24q-3 -6 -10 -5l-42 15q-63 21 -133 21q-83 0 -136 -42t-53 -110q0 -70 91 -106l143 -57q120 -49 120 -138q0 -36 -16 -71.5t-46.5 -67t-83 -51
t-118.5 -19.5q-94 0 -181 35l-31 13q-9 4 -4 10l12 24q4 7 11 4l29 -13q77 -31 167 -31q99 0 158 49.5t59 110.5q0 71 -93 107z" />
    <glyph glyph-name="uni0406" unicode="&#x406;" horiz-adv-x="230" 
d="M91 0h-27q-8 0 -8 9l107 667q1 7 8 7h27q8 0 8 -9l-107 -667q-1 -7 -8 -7z" />
    <glyph glyph-name="uni0407" unicode="&#x407;" horiz-adv-x="230" 
d="M148 842q26 0 26 -24q0 -16 -9.5 -25.5t-25.5 -9.5q-26 0 -26 24q0 35 35 35zM277 842q26 0 26 -24q0 -16 -9.5 -25.5t-25.5 -9.5q-26 0 -26 24q0 35 35 35zM91 0h-27q-8 0 -8 9l107 667q1 7 8 7h27q8 0 8 -9l-107 -667q-1 -7 -8 -7z" />
    <glyph glyph-name="uni0408" unicode="&#x408;" horiz-adv-x="412" 
d="M384 674l-80 -502q-14 -84 -63.5 -133t-122.5 -49q-42 0 -72 11l-25 8q-9 3 -4 11l11 23q3 6 10 5l25 -8q25 -8 61 -8q54 0 90.5 36.5t46.5 102.5l81 505q1 7 8 7h26q8 0 8 -9z" />
    <glyph glyph-name="uni0409" unicode="&#x409;" horiz-adv-x="1048" 
d="M609 379h145q113 0 174.5 -45.5t61.5 -131.5q0 -35 -12.5 -69t-39 -64.5t-76 -49.5t-114.5 -19h-234q-8 0 -8 9l102 634h-344l-74 -472q-11 -69 -43 -108t-92 -58l-40 -13q-8 -3 -10 6l-4 23q-1 7 6 9l39 12q85 27 101 131l80 503q1 7 8 7h413q10 0 8 -9zM602 339
l-47 -299h197q100 0 146.5 48.5t46.5 111.5q0 68 -50.5 103.5t-145.5 35.5h-147z" />
    <glyph glyph-name="uni040A" unicode="&#x40a;" horiz-adv-x="1004" 
d="M566 379h145q113 0 174.5 -45t61.5 -127q0 -36 -12.5 -70t-39.5 -66t-76 -51.5t-115 -19.5h-233q-8 0 -8 9l53 330h-364l-53 -332q-1 -7 -8 -7h-27q-8 0 -8 9l107 667q1 7 8 7h27q10 0 8 -9l-47 -295h364l47 297q1 7 8 7h26q10 0 8 -9zM559 339l-47 -299h197
q99 0 146 50.5t47 114.5t-51 99t-144 35h-148z" />
    <glyph glyph-name="uni040B" unicode="&#x40b;" horiz-adv-x="757" 
d="M301 374l73 25q69 22 139 22q92 0 134.5 -58t25.5 -161l-32 -195q-1 -7 -8 -7h-26q-9 0 -8 9l31 194q13 83 -19 130t-102 47q-69 0 -126 -19l-89 -30l-51 -324q-1 -7 -8 -7h-27q-8 0 -8 9l102 635h-209q-9 0 -8 9l4 23q1 7 8 7h516q9 0 8 -9l-4 -23q-1 -7 -8 -7h-264z
" />
    <glyph glyph-name="uni040C" unicode="&#x40c;" horiz-adv-x="617" 
d="M464 862h42q6 0 7 -3t-4 -7l-109 -85q-5 -3 -10 -3h-28q-6 0 -7 3t3 7l96 84q4 4 10 4zM627 673l-164 -177q-42 -46 -94.5 -84.5t-89.5 -53.5q-16 -6 -2 -12q77 -33 147 -150l109 -186q7 -10 -5 -10h-32q-6 0 -9 6l-97 167q-37 67 -91.5 112.5t-122.5 45.5h-25l-52 -324
q-1 -7 -8 -7h-27q-8 0 -8 9l108 667q1 7 8 7h27q8 0 8 -9l-49 -303h24q108 0 249 150l147 158q4 4 10 4h35q5 0 6.5 -3t-2.5 -7z" />
    <glyph glyph-name="uni040E" unicode="&#x40e;" horiz-adv-x="645" 
d="M538 899l-4 -25q-8 -46 -39 -70.5t-80 -24.5q-50 0 -74.5 26t-16.5 72l4 24q1 7 8 7h21q9 0 8 -9l-4 -25q-9 -60 56 -60q33 0 53.5 16.5t25.5 45.5l4 25q1 7 8 7h22q10 0 8 -9zM680 673l-328 -502q-2 -4 -17 -27.5t-20 -30.5t-20 -27.5t-24 -28t-25.5 -22t-31 -20
t-34 -10.5t-40.5 -5h-34q-10 0 -8 9l4 24q1 7 8 7h35q51 0 88.5 35t44.5 76q6 46 -21 121l-145 402q-4 9 7 9h28q7 0 9 -6l135 -376q18 -51 25 -103q1 -4 2.5 -5.5t4 0t5.5 6.5q10 18 22 39t20.5 35t17.5 29l246 376q3 5 9 5h31q11 0 6 -10z" />
    <glyph glyph-name="uni040F" unicode="&#x40f;" horiz-adv-x="674" 
d="M651 675l-107 -667q-1 -7 -8 -7h-215l-29 -179q-1 -7 -8 -7h-26q-8 0 -8 9l29 177h-215q-8 0 -8 9l107 667q1 7 8 7h26q8 0 8 -9l-101 -635h402l102 637q1 7 8 7h27q8 0 8 -9z" />
    <glyph glyph-name="uni0410" unicode="&#x410;" horiz-adv-x="683" 
d="M169 195l-112 -190q-3 -5 -9 -5h-31q-12 0 -5 10l314 525q46 80 73 142q3 6 10 6h27q7 0 9 -7q7 -58 25 -141l128 -526q2 -9 -7 -9h-27q-8 0 -9 7l-45 188h-341zM501 235l-66 267q-13 56 -17 108q0 3 -2 4.5t-5 0t-4 -4.5q-19 -49 -55 -108l-158 -267h307z" />
    <glyph glyph-name="uni0411" unicode="&#x411;" horiz-adv-x="640" 
d="M601 674l-10 -24q-3 -6 -10 -6h-380l-41 -257h200q103 0 159.5 -43.5t56.5 -126.5q0 -38 -13 -74.5t-39.5 -69.5t-74.5 -53t-111 -20h-274q-8 0 -8 9l107 667q1 7 8 7h424q10 0 6 -9zM154 347l-49 -307h237q51 0 90 16.5t59.5 43t30.5 55.5t10 59q0 133 -174 133h-204z
" />
    <glyph glyph-name="uni0412" unicode="&#x412;" horiz-adv-x="644" 
d="M171 683h266q81 0 126 -36t45 -101t-36 -115t-103 -72q-6 -2 -8 -4.5t-0.5 -5t7.5 -3.5q53 -13 80.5 -50.5t27.5 -92.5q0 -94 -63 -148.5t-172 -54.5h-277q-8 0 -8 9l107 667q1 7 8 7zM157 371h178q108 0 168.5 45.5t60.5 121.5q0 49 -35 77.5t-98 28.5h-230zM104 40h243
q85 0 135.5 42.5t50.5 116.5q0 64 -51.5 98t-150.5 34h-180z" />
    <glyph glyph-name="uni0413" unicode="&#x413;" horiz-adv-x="563" 
d="M580 674l-11 -24q-3 -6 -10 -6h-358l-102 -637q-1 -7 -8 -7h-27q-8 0 -8 9l107 667q1 7 8 7h403q10 0 6 -9z" />
    <glyph glyph-name="uni0414" unicode="&#x414;" horiz-adv-x="722" 
d="M574 40h49q8 0 8 -9l-34 -209q-1 -7 -8 -7h-26q-9 0 -8 9l28 176h-535l-28 -178q-1 -7 -8 -7h-26q-8 0 -8 9l34 209q1 7 8 7h42l55 90q50 85 67 194l56 352q1 7 8 7h419q8 0 8 -9zM278 644l-52 -320q-18 -119 -73 -210l-46 -74h425l95 604h-349z" />
    <glyph glyph-name="uni0415" unicode="&#x415;" horiz-adv-x="597" 
d="M158 371h326q8 0 7 -9l-4 -24q-1 -7 -8 -7h-328l-46 -291h397q8 0 7 -9l-4 -24q-1 -7 -8 -7h-433q-8 0 -8 9l108 667q1 7 8 7h427q10 0 6 -9l-11 -24q-3 -6 -10 -6h-383z" />
    <glyph glyph-name="uni0416" unicode="&#x416;" horiz-adv-x="912" 
d="M911 673l-150 -178q-40 -46 -86.5 -85t-79.5 -53q-11 -6 -2 -12q66 -29 127 -148l95 -188q5 -9 -6 -9h-30q-6 0 -9 6l-84 167q-36 71 -76.5 114.5t-94.5 43.5h-23l-52 -324q-1 -7 -8 -7h-27q-8 0 -8 9l52 322h-23q-52 0 -104 -43t-112 -115l-139 -168q-4 -5 -10 -5h-32
q-5 0 -6.5 3t1.5 7l155 187q102 121 174 150q14 6 2 12q-28 15 -62.5 52.5t-58.5 83.5l-94 178q-5 10 6 10h30q6 0 9 -6l83 -156q81 -150 167 -150h21l48 305q1 7 8 7h27q9 0 8 -9l-48 -303h22q85 0 210 150l133 157q4 5 10 5h32q5 0 6.5 -3t-1.5 -7z" />
    <glyph glyph-name="uni0417" unicode="&#x417;" horiz-adv-x="600" 
d="M147 660l46 11q85 22 169 22q91 0 144 -41.5t53 -111.5q0 -53 -33.5 -103t-106.5 -78q-17 -6 -9 -11q1 -1 3 -2q55 -18 84.5 -57t29.5 -89q0 -81 -70.5 -145.5t-204.5 -64.5q-76 0 -162 22l-51 15q-9 3 -4 11l12 23q3 6 10 5l50 -15q69 -20 147 -20q113 0 172 54t59 118
q0 62 -52.5 95t-133.5 33h-93q-8 0 -7 9l4 24q1 7 8 7h92q90 0 152 48.5t62 115.5q0 54 -42.5 86t-114.5 32q-77 0 -158 -20l-48 -12q-8 -1 -9 6l-4 23q-2 8 6 10z" />
    <glyph glyph-name="uni0418" unicode="&#x418;" horiz-adv-x="696" 
d="M557 0h-26q-8 0 -8 9l84 522q4 35 16 73q2 6 -2 7.5t-7 -3.5q-12 -23 -41 -56l-388 -450q-40 -47 -73 -97q-3 -5 -9 -5h-39q-8 0 -8 9l108 667q1 7 8 7h27q8 0 8 -9l-83 -521q-10 -52 -18 -73q-3 -7 2 -8.5t8 4.5q21 31 40 54l388 451q40 47 73 97q3 5 9 5h38q8 0 8 -9
l-107 -667q-1 -7 -8 -7z" />
    <glyph glyph-name="uni0419" unicode="&#x419;" horiz-adv-x="696" 
d="M547 853l-2 -12q-14 -88 -125 -88q-54 0 -78.5 22.5t-17.5 65.5l2 14q1 7 8 7h23q9 0 8 -9l-2 -11q-5 -25 11.5 -38t52.5 -13q71 0 80 51l2 13q1 7 8 7h22q9 0 8 -9zM523 9l84 522q4 35 16 73q2 6 -2 7.5t-7 -3.5q-12 -23 -41 -56l-388 -450q-40 -47 -73 -97q-3 -5 -9 -5
h-39q-8 0 -8 9l108 667q1 7 8 7h27q8 0 8 -9l-83 -521q-10 -52 -18 -73q-3 -7 2 -8.5t8 4.5q21 31 40 54l388 451q40 47 73 97q3 5 9 5h38q8 0 8 -9l-107 -667q-1 -7 -8 -7h-26q-8 0 -8 9z" />
    <glyph glyph-name="uni041A" unicode="&#x41a;" horiz-adv-x="617" 
d="M627 673l-164 -177q-42 -46 -94.5 -84.5t-89.5 -53.5q-16 -6 -2 -12q77 -33 147 -150l109 -186q7 -10 -5 -10h-32q-6 0 -9 6l-97 167q-37 67 -91.5 112.5t-122.5 45.5h-25l-52 -324q-1 -7 -8 -7h-27q-8 0 -8 9l108 667q1 7 8 7h27q8 0 8 -9l-49 -303h24q108 0 249 150
l147 158q4 4 10 4h35q5 0 6.5 -3t-2.5 -7z" />
    <glyph glyph-name="uni041B" unicode="&#x41b;" horiz-adv-x="695" 
d="M672 674l-107 -667q-1 -7 -8 -7h-27q-8 0 -8 9l102 635h-350l-48 -303q-20 -125 -62.5 -204.5t-114.5 -122.5l-41 -24q-7 -4 -10 4l-10 21q-3 7 4 11l39 23q116 67 153 294l53 333q1 7 8 7h419q8 0 8 -9z" />
    <glyph glyph-name="uni041C" unicode="&#x41c;" horiz-adv-x="792" 
d="M653 0h-26q-9 0 -8 9l78 492q9 55 21 102q3 12 -4 11q-4 0 -8 -8q-17 -32 -47 -81l-206 -329q-38 -62 -56 -100q-3 -6 -10 -6h-29q-7 0 -8 7q-9 45 -25 101l-102 329q-6 20 -21 79q-2 12 -8 7q-3 -4 -4 -10q-4 -47 -12 -102l-79 -494q-1 -7 -8 -7h-27q-8 0 -8 9l107 667
q1 7 8 7h49q7 0 8 -7q2 -11 19 -83l113 -370q12 -46 15 -65q1 -5 3 -7.5t5 -0.5t5 8q27 51 36 66l230 369q31 48 46 84q3 6 10 6h50q8 0 8 -9l-107 -667q-1 -7 -8 -7z" />
    <glyph glyph-name="uni041D" unicode="&#x41d;" horiz-adv-x="684" 
d="M545 0h-27q-8 0 -8 9l52 322h-411l-52 -324q-1 -7 -8 -7h-27q-8 0 -8 9l107 667q1 7 8 7h27q10 0 8 -9l-48 -303h411l48 305q1 7 8 7h27q8 0 8 -9l-107 -667q-1 -7 -8 -7z" />
    <glyph glyph-name="uni041E" unicode="&#x41e;" horiz-adv-x="683" 
d="M412 693q112 0 173.5 -69.5t61.5 -194.5q0 -55 -11 -112.5t-37 -116.5t-64.5 -105.5t-98.5 -75.5t-133 -29q-113 0 -174 69.5t-61 194.5q0 55 11 112t37 116.5t64 105.5t98.5 75.5t133.5 29.5zM409 652q-65 0 -117 -27t-85 -69.5t-55 -97t-31 -106t-9 -100.5
q0 -106 50 -163t144 -57q65 0 117.5 27t85 69t54.5 96.5t31 105.5t9 99q0 106 -50 164.5t-144 58.5z" />
    <glyph glyph-name="uni041F" unicode="&#x41f;" horiz-adv-x="675" 
d="M651 674l-107 -667q-1 -7 -8 -7h-26q-8 0 -8 9l101 635h-402l-102 -637q-1 -7 -8 -7h-27q-8 0 -8 9l107 667q1 7 8 7h472q8 0 8 -9z" />
    <glyph glyph-name="uni0420" unicode="&#x420;" horiz-adv-x="613" 
d="M171 683h235q104 0 154.5 -53t36.5 -147q-15 -102 -102 -155t-232 -53h-121l-43 -268q-1 -7 -8 -7h-27q-8 0 -8 9l107 667q1 7 8 7zM148 315h119q124 0 199 44t88 127q11 74 -29 116t-123 42h-201z" />
    <glyph glyph-name="uni0421" unicode="&#x421;" horiz-adv-x="595" 
d="M491 30l-44 -16q-68 -24 -144 -24q-113 0 -174 69.5t-61 194.5q0 55 11 112.5t37 117t64 105t98.5 75t134.5 29.5q63 0 139 -27l36 -15q8 -3 4 -10l-13 -23q-4 -7 -11 -4l-36 14q-61 24 -123 24q-80 0 -140.5 -40t-93 -103.5t-48 -128.5t-15.5 -127q0 -106 50 -163.5
t145 -57.5q73 1 132 21l43 15q8 3 10 -5l5 -24q1 -7 -6 -9z" />
    <glyph glyph-name="uni0422" unicode="&#x422;" horiz-adv-x="618" 
d="M395 644l-101 -637q-1 -7 -8 -7h-27q-8 0 -8 9l101 635h-234q-8 0 -7 9l4 23q1 7 8 7h513q8 0 7 -9l-4 -23q-1 -7 -8 -7h-236z" />
    <glyph glyph-name="uni0423" unicode="&#x423;" horiz-adv-x="645" 
d="M680 673l-328 -502q-2 -4 -17 -27.5t-20 -30.5t-20 -27.5t-24 -28t-25.5 -22t-31 -20t-34 -10.5t-40.5 -5h-34q-10 0 -8 9l4 24q1 7 8 7h35q51 0 88.5 35t44.5 76q6 46 -21 121l-145 402q-4 9 7 9h28q7 0 9 -6l135 -376q18 -51 25 -103q1 -4 2.5 -5.5t4 0t5.5 6.5
q10 18 22 39t20.5 35t17.5 29l246 376q3 5 9 5h31q11 0 6 -10z" />
    <glyph glyph-name="uni0424" unicode="&#x424;" horiz-adv-x="825" 
d="M491 592h86q103 0 159 -51t56 -144q0 -40 -9 -80t-31 -80t-54.5 -70.5t-83.5 -49.5t-114 -19h-88l-15 -91q-1 -7 -8 -7h-27q-8 0 -8 9l15 89h-86q-102 0 -158.5 51.5t-56.5 144.5q0 51 15.5 101t48 95.5t91.5 73.5t137 28h88l13 84q1 7 8 7h27q10 0 8 -9zM441 552h-86
q-64 0 -113.5 -24.5t-76.5 -63.5t-40 -81t-13 -85q0 -77 45.5 -118.5t129.5 -41.5h88zM484 552l-66 -414h86q64 0 113.5 24.5t77 64t40.5 82t13 85.5q0 76 -45.5 117t-130.5 41h-88z" />
    <glyph glyph-name="uni0425" unicode="&#x425;" horiz-adv-x="646" 
d="M646 673l-244 -293q-17 -22 -28 -28q-9 -6 -2 -11q4 -4 18 -28l154 -304q5 -9 -6 -9h-30q-6 0 -9 6l-153 304q-2 5 -7.5 5t-9.5 -5l-252 -305q-4 -5 -10 -5h-33q-5 0 -6.5 3t1.5 7l251 303q12 16 25 25q6 4 7 6q3 4 -1 8q-7 7 -18 28l-150 294q-5 9 6 9h29q6 0 9 -6
l150 -293q7 -14 17 0l243 294q4 5 10 5h34q5 0 6.5 -3t-1.5 -7z" />
    <glyph glyph-name="uni0426" unicode="&#x426;" horiz-adv-x="697" 
d="M549 40h49q8 0 8 -9l-34 -209q-1 -7 -8 -7h-26q-8 0 -8 9l29 176h-495q-8 0 -8 9l107 667q1 7 8 7h26q8 0 8 -9l-101 -635h402l102 637q1 7 8 7h27q8 0 8 -9z" />
    <glyph glyph-name="uni0427" unicode="&#x427;" horiz-adv-x="641" 
d="M616 674l-118 -667q-1 -7 -8 -7h-26q-8 0 -7 9l50 288l-80 -25q-71 -22 -149 -22q-99 0 -144.5 58t-27.5 161l37 207q1 7 8 7h27q8 0 7 -9l-36 -207q-15 -83 20.5 -129t112.5 -46q74 0 135 19l98 29l59 336q1 7 8 7h27q9 0 7 -9z" />
    <glyph glyph-name="uni0428" unicode="&#x428;" horiz-adv-x="946" 
d="M922 674l-107 -667q-1 -7 -8 -7h-743q-8 0 -8 9l107 667q1 7 8 7h27q8 0 8 -9l-101 -634h315l101 636q1 7 8 7h27q8 0 8 -9l-101 -634h316l101 636q1 7 8 7h26q8 0 8 -9z" />
    <glyph glyph-name="uni0429" unicode="&#x429;" horiz-adv-x="969" 
d="M820 40h50q8 0 8 -9l-34 -209q-1 -7 -8 -7h-26q-8 0 -8 9l29 176h-767q-8 0 -8 9l107 667q1 7 8 7h27q8 0 8 -9l-101 -634h315l101 636q1 7 8 7h27q8 0 8 -9l-101 -634h316l101 636q1 7 8 7h26q8 0 8 -9z" />
    <glyph glyph-name="uni042A" unicode="&#x42a;" horiz-adv-x="749" 
d="M302 408h119q131 0 202 -46t71 -138q0 -39 -13 -76t-40.5 -71.5t-80 -55.5t-121.5 -21h-236q-8 0 -8 9l102 635h-204q-9 0 -8 9l4 23q1 7 8 7h240q8 0 8 -9zM244 40h199q56 0 98 17t64.5 44.5t33.5 57t11 60.5q0 150 -233 150h-121z" />
    <glyph glyph-name="uni042B" unicode="&#x42b;" horiz-adv-x="808" 
d="M56 9l107 667q1 7 8 7h27q8 0 8 -9l-43 -266h119q131 0 202 -46t71 -138q0 -39 -13 -76t-40.5 -71.5t-80 -55.5t-121.5 -21h-236q-8 0 -8 9zM669 0h-27q-8 0 -8 9l107 667q1 7 8 7h27q8 0 8 -9l-107 -667q-1 -7 -8 -7zM105 40h199q56 0 98 17t64.5 44.5t33.5 57t11 60.5
q0 150 -233 150h-121z" />
    <glyph glyph-name="uni042C" unicode="&#x42c;" horiz-adv-x="614" 
d="M300 0h-236q-8 0 -8 9l107 667q1 7 8 7h27q8 0 8 -9l-43 -266h119q131 0 202 -46t71 -138q0 -39 -13 -76t-40.5 -71.5t-80 -55.5t-121.5 -21zM105 40h199q56 0 98 17t64.5 44.5t33.5 57t11 60.5q0 150 -233 150h-121z" />
    <glyph glyph-name="uni042D" unicode="&#x42d;" horiz-adv-x="596" 
d="M137 653l44 16q68 24 144 24q113 0 174 -69.5t61 -194.5q0 -55 -11 -112.5t-37 -117t-64 -105t-98.5 -75t-134.5 -29.5q-63 0 -139 27l-36 15q-8 3 -4 10l13 23q4 7 11 4l36 -14q61 -24 123 -24q64 0 116.5 26.5t86 71.5t54.5 95t31 107h-335q-8 0 -7 9l4 24q1 7 8 7h336
q3 31 3 59q0 106 -50 163.5t-145 57.5q-73 -1 -132 -21l-43 -15q-8 -3 -10 5l-5 24q-1 8 6 9z" />
    <glyph glyph-name="uni042E" unicode="&#x42e;" horiz-adv-x="903" 
d="M157 371h143q13 62 37.5 116.5t64 102t98.5 75.5t132 28q112 0 173.5 -69.5t61.5 -194.5q0 -55 -11 -112.5t-37 -116.5t-64.5 -105.5t-98.5 -75.5t-133 -29q-113 0 -174 69.5t-61 194.5q0 32 5 77h-142l-52 -324q-1 -7 -8 -7h-27q-8 0 -8 9l107 667q1 7 8 7h27q8 0 8 -9z
M526 32q65 0 117.5 27t85 69t54.5 96.5t31 105.5t9 99q0 106 -50 164.5t-144 58.5q-65 0 -117 -27t-85 -69.5t-55 -97t-31 -106t-9 -100.5q0 -106 50 -163t144 -57z" />
    <glyph glyph-name="uni042F" unicode="&#x42f;" horiz-adv-x="651" 
d="M627 674l-107 -667q-1 -7 -8 -7h-26q-10 0 -8 9l45 284h-134q-149 0 -223 -127l-96 -161q-3 -5 -9 -5h-29q-12 0 -5 10l101 173q50 83 122 116q24 9 2 16q-62 17 -95.5 56.5t-33.5 96.5q0 37 12.5 73t39 69t74 53t110.5 20h260q8 0 8 -9zM579 643h-224q-50 0 -88.5 -17.5
t-59 -45t-31 -56.5t-10.5 -57q0 -64 55.5 -99t155.5 -35h153z" />
    <glyph glyph-name="uni0430" unicode="&#x430;" horiz-adv-x="545" 
d="M391 9l19 108q2 10 -3 9q-3 -1 -8 -8q-39 -60 -82.5 -94t-106.5 -34q-76 0 -118 47t-42 131q0 51 15 104t44.5 102t82.5 80.5t121 31.5q60 0 111 -20l66 -24q7 -3 6 -10l-67 -425q-1 -7 -8 -7h-22q-8 0 -8 9zM453 414l-42 15q-46 16 -99 16q-56 0 -100.5 -27.5t-69.5 -71
t-37.5 -88.5t-12.5 -87q0 -66 32 -103t89 -37q80 0 144 91.5t85 223.5z" />
    <glyph glyph-name="uni0431" unicode="&#x431;" horiz-adv-x="546" 
d="M494 704l4 -23q2 -7 -6 -9l-199 -66q-67 -22 -105 -71.5t-52 -131.5q-1 -8 2.5 -11t14.5 5q76 69 163 69q84 0 131.5 -49t47.5 -136q0 -48 -14 -97t-42.5 -93.5t-79 -72.5t-115.5 -28q-58 0 -98 21.5t-57 55.5t-23.5 77t2.5 85l27 174q30 188 188 241l201 65q8 3 10 -5z
M313 426q-81 0 -135 -54t-69 -148q-8 -34 -3 -68.5t18 -62.5t44.5 -45t76.5 -17q46 0 82.5 16.5t59.5 43t38.5 60.5t21.5 66t6 63q0 70 -36 108t-104 38z" />
    <glyph glyph-name="uni0432" unicode="&#x432;" horiz-adv-x="491" 
d="M41 55l39 246q13 88 70.5 136.5t146.5 48.5q69 0 106 -29.5t37 -82.5q0 -45 -24.5 -78t-64.5 -48q-14 -7 -6 -11q34 -9 54.5 -34t20.5 -61q0 -61 -47.5 -106.5t-151.5 -45.5q-57 0 -114 27l-61 28q-6 3 -5 10zM115 260h125q80 0 119 31t39 76q0 78 -103 78
q-72 0 -118 -39t-56 -109zM109 221l-24 -147l44 -20q50 -23 94 -23q72 0 113.5 29.5t41.5 81.5q0 79 -142 79h-127z" />
    <glyph glyph-name="uni0433" unicode="&#x433;" horiz-adv-x="467" 
d="M118 459l39 12q50 15 114 15q71 0 110.5 -28t39.5 -77q0 -104 -121 -137l-130 -36q-93 -26 -93 -101q0 -36 31 -56t89 -20q89 0 141 20l22 8q8 3 10 -5l6 -21q2 -7 -5 -10l-22 -8q-63 -25 -154 -25q-77 0 -119 30t-42 84q0 106 125 141l130 36q90 25 90 95q0 32 -29 50.5
t-81 18.5q-61 0 -105 -13l-38 -11q-8 -2 -10 6l-4 23q-2 8 6 9z" />
    <glyph glyph-name="uni0434" unicode="&#x434;" horiz-adv-x="533" 
d="M207 710l53 -17q114 -36 168 -129t54 -254q0 -56 -11 -107t-37.5 -101.5t-79 -81t-125.5 -30.5q-85 0 -132.5 49.5t-47.5 136.5q0 48 14 96.5t42 93t78.5 72.5t114.5 28q69 0 116 -38q6 -5 11 -3t3 14q-40 173 -183 216l-53 16q-8 3 -5 11l10 23q3 6 10 5zM298 426
q-56 0 -98.5 -25t-65 -64.5t-33 -80t-10.5 -80.5q0 -69 36 -107t103 -38q56 0 99 25t65.5 64.5t33 79.5t10.5 80q0 70 -36 108t-104 38z" />
    <glyph glyph-name="uni0435" unicode="&#x435;" horiz-adv-x="496" 
d="M302 221l-211 -34q-1 -75 35.5 -115.5t105.5 -40.5q51 0 102 13l28 8q8 2 9 -7l3 -22q2 -8 -6 -10l-26 -6q-64 -17 -112 -17q-86 0 -133 51t-47 141q0 49 14 99.5t42.5 98t79.5 77t117 29.5q75 0 116.5 -32t41.5 -88t-40.5 -94t-118.5 -51zM95 226l201 33q65 11 94 39.5
t29 62.5q0 40 -31 62t-87 22q-82 0 -136 -56.5t-70 -162.5z" />
    <glyph glyph-name="uni0436" unicode="&#x436;" horiz-adv-x="721" 
d="M689 466l-110 -127q-68 -75 -110 -94q-16 -5 -1 -11q45 -20 86 -94l70 -130q5 -10 -6 -10h-30q-6 0 -9 6l-61 115q-53 100 -121 100h-18l-35 -214q-1 -7 -8 -7h-25q-8 0 -8 9l34 212h-15q-66 0 -153 -101l-99 -115q-4 -5 -10 -5h-31q-5 0 -6.5 3t1.5 7l113 132
q65 74 112 94q2 1 4.5 2t4.5 2q9 4 -4 9q-35 16 -79 93l-70 124q-5 10 6 10h31q6 0 9 -6l59 -107q57 -103 117 -103h16l34 209q1 7 8 7h26q8 0 8 -9l-34 -207h14q61 0 151 106l92 106q4 4 10 4h33q5 0 6.5 -3t-2.5 -7z" />
    <glyph glyph-name="uni0437" unicode="&#x437;" horiz-adv-x="465" 
d="M103 464l35 8q55 14 124 14q71 0 112 -30.5t41 -81.5q0 -40 -24.5 -73.5t-72.5 -48.5q-9 -3 -10 -6q2 -3 5 -4q37 -12 59 -40t22 -63q0 -57 -53 -103t-154 -46q-55 0 -121 16l-39 10q-9 2 -4 10l10 23q3 6 10 5l37 -10q47 -13 108 -13q71 0 117.5 31t46.5 80
q0 39 -37.5 61.5t-95.5 22.5h-30q-9 0 -7 9l4 23q1 7 8 7h30q63 0 106 28.5t43 73.5q0 35 -30 56.5t-81 21.5q-65 0 -118 -11l-36 -9q-8 -2 -9 7l-2 23q-2 7 6 9z" />
    <glyph glyph-name="uni0438" unicode="&#x438;" 
d="M397 9l11 67q0 6 -3 7t-8 -5q-71 -88 -183 -88q-81 0 -119.5 53.5t-24.5 144.5l46 281q1 7 8 7h25q8 0 8 -9l-45 -281q-12 -73 15.5 -114t89.5 -41q85 0 141.5 59t74.5 167l34 212q1 7 8 7h26q8 0 8 -9l-74 -460q-1 -7 -8 -7h-22q-9 0 -8 9z" />
    <glyph glyph-name="uni0439" unicode="&#x439;" 
d="M454 691l-4 -25q-8 -46 -39 -70.5t-80 -24.5q-50 0 -74.5 26t-16.5 72l4 24q1 7 8 7h21q9 0 8 -9l-4 -25q-9 -60 56 -60q33 0 53.5 16.5t25.5 45.5l4 25q1 7 8 7h22q10 0 8 -9zM397 9l11 67q0 6 -3 7t-8 -5q-71 -88 -183 -88q-81 0 -119.5 53.5t-24.5 144.5l46 281
q1 7 8 7h25q8 0 8 -9l-45 -281q-12 -73 15.5 -114t89.5 -41q85 0 141.5 59t74.5 167l34 212q1 7 8 7h26q8 0 8 -9l-74 -460q-1 -7 -8 -7h-22q-9 0 -8 9z" />
    <glyph glyph-name="uni043A" unicode="&#x43a;" horiz-adv-x="496" 
d="M129 260h22q26 0 58 18t51 35.5t51 49.5l108 109q4 4 10 4h35q5 0 6.5 -3t-2.5 -7l-122 -121q-80 -82 -121 -98q-14 -5 -2 -9q26 -10 47 -33.5t49 -67.5l83 -127q5 -10 -6 -10h-30q-6 0 -9 5l-75 116q-22 33 -35.5 50t-40.5 33.5t-59 16.5h-25l-34 -214q-1 -7 -8 -7h-26
q-8 0 -8 9l74 460q1 7 8 7h25q9 0 8 -9z" />
    <glyph glyph-name="uni043B" unicode="&#x43b;" horiz-adv-x="562" 
d="M516 467l-75 -460q-1 -7 -8 -7h-25q-8 0 -8 9l68 427h-254l-31 -198q-28 -172 -143 -230l-28 -15q-8 -5 -11 4l-8 22q-1 7 5 10l28 15q93 47 115 194l38 231q1 7 8 7h321q8 0 8 -9z" />
    <glyph glyph-name="uni043C" unicode="&#x43c;" horiz-adv-x="629" 
d="M583 467l-75 -460q-1 -7 -8 -7h-25q-9 0 -8 9l49 310q17 87 18 89q2 7 -1.5 8.5t-6.5 -5.5q-2 -3 -14.5 -25t-20.5 -33l-147 -218q-14 -21 -37 -64q-3 -6 -9 -6h-20q-7 0 -9 7q-5 30 -17 64l-76 217q-12 32 -19 58q-2 9 -7 5l-3 -8q-2 -48 -10 -89l-49 -312q-1 -7 -8 -7
h-26q-8 0 -8 9l75 460q1 7 8 7h46q7 0 9 -7q5 -30 13 -57l81 -230q9 -26 14 -50q3 -12 9 0q7 15 29 49l156 231q14 20 31 58q3 6 10 6h48q8 0 8 -9z" />
    <glyph glyph-name="uni043D" unicode="&#x43d;" horiz-adv-x="543" 
d="M497 467l-75 -460q-1 -7 -8 -7h-25q-8 0 -8 9l34 212h-293l-34 -214q-1 -7 -8 -7h-26q-8 0 -8 9l75 460q1 7 8 7h25q10 0 8 -9l-33 -207h292l34 209q1 7 8 7h26q8 0 8 -9z" />
    <glyph glyph-name="uni043E" unicode="&#x43e;" horiz-adv-x="533" 
d="M304 486q85 0 132.5 -50.5t47.5 -140.5q0 -49 -14.5 -100t-43 -98t-79.5 -77t-117 -30q-85 0 -132.5 51t-47.5 141q0 39 8.5 79t28 81t47.5 72.5t72.5 51.5t97.5 20zM302 445q-56 0 -99 -26t-66 -67.5t-34 -84.5t-11 -85q0 -72 36 -111.5t103 -39.5q56 0 99 26.5t66 68
t34 84.5t11 85q0 72 -36 111t-103 39z" />
    <glyph glyph-name="uni043F" unicode="&#x43f;" 
d="M158 467l-11 -67q0 -6 3.5 -7t7.5 5q71 88 183 88q81 0 119.5 -53.5t24.5 -144.5l-46 -281q-1 -7 -8 -7h-25q-8 0 -8 9l45 281q12 73 -15.5 114t-89.5 41q-85 0 -141.5 -59t-74.5 -167l-34 -212q-1 -7 -8 -7h-26q-8 0 -8 9l74 460q1 7 8 7h22q10 0 8 -9z" />
    <glyph glyph-name="uni0440" unicode="&#x440;" horiz-adv-x="548" 
d="M158 467l-11 -66q-1 -8 2 -8.5t8 5.5q76 88 173 88q81 0 125 -49.5t44 -138.5q0 -51 -13.5 -102t-41.5 -98.5t-79.5 -77.5t-119.5 -30t-124 28l-29 15l-38 -236q-1 -7 -8 -7h-25q-8 0 -8 9l107 670q1 7 8 7h22q8 0 8 -9zM97 73l36 -17q48 -25 113 -25q57 0 100 26.5
t65.5 68t33.5 84.5t11 85q0 71 -33.5 110.5t-95.5 39.5q-82 0 -135.5 -63t-70.5 -163z" />
    <glyph glyph-name="uni0441" unicode="&#x441;" horiz-adv-x="466" 
d="M369 15l-27 -8q-58 -17 -104 -17q-92 0 -140 50t-48 140q0 41 8 81.5t27.5 81.5t48.5 72.5t75.5 51t103.5 19.5q43 0 94 -16l22 -7q8 -3 5 -11l-10 -22q-3 -6 -10 -5l-22 8q-41 12 -80 12q-50 0 -89.5 -18t-63 -45.5t-39.5 -64t-22 -70t-6 -66.5q0 -72 37 -111t109 -39
q44 0 96 15l27 8q9 2 9 -6l5 -24q2 -7 -6 -9z" />
    <glyph glyph-name="uni0442" unicode="&#x442;" horiz-adv-x="862" 
d="M158 467l-12 -69q0 -4 1.5 -5.5t4.5 0t6 5.5q71 88 174 88q55 0 86.5 -29t40.5 -75q5 -13 17 3q72 101 187 101q74 0 108.5 -53.5t20.5 -144.5l-45 -281q-1 -7 -8 -7h-26q-8 0 -8 9l45 281q12 74 -11.5 114.5t-78.5 40.5q-87 0 -139.5 -61.5t-68.5 -164.5l-35 -212
q-1 -7 -8 -7h-25q-8 0 -8 9l45 281q11 74 -13 114.5t-79 40.5q-86 0 -138 -61.5t-69 -164.5l-34 -212q-1 -7 -8 -7h-26q-8 0 -8 9l74 460q1 7 8 7h22q8 0 8 -9z" />
    <glyph glyph-name="uni0443" unicode="&#x443;" horiz-adv-x="536" 
d="M531 466l-357 -577q-60 -99 -150 -99h-22q-8 0 -7 9l4 24q1 7 8 7h21q63 0 108 74l45 73q39 61 10 152l-109 338q-4 9 7 9h26q8 0 9 -7l98 -302q17 -50 17 -83q0 -10 7 -7q3 2 7 8q13 27 47 84l187 302q3 5 9 5h30q10 0 5 -10z" />
    </font>
</defs>
</svg>
