<?xml version="1.0" standalone="no"?>
<!DOCTYPE svg PUBLIC "-//W3C//DTD SVG 1.1//EN" "http://www.w3.org/Graphics/SVG/1.1/DTD/svg11.dtd" >
<svg xmlns="http://www.w3.org/2000/svg" xmlns:xlink="http://www.w3.org/1999/xlink" version="1.1">
<metadata>
Created by FontForge 20170731 at Sun Oct 27 17:54:46 2013
 By Aleksey,,,
Copyright (c) 2013 by Eimantas Paskonis. All rights reserved.
</metadata>
<defs>
<font id="Neris-BoldItalic" horiz-adv-x="557" >
  <font-face 
    font-family="Neris"
    font-weight="700"
    font-style="italic"
    font-stretch="normal"
    units-per-em="1000"
    panose-1="0 0 8 0 0 0 0 0 0 0"
    ascent="755"
    descent="-245"
    x-height="488"
    cap-height="704"
    bbox="-155.333 -233 1390 1070"
    underline-thickness="62"
    underline-position="-242"
    slope="-9.8"
    unicode-range="U+000D-F6D0"
  />
<missing-glyph horiz-adv-x="462" 
 />
    <glyph glyph-name="Idieresis_Idieresis.liga" unicode="&#xcf;&#xcf;" horiz-adv-x="560" 
d="M193 919q68 0 68 -56q0 -34 -22 -60.5t-69 -26.5q-67 0 -67 55q0 36 21 62t69 26zM397 919q67 0 67 -56q0 -34 -21.5 -60.5t-68.5 -26.5q-68 0 -68 55q0 36 21.5 62t69.5 26zM605 919q67 0 67 -56q0 -34 -21.5 -60.5t-68.5 -26.5q-67 0 -67 55q0 36 21 62t69 26zM156 0
h-114q-13 0 -11 13l118 680q2 11 13 11h114q13 0 11 -13l-118 -680q-2 -11 -13 -11zM436 0h-114q-13 0 -11 13l118 680q2 11 13 11h114q13 0 11 -13l-118 -680q-2 -11 -13 -11z" />
    <glyph glyph-name="idieresis_idieresis.liga" unicode="&#xef;&#xef;" horiz-adv-x="569" 
d="M169 733q31 0 48.5 -16.5t17.5 -46.5q0 -35 -18.5 -59.5t-56.5 -24.5q-32 0 -49.5 17t-17.5 47q0 40 20 61.5t56 21.5zM356 733q32 0 49.5 -16.5t17.5 -46.5q0 -35 -19 -59.5t-57 -24.5q-32 0 -49.5 17t-17.5 47q0 40 20.5 61.5t55.5 21.5zM545 733q32 0 49.5 -16.5
t17.5 -46.5q0 -35 -19 -59.5t-57 -24.5q-32 0 -49.5 17t-17.5 47q0 40 20 61.5t56 21.5zM183 0h-112q-13 0 -11 13l62 356h-49q-13 0 -11 13l16 95q2 11 13 11h174q13 0 11 -13l-80 -464q-2 -11 -13 -11zM466 0h-112q-13 0 -11 13l62 356h-49q-13 0 -11 13l16 95q2 11 13 11
h174q13 0 11 -13l-80 -464q-2 -11 -13 -11z" />
    <glyph glyph-name="uni021B_i.liga" unicode="&#x21b;i" horiz-adv-x="673" 
d="M608 732q35 0 54 -18t19 -51q0 -43 -22 -66.5t-61 -23.5q-35 0 -54 18t-19 51q0 43 22 66.5t61 23.5zM276 488h365q13 0 11 -13l-80 -464q-2 -11 -13 -11h-112q-13 0 -11 13l62 356h-242l-37 -213q-8 -46 24 -46q15 0 27 4t16 -7l25 -83q3 -10 -6 -15q-40 -20 -82 -20
q-80 0 -116.5 44.5t-22.5 123.5l36 212h-49q-13 0 -11 13l16 95q2 11 13 11h51l19 112q1 10 11 13l120 37q7 2 10.5 -1t1.5 -10zM119 -217l23 31q17 23 -2 28q-26 8 -26 42q0 25 17.5 43.5t49.5 18.5q50 0 50 -46q0 -39 -46 -97l-20 -28q-4 -7 -14 -7h-24q-16 0 -8 15z" />
    <glyph glyph-name="t_icircumflex.liga" unicode="t&#xee;" horiz-adv-x="730" 
d="M600 630l-54 -61q-6 -7 -15 -7h-76q-16 0 -8 15l99 138q4 7 14 7h108q10 0 14 -10l51 -136q5 -14 -10 -14h-77q-9 0 -15 9zM276 488h365q13 0 11 -13l-80 -464q-2 -11 -13 -11h-112q-13 0 -11 13l62 356h-242l-37 -213q-8 -46 24 -46q15 0 27 4t16 -7l25 -83
q3 -10 -6 -15q-40 -20 -82 -20q-80 0 -116.5 44.5t-22.5 123.5l36 212h-49q-13 0 -11 13l16 95q2 11 13 11h51l19 112q1 10 11 13l120 37q7 2 10.5 -1t1.5 -10z" />
    <glyph glyph-name="f_f_thorn.liga" unicode="ff&#xfe;" horiz-adv-x="1298" 
d="M1003 709l-22 -131q-12 -67 -41 -115q-5 -9 -0.5 -13t14.5 2q61 47 123 47q90 0 138 -52t48 -145q0 -54 -15.5 -106.5t-46.5 -100t-88 -77t-131 -29.5q-39 0 -74 16l-25 12l-38 -223q-2 -11 -13 -11h-112q-13 0 -11 13l141 808h-149q-28 0 -48 -18.5t-25 -50.5l-9 -47
h112q13 0 11 -13l-17 -95q-2 -11 -13 -11h-113l-62 -358q-2 -11 -13 -11h-111q-13 0 -11 13l62 356h-209l-62 -358q-2 -11 -13 -11h-111q-13 0 -11 13l62 356h-49q-13 0 -11 13l16 95q2 11 13 11h51l12 64q15 87 69.5 134t139.5 47q36 0 66 -10l12 -4q12 -4 6 -16l-42 -88
q-5 -11 -16 -6h-1q-12 4 -29 4q-27 0 -47 -20t-25 -51l-10 -54h209l10 57q31 177 220 177h278q13 0 11 -13zM902 131l21 -9q27 -12 63 -12q71 0 107.5 59t36.5 125q0 84 -74 84q-54 0 -90.5 -41.5t-48.5 -114.5z" />
    <glyph glyph-name="f_imacron.liga" unicode="f&#x12b;" horiz-adv-x="639" 
d="M141 488l11 64q16 87 69.5 134t137.5 47q30 0 58 -10l21 -7q11 -4 7 -16l-37 -89q-5 -11 -15 -8l-11 4q-15 6 -28 6q-25 0 -44 -19.5t-24 -50.5l-10 -55h331q13 0 11 -13l-80 -464q-2 -11 -13 -11h-111q-13 0 -11 13l62 356h-209l-62 -358q-2 -11 -13 -11h-111
q-13 0 -11 13l62 356h-50q-13 0 -11 13l16 95q2 11 13 11h52zM488 686h183q13 0 11 -13l-12 -68q-2 -11 -13 -11h-183q-13 0 -11 13l12 68q2 11 13 11z" />
    <glyph glyph-name="t_imacron.liga" unicode="t&#x12b;" horiz-adv-x="697" 
d="M491 686h218q13 0 11 -13l-12 -68q-2 -11 -13 -11h-219q-13 0 -11 13l13 68q2 11 13 11zM276 488h365q13 0 11 -13l-80 -464q-2 -11 -13 -11h-112q-13 0 -11 13l62 356h-242l-37 -213q-8 -46 24 -46q15 0 27 4t16 -7l25 -83q3 -10 -6 -15q-40 -20 -82 -20
q-80 0 -116.5 44.5t-22.5 123.5l36 212h-49q-13 0 -11 13l16 95q2 11 13 11h51l19 112q1 10 11 13l120 37q7 2 10.5 -1t1.5 -10z" />
    <glyph glyph-name="t_iogonek.liga" unicode="t&#x12f;" horiz-adv-x="673" 
d="M608 732q35 0 54 -18t19 -51q0 -43 -22 -66.5t-61 -23.5q-35 0 -54 18t-19 51q0 43 22 66.5t61 23.5zM276 488h365q13 0 11 -13l-82 -475q-4 -25 -43 -54l-55 -43q-15 -12 -15 -25q0 -12 16 -12q10 0 27 5l9 3q12 5 14 -9l12 -64q2 -11 -9 -14l-17 -6q-26 -9 -55 -9
q-47 0 -74 19.5t-27 55.5q0 52 49 88l40 31q12 9 16 16.5t1 12t-12 5.5q-13 0 -11 13l62 356h-242l-37 -213q-8 -46 24 -46q15 0 27 4t16 -7l25 -83q3 -10 -6 -15q-40 -20 -82 -20q-80 0 -116.5 44.5t-22.5 123.5l36 212h-49q-13 0 -11 13l16 95q2 11 13 11h51l19 112
q1 10 11 13l120 37q7 2 10.5 -1t1.5 -10z" />
    <glyph glyph-name="f_iacute.liga" unicode="f&#xed;" horiz-adv-x="639" 
d="M141 488l11 64q16 87 69.5 134t137.5 47q30 0 58 -10l21 -7q11 -4 7 -16l-37 -89q-5 -11 -15 -8l-11 4q-15 6 -28 6q-25 0 -44 -19.5t-24 -50.5l-10 -55h331q13 0 11 -13l-80 -464q-2 -11 -13 -11h-111q-13 0 -11 13l62 356h-209l-62 -358q-2 -11 -13 -11h-111
q-13 0 -11 13l62 356h-50q-13 0 -11 13l16 95q2 11 13 11h52zM702 707l-97 -137q-4 -8 -14 -8h-82q-16 0 -9 14l64 137q4 9 14 9h116q16 0 8 -15z" />
    <glyph glyph-name="f_lcaron.liga" unicode="f&#x13e;" horiz-adv-x="697" 
d="M659 709l-99 -577q-5 -22 12 -22h7q12 2 15 -9l20 -87q2 -11 -8 -15q-24 -10 -55 -10q-71 0 -105 38t-22 105l82 472h-149q-28 0 -48 -18.5t-25 -50.5l-9 -47h112q13 0 11 -13l-17 -95q-2 -11 -13 -11h-113l-62 -358q-2 -11 -13 -11h-111q-13 0 -11 13l62 356h-49
q-13 0 -11 13l16 95q2 11 13 11h51l10 57q31 177 220 177h278q13 0 11 -13zM735 722h77q13 0 10 -13l-6 -33q-5 -43 -38 -91l-10 -15q-4 -8 -14 -8h-62q-16 0 -9 14l8 20q15 28 24 75l7 40q2 11 13 11z" />
    <glyph glyph-name="t_iacute.liga" unicode="t&#xed;" horiz-adv-x="716" 
d="M735 707l-97 -137q-4 -8 -14 -8h-82q-16 0 -9 14l64 137q5 9 14 9h116q16 0 8 -15zM276 488h365q13 0 11 -13l-80 -464q-2 -11 -13 -11h-112q-13 0 -11 13l62 356h-242l-37 -213q-8 -46 24 -46q15 0 27 4t16 -7l25 -83q3 -10 -6 -15q-40 -20 -82 -20q-80 0 -116.5 44.5
t-22.5 123.5l36 212h-49q-13 0 -11 13l16 95q2 11 13 11h51l19 112q1 10 11 13l120 37q7 2 10.5 -1t1.5 -10z" />
    <glyph glyph-name="t_igrave.liga" unicode="t&#xec;" horiz-adv-x="673" 
d="M638 562h-85q-10 0 -13 10l-48 136q-5 14 10 14h117q10 0 12 -11l18 -136q2 -13 -11 -13zM276 488h365q13 0 11 -13l-80 -464q-2 -11 -13 -11h-112q-13 0 -11 13l62 356h-242l-37 -213q-8 -46 24 -46q15 0 27 4t16 -7l25 -83q3 -10 -6 -15q-40 -20 -82 -20
q-80 0 -116.5 44.5t-22.5 123.5l36 212h-49q-13 0 -11 13l16 95q2 11 13 11h51l19 112q1 10 11 13l120 37q7 2 10.5 -1t1.5 -10z" />
    <glyph glyph-name="tcaron_j.liga" unicode="&#x165;j" horiz-adv-x="674" 
d="M609 732q35 0 54 -18t19 -51q0 -43 -22 -67t-61 -24q-35 0 -54 18.5t-19 51.5q0 43 22 66.5t61 23.5zM429 585l-10 -15q-4 -8 -14 -8h-62q-16 0 -9 14l8 20q15 28 24 75l7 40q2 11 13 11h77q13 0 10 -13l-6 -33q-5 -43 -38 -91zM276 488h366q13 0 11 -13l-83 -483
q-26 -143 -163 -204l-29 -14q-12 -5 -15 7l-36 92q-5 11 6 16l21 11q71 32 82 102l63 367h-243l-37 -213q-8 -46 24 -46q15 0 27 4t16 -7l25 -83q3 -10 -6 -15q-40 -20 -82 -20q-80 0 -116.5 44.5t-22.5 123.5l36 212h-49q-13 0 -11 13l16 95q2 11 13 11h51l19 112
q1 10 11 13l120 37q7 2 10.5 -1t1.5 -10z" />
    <glyph glyph-name="tcaron_t.liga" unicode="&#x165;t" horiz-adv-x="766" 
d="M386 722h77q13 0 10 -13l-6 -33q-5 -43 -38 -91l-10 -15q-4 -8 -14 -8h-62q-16 0 -9 14l8 20q15 28 24 75l7 40q2 11 13 11zM625 369l-37 -213q-8 -46 24 -46q15 0 27 4t16 -7l25 -83q3 -10 -6 -15q-40 -20 -82 -20q-80 0 -116.5 44.5t-22.5 123.5l36 212h-233l-37 -213
q-8 -46 24 -46q15 0 27 4t16 -7l25 -83q3 -10 -6 -15q-40 -20 -82 -20q-80 0 -116.5 44.5t-22.5 123.5l36 212h-49q-13 0 -11 13l16 95q2 11 13 11h51l19 112q1 10 11 13l120 37q7 2 10.5 -1t1.5 -10l-26 -151h233l19 112q1 10 11 13l120 37q7 2 10.5 -1t1.5 -10l-26 -151
h112q13 0 11 -13l-17 -95q-2 -11 -13 -11h-113z" />
    <glyph glyph-name="f_f_t_i.liga" unicode="ffti" horiz-adv-x="1356" 
d="M959 488h365q13 0 11 -13l-80 -464q-2 -11 -13 -11h-112q-13 0 -11 13l62 356h-242l-37 -213q-8 -46 24 -46q15 0 27 4t16 -7l25 -83q3 -10 -6 -15q-40 -20 -82 -20q-80 0 -116.5 44.5t-22.5 123.5l36 212h-204l-62 -358q-2 -11 -13 -11h-111q-13 0 -11 13l62 356h-209
l-62 -358q-2 -11 -13 -11h-111q-13 0 -11 13l62 356h-49q-13 0 -11 13l16 95q2 11 13 11h51l12 64q15 87 69.5 134t139.5 47q36 0 66 -10l12 -4q12 -4 6 -16l-42 -88q-5 -11 -16 -6h-1q-12 4 -29 4q-27 0 -47 -20t-25 -51l-10 -54h209l12 64q15 87 69.5 134t139.5 47
q36 0 66 -10l12 -4q12 -4 6 -16l-42 -88q-5 -11 -16 -6h-1q-12 4 -29 4q-27 0 -47 -20t-25 -51l-10 -54h204l19 112q1 10 11 13l120 37q7 2 10.5 -1t1.5 -10zM1291 732q35 0 54 -18t19 -51q0 -43 -22 -66.5t-61 -23.5q-35 0 -54 18t-19 51q0 43 22 66.5t61 23.5z" />
    <glyph glyph-name="f_t_t_i.liga" unicode="ftti" horiz-adv-x="1382" 
d="M985 488h365q13 0 11 -13l-80 -464q-2 -11 -13 -11h-112q-13 0 -11 13l62 356h-242l-37 -213q-8 -46 24 -46q15 0 27 4t16 -7l25 -83q3 -10 -6 -15q-40 -20 -82 -20q-80 0 -116.5 44.5t-22.5 123.5l36 212h-233l-37 -213q-8 -46 24 -46q15 0 27 4t16 -7l25 -83
q3 -10 -6 -15q-40 -20 -82 -20q-80 0 -116.5 44.5t-22.5 123.5l36 212h-205l-62 -358q-2 -11 -13 -11h-111q-13 0 -11 13l62 356h-49q-13 0 -11 13l16 95q2 11 13 11h51l12 64q15 87 69.5 134t139.5 47q36 0 66 -10l12 -4q12 -4 6 -16l-42 -88q-5 -11 -16 -6h-1q-12 4 -29 4
q-27 0 -47 -20t-25 -51l-10 -54h205l19 112q1 10 11 13l120 37q7 2 10.5 -1t1.5 -10l-26 -151h233l19 112q1 10 11 13l120 37q7 2 10.5 -1t1.5 -10zM1317 732q35 0 54 -18t19 -51q0 -43 -22 -66.5t-61 -23.5q-35 0 -54 18t-19 51q0 43 22 66.5t61 23.5z" />
    <glyph glyph-name="f_thorn.liga" unicode="f&#xfe;" horiz-adv-x="955" 
d="M659 709l-22 -131q-12 -67 -41 -115q-5 -9 -0.5 -13t14.5 2q61 47 123 47q90 0 138 -52t48 -145q0 -54 -15.5 -106.5t-46.5 -100t-88 -77t-131 -29.5q-39 0 -74 16l-25 12l-38 -223q-2 -11 -13 -11h-112q-13 0 -11 13l141 808h-149q-28 0 -48 -18.5t-25 -50.5l-9 -47h112
q13 0 11 -13l-17 -95q-2 -11 -13 -11h-113l-62 -358q-2 -11 -13 -11h-111q-13 0 -11 13l62 356h-49q-13 0 -11 13l16 95q2 11 13 11h51l10 57q31 177 220 177h278q13 0 11 -13zM558 131l21 -9q27 -12 63 -12q71 0 107.5 59t36.5 125q0 84 -74 84q-54 0 -90.5 -41.5
t-48.5 -114.5z" />
    <glyph glyph-name="f_f_b.liga" unicode="ffb" horiz-adv-x="1298" 
d="M1003 709l-22 -131q-12 -65 -41 -114q-5 -9 -1 -14t14 1q60 48 124 48q90 0 138 -52t48 -145q0 -54 -15.5 -106.5t-46.5 -100t-88 -77t-132 -29.5q-74 0 -137 27l-79 35q-9 4 -8 15l93 538h-149q-28 0 -48 -18.5t-25 -50.5l-9 -47h112q13 0 11 -13l-17 -95
q-2 -11 -13 -11h-113l-62 -358q-2 -11 -13 -11h-111q-13 0 -11 13l62 356h-209l-62 -358q-2 -11 -13 -11h-111q-13 0 -11 13l62 356h-49q-13 0 -11 13l16 95q2 11 13 11h51l12 64q15 87 69.5 134t139.5 47q36 0 66 -10l12 -4q12 -4 6 -16l-42 -88q-5 -11 -16 -6h-1
q-12 4 -29 4q-27 0 -47 -20t-25 -51l-10 -54h209l10 57q31 177 220 177h278q13 0 11 -13zM902 131l19 -8q30 -13 65 -13q71 0 107.5 59t36.5 125q0 84 -75 84q-53 0 -89.5 -42t-48.5 -115z" />
    <glyph glyph-name="f_f_h.liga" unicode="ffh" horiz-adv-x="1283" 
d="M1003 709l-22 -131q-12 -65 -42 -118q-4 -7 0.5 -11.5t12.5 1.5q60 49 122 49q90 0 134.5 -52.5t28.5 -140.5l-51 -295q-2 -11 -13 -11h-112q-13 0 -11 13l50 287q13 78 -50 78q-50 0 -83 -36t-43 -95l-41 -236q-2 -11 -13 -11h-112q-13 0 -11 13l102 591h-148
q-28 0 -48 -18.5t-25 -50.5l-9 -47h112q13 0 11 -13l-17 -95q-2 -11 -13 -11h-113l-62 -358q-2 -11 -13 -11h-111q-13 0 -11 13l62 356h-209l-62 -358q-2 -11 -13 -11h-111q-13 0 -11 13l62 356h-49q-13 0 -11 13l16 95q2 11 13 11h51l12 64q15 87 69.5 134t139.5 47
q36 0 66 -10l12 -4q12 -4 6 -16l-42 -88q-5 -11 -16 -6h-1q-12 4 -29 4q-27 0 -47 -20t-25 -51l-10 -54h209l10 57q31 177 220 177h278q13 0 11 -13z" />
    <glyph glyph-name="f_f_i.liga" unicode="ffi" horiz-adv-x="988" 
d="M621 488h332q13 0 11 -13l-80 -464q-2 -11 -13 -11h-112q-13 0 -11 13l62 356h-210l-61 -358q-2 -11 -13 -11h-112q-13 0 -11 13l62 356h-210l-62 -358q-2 -11 -13 -11h-111q-13 0 -11 13l62 356h-49q-13 0 -11 13l16 95q2 11 13 11h51l12 64q15 87 69.5 134t139.5 47
q36 0 66 -10l12 -4q12 -4 6 -16l-42 -88q-5 -11 -16 -6h-1q-12 4 -29 4q-27 0 -47 -20t-25 -51l-10 -54h210l11 64q16 87 70 134t138 47q23 0 61 -11l18 -6q11 -4 7 -16l-38 -89q-5 -12 -16 -7l-7 3q-16 6 -30 6q-25 0 -44.5 -19.5t-24.5 -50.5zM928 733q40 0 58.5 -23
t11.5 -64q-13 -71 -81 -71q-39 0 -57.5 23.5t-11.5 64.5q12 70 80 70z" />
    <glyph glyph-name="f_f_j.liga" unicode="ffj" horiz-adv-x="988" 
d="M621 488h332q13 0 11 -13l-84 -482q-24 -144 -163 -205l-28 -13q-12 -7 -15 6l-36 92q-5 11 6 16l21 11q68 31 82 101l63 368h-210l-61 -358q-2 -11 -13 -11h-112q-13 0 -11 13l62 356h-210l-62 -358q-2 -11 -13 -11h-111q-13 0 -11 13l62 356h-49q-13 0 -11 13l16 95
q2 11 13 11h51l12 64q15 87 69.5 134t139.5 47q36 0 66 -10l12 -4q12 -4 6 -16l-42 -88q-5 -11 -16 -6h-1q-12 4 -29 4q-27 0 -47 -20t-25 -51l-10 -54h210l11 64q16 87 70 134t137 47q28 0 59 -10l22 -7q11 -4 7 -16l-38 -89q-5 -12 -16 -7l-10 3q-15 6 -29 6
q-25 0 -44 -19.5t-24 -50.5zM928 733q40 0 58.5 -23t11.5 -64q-13 -71 -81 -71q-39 0 -57.5 23.5t-11.5 64.5q12 70 80 70z" />
    <glyph glyph-name="f_f_k.liga" unicode="ffk" horiz-adv-x="1288" 
d="M1274 473l-109 -148q-40 -51 -97 -71q-11 -4 -2 -10q52 -23 72 -72l61 -158q5 -14 -10 -14h-114q-9 0 -14 9l-43 108q-30 71 -93 71h-12l-29 -177q-2 -11 -13 -11h-112q-13 0 -11 13l78 457l23 134h-148q-28 0 -48 -18.5t-25 -50.5l-9 -47h112q13 0 11 -13l-17 -95
q-2 -11 -13 -11h-113l-62 -358q-2 -11 -13 -11h-111q-13 0 -11 13l62 356h-209l-62 -358q-2 -11 -13 -11h-111q-13 0 -11 13l62 356h-49q-13 0 -11 13l16 95q2 11 13 11h51l12 64q15 87 69.5 134t139.5 47q36 0 66 -10l12 -4q12 -4 6 -16l-42 -88q-5 -11 -16 -6h-1
q-12 4 -29 4q-27 0 -47 -20t-25 -51l-10 -54h209l10 57q31 177 220 177h278q13 0 11 -13l-38 -221l-30 -181h11q46 0 103 75l75 99q4 7 14 7h129q7 0 9.5 -4.5t-2.5 -10.5z" />
    <glyph glyph-name="f_f_l.liga" unicode="ffl" horiz-adv-x="1029" 
d="M1003 709l-99 -577q-5 -22 12 -22h7q12 2 15 -9l20 -87q2 -11 -8 -15q-24 -10 -55 -10q-71 0 -105 38t-22 105l81 472h-148q-28 0 -48 -18.5t-25 -50.5l-9 -47h112q13 0 11 -13l-17 -95q-2 -11 -13 -11h-113l-62 -358q-2 -11 -13 -11h-111q-13 0 -11 13l62 356h-209
l-62 -358q-2 -11 -13 -11h-111q-13 0 -11 13l62 356h-49q-13 0 -11 13l16 95q2 11 13 11h51l12 64q15 87 69.5 134t139.5 47q36 0 66 -10l12 -4q12 -4 6 -16l-42 -88q-5 -11 -16 -6h-1q-12 4 -29 4q-27 0 -47 -20t-25 -51l-10 -54h209l10 57q31 177 220 177h278q13 0 11 -13
z" />
    <glyph glyph-name="f_f_t.liga" unicode="fft" horiz-adv-x="1080" 
d="M940 369l-37 -213q-8 -46 24 -46q15 0 27 4t16 -7l25 -83q3 -10 -6 -15q-40 -20 -82 -20q-80 0 -116.5 44.5t-22.5 123.5l36 212h-205l-62 -358q-2 -11 -13 -11h-111q-13 0 -11 13l62 356h-209l-62 -358q-2 -11 -13 -11h-111q-13 0 -11 13l62 356h-49q-13 0 -11 13l16 95
q2 11 13 11h51l12 64q15 87 69.5 134t139.5 47q36 0 66 -10l12 -4q12 -4 6 -16l-42 -88q-5 -11 -16 -6h-1q-12 4 -29 4q-27 0 -47 -20t-25 -51l-10 -54h209l12 64q15 87 69.5 134t139.5 47q36 0 66 -10l12 -4q12 -4 6 -16l-42 -88q-5 -11 -16 -6h-1q-12 4 -29 4
q-27 0 -47 -20t-25 -51l-10 -54h205l19 112q1 10 11 13l120 37q7 2 10.5 -1t1.5 -10l-26 -151h112q13 0 11 -13l-17 -95q-2 -11 -13 -11h-113z" />
    <glyph glyph-name="f_t_i.liga" unicode="fti" horiz-adv-x="1013" 
d="M616 488h365q13 0 11 -13l-80 -464q-2 -11 -13 -11h-112q-13 0 -11 13l62 356h-242l-37 -213q-8 -46 24 -46q15 0 27 4t16 -7l25 -83q3 -10 -6 -15q-40 -20 -82 -20q-80 0 -116.5 44.5t-22.5 123.5l36 212h-205l-62 -358q-2 -11 -13 -11h-111q-13 0 -11 13l62 356h-49
q-13 0 -11 13l16 95q2 11 13 11h51l12 64q15 87 69.5 134t139.5 47q36 0 66 -10l12 -4q12 -4 6 -16l-42 -88q-5 -11 -16 -6h-1q-12 4 -29 4q-27 0 -47 -20t-25 -51l-10 -54h205l19 112q1 10 11 13l120 37q7 2 10.5 -1t1.5 -10zM948 732q35 0 54 -18t19 -51q0 -43 -22 -66.5
t-61 -23.5q-35 0 -54 18t-19 51q0 43 22 66.5t61 23.5z" />
    <glyph glyph-name="f_t_t.liga" unicode="ftt" horiz-adv-x="1105" 
d="M965 369l-37 -213q-8 -46 24 -46q15 0 27 4t16 -7l25 -83q3 -10 -6 -15q-40 -20 -82 -20q-80 0 -116.5 44.5t-22.5 123.5l36 212h-233l-37 -213q-8 -46 24 -46q15 0 27 4t16 -7l25 -83q3 -10 -6 -15q-40 -20 -82 -20q-80 0 -116.5 44.5t-22.5 123.5l36 212h-205l-62 -358
q-2 -11 -13 -11h-111q-13 0 -11 13l62 356h-49q-13 0 -11 13l16 95q2 11 13 11h51l12 64q15 87 69.5 134t139.5 47q36 0 66 -10l12 -4q12 -4 6 -16l-42 -88q-5 -11 -16 -6h-1q-12 4 -29 4q-27 0 -47 -20t-25 -51l-10 -54h205l19 112q1 10 11 13l120 37q7 2 10.5 -1t1.5 -10
l-26 -151h233l19 112q1 10 11 13l120 37q7 2 10.5 -1t1.5 -10l-26 -151h112q13 0 11 -13l-17 -95q-2 -11 -13 -11h-113z" />
    <glyph glyph-name="t_t_i.liga" unicode="tti" horiz-adv-x="1042" 
d="M977 732q35 0 54 -18t19 -51q0 -43 -22 -66.5t-61 -23.5q-35 0 -54 18t-19 51q0 43 22 66.5t61 23.5zM645 488h365q13 0 11 -13l-80 -464q-2 -11 -13 -11h-112q-13 0 -11 13l62 356h-242l-37 -213q-8 -46 24 -46q15 0 27 4t16 -7l25 -83q3 -10 -6 -15q-40 -20 -82 -20
q-80 0 -116.5 44.5t-22.5 123.5l36 212h-233l-37 -213q-8 -46 24 -46q15 0 27 4t16 -7l25 -83q3 -10 -6 -15q-40 -20 -82 -20q-80 0 -116.5 44.5t-22.5 123.5l36 212h-49q-13 0 -11 13l16 95q2 11 13 11h51l19 112q1 10 11 13l120 37q7 2 10.5 -1t1.5 -10l-26 -151h233
l19 112q1 10 11 13l120 37q7 2 10.5 -1t1.5 -10z" />
    <glyph glyph-name="t_t_j.liga" unicode="ttj" horiz-adv-x="1043" 
d="M978 732q35 0 54 -18t19 -51q0 -43 -22 -67t-61 -24q-35 0 -54 18.5t-19 51.5q0 43 22 66.5t61 23.5zM645 488h366q13 0 11 -13l-83 -483q-26 -143 -163 -204l-29 -14q-12 -5 -15 7l-36 92q-5 11 6 16l21 11q71 32 82 102l63 367h-243l-37 -213q-8 -46 24 -46q15 0 27 4
t16 -7l25 -83q3 -10 -6 -15q-40 -20 -82 -20q-80 0 -116.5 44.5t-22.5 123.5l36 212h-233l-37 -213q-8 -46 24 -46q15 0 27 4t16 -7l25 -83q3 -10 -6 -15q-40 -20 -82 -20q-80 0 -116.5 44.5t-22.5 123.5l36 212h-49q-13 0 -11 13l16 95q2 11 13 11h51l19 112q1 10 11 13
l120 37q7 2 10.5 -1t1.5 -10l-26 -151h233l19 112q1 10 11 13l120 37q7 2 10.5 -1t1.5 -10z" />
    <glyph glyph-name="f_b.liga" unicode="fb" horiz-adv-x="955" 
d="M659 709l-22 -131q-12 -65 -41 -114q-5 -9 -1 -14t14 1q60 48 124 48q90 0 138 -52t48 -145q0 -54 -15.5 -106.5t-46.5 -100t-88 -77t-132 -29.5q-74 0 -137 27l-79 35q-9 4 -8 15l93 538h-149q-28 0 -48 -18.5t-25 -50.5l-9 -47h112q13 0 11 -13l-17 -95q-2 -11 -13 -11
h-113l-62 -358q-2 -11 -13 -11h-111q-13 0 -11 13l62 356h-49q-13 0 -11 13l16 95q2 11 13 11h51l10 57q31 177 220 177h278q13 0 11 -13zM558 131l19 -8q30 -13 65 -13q71 0 107.5 59t36.5 125q0 84 -75 84q-53 0 -89.5 -42t-48.5 -115z" />
    <glyph glyph-name="f_f.liga" unicode="ff" horiz-adv-x="737" 
d="M753 603l-12 4q-21 6 -33 6q-30 0 -52 -21.5t-27 -54.5l-9 -49h112q13 0 11 -13l-17 -95q-2 -11 -13 -11h-113l-62 -358q-2 -11 -13 -11h-112q-13 0 -11 13l62 356h-209l-62 -358q-2 -11 -13 -11h-111q-13 0 -11 13l62 356h-49q-13 0 -11 13l16 95q2 11 13 11h51l12 64
q15 87 69.5 134t139.5 47q36 0 66 -10l12 -4q12 -4 6 -16l-42 -88q-5 -11 -16 -6h-1q-12 4 -29 4q-27 0 -47 -20t-25 -51l-10 -54h209l11 59q15 89 72 137.5t145 48.5q35 0 74 -13l20 -7q12 -3 6 -16l-43 -88q-5 -11 -16 -6z" />
    <glyph glyph-name="f_h.liga" unicode="fh" horiz-adv-x="939" 
d="M659 709l-22 -131q-12 -65 -42 -118q-4 -7 0.5 -11.5t12.5 1.5q60 49 122 49q90 0 134.5 -52.5t28.5 -140.5l-51 -295q-2 -11 -13 -11h-112q-13 0 -11 13l50 287q13 78 -50 78q-50 0 -83 -36t-43 -95l-41 -236q-2 -11 -13 -11h-112q-13 0 -11 13l103 591h-149
q-28 0 -48 -18.5t-25 -50.5l-9 -47h112q13 0 11 -13l-17 -95q-2 -11 -13 -11h-113l-62 -358q-2 -11 -13 -11h-111q-13 0 -11 13l62 356h-49q-13 0 -11 13l16 95q2 11 13 11h51l10 57q31 177 220 177h278q13 0 11 -13z" />
    <glyph glyph-name="f_i.liga" unicode="fi" horiz-adv-x="644" 
d="M141 488l11 64q16 87 70 134t138 47q23 0 61 -11l18 -6q11 -4 7 -16l-38 -89q-5 -12 -16 -7l-7 3q-17 6 -30 6q-25 0 -44.5 -19.5t-24.5 -50.5l-9 -55h332q13 0 11 -13l-80 -464q-2 -11 -13 -11h-112q-13 0 -11 13l62 356h-210l-61 -358q-2 -11 -13 -11h-112
q-13 0 -11 13l62 356h-50q-13 0 -11 13l16 95q2 11 13 11h52zM584 733q40 0 58.5 -23t11.5 -64q-13 -71 -81 -71q-39 0 -57.5 23.5t-11.5 64.5q12 70 80 70z" />
    <glyph glyph-name="f_j.liga" unicode="fj" horiz-adv-x="644" 
d="M141 488l11 64q16 87 70 134t137 47q28 0 59 -10l22 -7q11 -4 7 -16l-38 -89q-5 -12 -16 -7l-10 3q-15 6 -29 6q-25 0 -44 -19.5t-24 -50.5l-9 -55h332q13 0 11 -13l-84 -482q-24 -144 -163 -205l-28 -13q-12 -7 -15 6l-36 92q-5 11 6 16l21 11q68 31 82 101l63 368h-210
l-61 -358q-2 -11 -13 -11h-112q-13 0 -11 13l62 356h-50q-13 0 -11 13l16 95q2 11 13 11h52zM584 733q40 0 58.5 -23t11.5 -64q-13 -71 -81 -71q-39 0 -57.5 23.5t-11.5 64.5q12 70 80 70z" />
    <glyph glyph-name="f_k.liga" unicode="fk" horiz-adv-x="944" 
d="M930 473l-109 -148q-40 -51 -97 -71q-11 -4 -2 -10q52 -23 72 -72l61 -158q5 -14 -10 -14h-114q-9 0 -14 9l-43 108q-30 71 -93 71h-12l-29 -177q-2 -11 -13 -11h-112q-13 0 -11 13l78 457l23 134h-148q-28 0 -48 -18.5t-25 -50.5l-9 -47h112q13 0 11 -13l-17 -95
q-2 -11 -13 -11h-113l-62 -358q-2 -11 -13 -11h-111q-13 0 -11 13l62 356h-49q-13 0 -11 13l16 95q2 11 13 11h51l10 57q31 177 220 177h278q13 0 11 -13l-38 -221l-30 -181h11q46 0 103 75l75 99q4 7 14 7h129q7 0 9.5 -4.5t-2.5 -10.5z" />
    <glyph glyph-name="f_l.liga" unicode="fl" horiz-adv-x="685" 
d="M659 709l-99 -577q-5 -22 12 -22h7q12 2 15 -9l20 -87q2 -11 -8 -15q-24 -10 -55 -10q-71 0 -105 38t-22 105l82 472h-149q-28 0 -48 -18.5t-25 -50.5l-9 -47h112q13 0 11 -13l-17 -95q-2 -11 -13 -11h-113l-62 -358q-2 -11 -13 -11h-111q-13 0 -11 13l62 356h-49
q-13 0 -11 13l16 95q2 11 13 11h51l10 57q31 177 220 177h278q13 0 11 -13z" />
    <glyph glyph-name="f_t.liga" unicode="ft" horiz-adv-x="737" 
d="M596 369l-37 -213q-8 -46 24 -46q15 0 27 4t16 -7l25 -83q3 -10 -6 -15q-40 -20 -82 -20q-80 0 -116.5 44.5t-22.5 123.5l36 212h-205l-62 -358q-2 -11 -13 -11h-111q-13 0 -11 13l62 356h-49q-13 0 -11 13l16 95q2 11 13 11h51l12 64q15 87 69.5 134t139.5 47
q36 0 66 -10l12 -4q12 -4 6 -16l-42 -88q-5 -11 -16 -6h-1q-12 4 -29 4q-27 0 -47 -20t-25 -51l-10 -54h205l19 112q1 10 11 13l120 37q7 2 10.5 -1t1.5 -10l-26 -151h112q13 0 11 -13l-17 -95q-2 -11 -13 -11h-113z" />
    <glyph glyph-name="t_i.liga" unicode="ti" horiz-adv-x="673" 
d="M608 732q35 0 54 -18t19 -51q0 -43 -22 -66.5t-61 -23.5q-35 0 -54 18t-19 51q0 43 22 66.5t61 23.5zM276 488h365q13 0 11 -13l-80 -464q-2 -11 -13 -11h-112q-13 0 -11 13l62 356h-242l-37 -213q-8 -46 24 -46q15 0 27 4t16 -7l25 -83q3 -10 -6 -15q-40 -20 -82 -20
q-80 0 -116.5 44.5t-22.5 123.5l36 212h-49q-13 0 -11 13l16 95q2 11 13 11h51l19 112q1 10 11 13l120 37q7 2 10.5 -1t1.5 -10z" />
    <glyph glyph-name="t_j.liga" unicode="tj" horiz-adv-x="674" 
d="M609 732q35 0 54 -18t19 -51q0 -43 -22 -67t-61 -24q-35 0 -54 18.5t-19 51.5q0 43 22 66.5t61 23.5zM276 488h366q13 0 11 -13l-83 -483q-26 -143 -163 -204l-29 -14q-12 -5 -15 7l-36 92q-5 11 6 16l21 11q71 32 82 102l63 367h-243l-37 -213q-8 -46 24 -46q15 0 27 4
t16 -7l25 -83q3 -10 -6 -15q-40 -20 -82 -20q-80 0 -116.5 44.5t-22.5 123.5l36 212h-49q-13 0 -11 13l16 95q2 11 13 11h51l19 112q1 10 11 13l120 37q7 2 10.5 -1t1.5 -10z" />
    <glyph glyph-name="t_t.liga" unicode="tt" horiz-adv-x="766" 
d="M625 369l-37 -213q-8 -46 24 -46q15 0 27 4t16 -7l25 -83q3 -10 -6 -15q-40 -20 -82 -20q-80 0 -116.5 44.5t-22.5 123.5l36 212h-233l-37 -213q-8 -46 24 -46q15 0 27 4t16 -7l25 -83q3 -10 -6 -15q-40 -20 -82 -20q-80 0 -116.5 44.5t-22.5 123.5l36 212h-49
q-13 0 -11 13l16 95q2 11 13 11h51l19 112q1 10 11 13l120 37q7 2 10.5 -1t1.5 -10l-26 -151h233l19 112q1 10 11 13l120 37q7 2 10.5 -1t1.5 -10l-26 -151h112q13 0 11 -13l-17 -95q-2 -11 -13 -11h-113z" />
    <glyph glyph-name="uni04070407.liga" unicode="&#x407;&#x407;" horiz-adv-x="560" 
d="M193 919q68 0 68 -56q0 -34 -22 -60.5t-69 -26.5q-67 0 -67 55q0 36 21 62t69 26zM397 919q67 0 67 -56q0 -34 -21.5 -60.5t-68.5 -26.5q-68 0 -68 55q0 36 21.5 62t69.5 26zM605 919q67 0 67 -56q0 -34 -21.5 -60.5t-68.5 -26.5q-67 0 -67 55q0 36 21 62t69 26zM31 13
l118 680q2 11 13 11h114q13 0 11 -13l-118 -680q-2 -11 -13 -11h-114q-13 0 -11 13zM311 13l118 680q2 11 13 11h114q13 0 11 -13l-118 -680q-2 -11 -13 -11h-114q-13 0 -11 13z" />
    <glyph glyph-name="uni04570457.liga" unicode="&#x457;&#x457;" horiz-adv-x="569" 
d="M169 733q31 0 48.5 -16.5t17.5 -46.5q0 -35 -18.5 -59.5t-56.5 -24.5q-32 0 -49.5 17t-17.5 47q0 40 20 61.5t56 21.5zM356 733q32 0 49.5 -16.5t17.5 -46.5q0 -35 -19 -59.5t-57 -24.5q-32 0 -49.5 17t-17.5 47q0 40 20.5 61.5t55.5 21.5zM545 733q32 0 49.5 -16.5
t17.5 -46.5q0 -35 -19 -59.5t-57 -24.5q-32 0 -49.5 17t-17.5 47q0 40 20 61.5t56 21.5zM122 369h-49q-13 0 -11 13l16 95q2 11 13 11h174q13 0 11 -13l-80 -464q-2 -11 -13 -11h-112q-13 0 -11 13zM405 369h-49q-13 0 -11 13l16 95q2 11 13 11h174q13 0 11 -13l-80 -464
q-2 -11 -13 -11h-112q-13 0 -11 13z" />
    <glyph glyph-name=".notdef" horiz-adv-x="462" 
 />
    <glyph glyph-name=".null" horiz-adv-x="393" 
 />
    <glyph glyph-name="uni000D" unicode="&#xd;" horiz-adv-x="462" 
 />
    <glyph glyph-name="space" unicode=" " horiz-adv-x="204" 
 />
    <glyph glyph-name="exclam" unicode="!" horiz-adv-x="280" 
d="M293 692l-37 -211q-7 -41 -34.5 -137.5t-34.5 -124.5q-1 -11 -13 -11h-74q-13 0 -11 13q5 36 11 129.5t12 130.5l37 213q2 11 13 11h120q13 0 11 -13zM121 154q41 0 61 -24.5t12 -66.5q-14 -74 -85 -74q-41 0 -61 24.5t-12 66.5q13 74 85 74z" />
    <glyph glyph-name="quotedbl" unicode="&#x22;" horiz-adv-x="403" 
d="M250 709l-14 -79q-3 -20 -19.5 -71.5t-20.5 -66.5q-3 -10 -14 -10h-53q-11 0 -11 12q0 9 1 62t4 74l15 81q2 11 13 11h88q13 0 11 -13zM426 709l-14 -79q-3 -20 -19.5 -71.5t-20.5 -66.5q-3 -10 -14 -10h-53q-11 0 -11 12q0 9 1 62t4 74l15 81q2 11 13 11h88q13 0 11 -13
z" />
    <glyph glyph-name="numbersign" unicode="#" horiz-adv-x="754" 
d="M586 442l-26 -180h100q13 0 11 -13l-13 -95q-2 -11 -12 -11h-102l-18 -132q-2 -11 -13 -11h-101q-13 0 -11 13l18 130h-142l-18 -132q-2 -11 -13 -11h-100q-13 0 -11 13l18 130h-98q-13 0 -11 13l13 95q2 11 12 11h100l26 180h-99q-12 0 -12 13l12 95q2 11 12 11h103
l18 132q2 11 13 11h100q13 0 11 -13l-18 -130h141l18 132q2 11 13 11h102q13 0 11 -13l-18 -130h97q14 0 12 -13l-11 -95q-2 -11 -12 -11h-102zM460 442h-141l-26 -180h142z" />
    <glyph glyph-name="dollar" unicode="$" horiz-adv-x="612" 
d="M314 430l92 -36q81 -32 117.5 -70t36.5 -97q0 -84 -52 -150t-167 -83l-16 -94q-2 -11 -13 -11h-113q-13 0 -11 13l16 92q-53 8 -123 32l-57 20q-13 3 -6 15l46 91q5 11 16 6l52 -19q75 -26 148 -26q63 0 102 23.5t39 66.5q0 49 -77 80l-97 38q-79 32 -112.5 67t-33.5 94
q0 52 19 97t70 83t128 48l16 95q2 11 13 11h112q13 0 11 -13l-16 -95q36 -7 85 -23l58 -20q12 -3 6 -16l-49 -90q-5 -11 -15 -6l-53 18q-58 20 -116 20q-60 0 -95 -24.5t-35 -66.5q0 -21 17 -37.5t57 -32.5z" />
    <glyph glyph-name="percent" unicode="%" horiz-adv-x="787" 
d="M279 707q71 0 106.5 -41t23.5 -114q-13 -71 -62.5 -112.5t-120.5 -41.5t-106 41.5t-23 112.5q13 73 62 114t120 41zM758 680l-572 -673q-6 -7 -15 -7h-100q-8 0 -9.5 4.5t3.5 10.5l572 673q6 7 15 7h100q8 0 9.5 -4.5t-3.5 -10.5zM264 614q-55 0 -66 -62q-5 -27 6.5 -44
t37.5 -17q24 0 42 17t23 44q5 30 -6.5 46t-36.5 16zM597 297q72 0 106.5 -41t21.5 -113q-12 -72 -60.5 -113t-120.5 -41q-71 0 -106.5 41t-22.5 113q12 71 61.5 112.5t120.5 41.5zM581 202q-54 0 -65 -59q-5 -27 7 -44t37 -17q26 0 43.5 16.5t22.5 44.5t-7 43.5t-38 15.5z
" />
    <glyph glyph-name="ampersand" unicode="&#x26;" horiz-adv-x="729" 
d="M699 452l-22 -131q-9 -57 -36 -90.5t-88 -72.5l-16 -10l97 -133q5 -6 2.5 -10.5t-9.5 -4.5h-136q-10 0 -14 7l-53 71l-43 -26q-102 -63 -189 -63q-78 0 -121 39t-43 109q0 66 32.5 112.5t108.5 92.5l42 26q-38 63 -38 122q0 101 69.5 162.5t182.5 61.5q61 0 125 -21
l52 -19q13 -3 6 -15l-48 -92q-5 -11 -16 -6l-50 18q-44 14 -89 14q-46 0 -74.5 -23.5t-28.5 -62.5t36 -87l131 -180l27 17q29 21 40.5 33t14.5 31l5 28h-62q-13 0 -11 13l16 92q2 11 13 11h176q13 0 11 -13zM355 170l-79 107l-62 -39q-31 -20 -43 -37.5t-12 -42.5
q0 -47 54 -47q50 0 115 42z" />
    <glyph glyph-name="quotesingle" unicode="'" horiz-adv-x="227" 
d="M250 709l-14 -79q-3 -20 -19.5 -71.5t-20.5 -66.5q-3 -10 -14 -10h-53q-11 0 -11 12q0 9 1 62t4 74l15 81q2 11 13 11h88q13 0 11 -13z" />
    <glyph glyph-name="parenleft" unicode="(" horiz-adv-x="373" 
d="M239 -100h-93q-10 0 -14 9q-47 131 -47 264q0 143 46 294t140 283q4 8 14 8h109q18 0 8 -15q-100 -150 -147.5 -283.5t-47.5 -283.5q0 -112 42 -263q3 -13 -10 -13z" />
    <glyph glyph-name="parenright" unicode=")" horiz-adv-x="373" 
d="M163 758h93q10 0 14 -9q47 -131 47 -264q0 -143 -46 -294t-140 -283q-4 -8 -14 -8h-109q-18 0 -8 15q100 150 147.5 283.5t47.5 283.5q0 112 -42 263q-3 13 10 13z" />
    <glyph glyph-name="asterisk" unicode="*" horiz-adv-x="418" 
d="M366 519h-48q-18 0 -48 9q-3 1 -4.5 -1.5t1.5 -4.5q20 -15 32 -36l38 -69q4 -6 1.5 -10t-9.5 -4h-68q-9 0 -14 8l-18 31q-13 26 -17 48q-1 8 -5 4l-2 -4q-2 -19 -17 -48l-17 -31q-6 -8 -15 -8h-67q-7 0 -9.5 4t1.5 10l37 68q14 23 32 37q2 2 0.5 4.5t-3.5 1.5
q-25 -9 -48 -9h-47q-12 0 -12 12v63q0 12 12 12h47q24 0 48 -8q2 -1 3.5 1.5t-0.5 4.5q-26 26 -32 36l-38 68q-4 6 -1.5 10t9.5 4h70q9 0 15 -8l17 -31q12 -26 15 -47q2 -4 4.5 -4t3.5 5q4 23 14 44l18 33q6 8 15 8h68q8 0 10.5 -4t-1.5 -10l-39 -68q-13 -24 -31 -36
q-2 -2 -1 -4.5t4 -1.5q22 8 49 8h47q12 0 12 -12v-63q0 -12 -12 -12z" />
    <glyph glyph-name="plus" unicode="+" horiz-adv-x="630" 
d="M570 307l-17 -96q-2 -11 -13 -11h-170l-32 -185q-2 -11 -13 -11h-102q-13 0 -11 13l32 183h-169q-13 0 -11 13l17 96q2 11 13 11h171l32 186q2 11 13 11h102q13 0 11 -13l-32 -184h168q13 0 11 -13z" />
    <glyph glyph-name="comma" unicode="," horiz-adv-x="261" 
d="M-7 -137l66 92q26 33 -2 42q-17 5 -27.5 22t-10.5 39q0 38 21 67t71 29q32 0 51.5 -19.5t19.5 -51.5q0 -69 -63 -158l-50 -70q-4 -7 -14 -7h-54q-16 0 -8 15z" />
    <glyph glyph-name="hyphen" unicode="-" horiz-adv-x="436" 
d="M95 320h271q13 0 11 -13l-17 -95q-2 -11 -13 -11h-271q-13 0 -11 13l17 95q2 11 13 11z" />
    <glyph glyph-name="period" unicode="." horiz-adv-x="269" 
d="M111 154q41 0 61 -24.5t12 -66.5q-14 -74 -85 -74q-41 0 -61 24.5t-12 66.5q13 74 85 74z" />
    <glyph glyph-name="slash" unicode="/" 
d="M484 760h109q8 0 10.5 -4t-1.5 -10l-475 -838q-6 -8 -15 -8h-109q-7 0 -9.5 4t1.5 10l474 838q6 8 15 8z" />
    <glyph glyph-name="zero" unicode="0" horiz-adv-x="649" 
d="M398 714q109 0 169 -70t60 -195q0 -58 -11 -118.5t-37 -122.5t-64 -110t-96.5 -78.5t-129.5 -30.5q-109 0 -169 70.5t-60 195.5q0 73 19.5 149t57.5 147.5t106 117t155 45.5zM394 594q-51 0 -91 -36t-62 -91t-33 -110.5t-11 -103.5q0 -143 97 -143q50 0 89.5 36t61.5 91
t33.5 110.5t11.5 102.5q0 69 -25 106.5t-71 37.5z" />
    <glyph glyph-name="one" unicode="1" horiz-adv-x="378" 
d="M374 707l4 -4q8 -6 5 -15l-117 -677q-2 -11 -13 -11h-111q-13 0 -11 13l74 428q8 49 17 71q4 12 0 15t-16 -2l-74 -29q-12 -4 -15 7l-25 97q-3 10 8 15l258 96q9 3 16 -4z" />
    <glyph glyph-name="two" unicode="2" horiz-adv-x="589" 
d="M140 668l64 21q76 25 164 25q101 0 156.5 -44t55.5 -123q0 -64 -32.5 -114t-117.5 -98l-172 -100q-72 -41 -86 -116h313q13 0 11 -13l-17 -95q-2 -11 -13 -11h-437q-13 0 -11 13l11 59q18 102 56 166t112 106l179 103q67 42 67 83q0 30 -22 47t-59 17q-63 0 -132 -23
l-66 -21q-12 -5 -14 9l-19 95q-2 11 9 14z" />
    <glyph glyph-name="three" unicode="3" horiz-adv-x="595" 
d="M156 676l55 17q68 21 144 21q104 0 160.5 -44t56.5 -123q0 -55 -23 -96.5t-85 -74.5q-17 -8 0 -17q74 -36 74 -139q0 -42 -15.5 -81t-48 -73.5t-91 -55.5t-136.5 -21q-76 0 -158 30l-63 24q-13 3 -6 15l46 87q5 11 16 6l55 -21q54 -20 116 -20q68 0 108.5 31.5t40.5 85.5
q0 38 -26 60t-70 22h-58q-13 0 -11 13l18 95q2 11 13 11h50q53 0 85 26t32 68q0 35 -22.5 53.5t-62.5 18.5q-53 0 -115 -19l-59 -18q-12 -5 -14 9l-15 96q-2 11 9 14z" />
    <glyph glyph-name="four" unicode="4" horiz-adv-x="637" 
d="M602 276l-17 -95q-2 -11 -13 -11h-62l-27 -159q-2 -11 -13 -11h-112q-13 0 -11 13l27 157h-332q-13 0 -11 13l18 103q1 8 7 14q35 33 91 96l201 217q44 51 69 84q6 7 15 7h157q13 0 11 -13l-69 -402h60q13 0 11 -13zM395 289l22 131q11 62 25 109q2 6 0.5 9.5t-6 2
t-9.5 -7.5l-161 -174q-27 -28 -55 -53q-7 -7 -5.5 -12t8.5 -5h181z" />
    <glyph glyph-name="five" unicode="5" horiz-adv-x="609" 
d="M590 690l-44 -96q-4 -9 -14 -9h-244l-16 -91l-8 -38q-3 -6 -1.5 -11.5t10.5 -4.5l28 4q28 4 56 4q95 0 147.5 -49t52.5 -139q0 -52 -16 -98t-49.5 -86t-93.5 -63.5t-140 -23.5q-81 0 -163 31l-67 25q-13 3 -6 15l46 87q5 11 16 6l57 -21q62 -22 123 -22q77 0 116.5 42
t39.5 97q0 79 -94 79q-23 0 -87 -8l-104 -13q-9 -1 -15 5l-6 6q-8 8 -5 16l61 359q2 11 13 11h398q16 0 9 -14z" />
    <glyph glyph-name="six" unicode="6" horiz-adv-x="628" 
d="M514 689l-154 -173q-35 -38 -68 -62q-9 -6 -6.5 -11t13.5 -1q45 18 97 18q81 0 132.5 -51t51.5 -140q0 -116 -76.5 -198t-225.5 -82q-111 0 -171.5 51t-60.5 144q0 92 40.5 179t158.5 217l105 117q6 7 15 7h142q8 0 10 -4.5t-3 -10.5zM339 344q-76 0 -116 -42t-40 -98
q0 -94 103 -94q75 0 115 42.5t42 102.5q2 43 -25 66t-79 23z" />
    <glyph glyph-name="seven" unicode="7" horiz-adv-x="604" 
d="M644 695l1 -4q4 -8 -2 -17q-53 -70 -102 -152l-299 -514q-6 -8 -15 -8h-122q-16 0 -9 14l271 464q24 43 65 90q14 17 -10 17h-304q-13 0 -11 13l17 95q2 11 13 11h493q10 0 14 -9z" />
    <glyph glyph-name="eight" unicode="8" horiz-adv-x="633" 
d="M396 714q99 0 155 -42.5t56 -116.5q0 -59 -32.5 -104.5t-93.5 -69.5q-8 -3 -9.5 -8t5.5 -8q96 -43 96 -141q0 -103 -80.5 -169t-217.5 -66q-110 0 -171 46t-61 128q0 73 40.5 124t110.5 78q6 2 8.5 5t1.5 6t-6 5q-75 35 -75 120q0 93 74 153t199 60zM384 594
q-62 0 -94.5 -27.5t-32.5 -72.5q0 -31 24 -48t67 -17q59 0 90.5 25.5t31.5 65.5q0 74 -86 74zM327 309q-69 0 -108.5 -32t-39.5 -81q0 -86 105 -86q75 0 113.5 31.5t38.5 85.5q0 39 -29 60.5t-80 21.5z" />
    <glyph glyph-name="nine" unicode="9" horiz-adv-x="628" 
d="M149 15l154 173q35 38 68 62q9 6 6.5 11t-13.5 1q-45 -18 -97 -18q-81 0 -132.5 51t-51.5 140q0 116 76.5 198t225.5 82q111 0 171.5 -51t60.5 -144q0 -92 -40.5 -179t-158.5 -217l-105 -117q-6 -7 -15 -7h-142q-8 0 -10 4.5t3 10.5zM324 360q76 0 116 42t40 98
q0 94 -103 94q-75 0 -115 -42.5t-42 -102.5q-2 -43 25 -66t79 -23z" />
    <glyph glyph-name="colon" unicode=":" horiz-adv-x="260" 
d="M171 499q41 0 61 -24.5t12 -66.5q-14 -74 -85 -74q-41 0 -61 24.5t-12 66.5q13 74 85 74zM111 154q41 0 61 -24.5t12 -66.5q-14 -74 -85 -74q-41 0 -61 24.5t-12 66.5q13 74 85 74z" />
    <glyph glyph-name="semicolon" unicode=";" horiz-adv-x="263" 
d="M172 499q41 0 61 -24.5t12 -66.5q-14 -74 -85 -74q-41 0 -61 24.5t-12 66.5q13 74 85 74zM-5 -134l66 92q26 33 -2 42q-17 5 -27.5 22t-10.5 39q0 38 21 67t71 29q32 0 51.5 -19.5t19.5 -51.5q0 -69 -63 -158l-50 -70q-4 -7 -14 -7h-54q-16 0 -8 15z" />
    <glyph glyph-name="less" unicode="&#x3c;" horiz-adv-x="630" 
d="M68 224l11 69q1 9 10 13l504 220q7 3 10.5 0t2.5 -10l-19 -113q-3 -9 -11 -13l-323 -137l275 -136q9 -4 7 -15l-19 -104q-1 -13 -15 -8l-426 219q-9 4 -7 15z" />
    <glyph glyph-name="equal" unicode="=" horiz-adv-x="601" 
d="M114 434h437q13 0 11 -13l-17 -95q-2 -11 -13 -11h-437q-13 0 -11 13l17 95q2 11 13 11zM75 206h437q13 0 11 -13l-17 -95q-2 -11 -13 -11h-437q-13 0 -11 13l17 95q2 11 13 11z" />
    <glyph glyph-name="greater" unicode="&#x3e;" horiz-adv-x="630" 
d="M134 526l426 -219q9 -4 7 -15l-11 -69q-1 -9 -10 -13l-504 -220q-7 -3 -10.5 0t-2.5 10l19 113q3 9 11 13l323 137l-275 136q-9 4 -7 15l19 104q1 13 15 8z" />
    <glyph glyph-name="question" unicode="?" horiz-adv-x="576" 
d="M122 665l69 22q87 27 171 27q103 0 156.5 -42t53.5 -117q0 -61 -29.5 -105.5t-100.5 -90.5l-66 -42q-35 -23 -41 -61l-7 -44q-2 -11 -13 -11h-111q-13 0 -11 13l7 42q10 55 35.5 92.5t78.5 70.5l71 44q47 30 47 66q0 25 -25.5 41t-67.5 16q-61 0 -129 -20l-64 -20
q-12 -5 -14 9l-19 96q-2 11 9 14zM245 153q41 0 61 -24.5t12 -66.5q-14 -74 -85 -74q-41 0 -61 24.5t-12 66.5q13 74 85 74z" />
    <glyph glyph-name="at" unicode="@" horiz-adv-x="867" 
d="M645 -56l-110 -28q-89 -23 -167 -23q-145 0 -228.5 81t-83.5 214q0 55 15 112t49 115t83 103t124.5 73t165.5 28q150 0 240 -82t90 -205q0 -87 -43.5 -148t-131.5 -61q-53 0 -83 31t-48 102q-8 32 -22 49.5t-45 17.5q-34 0 -58 -21.5t-24 -57.5q0 -25 17 -39t47 -14
q24 0 44 6q10 3 13 -8q16 -49 45 -74q14 -10 -2 -15l-49 -12q-37 -10 -72 -10q-77 0 -119 36.5t-42 103.5q0 38 11.5 74.5t35.5 69t66.5 52.5t98.5 20q105 0 147 -77q13 -21 21.5 -45.5t11.5 -39t9 -25t16 -10.5q19 0 28 27.5t9 53.5q0 81 -64 134t-166 53q-61 0 -112 -20
t-84.5 -51.5t-57 -72t-34 -80t-10.5 -77.5q0 -90 56.5 -143t154.5 -53q65 0 138 19l104 27q12 3 14 -10l11 -86q2 -11 -9 -14z" />
    <glyph glyph-name="A" unicode="A" horiz-adv-x="735" 
d="M503 114h-304l-57 -106q-6 -8 -15 -8h-124q-7 0 -9.5 4t1.5 10l228 411q95 176 134 270q5 9 14 9h155q12 0 13 -12q7 -102 38 -267l84 -412q3 -13 -10 -13h-114q-11 0 -13 11zM479 235l-18 85q-27 147 -27 212q-1 9 -7.5 9t-10.5 -9q-34 -87 -103 -212l-47 -85h213z" />
    <glyph glyph-name="B" unicode="B" horiz-adv-x="658" 
d="M162 704h272q98 0 151 -41.5t53 -114.5q0 -69 -34.5 -112.5t-77.5 -59.5q-24 -11 -4 -20q34 -12 60 -45t26 -87q0 -103 -75 -163.5t-203 -60.5h-288q-13 0 -11 13l118 680q2 11 13 11zM268 583l-28 -161h125q62 0 97 26t35 71q0 30 -20.5 47t-56.5 17h-152zM219 301
l-31 -180h163q54 0 85.5 27.5t31.5 75.5q0 37 -28 57t-80 20h-141z" />
    <glyph glyph-name="C" unicode="C" horiz-adv-x="627" 
d="M525 25l-52 -16q-67 -20 -149 -20q-125 0 -194.5 74.5t-69.5 204.5q0 57 12.5 116t41.5 119t71.5 106.5t109 75.5t146.5 29q71 0 146 -27l40 -14q12 -3 6 -16l-47 -89q-5 -11 -16 -6l-42 14q-40 15 -97 15q-60 0 -107 -32t-73 -82t-39 -102t-13 -100q0 -162 140 -162
q49 0 113 19l48 14q12 5 14 -8l20 -99q2 -11 -9 -14z" />
    <glyph glyph-name="D" unicode="D" horiz-adv-x="687" 
d="M162 704h239q125 0 194 -72t69 -198q0 -57 -12.5 -115t-42 -116t-71.5 -102.5t-107 -72.5t-143 -28h-246q-13 0 -11 13l118 680q2 11 13 11zM268 583l-80 -462h112q58 0 104 31t71 79.5t37.5 99t12.5 97.5q0 75 -35 115t-102 40h-120z" />
    <glyph glyph-name="E" unicode="E" horiz-adv-x="611" 
d="M241 422h260q13 0 11 -13l-17 -97q-2 -11 -13 -11h-263l-31 -180h342q13 0 11 -13l-18 -97q-2 -11 -13 -11h-468q-13 0 -11 13l118 680q2 11 13 11h471q14 0 9 -14l-45 -98q-5 -9 -14 -9h-315z" />
    <glyph glyph-name="F" unicode="F" horiz-adv-x="603" 
d="M235 391h267q13 0 11 -13l-17 -97q-2 -11 -13 -11h-269l-45 -259q-2 -11 -13 -11h-114q-13 0 -11 13l118 680q2 11 13 11h469q14 0 9 -14l-45 -98q-5 -9 -14 -9h-313z" />
    <glyph glyph-name="G" unicode="G" horiz-adv-x="680" 
d="M427 385h204q13 0 11 -13l-54 -314q-1 -10 -11 -13l-42 -14l-60 -22q-67 -20 -148 -20q-127 0 -197 74t-70 204q0 57 12 115.5t41 119t71 107t107.5 76t145.5 29.5q76 0 147 -25l43 -15q12 -3 6 -16l-47 -90q-5 -11 -16 -6l-38 13q-42 16 -101 16q-61 0 -108 -32.5
t-72.5 -83t-38.5 -102.5t-13 -101q0 -77 34.5 -118t99.5 -41q63 0 112 16l24 7l22 128h-114q-14 0 -9 14l45 98q5 9 14 9z" />
    <glyph glyph-name="H" unicode="H" horiz-adv-x="709" 
d="M716 691l-118 -680q-2 -11 -13 -11h-114q-13 0 -11 13l50 288h-291l-50 -290q-2 -11 -13 -11h-114q-13 0 -11 13l118 680q2 11 13 11h114q13 0 11 -13l-46 -269h290l46 271q2 11 13 11h115q13 0 11 -13z" />
    <glyph glyph-name="I" unicode="I" horiz-adv-x="280" 
d="M287 691l-118 -680q-2 -11 -13 -11h-114q-13 0 -11 13l118 680q2 11 13 11h114q13 0 11 -13z" />
    <glyph glyph-name="J" unicode="J" horiz-adv-x="462" 
d="M472 691l-81 -467q-19 -111 -84.5 -173t-167.5 -62q-54 0 -106 21l-25 10q-12 5 -6 16l47 90q5 11 16 6l26 -11q24 -8 54 -8q40 0 69 27t38 79l82 474q2 11 13 11h114q13 0 11 -13z" />
    <glyph glyph-name="K" unicode="K" horiz-adv-x="685" 
d="M709 689l-152 -208q-61 -80 -150 -113q-5 -2 -5.5 -6t3.5 -6q82 -38 118 -130l83 -212q5 -14 -10 -14h-117q-9 0 -14 9l-62 158q-51 131 -163 131h-21l-50 -287q-2 -11 -13 -11h-114q-13 0 -11 13l118 680q2 11 13 11h114q13 0 11 -13l-46 -267h20q92 0 183 124l112 149
q4 7 14 7h132q7 0 9.5 -4.5t-2.5 -10.5z" />
    <glyph glyph-name="L" unicode="L" horiz-adv-x="572" 
d="M189 123h302q13 0 11 -13l-17 -99q-2 -11 -13 -11h-430q-13 0 -11 13l118 680q2 11 13 11h114q13 0 11 -13z" />
    <glyph glyph-name="M" unicode="M" horiz-adv-x="835" 
d="M841 691l-118 -680q-2 -11 -13 -11h-114q-13 0 -11 13l46 267q22 135 50 221q3 10 -3 12t-11 -8q-8 -15 -24.5 -44.5t-19.5 -34.5l-109 -189q-11 -18 -52 -101q-4 -9 -14 -9h-102q-11 0 -13 11q-6 45 -16 96l-44 191q-6 34 -18 80q-2 13 -10 7q-4 -4 -5 -11
q-4 -96 -25 -221l-46 -269q-2 -11 -13 -11h-114q-13 0 -11 13l118 680q2 11 13 11h167q10 0 12 -11q6 -43 11 -70l40 -176q19 -114 23 -154q0 -5 3 -7t7 0t6 7q29 71 72 154l100 176q28 57 35 72q4 9 14 9h178q13 0 11 -13z" />
    <glyph glyph-name="N" unicode="N" horiz-adv-x="725" 
d="M732 691l-118 -680q-2 -11 -13 -11h-141q-11 0 -14 10q-14 50 -34 103l-126 315q-2 7 -26 77q-2 6 -6.5 7.5t-8 -2t-3.5 -9.5q-1 -66 -16 -161l-57 -329q-2 -11 -13 -11h-114q-13 0 -11 13l118 680q2 11 13 11h141q11 0 14 -10q9 -29 34 -103l124 -309l29 -83
q3 -10 9.5 -8t5.5 12q1 69 17 159l57 331q2 11 13 11h115q13 0 11 -13z" />
    <glyph glyph-name="O" unicode="O" horiz-adv-x="720" 
d="M433 714q126 0 195 -73t69 -203q0 -47 -9 -96t-26.5 -100t-48.5 -96t-70.5 -80.5t-96 -56t-122.5 -20.5q-125 0 -194.5 74t-69.5 204q0 57 12 115.5t40.5 119t70 107t106.5 76t144 29.5zM428 591q-60 0 -106.5 -32.5t-72 -83t-38 -103t-12.5 -101.5q0 -75 34 -116.5
t97 -41.5q59 0 105.5 33t72 83.5t38 103.5t12.5 101q0 76 -33.5 116.5t-96.5 40.5z" />
    <glyph glyph-name="P" unicode="P" horiz-adv-x="643" 
d="M162 704h259q103 0 160 -55t54 -153q-4 -123 -91 -191.5t-240 -68.5h-97l-38 -225q-2 -11 -13 -11h-114q-13 0 -11 13l118 680q2 11 13 11zM268 583l-39 -226h89q81 0 128 34t50 96q2 45 -21.5 70.5t-67.5 25.5h-139z" />
    <glyph glyph-name="Q" unicode="Q" horiz-adv-x="720" 
d="M656 -109l-91 -58q-9 -7 -16 3l-36 60q-29 48 -71 70.5t-117 22.5q-124 0 -194.5 74t-70.5 204q0 78 22 154t65.5 143t117.5 108.5t168 41.5q125 0 194.5 -73.5t69.5 -204.5q0 -125 -48.5 -227.5t-122.5 -140.5q-10 -4 -10 -7t8 -7q68 -28 101 -88l35 -59q7 -10 -4 -16z
M200 273q0 -81 34.5 -120.5t95.5 -39.5q57 0 103 31t72 79.5t39.5 101.5t13.5 104q0 162 -130 162q-74 0 -128 -53t-77 -123t-23 -142z" />
    <glyph glyph-name="R" unicode="R" horiz-adv-x="678" 
d="M162 704h276q99 0 152 -51t53 -135q0 -145 -155 -203q-22 -8 -6 -18q52 -34 72 -114l43 -170q3 -13 -11 -13h-114q-11 0 -14 10l-29 117q-17 70 -53 102t-114 32h-50l-43 -250q-2 -11 -13 -11h-114q-13 0 -11 13l118 680q2 11 13 11zM234 383h104q76 0 121 32.5t45 84.5
q0 39 -23.5 61t-64.5 22h-148z" />
    <glyph glyph-name="S" unicode="S" horiz-adv-x="612" 
d="M344 283l-97 38q-79 32 -112.5 67t-33.5 94q0 43 14.5 82t45.5 74t87.5 55.5t132.5 20.5q74 0 158 -29l58 -20q12 -3 6 -16l-49 -90q-5 -11 -15 -6l-53 18q-58 20 -116 20q-60 0 -95 -24.5t-35 -66.5q0 -21 17 -37.5t57 -32.5l92 -36q81 -32 117.5 -70t36.5 -97
q0 -44 -14.5 -84t-46 -76t-90.5 -57t-140 -21q-83 0 -188 37l-57 20q-13 3 -6 15l46 91q5 11 16 6l52 -19q75 -26 148 -26q63 0 102 23.5t39 66.5q0 49 -77 80z" />
    <glyph glyph-name="T" unicode="T" horiz-adv-x="646" 
d="M687 691l-17 -97q-2 -11 -13 -11h-205l-99 -572q-2 -11 -13 -11h-114q-13 0 -11 13l98 570h-204q-13 0 -11 13l17 97q2 11 13 11h548q13 0 11 -13z" />
    <glyph glyph-name="U" unicode="U" horiz-adv-x="676" 
d="M692 691l-72 -408q-24 -141 -109 -217.5t-213 -76.5q-133 0 -193.5 80t-35.5 222l70 402q2 11 13 11h113q13 0 11 -13l-71 -408q-13 -84 13.5 -127t89.5 -43q68 0 115 47t61 131l70 402q2 11 13 11h114q13 0 11 -13z" />
    <glyph glyph-name="V" unicode="V" horiz-adv-x="716" 
d="M763 690l-226 -410q-85 -159 -132 -271q-5 -9 -14 -9h-148q-10 0 -12 11q-11 125 -38 269l-85 411q-3 13 10 13h113q11 0 13 -11l66 -310q21 -108 23 -205q0 -5 3.5 -7t7.5 0t6 7q31 89 95 205l172 313q6 8 15 8h123q7 0 9.5 -4t-1.5 -10z" />
    <glyph glyph-name="W" unicode="W" horiz-adv-x="1008" 
d="M1047 690l-215 -489q-51 -117 -77 -191q-3 -10 -13 -10h-153q-12 0 -12 12q-2 98 -9 162l-20 181q-2 53 -1 93q0 6 -3 8.5t-7 0t-6 -8.5q-22 -61 -35 -93l-82 -183q-34 -84 -64 -162q-3 -10 -13 -10h-153q-12 0 -12 12q-2 101 -10 189l-47 490q-2 13 12 13h113
q10 0 12 -11l31 -314q7 -92 0 -195q-1 -9 6 -9t10 9q31 101 73 195l146 316q4 9 14 9h94q10 0 12 -11l38 -314q8 -71 6 -195q-1 -8 5 -9q8 -1 10 9q20 81 68 195l139 316q4 9 14 9h120q16 0 9 -14z" />
    <glyph glyph-name="X" unicode="X" horiz-adv-x="705" 
d="M723 689l-177 -243q-42 -57 -93 -85q-5 -2 -5.5 -7t2.5 -6q41 -27 64 -88l96 -246q5 -14 -10 -14h-117q-9 0 -14 9l-98 248q-5 15 -17 0l-184 -250q-4 -7 -14 -7h-132q-7 0 -9.5 4.5t2.5 10.5l180 245q45 61 95 88q5 2 5 7q0 3 -1 4.5t-4 3t-4 2.5q-35 27 -56 80l-95 245
q-5 14 10 14h118q9 0 14 -9l93 -243q7 -20 21 0l179 245q4 7 14 7h130q7 0 9.5 -4.5t-2.5 -10.5z" />
    <glyph glyph-name="Y" unicode="Y" horiz-adv-x="688" 
d="M732 689l-177 -241q-63 -89 -85.5 -122.5t-45 -86t-32.5 -113.5l-19 -115q-2 -11 -13 -11h-114q-13 0 -11 13l19 113q8 47 9.5 82t-7.5 76t-18.5 70.5t-33.5 93.5l-95 242q-5 14 10 14h118q9 0 14 -9l62 -152q34 -87 43 -146q1 -5 4 -7t7 0t7 7q47 88 89 146l115 154
q4 7 14 7h133q7 0 9.5 -4.5t-2.5 -10.5z" />
    <glyph glyph-name="Z" unicode="Z" horiz-adv-x="639" 
d="M662 695l1 -3q4 -8 -2 -17q-73 -88 -118 -151l-211 -289q-3 -4 -31.5 -42.5t-42.5 -55.5t6 -17q28 1 82 1h197q14 0 9 -14l-45 -98q-5 -9 -14 -9h-461q-10 0 -14 9l-1 3q-4 8 2 17q50 58 118 154l208 284q46 66 77 98q7 7 5 12.5t-11 5.5h-83h-196q-13 0 -11 13l17 97
q2 11 13 11h492q10 0 14 -9z" />
    <glyph glyph-name="bracketleft" unicode="[" horiz-adv-x="377" 
d="M177 19h80q13 0 11 -13l-17 -95q-2 -11 -13 -11h-193q-13 0 -11 13l144 834q2 11 13 11h194q13 0 11 -13l-17 -95q-2 -11 -13 -11h-82z" />
    <glyph glyph-name="backslash" unicode="\" horiz-adv-x="546" 
d="M253 749l184 -836q3 -13 -11 -13h-99q-12 0 -13 11l-186 836q-3 13 11 13h101q12 0 13 -11z" />
    <glyph glyph-name="bracketright" unicode="]" horiz-adv-x="377" 
d="M229 639h-80q-13 0 -11 13l17 95q2 11 13 11h193q13 0 11 -13l-144 -834q-2 -11 -13 -11h-194q-13 0 -11 13l17 95q2 11 13 11h82z" />
    <glyph glyph-name="asciicircum" unicode="^" horiz-adv-x="520" 
d="M480 348h-116q-12 0 -13 11l-38 170l-98 -173q-6 -8 -15 -8h-121q-17 0 -8 14l208 326q4 8 14 8h89q11 0 14 -10l94 -324q3 -14 -10 -14z" />
    <glyph glyph-name="underscore" unicode="_" horiz-adv-x="523" 
d="M-62 -97h527q13 0 11 -13l-17 -95q-2 -11 -13 -11h-527q-13 0 -11 13l17 95q2 11 13 11z" />
    <glyph glyph-name="grave" unicode="`" horiz-adv-x="315" 
d="M279 712l40 -136q3 -14 -10 -14h-85q-9 0 -15 9l-72 137q-7 14 9 14h120q10 0 13 -10z" />
    <glyph glyph-name="a" unicode="a" horiz-adv-x="567" 
d="M384 12v47q-2 16 -7 17t-22 -16q-61 -71 -143 -71q-84 0 -130.5 49t-46.5 138q0 54 16.5 108.5t50 103.5t93 80t136.5 31q43 0 105 -15l100 -24q11 -3 9 -14l-74 -435q-2 -11 -13 -11h-62q-12 0 -12 12zM397 364l-22 7q-24 7 -50 7q-52 0 -89.5 -34.5t-52.5 -76
t-15 -79.5q0 -37 18.5 -57.5t50.5 -20.5q53 0 93.5 58t58.5 154z" />
    <glyph glyph-name="b" unicode="b" horiz-adv-x="573" 
d="M277 709l-22 -131q-12 -65 -41 -114q-5 -9 -1 -14t14 1q60 48 124 48q90 0 138 -52t48 -145q0 -54 -15.5 -106.5t-46.5 -100t-88 -77t-132 -29.5q-74 0 -137 27l-79 35q-9 4 -8 15l111 645q2 11 13 11h111q13 0 11 -13zM176 131l19 -8q30 -13 65 -13q71 0 107.5 59
t36.5 125q0 84 -75 84q-53 0 -89.5 -42t-48.5 -115z" />
    <glyph glyph-name="c" unicode="c" horiz-adv-x="477" 
d="M384 14l-48 -13q-42 -12 -89 -12q-103 0 -157.5 53.5t-54.5 147.5q0 42 9 83.5t30.5 82.5t53 72.5t81.5 51t112 19.5q35 0 84 -14l51 -15q13 -5 7 -16l-43 -88q-4 -10 -16 -7l-33 10q-28 9 -54 9q-41 0 -72 -18.5t-46.5 -48t-23 -58.5t-7.5 -56q0 -87 85 -87q33 0 74 11
l41 11q12 4 14 -10l12 -94q2 -11 -10 -14z" />
    <glyph glyph-name="d" unicode="d" horiz-adv-x="572" 
d="M591 709l-120 -698q-2 -11 -13 -11h-59q-11 0 -13 11l-6 27q-4 11 -9 11.5t-19 -10.5q-60 -50 -133 -50q-88 0 -136 52.5t-48 144.5q0 52 15 104t45 100t84.5 78.5t125.5 30.5q52 0 84 -16l25 -12l42 240q2 11 13 11h111q13 0 11 -13zM396 356l-22 10q-26 12 -64 12
q-49 0 -83 -32t-46.5 -71t-12.5 -77q0 -88 79 -88q50 0 83.5 33t43.5 90z" />
    <glyph glyph-name="e" unicode="e" horiz-adv-x="511" 
d="M397 15l-56 -14q-45 -12 -96 -12q-101 0 -155.5 53.5t-54.5 147.5q0 41 9 82.5t30 83t51.5 73t78.5 51t106 19.5q84 0 131 -38t47 -104q0 -65 -38.5 -108t-136.5 -57l-145 -20q5 -62 81 -62q43 0 84 10l52 14q12 3 14 -10l8 -95q2 -11 -10 -14zM177 274l125 17
q56 9 56 49q0 38 -55 38q-90 0 -126 -104z" />
    <glyph glyph-name="f" unicode="f" horiz-adv-x="393" 
d="M140 488l11 59q15 89 72 137.5t145 48.5q35 0 74 -13l20 -7q12 -3 6 -16l-43 -88q-5 -11 -16 -6l-12 4q-21 6 -33 6q-30 0 -52 -21.5t-27 -54.5l-9 -49h112q13 0 11 -13l-17 -95q-2 -11 -13 -11h-113l-62 -358q-2 -11 -13 -11h-112q-13 0 -11 13l62 356h-49q-13 0 -11 13
l16 95q2 11 13 11h51z" />
    <glyph glyph-name="g" unicode="g" horiz-adv-x="567" 
d="M76 -86l34 -11q35 -10 74 -10q120 0 166 90q13 37 15 50q1 10 -3 10q-3 0 -18 -10q-61 -44 -121 -44q-93 0 -142.5 56t-45.5 153q2 55 19 106.5t49 96t87 71.5t126 27q60 0 121 -24l96 -38q10 -4 8 -15l-71 -414q-20 -116 -94 -176t-191 -60q-59 0 -108 14l-53 16
q-12 5 -6 16l42 89q4 10 16 7zM395 356l-21 10q-31 12 -64 12q-66 0 -102 -53.5t-40 -117.5q-3 -45 15.5 -71t58.5 -26q110 0 132 129z" />
    <glyph glyph-name="h" unicode="h" 
d="M277 709l-22 -131q-12 -65 -42 -118q-4 -7 0.5 -11.5t12.5 1.5q60 49 122 49q90 0 134.5 -52.5t28.5 -140.5l-51 -295q-2 -11 -13 -11h-112q-13 0 -11 13l50 287q13 78 -50 78q-50 0 -83 -36t-43 -95l-41 -236q-2 -11 -13 -11h-112q-13 0 -11 13l121 698q2 11 13 11h111
q13 0 11 -13z" />
    <glyph glyph-name="i" unicode="i" horiz-adv-x="295" 
d="M230 732q35 0 54 -18t19 -51q0 -43 -22 -66.5t-61 -23.5q-35 0 -54 18t-19 51q0 43 22 66.5t61 23.5zM274 475l-80 -464q-2 -11 -13 -11h-112q-13 0 -11 13l62 356h-49q-13 0 -11 13l16 95q2 11 13 11h174q13 0 11 -13z" />
    <glyph glyph-name="j" unicode="j" horiz-adv-x="295" 
d="M230 732q35 0 54 -18t19 -51q0 -43 -22 -67t-61 -24q-35 0 -54 18.5t-19 51.5q0 43 22 66.5t61 23.5zM274 475l-83 -483q-26 -143 -163 -204l-29 -14q-12 -5 -15 7l-36 92q-5 11 6 16l21 11q71 32 82 102l63 367h-49q-13 0 -11 13l16 95q2 11 13 11h174q13 0 11 -13z" />
    <glyph glyph-name="k" unicode="k" horiz-adv-x="562" 
d="M548 473l-109 -148q-40 -51 -97 -71q-11 -4 -2 -10q52 -23 72 -72l61 -158q5 -14 -10 -14h-114q-9 0 -14 9l-43 108q-30 71 -93 71h-12l-29 -177q-2 -11 -13 -11h-112q-13 0 -11 13l78 457l42 241q2 11 13 11h111q13 0 11 -13l-38 -221l-30 -181h11q46 0 103 75l75 99
q4 7 14 7h129q7 0 9.5 -4.5t-2.5 -10.5z" />
    <glyph glyph-name="l" unicode="l" horiz-adv-x="303" 
d="M277 709l-99 -577q-5 -22 12 -22h7q12 2 15 -9l20 -87q2 -11 -8 -15q-24 -10 -55 -10q-71 0 -105 38t-22 105l100 579q2 11 13 11h111q13 0 11 -13z" />
    <glyph glyph-name="m" unicode="m" horiz-adv-x="838" 
d="M187 477l5 -26q7 -13 12 -12.5t19 11.5q59 49 127 49q65 0 109 -52q15 -14 24 -15t28 13q62 54 131 54q85 0 125.5 -52t24.5 -141l-51 -295q-2 -11 -13 -11h-112q-13 0 -11 13l50 287q13 78 -45 78q-48 0 -79 -35t-42 -96l-40 -236q-2 -11 -13 -11h-112q-13 0 -11 13
l50 289q14 76 -45 76q-48 0 -79 -35t-42 -96l-40 -236q-2 -11 -13 -11h-112q-13 0 -11 13l80 464q2 11 13 11h60q11 0 13 -11z" />
    <glyph glyph-name="n" unicode="n" 
d="M187 478l7 -29q5 -10 10 -9.5t18 9.5q61 50 134 50q89 0 130 -52t25 -141l-51 -295q-2 -11 -13 -11h-112q-13 0 -11 13l50 287q14 78 -50 78q-49 0 -82.5 -35t-44.5 -96l-40 -236q-2 -11 -13 -11h-112q-13 0 -11 13l80 464q2 11 13 11h60q12 0 13 -10z" />
    <glyph glyph-name="o" unicode="o" horiz-adv-x="555" 
d="M313 499q98 0 152 -54t54 -148q0 -40 -9 -81t-30 -82.5t-52 -73t-79 -51.5t-107 -20q-98 0 -152.5 54t-54.5 148q0 40 9 81t30.5 82.5t52.5 73t79.5 51.5t106.5 20zM308 378q-48 0 -81.5 -32t-46 -70.5t-12.5 -76.5q0 -89 78 -89q47 0 81 32t47 70.5t13 76.5
q0 43 -20.5 66t-58.5 23z" />
    <glyph glyph-name="p" unicode="p" horiz-adv-x="572" 
d="M185 477l6 -26q4 -9 7 -11t8 -0.5t15 9.5q59 50 131 50q88 0 136.5 -52.5t48.5 -144.5q0 -52 -15 -104t-45 -100.5t-85 -78.5t-126 -30q-51 0 -84 16l-25 12l-38 -223q-2 -11 -13 -11h-112q-13 0 -11 13l118 681q2 11 13 11h58q12 0 13 -11zM176 131l21 -9q27 -12 64 -12
q49 0 83.5 32t47 70.5t12.5 76.5q0 89 -80 89q-50 0 -84 -33.5t-43 -90.5z" />
    <glyph glyph-name="q" unicode="q" horiz-adv-x="567" 
d="M298 -204l19 115q11 62 41 114q6 9 1.5 13t-16.5 -3q-60 -46 -122 -46q-90 0 -138 52.5t-48 144.5q0 54 15.5 106.5t46.5 100t88 77t131 29.5q75 0 137 -28l80 -34q9 -4 8 -15l-108 -628q-2 -11 -13 -11h-111q-13 0 -11 13zM396 356l-20 9q-36 13 -64 13q-49 0 -83.5 -32
t-47.5 -71.5t-13 -79.5q0 -85 74 -85q54 0 90.5 41.5t48.5 114.5z" />
    <glyph glyph-name="r" unicode="r" horiz-adv-x="405" 
d="M400 486l-17 -97q-2 -11 -13 -11q-83 -3 -127.5 -62.5t-69.5 -203.5l-16 -101q-2 -11 -13 -11h-112q-13 0 -11 13l80 464q2 11 13 11h60q11 0 14 -10l13 -48q6 -17 21 -3q38 37 76 54t91 18q13 0 11 -13z" />
    <glyph glyph-name="s" unicode="s" horiz-adv-x="490" 
d="M267 183l-89 23q-112 29 -112 117q0 75 52 125.5t158 50.5q61 0 130 -19l47 -12q13 -3 7 -15l-41 -91q-4 -10 -16 -7l-42 12q-40 11 -89 11q-34 0 -54 -11t-20 -28q0 -19 29 -26l89 -24q115 -30 115 -123q0 -32 -10.5 -61.5t-34 -56.5t-67 -43t-102.5 -16q-77 0 -153 21
l-46 13q-13 3 -7 15l42 90q4 10 16 7l34 -10q53 -15 119 -15q37 0 56.5 12.5t19.5 31.5q0 21 -31 29z" />
    <glyph glyph-name="t" unicode="t" horiz-adv-x="401" 
d="M276 488h112q13 0 11 -13l-17 -95q-2 -11 -13 -11h-113l-37 -213q-8 -46 24 -46q15 0 27 4t16 -7l25 -83q3 -10 -6 -15q-40 -20 -82 -20q-80 0 -116.5 44.5t-22.5 123.5l36 212h-49q-13 0 -11 13l16 95q2 11 13 11h51l19 112q1 10 11 13l120 37q7 2 10.5 -1t1.5 -10z" />
    <glyph glyph-name="u" unicode="u" 
d="M370 10l-7 29q-5 10 -10 9.5t-18 -9.5q-61 -50 -134 -50q-89 0 -130 52t-25 141l51 295q2 11 13 11h112q13 0 11 -13l-50 -287q-13 -78 50 -78q49 0 82.5 35t44.5 96l40 236q2 11 13 11h112q13 0 11 -13l-80 -464q-2 -11 -13 -11h-60q-12 0 -13 10z" />
    <glyph glyph-name="v" unicode="v" horiz-adv-x="562" 
d="M571 474l-119 -210q-88 -159 -131 -255q-5 -9 -14 -9h-135q-10 0 -12 11q-17 128 -42 253l-49 211q-3 13 11 13h114q12 0 13 -10l30 -125q19 -104 19 -187q0 -9 7 -9t10 9q28 86 84 187l72 127q6 8 15 8h119q7 0 9.5 -4t-1.5 -10z" />
    <glyph glyph-name="w" unicode="w" horiz-adv-x="817" 
d="M821 474l-121 -262q-64 -140 -89 -203q-5 -9 -14 -9h-141q-11 0 -13 11l-8 94l-11 74q-6 42 -6 82q0 7 -2.5 9t-6 -0.5t-5.5 -8.5q-25 -57 -34 -82l-36 -74q-5 -11 -20 -44.5t-22 -51.5q-4 -9 -14 -9h-139q-11 0 -13 12q-3 40 -19 200l-31 263q0 13 12 13h111
q10 0 12 -11l15 -135q7 -101 7 -180q0 -9 7 -9t10 9q14 34 47 107.5t43 95.5l55 114q5 9 14 9h73q11 0 13 -11l18 -112q16 -170 18 -203q1 -9 7.5 -9t9.5 9q29 83 70 180l61 137q5 9 14 9h118q15 0 10 -14z" />
    <glyph glyph-name="x" unicode="x" horiz-adv-x="545" 
d="M541 473l-124 -161q-32 -42 -69 -60q-8 -5 -2 -9q30 -21 48 -64l69 -165q7 -14 -9 -14h-116q-10 0 -14 9l-54 132q-6 13 -16 0l-100 -134q-4 -7 -14 -7h-129q-8 0 -10.5 4.5t2.5 10.5l127 164q34 46 69 64q8 4 1 9q-29 18 -45 60l-69 162q-7 14 9 14h114q9 0 14 -9
l54 -131q5 -16 16 0l99 133q4 7 14 7h128q7 0 9.5 -4.5t-2.5 -10.5z" />
    <glyph glyph-name="y" unicode="y" horiz-adv-x="563" 
d="M573 474l-383 -683q-6 -8 -15 -8h-116q-7 0 -9.5 4t1.5 10l63 113q31 59 33 129t-21 183l-57 253q-3 13 11 13h114q12 0 13 -11l34 -149q17 -83 15 -160q0 -8 3 -11t7.5 0t7.5 11q28 78 71 159l86 153q6 8 15 8h119q7 0 9.5 -4t-1.5 -10z" />
    <glyph glyph-name="z" unicode="z" horiz-adv-x="498" 
d="M496 480q3 -8 -3 -15q-22 -26 -63 -82l-139 -192q-28 -37 -54 -62q-11 -11 3 -11q11 0 30.5 0.5t28.5 0.5h120q7 0 9.5 -4t-1.5 -10l-51 -96q-6 -9 -15 -9h-338q-10 0 -14 10q-2 6 4 13q33 40 67 87l136 186q22 33 54 63q11 11 -3 11q-18 -1 -58 -1h-116q-13 0 -11 13
l16 95q2 11 13 11h371q10 0 14 -8z" />
    <glyph glyph-name="braceleft" unicode="{" horiz-adv-x="396" 
d="M424 753l-17 -95q-1 -10 -13 -12q-33 -3 -58 -26t-30 -56l-21 -123q-14 -70 -68 -104q-15 -9 -16 -12t11 -12q21 -12 29.5 -40.5t3.5 -64.5l-21 -119q-12 -71 60 -77q13 0 11 -13l-17 -95q-2 -11 -13 -11q-91 4 -135.5 58.5t-28.5 145.5l21 120q9 53 -40 53h-11
q-13 0 -11 13l17 96q2 11 13 11h5q25 0 44 17t24 43l20 123q15 90 74.5 139.5t155.5 53.5q13 0 11 -13z" />
    <glyph glyph-name="bar" unicode="|" horiz-adv-x="307" 
d="M304 749l-166 -956q-2 -11 -13 -11h-100q-13 0 -11 13l165 956q2 11 13 11h101q13 0 11 -13z" />
    <glyph glyph-name="braceright" unicode="}" horiz-adv-x="396" 
d="M2 -93l17 95q1 10 13 12q33 3 58 26t30 56l21 123q14 70 68 104q15 9 16 12t-11 12q-21 12 -29.5 40.5t-3.5 64.5l21 119q12 71 -60 77q-13 0 -11 13l17 95q2 11 13 11q91 -4 135.5 -58.5t28.5 -145.5l-21 -120q-9 -53 40 -53h11q13 0 11 -13l-17 -96q-2 -11 -13 -11h-5
q-25 0 -44 -17t-24 -43l-20 -123q-15 -90 -74.5 -139.5t-155.5 -53.5q-13 0 -11 13z" />
    <glyph glyph-name="asciitilde" unicode="~" horiz-adv-x="578" 
d="M55 273l72 96q54 72 129 72q35 0 59 -25l36 -35q11 -9 20 -9q11 0 24 16l32 44q4 7 14 7h111q7 0 9.5 -4.5t-2.5 -10.5l-72 -98q-52 -70 -126 -70q-33 0 -60 24l-40 36q-8 7 -17 7q-13 0 -25 -16l-32 -42q-6 -7 -15 -7h-110q-7 0 -9.5 4.5t2.5 10.5z" />
    <glyph glyph-name="exclamdown" unicode="&#xa1;" horiz-adv-x="280" 
d="M154 331q-41 0 -61 24.5t-12 66.5q14 74 85 74q41 0 61 -24.5t12 -66.5q-13 -74 -85 -74zM-18 -207l37 211q7 41 34.5 137.5t34.5 124.5q1 11 13 11h74q13 0 11 -13q-5 -36 -11 -129.5t-12 -130.5l-37 -213q-2 -11 -13 -11h-120q-13 0 -11 13z" />
    <glyph glyph-name="cent" unicode="&#xa2;" horiz-adv-x="477" 
d="M437 575l-33 10q-28 9 -54 9q-41 0 -72 -18.5t-46.5 -48t-23 -58.5t-7.5 -56q0 -87 85 -87q33 0 74 11l41 11q12 4 14 -10l12 -94q2 -11 -10 -14l-48 -13q-23 -7 -54 -10l-16 -91q-2 -11 -13 -11h-101q-13 0 -11 13l18 100q-124 39 -124 188q0 63 19 121.5t68.5 110.5
t122.5 69l16 94q2 11 13 11h101q13 0 11 -13l-16 -89q6 -2 17.5 -5t17.5 -4l51 -15q13 -5 7 -16l-43 -88q-4 -10 -16 -7z" />
    <glyph glyph-name="sterling" unicode="&#xa3;" horiz-adv-x="599" 
d="M262 277l-11 -64q-9 -46 -31 -83q-4 -6 -3 -9t8 -2q40 5 107 5h186q13 0 11 -13l-18 -100q-2 -11 -13 -11h-451q-9 0 -14 9l-2 3q-5 10 1 17l25 33q43 58 57 139l13 76h-75q-13 0 -11 13l18 97q2 11 13 11h76l16 89q19 108 91 167.5t179 59.5q59 0 116 -22l30 -12
q12 -5 6 -16l-51 -96q-5 -11 -16 -6l-24 10q-34 14 -67 14q-50 0 -86.5 -30t-44.5 -78l-14 -80h138q13 0 11 -13l-18 -97q-2 -11 -13 -11h-139z" />
    <glyph glyph-name="currency" unicode="&#xa4;" horiz-adv-x="642" 
d="M226 543l53 -66q42 22 90 22t86 -22l80 68q10 8 17 -1l59 -72q7 -10 -2 -17l-82 -70q12 -35 4 -83q-7 -45 -37 -85l58 -70q8 -10 -1 -17l-84 -70q-10 -8 -17 1l-55 68q-48 -23 -95 -23t-79 19l-79 -68q-10 -8 -17 1l-59 73q-7 10 2 17l76 65q-14 37 -5 89q7 45 38 92
l-52 63q-8 10 1 17l83 70q10 8 17 -1zM350 391q-37 0 -67.5 -26t-35.5 -63q-7 -36 14.5 -62t58.5 -26q36 0 66.5 26t36.5 62q6 37 -15.5 63t-57.5 26z" />
    <glyph glyph-name="yen" unicode="&#xa5;" horiz-adv-x="698" 
d="M560 448l-43 -60h70q13 0 11 -13l-14 -72q-2 -11 -13 -11h-117q-18 -34 -25 -51h132q13 0 11 -13l-14 -73q-2 -11 -13 -11h-145l-3 -18l-19 -115q-2 -11 -13 -11h-114q-13 0 -11 13l19 113l3 18h-157q-13 0 -11 13l13 73q2 11 13 11h147q-1 17 -7 51h-129q-13 0 -11 13
l13 72q2 11 13 11h85l-22 60l-95 242q-5 14 10 14h118q10 0 14 -9l62 -152q34 -87 43 -146q1 -5 4 -7t7 0t7 7q47 88 89 146l115 154q4 7 14 7h133q7 0 9.5 -4.5t-2.5 -10.5z" />
    <glyph glyph-name="brokenbar" unicode="&#xa6;" horiz-adv-x="312" 
d="M308 749l-62 -358q-2 -11 -13 -11h-105q-13 0 -11 13l62 358q2 11 13 11h105q13 0 11 -13zM205 150l-62 -357q-2 -11 -13 -11h-105q-13 0 -11 13l62 357q2 11 13 11h105q13 0 11 -13z" />
    <glyph glyph-name="section" unicode="&#xa7;" horiz-adv-x="618" 
d="M296 465l144 -60q122 -51 122 -157q0 -113 -92 -161q-18 -10 -4 -20q41 -33 41 -93q0 -37 -14 -71t-44 -64.5t-86 -48.5t-131 -18q-89 0 -186 34l-57 19q-12 3 -6 16l47 89q5 11 16 6l54 -19q71 -24 136 -24q63 0 99.5 23t36.5 58q0 28 -40 45l-152 64q-117 49 -117 151
q0 107 96 165q6 4 8.5 6.5t2 5t-5.5 7.5q-44 40 -44 98q0 35 14 68t43 63t82.5 48.5t124.5 18.5q81 0 154 -26l57 -21q13 -3 6 -15l-49 -89q-5 -11 -15 -6l-48 17q-57 20 -108 20q-56 0 -91 -22t-35 -59q0 -30 41 -48zM365 304l-68 28q-14 4 -21 4q-36 0 -59.5 -29
t-23.5 -57q0 -24 17.5 -38t59.5 -33l61 -25q10 -5 24 -5q35 0 56.5 28t21.5 56q0 24 -17 40t-51 31z" />
    <glyph glyph-name="dieresis" unicode="&#xa8;" horiz-adv-x="414" 
d="M181 740q32 0 49.5 -16.5t17.5 -46.5q0 -35 -19 -59.5t-57 -24.5q-32 0 -49.5 17t-17.5 47q0 40 20.5 61.5t55.5 21.5zM370 740q32 0 49.5 -16.5t17.5 -46.5q0 -35 -19 -59.5t-57 -24.5q-32 0 -49.5 17t-17.5 47q0 40 20.5 61.5t55.5 21.5z" />
    <glyph glyph-name="copyright" unicode="&#xa9;" horiz-adv-x="789" 
d="M394 714q159 0 256.5 -100t97.5 -263t-97.5 -262.5t-256.5 -99.5q-158 0 -255.5 99.5t-97.5 262.5t97.5 263t255.5 100zM394 642q-127 0 -204 -80t-77 -211q0 -130 77 -210t204 -80t204.5 80t77.5 210q0 131 -77.5 211t-204.5 80zM499 175l-22 -7q-37 -11 -82 -11
q-80 0 -126.5 52.5t-46.5 142.5t47 143t126 53q43 0 82 -12l22 -7q11 -5 7 -15l-16 -47q-5 -11 -15 -7l-21 6q-28 8 -59 8q-44 0 -69 -32t-25 -90t25 -90t69 -32q38 0 59 8l21 6q10 3 15 -8l16 -46q4 -10 -7 -15z" />
    <glyph glyph-name="ordfeminine" unicode="&#xaa;" horiz-adv-x="402" 
d="M146 688l32 9q41 12 87 12q84 0 125 -40.5t28 -112.5l-40 -231q-2 -11 -13 -11h-49q-11 0 -13 11l-1 13q-3 10 -15 1q-46 -33 -111 -33t-95.5 32t-20.5 89q9 57 52.5 90t111.5 33h92l1 4q5 31 -13 48t-59 17q-27 0 -61 -9l-27 -8q-14 -4 -14 10l-7 62q-2 11 10 14z
M303 472h-93q-44 0 -50 -36q-4 -19 8 -30.5t37 -11.5q85 0 97 74zM17 150l11 67q2 11 13 11h304q13 0 11 -13l-11 -67q-2 -11 -13 -11h-304q-13 0 -11 13z" />
    <glyph glyph-name="guillemotleft" unicode="&#xab;" horiz-adv-x="642" 
d="M199 243l95 -179q4 -6 1.5 -10t-9.5 -4h-113q-9 0 -15 9l-90 169q-4 7 -4 15v3q0 8 6 14l149 173q6 7 15 7h119q8 0 10 -4.5t-3 -10.5zM439 243l95 -179q4 -6 1.5 -10t-9.5 -4h-113q-9 0 -15 9l-90 169q-4 7 -4 15v3q0 8 6 14l149 173q6 7 15 7h119q8 0 10 -4.5t-3 -10.5
z" />
    <glyph glyph-name="registered" unicode="&#xae;" horiz-adv-x="789" 
d="M394 714q159 0 256.5 -100t97.5 -263t-97.5 -262.5t-256.5 -99.5q-158 0 -255.5 99.5t-97.5 262.5t97.5 263t255.5 100zM394 642q-127 0 -204 -80t-77 -211q0 -130 77 -210t204 -80t204.5 80t77.5 210q0 131 -77.5 211t-204.5 80zM272 534h139q60 0 93 -29t33 -81
q0 -35 -18.5 -58.5t-46.5 -33.5q-12 -3 -1 -9q30 -18 49 -60l34 -80q7 -14 -9 -14h-56q-9 0 -14 9l-21 55q-16 37 -35.5 52.5t-59.5 15.5h-22v-120q0 -12 -12 -12h-53q-12 0 -12 12v341q0 12 12 12zM337 463v-95h57q33 0 52 13t19 37q0 22 -15 33.5t-39 11.5h-74z" />
    <glyph glyph-name="macron" unicode="&#xaf;" horiz-adv-x="375" 
d="M137 686h253q13 0 11 -13l-12 -68q-2 -11 -13 -11h-254q-13 0 -11 13l13 68q2 11 13 11z" />
    <glyph glyph-name="degree" unicode="&#xb0;" horiz-adv-x="352" 
d="M255 724q62 0 95.5 -29.5t33.5 -83.5q0 -69 -42 -123.5t-129 -54.5q-61 0 -95.5 30.5t-34.5 85.5q0 69 42.5 122t129.5 53zM247 634q-30 0 -47.5 -22.5t-17.5 -49.5q0 -38 37 -38q30 0 48 20.5t18 52.5q0 37 -38 37z" />
    <glyph glyph-name="plusminus" unicode="&#xb1;" horiz-adv-x="630" 
d="M408 417h168q13 0 11 -13l-17 -96q-2 -11 -13 -11h-170l-32 -185q-2 -11 -13 -11h-102q-13 0 -11 13l32 183h-169q-13 0 -11 13l17 96q2 11 13 11h171l32 186q2 11 13 11h102q13 0 11 -13zM27 -86l17 95q2 11 13 11h437q13 0 11 -13l-17 -95q-2 -11 -13 -11h-437
q-13 0 -11 13z" />
    <glyph glyph-name="acute" unicode="&#xb4;" horiz-adv-x="321" 
d="M213 722h123q8 0 10 -4.5t-3 -10.5l-120 -138q-6 -7 -15 -7h-89q-17 0 -8 14l88 138q4 8 14 8z" />
    <glyph glyph-name="uni00B5" unicode="&#xb5;" horiz-adv-x="567" 
d="M423 488h112q13 0 11 -13l-80 -464q-2 -11 -13 -11h-60q-12 0 -13 10l-7 29q-5 10 -10 9.5t-18 -9.5q-61 -50 -134 -50q-34 0 -58 7l-35 -202q-2 -11 -13 -11h-111q-13 0 -11 13l86 496q2 11 13 11q-5 0 -3 13l28 161q2 11 13 11h112q13 0 11 -13l-50 -287
q-13 -78 50 -78q49 0 82.5 35t44.5 96l40 236q2 11 13 11z" />
    <glyph glyph-name="paragraph" unicode="&#xb6;" horiz-adv-x="687" 
d="M652 691l-118 -680q-2 -11 -13 -11h-70q-13 0 -11 13l103 600h-77l-103 -602q-2 -11 -13 -11h-71q-13 0 -11 13l54 308q-70 0 -126.5 42.5t-56.5 119.5q0 38 12.5 74.5t38 70.5t71.5 55t107 21h273q13 0 11 -13z" />
    <glyph glyph-name="periodcentered" unicode="&#xb7;" horiz-adv-x="259" 
d="M143 339q41 0 61 -24.5t12 -66.5q-14 -74 -85 -74q-41 0 -61 24.5t-12 66.5q13 74 85 74z" />
    <glyph glyph-name="cedilla" unicode="&#xb8;" horiz-adv-x="331" 
d="M130 -36h7q27 0 44 -18.5t17 -51.5q0 -47 -32 -84.5t-96 -37.5q-24 0 -51 9l-15 5q-12 4 -6 16l32 62q5 11 16 6l12 -4q12 -4 28 -4q30 0 30 28q0 20 -25 20h-35q-10 0 -14 9q-4 5 1 13l43 81q4 9 14 9h47q16 0 9 -14z" />
    <glyph glyph-name="ordmasculine" unicode="&#xba;" horiz-adv-x="475" 
d="M298 709q86 0 127 -54.5t24 -147.5q-16 -92 -75.5 -146.5t-144.5 -54.5t-125.5 55t-24.5 146q16 93 75 147.5t144 54.5zM282 619q-40 0 -68 -29.5t-37 -82.5q-9 -51 9 -81t58 -30q42 0 70 29.5t37 81.5q9 53 -9 82.5t-60 29.5zM62 228h304q13 0 11 -13l-11 -67
q-2 -11 -13 -11h-304q-13 0 -11 13l11 67q2 11 13 11z" />
    <glyph glyph-name="guillemotright" unicode="&#xbb;" horiz-adv-x="699" 
d="M260 246l-95 179q-4 6 -1.5 10t9.5 4h113q9 0 15 -9l90 -169q4 -7 4 -15v-3q0 -8 -6 -14l-149 -173q-6 -7 -15 -7h-119q-8 0 -10 4.5t3 10.5zM500 246l-95 179q-4 6 -1.5 10t9.5 4h113q9 0 15 -9l90 -169q4 -7 4 -15v-3q0 -8 -6 -14l-149 -173q-6 -7 -15 -7h-119
q-8 0 -10 4.5t3 10.5z" />
    <glyph glyph-name="onequarter" unicode="&#xbc;" horiz-adv-x="848" 
d="M157 581l-40 -15q-12 -3 -15 9l-13 62q-1 11 9 15l159 54q9 3 16 -4q6 -6 3 -14l-63 -367q-2 -11 -13 -11h-73q-13 0 -11 13l35 202q5 29 12 50q2 5 0.5 6.5t-6.5 -0.5zM676 704h78q7 0 9.5 -4.5t-2.5 -10.5l-561 -682q-6 -7 -15 -7h-78q-7 0 -9.5 4.5t2.5 10.5l561 682
q6 7 15 7zM855 156l-9 -54q-2 -11 -13 -11h-33l-13 -78q-2 -11 -13 -11h-73q-13 0 -11 13l13 76h-168q-13 0 -11 13l12 63q1 8 7 14q35 35 42 43l106 122q13 14 33 41q4 7 14 7h102q13 0 11 -13l-37 -212h30q13 0 11 -13zM717 169l7 40q5 32 18 70q2 6 -2 7.5t-8 -4.5
l-67 -76q-15 -17 -28 -27q-5 -5 -3.5 -7.5t7.5 -2.5h76z" />
    <glyph glyph-name="onehalf" unicode="&#xbd;" horiz-adv-x="892" 
d="M272 703q7 -7 4 -15l-63 -367q-2 -11 -13 -11h-73q-13 0 -11 13l35 202q5 29 12 50q2 5 0.5 6.5t-6.5 -0.5l-40 -15q-12 -3 -15 9l-13 62q-1 11 9 15l159 54q9 3 15 -3zM761 689l-561 -682q-6 -7 -15 -7h-78q-7 0 -9.5 4.5t2.5 10.5l561 682q6 7 15 7h78q7 0 9.5 -4.5
t-2.5 -10.5zM660 371l38 12q47 16 98 16q64 0 95 -30.5t23 -86.5q-10 -69 -88 -106l-93 -45q-27 -15 -30 -41h159q13 0 11 -13l-12 -64q-2 -11 -13 -11h-248q-13 0 -11 13l8 41q19 112 106 154l89 44q21 11 24 27q3 28 -36 28q-28 0 -69 -13l-36 -11q-12 -5 -14 9l-10 63
q-2 11 9 14z" />
    <glyph glyph-name="threequarters" unicode="&#xbe;" horiz-adv-x="957" 
d="M127 685l32 10q37 14 86 14q66 0 98 -29t24 -80q-8 -57 -57 -82q-5 -4 -6 -5q-1 -2 0.5 -3.5t5 -3t4.5 -2.5q46 -27 37 -80q-8 -57 -54 -87.5t-121 -30.5q-40 0 -90 15l-32 12q-13 3 -6 15l34 64q5 11 16 6l31 -10q32 -12 62 -12q28 0 45 10t19 27q3 32 -44 32h-30
q-13 0 -11 13l11 64q2 11 13 11h31q37 0 42 35q1 14 -8.5 22.5t-29.5 8.5q-27 0 -57 -10l-31 -9q-12 -5 -14 9l-9 62q-2 11 9 14zM785 704h78q7 0 9.5 -4.5t-2.5 -10.5l-561 -682q-6 -7 -15 -7h-78q-7 0 -9.5 4.5t2.5 10.5l561 682q6 7 15 7zM964 156l-9 -54q-2 -11 -13 -11
h-33l-13 -78q-2 -11 -13 -11h-73q-13 0 -11 13l13 76h-168q-13 0 -11 13l12 63q1 8 7 14q35 35 42 43l106 122q13 14 33 41q4 7 14 7h102q13 0 11 -13l-37 -212h30q13 0 11 -13zM826 169l7 40q5 32 18 70q2 6 -2 7.5t-8 -4.5l-67 -76q-15 -17 -28 -27q-5 -5 -3.5 -7.5
t7.5 -2.5h76z" />
    <glyph glyph-name="questiondown" unicode="&#xbf;" horiz-adv-x="498" 
d="M297 332q-41 0 -61 24.5t-12 66.5q14 74 85 74q41 0 61 -24.5t12 -66.5q-13 -74 -85 -74zM420 -180l-69 -22q-87 -27 -171 -27q-103 0 -156.5 42t-53.5 117q0 61 29.5 105.5t100.5 90.5l66 42q35 23 41 61l7 44q2 11 13 11h111q13 0 11 -13l-7 -42q-10 -55 -35.5 -92.5
t-78.5 -70.5l-71 -44q-47 -30 -47 -66q0 -25 25.5 -41t67.5 -16q61 0 129 20l64 20q12 5 14 -9l19 -96q2 -11 -9 -14z" />
    <glyph glyph-name="Agrave" unicode="&#xc0;" horiz-adv-x="735" 
d="M498 904l31 -110q5 -13 -10 -13h-107q-10 0 -14 8l-70 111q-9 14 8 14h148q11 0 14 -10zM199 114l-57 -106q-6 -8 -15 -8h-124q-7 0 -9.5 4t1.5 10l228 411q95 176 134 270q5 9 14 9h155q12 0 13 -12q7 -102 38 -267l84 -412q3 -13 -10 -13h-114q-11 0 -13 11l-21 103
h-304zM479 235l-18 85q-27 147 -27 212q-1 9 -7.5 9t-10.5 -9q-34 -87 -103 -212l-47 -85h213z" />
    <glyph glyph-name="Aacute" unicode="&#xc1;" horiz-adv-x="735" 
d="M503 914h146q8 0 9.5 -4.5t-4.5 -10.5l-129 -112q-6 -6 -14 -6h-104q-8 0 -10 4.5t3 10.5l88 111q6 7 15 7zM199 114l-57 -106q-6 -8 -15 -8h-124q-7 0 -9.5 4t1.5 10l228 411q95 176 134 270q5 9 14 9h155q12 0 13 -12q7 -102 38 -267l84 -412q3 -13 -10 -13h-114
q-11 0 -13 11l-21 103h-304zM479 235l-18 85q-27 147 -27 212q-1 9 -7.5 9t-10.5 -9q-34 -87 -103 -212l-47 -85h213z" />
    <glyph glyph-name="Acircumflex" unicode="&#xc2;" horiz-adv-x="735" 
d="M479 838l-72 -52q-6 -5 -15 -5h-94q-8 0 -10 4.5t4 10.5l116 112q6 6 15 6h135q10 0 14 -8l78 -110q8 -15 -8 -15h-97q-9 0 -15 6zM577 425l84 -412q3 -13 -10 -13h-114q-11 0 -13 11l-21 103h-304l-57 -106q-6 -8 -15 -8h-124q-7 0 -9.5 4t1.5 10l228 411
q95 176 134 270q5 9 14 9h155q12 0 13 -12q7 -102 38 -267zM479 235l-18 85q-27 147 -27 212q-1 9 -7.5 9t-10.5 -9q-34 -87 -103 -212l-47 -85h213z" />
    <glyph glyph-name="Atilde" unicode="&#xc3;" horiz-adv-x="735" 
d="M289 803l34 48q35 55 105 55q28 0 60 -16l32 -15q16 -7 23 -7q16 0 27 16l9 12q4 7 14 7h70q18 0 8 -15l-34 -48q-38 -55 -106 -55q-23 0 -59 16l-33 15q-14 7 -24 7q-15 0 -26 -15l-9 -12q-4 -8 -14 -8h-69q-18 0 -8 15zM199 114l-57 -106q-6 -8 -15 -8h-124
q-7 0 -9.5 4t1.5 10l228 411q95 176 134 270q5 9 14 9h155q12 0 13 -12q7 -102 38 -267l84 -412q3 -13 -10 -13h-114q-11 0 -13 11l-21 103h-304zM479 235l-18 85q-27 147 -27 212q-1 9 -7.5 9t-10.5 -9q-34 -87 -103 -212l-47 -85h213z" />
    <glyph glyph-name="Adieresis" unicode="&#xc4;" horiz-adv-x="735" 
d="M389 919q67 0 67 -56q0 -34 -21.5 -60.5t-68.5 -26.5q-67 0 -67 55q0 36 21 62t69 26zM598 919q67 0 67 -56q0 -34 -21.5 -60.5t-68.5 -26.5q-67 0 -67 55q0 36 21 62t69 26zM199 114l-57 -106q-6 -8 -15 -8h-124q-7 0 -9.5 4t1.5 10l228 411q95 176 134 270q5 9 14 9
h155q12 0 13 -12q7 -102 38 -267l84 -412q3 -13 -10 -13h-114q-11 0 -13 11l-21 103h-304zM479 235l-18 85q-27 147 -27 212q-1 9 -7.5 9t-10.5 -9q-34 -87 -103 -212l-47 -85h213z" />
    <glyph glyph-name="Aring" unicode="&#xc5;" horiz-adv-x="735" 
d="M494 931q41 0 64.5 -19t23.5 -53q0 -46 -32 -72.5t-87 -26.5q-41 0 -64.5 18.5t-23.5 52.5q0 46 32 73t87 27zM484 880q-20 0 -32 -11.5t-12 -30.5q0 -28 33 -28q20 0 32 11t12 30q0 29 -33 29zM199 114l-57 -106q-6 -8 -15 -8h-124q-7 0 -9.5 4t1.5 10l228 411
q95 176 134 270q5 9 14 9h155q12 0 13 -12q7 -102 38 -267l84 -412q3 -13 -10 -13h-114q-11 0 -13 11l-21 103h-304zM479 235l-18 85q-27 147 -27 212q-1 9 -7.5 9t-10.5 -9q-34 -87 -103 -212l-47 -85h213z" />
    <glyph glyph-name="AE" unicode="&#xc6;" horiz-adv-x="934" 
d="M912 583h-344q-13 0 -13 -24q1 -23 9 -60l15 -77h251q13 0 11 -13l-17 -97q-2 -11 -13 -11h-208l38 -180h218q13 0 11 -13l-17 -97q-2 -11 -13 -11h-303q-11 0 -13 11l-21 103h-303l-59 -106q-6 -8 -15 -8h-123q-7 0 -9.5 4t1.5 10l212 377q98 180 152 304q5 9 14 9h589
q14 0 9 -14l-45 -98q-4 -9 -14 -9zM479 235l-22 108q-20 108 -24 187q0 7 -3.5 10t-8 0t-6.5 -10q-29 -77 -88 -184l-62 -111h214z" />
    <glyph glyph-name="Ccedilla" unicode="&#xc7;" horiz-adv-x="627" 
d="M570 562l-42 14q-40 15 -97 15q-60 0 -107 -32t-73 -82t-39 -102t-13 -100q0 -162 140 -162q49 0 113 19l48 14q12 5 14 -8l20 -99q2 -11 -9 -14l-52 -16q-66 -20 -146 -20l-15 -25h7q27 0 44 -18.5t17 -51.5q0 -47 -32 -84.5t-96 -37.5q-24 0 -51 9l-15 5q-12 4 -6 16
l32 62q5 11 16 6l12 -4q12 -4 28 -4q30 0 30 28q0 20 -25 20h-35q-10 0 -14 9q-4 5 1 13l33 63q-95 19 -146.5 90t-51.5 183q0 57 12.5 116t41.5 119t71.5 106.5t109 75.5t146.5 29q71 0 146 -27l40 -14q12 -3 6 -16l-47 -89q-5 -11 -16 -6z" />
    <glyph glyph-name="Egrave" unicode="&#xc8;" horiz-adv-x="611" 
d="M444 904l31 -110q5 -13 -10 -13h-107q-10 0 -14 8l-70 111q-9 14 8 14h148q11 0 14 -10zM241 422h260q13 0 11 -13l-17 -97q-2 -11 -13 -11h-263l-31 -180h342q13 0 11 -13l-18 -97q-2 -11 -13 -11h-468q-13 0 -11 13l118 680q2 11 13 11h471q14 0 9 -14l-45 -98
q-5 -9 -14 -9h-315z" />
    <glyph glyph-name="Eacute" unicode="&#xc9;" horiz-adv-x="611" 
d="M450 914h146q8 0 9.5 -4.5t-4.5 -10.5l-129 -112q-6 -6 -14 -6h-104q-8 0 -10 4.5t3 10.5l88 111q6 7 15 7zM241 422h260q13 0 11 -13l-17 -97q-2 -11 -13 -11h-263l-31 -180h342q13 0 11 -13l-18 -97q-2 -11 -13 -11h-468q-13 0 -11 13l118 680q2 11 13 11h471
q14 0 9 -14l-45 -98q-5 -9 -14 -9h-315z" />
    <glyph glyph-name="Ecircumflex" unicode="&#xca;" horiz-adv-x="611" 
d="M425 838l-72 -52q-6 -5 -15 -5h-94q-8 0 -10 4.5t4 10.5l116 112q6 6 15 6h135q10 0 14 -8l78 -110q8 -15 -8 -15h-97q-9 0 -15 6zM268 583l-27 -161h260q13 0 11 -13l-17 -97q-2 -11 -13 -11h-263l-31 -180h342q13 0 11 -13l-18 -97q-2 -11 -13 -11h-468q-13 0 -11 13
l118 680q2 11 13 11h471q14 0 9 -14l-45 -98q-5 -9 -14 -9h-315z" />
    <glyph glyph-name="Edieresis" unicode="&#xcb;" horiz-adv-x="611" 
d="M335 919q67 0 67 -56q0 -34 -21.5 -60.5t-68.5 -26.5q-67 0 -67 55q0 36 21 62t69 26zM544 919q67 0 67 -56q0 -34 -21.5 -60.5t-68.5 -26.5q-67 0 -67 55q0 36 21 62t69 26zM241 422h260q13 0 11 -13l-17 -97q-2 -11 -13 -11h-263l-31 -180h342q13 0 11 -13l-18 -97
q-2 -11 -13 -11h-468q-13 0 -11 13l118 680q2 11 13 11h471q14 0 9 -14l-45 -98q-5 -9 -14 -9h-315z" />
    <glyph glyph-name="Igrave" unicode="&#xcc;" horiz-adv-x="280" 
d="M263 904l31 -110q5 -13 -10 -13h-107q-10 0 -14 8l-70 111q-9 14 8 14h148q11 0 14 -10zM156 0h-114q-13 0 -11 13l118 680q2 11 13 11h114q13 0 11 -13l-118 -680q-2 -11 -13 -11z" />
    <glyph glyph-name="Iacute" unicode="&#xcd;" horiz-adv-x="280" 
d="M268 914h146q8 0 9.5 -4.5t-4.5 -10.5l-129 -112q-6 -6 -14 -6h-104q-8 0 -10 4.5t3 10.5l88 111q6 7 15 7zM156 0h-114q-13 0 -11 13l118 680q2 11 13 11h114q13 0 11 -13l-118 -680q-2 -11 -13 -11z" />
    <glyph glyph-name="Icircumflex" unicode="&#xce;" horiz-adv-x="280" 
d="M337 906l78 -110q10 -15 -8 -15h-97q-9 0 -15 6l-51 51l-72 -52q-6 -5 -15 -5h-94q-8 0 -10 4.5t4 10.5l116 112q6 6 15 6h135q10 0 14 -8zM31 13l118 680q2 11 13 11h114q13 0 11 -13l-118 -680q-2 -11 -13 -11h-114q-13 0 -11 13z" />
    <glyph glyph-name="Idieresis" unicode="&#xcf;" horiz-adv-x="280" 
d="M153 919q67 0 67 -56q0 -34 -21.5 -60.5t-68.5 -26.5q-67 0 -67 55q0 36 21 62t69 26zM362 919q67 0 67 -56q0 -34 -21.5 -60.5t-68.5 -26.5q-67 0 -67 55q0 36 21 62t69 26zM156 0h-114q-13 0 -11 13l118 680q2 11 13 11h114q13 0 11 -13l-118 -680q-2 -11 -13 -11z" />
    <glyph glyph-name="Eth" unicode="&#xd0;" horiz-adv-x="742" 
d="M217 704h239q125 0 194 -72t69 -198q0 -57 -12.5 -115t-42 -116t-71.5 -102.5t-107 -72.5t-143 -28h-246q-13 0 -11 13l50 286h-81q-13 0 -11 13l17 97q2 11 13 11h83l47 273q2 11 13 11zM243 121h112q58 0 104 31t71 79.5t37.5 99t12.5 97.5q0 75 -35 115t-102 40h-120
l-28 -163h117q13 0 11 -13l-17 -97q-2 -11 -13 -11h-119z" />
    <glyph glyph-name="Ntilde" unicode="&#xd1;" horiz-adv-x="725" 
d="M270 803l34 48q35 55 105 55q28 0 60 -16l32 -15q16 -7 23 -7q16 0 27 16l9 12q4 7 14 7h70q18 0 8 -15l-34 -48q-38 -55 -106 -55q-23 0 -59 16l-33 15q-14 7 -24 7q-15 0 -26 -15l-9 -12q-4 -8 -14 -8h-69q-18 0 -8 15zM601 0h-141q-11 0 -14 10q-14 50 -34 103
l-126 315q-2 7 -26 77q-2 6 -6.5 7.5t-8 -2t-3.5 -9.5q-1 -66 -16 -161l-57 -329q-2 -11 -13 -11h-114q-13 0 -11 13l118 680q2 11 13 11h141q11 0 14 -10q9 -29 34 -103l124 -309l29 -83q3 -10 9.5 -8t5.5 12q1 69 17 159l57 331q2 11 13 11h115q13 0 11 -13l-118 -680
q-2 -11 -13 -11z" />
    <glyph glyph-name="Ograve" unicode="&#xd2;" horiz-adv-x="720" 
d="M487 904l31 -110q5 -13 -10 -13h-107q-10 0 -14 8l-70 111q-9 14 8 14h148q11 0 14 -10zM433 714q126 0 195 -73t69 -203q0 -47 -9 -96t-26.5 -100t-48.5 -96t-70.5 -80.5t-96 -56t-122.5 -20.5q-125 0 -194.5 74t-69.5 204q0 57 12 115.5t40.5 119t70 107t106.5 76
t144 29.5zM428 591q-60 0 -106.5 -32.5t-72 -83t-38 -103t-12.5 -101.5q0 -75 34 -116.5t97 -41.5q59 0 105.5 33t72 83.5t38 103.5t12.5 101q0 76 -33.5 116.5t-96.5 40.5z" />
    <glyph glyph-name="Oacute" unicode="&#xd3;" horiz-adv-x="720" 
d="M492 914h146q8 0 9.5 -4.5t-4.5 -10.5l-129 -112q-6 -6 -14 -6h-104q-8 0 -10 4.5t3 10.5l88 111q6 7 15 7zM433 714q126 0 195 -73t69 -203q0 -47 -9 -96t-26.5 -100t-48.5 -96t-70.5 -80.5t-96 -56t-122.5 -20.5q-125 0 -194.5 74t-69.5 204q0 57 12 115.5t40.5 119
t70 107t106.5 76t144 29.5zM428 591q-60 0 -106.5 -32.5t-72 -83t-38 -103t-12.5 -101.5q0 -75 34 -116.5t97 -41.5q59 0 105.5 33t72 83.5t38 103.5t12.5 101q0 76 -33.5 116.5t-96.5 40.5z" />
    <glyph glyph-name="Ocircumflex" unicode="&#xd4;" horiz-adv-x="720" 
d="M468 838l-72 -52q-6 -5 -15 -5h-94q-8 0 -10 4.5t4 10.5l116 112q6 6 15 6h135q10 0 14 -8l78 -110q8 -15 -8 -15h-97q-9 0 -15 6zM433 714q126 0 195 -73t69 -203q0 -47 -9 -96t-26.5 -100t-48.5 -96t-70.5 -80.5t-96 -56t-122.5 -20.5q-125 0 -194.5 74t-69.5 204
q0 57 12 115.5t40.5 119t70 107t106.5 76t144 29.5zM330 113q59 0 105.5 33t72 83.5t38 103.5t12.5 101q0 76 -33.5 116.5t-96.5 40.5q-60 0 -106.5 -32.5t-72 -83t-38 -103t-12.5 -101.5q0 -75 34 -116.5t97 -41.5z" />
    <glyph glyph-name="Otilde" unicode="&#xd5;" horiz-adv-x="720" 
d="M279 803l34 48q35 55 105 55q28 0 60 -16l32 -15q16 -7 23 -7q16 0 27 16l9 12q4 7 14 7h70q18 0 8 -15l-34 -48q-38 -55 -106 -55q-23 0 -59 16l-33 15q-14 7 -24 7q-15 0 -26 -15l-9 -12q-4 -8 -14 -8h-69q-18 0 -8 15zM433 714q126 0 195 -73t69 -203q0 -47 -9 -96
t-26.5 -100t-48.5 -96t-70.5 -80.5t-96 -56t-122.5 -20.5q-125 0 -194.5 74t-69.5 204q0 57 12 115.5t40.5 119t70 107t106.5 76t144 29.5zM428 591q-60 0 -106.5 -32.5t-72 -83t-38 -103t-12.5 -101.5q0 -75 34 -116.5t97 -41.5q59 0 105.5 33t72 83.5t38 103.5t12.5 101
q0 76 -33.5 116.5t-96.5 40.5z" />
    <glyph glyph-name="Odieresis" unicode="&#xd6;" horiz-adv-x="720" 
d="M378 919q67 0 67 -56q0 -34 -21.5 -60.5t-68.5 -26.5q-67 0 -67 55q0 36 21 62t69 26zM587 919q67 0 67 -56q0 -34 -21.5 -60.5t-68.5 -26.5q-67 0 -67 55q0 36 21 62t69 26zM433 714q126 0 195 -73t69 -203q0 -47 -9 -96t-26.5 -100t-48.5 -96t-70.5 -80.5t-96 -56
t-122.5 -20.5q-125 0 -194.5 74t-69.5 204q0 57 12 115.5t40.5 119t70 107t106.5 76t144 29.5zM428 591q-60 0 -106.5 -32.5t-72 -83t-38 -103t-12.5 -101.5q0 -75 34 -116.5t97 -41.5q59 0 105.5 33t72 83.5t38 103.5t12.5 101q0 76 -33.5 116.5t-96.5 40.5z" />
    <glyph glyph-name="multiply" unicode="&#xd7;" horiz-adv-x="642" 
d="M537 500l58 -72q8 -10 -1 -17l-183 -156l126 -153q8 -10 -1 -17l-83 -70q-10 -8 -17 1l-125 154l-184 -157q-10 -8 -17 1l-59 72q-7 10 2 17l183 156l-126 154q-8 10 1 17l83 69q10 8 17 -1l127 -153l182 156q10 8 17 -1z" />
    <glyph glyph-name="Oslash" unicode="&#xd8;" horiz-adv-x="730" 
d="M742 689l-80 -87q40 -66 40 -164q0 -47 -9 -96t-26.5 -100t-48.5 -96t-70.5 -80.5t-96 -56t-122.5 -20.5q-109 0 -178 58l-38 -41q-6 -6 -15 -6h-66q-8 0 -10 4.5t4 10.5l79 86q-40 69 -40 166q0 57 12 115.5t40.5 119t70 107t106.5 76t144 29.5q110 0 178 -57l38 41
q6 6 15 6h67q8 0 10 -4.5t-4 -10.5zM210 215l314 341q-33 35 -91 35q-60 0 -106.5 -32.5t-72 -83t-38 -103t-12.5 -101.5q0 -31 6 -56zM558 489l-315 -341q33 -35 92 -35t105.5 33t72 83.5t38 103.5t12.5 101q0 27 -5 55z" />
    <glyph glyph-name="Ugrave" unicode="&#xd9;" horiz-adv-x="676" 
d="M459 904l31 -110q5 -13 -10 -13h-107q-10 0 -14 8l-70 111q-9 14 8 14h148q11 0 14 -10zM692 691l-72 -408q-24 -141 -109 -217.5t-213 -76.5q-133 0 -193.5 80t-35.5 222l70 402q2 11 13 11h113q13 0 11 -13l-71 -408q-13 -84 13.5 -127t89.5 -43q68 0 115 47t61 131
l70 402q2 11 13 11h114q13 0 11 -13z" />
    <glyph glyph-name="Uacute" unicode="&#xda;" horiz-adv-x="676" 
d="M464 914h146q8 0 9.5 -4.5t-4.5 -10.5l-129 -112q-6 -6 -14 -6h-104q-8 0 -10 4.5t3 10.5l88 111q6 7 15 7zM692 691l-72 -408q-24 -141 -109 -217.5t-213 -76.5q-133 0 -193.5 80t-35.5 222l70 402q2 11 13 11h113q13 0 11 -13l-71 -408q-13 -84 13.5 -127t89.5 -43
q68 0 115 47t61 131l70 402q2 11 13 11h114q13 0 11 -13z" />
    <glyph glyph-name="Ucircumflex" unicode="&#xdb;" horiz-adv-x="676" 
d="M440 838l-72 -52q-6 -5 -15 -5h-94q-8 0 -10 4.5t4 10.5l116 112q6 6 15 6h135q10 0 14 -8l78 -110q8 -15 -8 -15h-97q-9 0 -15 6zM567 704h114q13 0 11 -13l-72 -408q-24 -141 -109 -217.5t-213 -76.5q-133 0 -193.5 80t-35.5 222l70 402q2 11 13 11h113q13 0 11 -13
l-71 -408q-13 -84 13.5 -127t89.5 -43q68 0 115 47t61 131l70 402q2 11 13 11z" />
    <glyph glyph-name="Udieresis" unicode="&#xdc;" horiz-adv-x="676" 
d="M350 919q67 0 67 -56q0 -34 -21.5 -60.5t-68.5 -26.5q-67 0 -67 55q0 36 21 62t69 26zM559 919q67 0 67 -56q0 -34 -21.5 -60.5t-68.5 -26.5q-67 0 -67 55q0 36 21 62t69 26zM692 691l-72 -408q-24 -141 -109 -217.5t-213 -76.5q-133 0 -193.5 80t-35.5 222l70 402
q2 11 13 11h113q13 0 11 -13l-71 -408q-13 -84 13.5 -127t89.5 -43q68 0 115 47t61 131l70 402q2 11 13 11h114q13 0 11 -13z" />
    <glyph glyph-name="Yacute" unicode="&#xdd;" horiz-adv-x="688" 
d="M464 914h146q8 0 9.5 -4.5t-4.5 -10.5l-129 -112q-6 -6 -14 -6h-104q-8 0 -10 4.5t3 10.5l88 111q6 7 15 7zM732 689l-177 -241q-63 -89 -85.5 -122.5t-45 -86t-32.5 -113.5l-19 -115q-2 -11 -13 -11h-114q-13 0 -11 13l19 113q8 47 9.5 82t-7.5 76t-18.5 70.5
t-33.5 93.5l-95 242q-5 14 10 14h118q9 0 14 -9l62 -152q34 -87 43 -146q1 -5 4 -7t7 0t7 7q47 88 89 146l115 154q4 7 14 7h133q7 0 9.5 -4.5t-2.5 -10.5z" />
    <glyph glyph-name="Thorn" unicode="&#xde;" horiz-adv-x="647" 
d="M269 590h122q107 0 166 -53t59 -145q0 -117 -76.5 -193t-226.5 -76h-125l-19 -112q-2 -11 -13 -11h-114q-13 0 -11 13l118 680q2 11 13 11h114q13 0 11 -13zM248 469l-39 -225h122q70 0 108 39.5t38 90.5q0 42 -27.5 68.5t-77.5 26.5h-124z" />
    <glyph glyph-name="germandbls" unicode="&#xdf;" horiz-adv-x="629" 
d="M21 13l81 472q21 119 94.5 183.5t185.5 64.5q94 0 145 -39.5t51 -110.5q0 -85 -65 -144l-49 -46q-29 -25 -29 -41q0 -14 24 -31l43 -29q83 -52 83 -121q0 -74 -50.5 -128t-156.5 -54q-51 0 -119 21l-39 13q-11 4 -7 16l42 90q5 11 16 6l30 -10q45 -15 81 -15
q34 0 52 12.5t18 33.5q0 20 -22 35l-55 36q-72 49 -72 114q0 38 12.5 68t48.5 63l42 38q39 35 39 62q0 41 -67 41q-54 0 -92.5 -37.5t-49.5 -100.5l-79 -464q-2 -11 -13 -11h-112q-13 0 -11 13z" />
    <glyph glyph-name="agrave" unicode="&#xe0;" horiz-adv-x="567" 
d="M361 712l40 -136q3 -14 -10 -14h-85q-9 0 -15 9l-72 137q-7 14 9 14h120q10 0 13 -10zM384 12v47q-2 16 -7 17t-22 -16q-61 -71 -143 -71q-84 0 -130.5 49t-46.5 138q0 54 16.5 108.5t50 103.5t93 80t136.5 31q43 0 105 -15l100 -24q11 -3 9 -14l-74 -435q-2 -11 -13 -11
h-62q-12 0 -12 12zM397 364l-22 7q-24 7 -50 7q-52 0 -89.5 -34.5t-52.5 -76t-15 -79.5q0 -37 18.5 -57.5t50.5 -20.5q53 0 93.5 58t58.5 154z" />
    <glyph glyph-name="aacute" unicode="&#xe1;" horiz-adv-x="567" 
d="M390 722h123q8 0 10 -4.5t-3 -10.5l-120 -138q-6 -7 -15 -7h-89q-17 0 -8 14l88 138q4 8 14 8zM384 12v47q-2 16 -7 17t-22 -16q-61 -71 -143 -71q-84 0 -130.5 49t-46.5 138q0 54 16.5 108.5t50 103.5t93 80t136.5 31q43 0 105 -15l100 -24q11 -3 9 -14l-74 -435
q-2 -11 -13 -11h-62q-12 0 -12 12zM397 364l-22 7q-24 7 -50 7q-52 0 -89.5 -34.5t-52.5 -76t-15 -79.5q0 -37 18.5 -57.5t50.5 -20.5q53 0 93.5 58t58.5 154z" />
    <glyph glyph-name="acircumflex" unicode="&#xe2;" horiz-adv-x="567" 
d="M359 635l-69 -67q-6 -6 -15 -6h-80q-8 0 -9.5 4.5t3.5 10.5l119 138q6 7 15 7h99q9 0 15 -9l72 -137q7 -14 -9 -14h-82q-10 0 -14 8zM436 484l100 -24q11 -3 9 -14l-74 -435q-2 -11 -13 -11h-62q-12 0 -12 12v47q-2 16 -7 17t-22 -16q-61 -71 -143 -71q-84 0 -130.5 49
t-46.5 138q0 54 16.5 108.5t50 103.5t93 80t136.5 31q43 0 105 -15zM397 364l-22 7q-24 7 -50 7q-52 0 -89.5 -34.5t-52.5 -76t-15 -79.5q0 -37 18.5 -57.5t50.5 -20.5q53 0 93.5 58t58.5 154z" />
    <glyph glyph-name="atilde" unicode="&#xe3;" horiz-adv-x="567" 
d="M187 599l32 49q38 58 105 58q26 0 50 -17l29 -20q10 -8 19 -8t22 17l13 17q4 7 14 7h68q7 0 9 -4t-2 -11l-32 -49q-37 -57 -103 -57q-26 0 -50 16l-28 18q-16 10 -21 10q-11 0 -23 -16l-13 -18q-4 -7 -14 -7h-68q-7 0 -9 4t2 11zM384 12v47q-2 16 -7 17t-22 -16
q-61 -71 -143 -71q-84 0 -130.5 49t-46.5 138q0 54 16.5 108.5t50 103.5t93 80t136.5 31q43 0 105 -15l100 -24q11 -3 9 -14l-74 -435q-2 -11 -13 -11h-62q-12 0 -12 12zM397 364l-22 7q-24 7 -50 7q-52 0 -89.5 -34.5t-52.5 -76t-15 -79.5q0 -37 18.5 -57.5t50.5 -20.5
q53 0 93.5 58t58.5 154z" />
    <glyph glyph-name="adieresis" unicode="&#xe4;" horiz-adv-x="567" 
d="M276 740q32 0 49.5 -16.5t17.5 -46.5q0 -35 -19 -59.5t-57 -24.5q-32 0 -49.5 17t-17.5 47q0 40 20.5 61.5t55.5 21.5zM465 740q32 0 49.5 -16.5t17.5 -46.5q0 -35 -19 -59.5t-57 -24.5q-32 0 -49.5 17t-17.5 47q0 40 20.5 61.5t55.5 21.5zM384 12v47q-2 16 -7 17
t-22 -16q-61 -71 -143 -71q-84 0 -130.5 49t-46.5 138q0 54 16.5 108.5t50 103.5t93 80t136.5 31q43 0 105 -15l100 -24q11 -3 9 -14l-74 -435q-2 -11 -13 -11h-62q-12 0 -12 12zM397 364l-22 7q-24 7 -50 7q-52 0 -89.5 -34.5t-52.5 -76t-15 -79.5q0 -37 18.5 -57.5
t50.5 -20.5q53 0 93.5 58t58.5 154z" />
    <glyph glyph-name="aring" unicode="&#xe5;" horiz-adv-x="567" 
d="M376 731q40 0 62.5 -19t22.5 -53q0 -39 -27.5 -72t-84.5 -33q-42 0 -64 18.5t-22 51.5q0 44 28 75.5t85 31.5zM370 677q-19 0 -30.5 -12t-12.5 -31q-1 -12 6.5 -19.5t21.5 -7.5q19 0 30.5 12.5t11.5 32.5q0 25 -27 25zM384 12v47q-2 16 -7 17t-22 -16q-61 -71 -143 -71
q-84 0 -130.5 49t-46.5 138q0 54 16.5 108.5t50 103.5t93 80t136.5 31q43 0 105 -15l100 -24q11 -3 9 -14l-74 -435q-2 -11 -13 -11h-62q-12 0 -12 12zM397 364l-22 7q-24 7 -50 7q-52 0 -89.5 -34.5t-52.5 -76t-15 -79.5q0 -37 18.5 -57.5t50.5 -20.5q53 0 93.5 58
t58.5 154z" />
    <glyph glyph-name="ae" unicode="&#xe6;" horiz-adv-x="856" 
d="M482 459l-6 -35q-4 -17 0.5 -18.5t15.5 12.5q68 81 172 81q78 0 123.5 -38t45.5 -104t-39.5 -109t-135.5 -56l-144 -20q8 -62 79 -62q41 0 78 9l58 15q12 3 14 -10l9 -94q2 -11 -10 -14l-57 -15q-47 -12 -95 -12q-120 0 -172 75q-11 17 -17 18t-20 -15q-68 -78 -167 -78
q-88 0 -133.5 49.5t-45.5 141.5q0 52 17.5 106t51.5 102.5t92 79.5t130 31q48 0 123 -19l24 -7q11 -3 9 -14zM398 363l-23 8q-25 7 -55 7q-49 0 -85.5 -33t-51.5 -74t-15 -78q0 -43 17.5 -63t56.5 -20q47 0 85 48.5t51 111.5zM524 274l122 17q26 4 41 17t15 31q0 39 -54 39
q-91 0 -124 -104z" />
    <glyph glyph-name="ccedilla" unicode="&#xe7;" horiz-adv-x="477" 
d="M404 359l-33 10q-28 9 -54 9q-41 0 -72 -18.5t-46.5 -48t-23 -58.5t-7.5 -56q0 -87 85 -87q33 0 74 11l41 11q12 4 14 -10l12 -94q2 -11 -10 -14l-48 -13q-42 -12 -89 -12h-3l-15 -25h7q27 0 44 -18.5t17 -51.5q0 -47 -32 -84.5t-96 -37.5q-24 0 -51 9l-15 5q-12 4 -6 16
l32 62q5 11 16 6l12 -4q12 -4 28 -4q30 0 30 28q0 20 -25 20h-35q-9 0 -14 9q-4 5 1 13l34 65q-69 16 -105 66t-36 127q0 42 9 83.5t30.5 82.5t53 72.5t81.5 51t112 19.5q35 0 84 -14l51 -15q13 -5 7 -16l-43 -88q-4 -10 -16 -7z" />
    <glyph glyph-name="egrave" unicode="&#xe8;" horiz-adv-x="511" 
d="M328 712l40 -136q3 -14 -10 -14h-85q-9 0 -15 9l-72 137q-7 14 9 14h120q10 0 13 -10zM397 15l-56 -14q-45 -12 -96 -12q-101 0 -155.5 53.5t-54.5 147.5q0 41 9 82.5t30 83t51.5 73t78.5 51t106 19.5q84 0 131 -38t47 -104q0 -65 -38.5 -108t-136.5 -57l-145 -20
q5 -62 81 -62q43 0 84 10l52 14q12 3 14 -10l8 -95q2 -11 -10 -14zM177 274l125 17q56 9 56 49q0 38 -55 38q-90 0 -126 -104z" />
    <glyph glyph-name="eacute" unicode="&#xe9;" horiz-adv-x="511" 
d="M357 722h123q8 0 10 -4.5t-3 -10.5l-120 -138q-6 -7 -15 -7h-89q-17 0 -8 14l88 138q4 8 14 8zM397 15l-56 -14q-45 -12 -96 -12q-101 0 -155.5 53.5t-54.5 147.5q0 41 9 82.5t30 83t51.5 73t78.5 51t106 19.5q84 0 131 -38t47 -104q0 -65 -38.5 -108t-136.5 -57
l-145 -20q5 -62 81 -62q43 0 84 10l52 14q12 3 14 -10l8 -95q2 -11 -10 -14zM177 274l125 17q56 9 56 49q0 38 -55 38q-90 0 -126 -104z" />
    <glyph glyph-name="ecircumflex" unicode="&#xea;" horiz-adv-x="511" 
d="M326 635l-69 -67q-6 -6 -15 -6h-80q-8 0 -9.5 4.5t3.5 10.5l119 138q6 7 15 7h99q9 0 15 -9l72 -137q7 -14 -9 -14h-82q-10 0 -14 8zM397 15l-56 -14q-45 -12 -96 -12q-101 0 -155.5 53.5t-54.5 147.5q0 41 9 82.5t30 83t51.5 73t78.5 51t106 19.5q84 0 131 -38t47 -104
q0 -65 -38.5 -108t-136.5 -57l-145 -20q5 -62 81 -62q43 0 84 10l52 14q12 3 14 -10l8 -95q2 -11 -10 -14zM177 274l125 17q56 9 56 49q0 38 -55 38q-90 0 -126 -104z" />
    <glyph glyph-name="edieresis" unicode="&#xeb;" horiz-adv-x="511" 
d="M243 740q32 0 49.5 -16.5t17.5 -46.5q0 -35 -19 -59.5t-57 -24.5q-32 0 -49.5 17t-17.5 47q0 40 20.5 61.5t55.5 21.5zM432 740q32 0 49.5 -16.5t17.5 -46.5q0 -35 -19 -59.5t-57 -24.5q-32 0 -49.5 17t-17.5 47q0 40 20.5 61.5t55.5 21.5zM397 15l-56 -14
q-45 -12 -96 -12q-101 0 -155.5 53.5t-54.5 147.5q0 41 9 82.5t30 83t51.5 73t78.5 51t106 19.5q84 0 131 -38t47 -104q0 -65 -38.5 -108t-136.5 -57l-145 -20q5 -62 81 -62q43 0 84 10l52 14q12 3 14 -10l8 -95q2 -11 -10 -14zM177 274l125 17q56 9 56 49q0 38 -55 38
q-90 0 -126 -104z" />
    <glyph glyph-name="igrave" unicode="&#xec;" horiz-adv-x="295" 
d="M124 722h117q10 0 12 -11l18 -136q2 -13 -11 -13h-85q-10 0 -13 10l-48 136q-5 14 10 14zM181 0h-112q-13 0 -11 13l62 356h-49q-13 0 -11 13l16 95q2 11 13 11h174q13 0 11 -13l-80 -464q-2 -11 -13 -11z" />
    <glyph glyph-name="iacute" unicode="&#xed;" horiz-adv-x="295" 
d="M357 707l-97 -137q-4 -8 -14 -8h-82q-16 0 -9 14l64 137q5 9 14 9h116q16 0 8 -15zM181 0h-112q-13 0 -11 13l62 356h-49q-13 0 -11 13l16 95q2 11 13 11h174q13 0 11 -13l-80 -464q-2 -11 -13 -11z" />
    <glyph glyph-name="icircumflex" unicode="&#xee;" horiz-adv-x="295" 
d="M222 630l-54 -61q-6 -7 -15 -7h-76q-16 0 -8 15l99 138q4 7 14 7h108q10 0 14 -10l51 -136q5 -14 -10 -14h-77q-9 0 -15 9zM60 382l16 95q2 11 13 11h174q13 0 11 -13l-80 -464q-2 -11 -13 -11h-112q-13 0 -11 13l62 356h-49q-13 0 -11 13z" />
    <glyph glyph-name="idieresis" unicode="&#xef;" horiz-adv-x="295" 
d="M136 738q32 0 49.5 -16.5t17.5 -46.5q0 -35 -19 -59.5t-57 -24.5q-32 0 -49.5 17t-17.5 47q0 40 20.5 61.5t55.5 21.5zM319 738q32 0 49.5 -16.5t17.5 -46.5q0 -35 -19 -59.5t-57 -24.5q-32 0 -49.5 17t-17.5 47q0 40 20.5 61.5t55.5 21.5zM181 0h-112q-13 0 -11 13
l62 356h-49q-13 0 -11 13l16 95q2 11 13 11h174q13 0 11 -13l-80 -464q-2 -11 -13 -11z" />
    <glyph glyph-name="eth" unicode="&#xf0;" horiz-adv-x="553" 
d="M532 641l-71 -32q66 -97 66 -222q0 -58 -7.5 -110t-28 -106t-52.5 -93t-84.5 -63.5t-120.5 -24.5q-96 0 -149.5 51t-53.5 141q0 38 9 77t28.5 77t48 67.5t71 47.5t93.5 18q67 0 106 -28q12 -7 17 -2.5t0 14.5q-18 45 -62 102l-88 -39q-11 -5 -16 6l-14 27q-5 11 6 16
l75 34l-95 108q-5 6 -3 10.5t10 4.5h140q9 0 15 -7l48 -53l7 -8l82 38q11 5 16 -6l13 -29q5 -11 -6 -16zM243 110q47 0 80 27.5t45.5 62t12.5 70.5q0 79 -80 79q-68 0 -103 -51t-35 -108q0 -39 21 -59.5t59 -20.5z" />
    <glyph glyph-name="ntilde" unicode="&#xf1;" 
d="M180 599l32 49q38 58 105 58q26 0 50 -17l29 -20q10 -8 19 -8t22 17l13 17q4 7 14 7h68q7 0 9 -4t-2 -11l-32 -49q-37 -57 -103 -57q-26 0 -50 16l-28 18q-16 10 -21 10q-11 0 -23 -16l-13 -18q-4 -7 -14 -7h-68q-7 0 -9 4t2 11zM187 478l7 -29q5 -10 10 -9.5t18 9.5
q61 50 134 50q89 0 130 -52t25 -141l-51 -295q-2 -11 -13 -11h-112q-13 0 -11 13l50 287q14 78 -50 78q-49 0 -82.5 -35t-44.5 -96l-40 -236q-2 -11 -13 -11h-112q-13 0 -11 13l80 464q2 11 13 11h60q12 0 13 -10z" />
    <glyph glyph-name="ograve" unicode="&#xf2;" horiz-adv-x="555" 
d="M345 712l40 -136q3 -14 -10 -14h-85q-9 0 -15 9l-72 137q-7 14 9 14h120q10 0 13 -10zM313 499q98 0 152 -54t54 -148q0 -40 -9 -81t-30 -82.5t-52 -73t-79 -51.5t-107 -20q-98 0 -152.5 54t-54.5 148q0 40 9 81t30.5 82.5t52.5 73t79.5 51.5t106.5 20zM308 378
q-48 0 -81.5 -32t-46 -70.5t-12.5 -76.5q0 -89 78 -89q47 0 81 32t47 70.5t13 76.5q0 43 -20.5 66t-58.5 23z" />
    <glyph glyph-name="oacute" unicode="&#xf3;" horiz-adv-x="555" 
d="M374 722h123q8 0 10 -4.5t-3 -10.5l-120 -138q-6 -7 -15 -7h-89q-17 0 -8 14l88 138q4 8 14 8zM313 499q98 0 152 -54t54 -148q0 -40 -9 -81t-30 -82.5t-52 -73t-79 -51.5t-107 -20q-98 0 -152.5 54t-54.5 148q0 40 9 81t30.5 82.5t52.5 73t79.5 51.5t106.5 20zM308 378
q-48 0 -81.5 -32t-46 -70.5t-12.5 -76.5q0 -89 78 -89q47 0 81 32t47 70.5t13 76.5q0 43 -20.5 66t-58.5 23z" />
    <glyph glyph-name="ocircumflex" unicode="&#xf4;" horiz-adv-x="555" 
d="M344 635l-69 -67q-6 -6 -15 -6h-80q-8 0 -9.5 4.5t3.5 10.5l119 138q6 7 15 7h99q9 0 15 -9l72 -137q7 -14 -9 -14h-82q-10 0 -14 8zM313 499q98 0 152 -54t54 -148q0 -40 -9 -81t-30 -82.5t-52 -73t-79 -51.5t-107 -20q-98 0 -152.5 54t-54.5 148q0 40 9 81t30.5 82.5
t52.5 73t79.5 51.5t106.5 20zM246 110q47 0 81 32t47 70.5t13 76.5q0 43 -20.5 66t-58.5 23q-48 0 -81.5 -32t-46 -70.5t-12.5 -76.5q0 -89 78 -89z" />
    <glyph glyph-name="otilde" unicode="&#xf5;" horiz-adv-x="555" 
d="M171 599l32 49q38 58 105 58q26 0 50 -17l29 -20q10 -8 19 -8t22 17l13 17q4 7 14 7h68q7 0 9 -4t-2 -11l-32 -49q-37 -57 -103 -57q-26 0 -50 16l-28 18q-16 10 -21 10q-11 0 -23 -16l-13 -18q-4 -7 -14 -7h-68q-7 0 -9 4t2 11zM313 499q98 0 152 -54t54 -148
q0 -40 -9 -81t-30 -82.5t-52 -73t-79 -51.5t-107 -20q-98 0 -152.5 54t-54.5 148q0 40 9 81t30.5 82.5t52.5 73t79.5 51.5t106.5 20zM308 378q-48 0 -81.5 -32t-46 -70.5t-12.5 -76.5q0 -89 78 -89q47 0 81 32t47 70.5t13 76.5q0 43 -20.5 66t-58.5 23z" />
    <glyph glyph-name="odieresis" unicode="&#xf6;" horiz-adv-x="555" 
d="M260 740q32 0 49.5 -16.5t17.5 -46.5q0 -35 -19 -59.5t-57 -24.5q-32 0 -49.5 17t-17.5 47q0 40 20.5 61.5t55.5 21.5zM449 740q32 0 49.5 -16.5t17.5 -46.5q0 -35 -19 -59.5t-57 -24.5q-32 0 -49.5 17t-17.5 47q0 40 20.5 61.5t55.5 21.5zM313 499q98 0 152 -54t54 -148
q0 -40 -9 -81t-30 -82.5t-52 -73t-79 -51.5t-107 -20q-98 0 -152.5 54t-54.5 148q0 40 9 81t30.5 82.5t52.5 73t79.5 51.5t106.5 20zM308 378q-48 0 -81.5 -32t-46 -70.5t-12.5 -76.5q0 -89 78 -89q47 0 81 32t47 70.5t13 76.5q0 43 -20.5 66t-58.5 23z" />
    <glyph glyph-name="oslash" unicode="&#xf8;" horiz-adv-x="555" 
d="M542 473l-54 -55q32 -49 32 -121q0 -40 -9 -81t-30.5 -82t-52.5 -73t-79 -52t-107 -20q-85 0 -139 42l-24 -25q-6 -6 -15 -6h-46q-8 0 -10 4.5t4 10.5l55 55q-32 50 -32 121q0 40 9 81t30.5 82.5t52.5 73t79.5 51.5t106.5 20q85 0 138 -42l25 25q6 6 15 6h45q8 0 10 -4.5
t-4 -10.5zM164 168l196 197q-20 13 -51 13q-51 0 -87 -32t-49 -70.5t-13 -76.5q0 -19 4 -31zM391 321l-196 -198q19 -13 51 -13q38 0 68.5 18t47 46.5t25 58t8.5 56.5q0 19 -4 32z" />
    <glyph glyph-name="ugrave" unicode="&#xf9;" 
d="M344 712l40 -136q3 -14 -10 -14h-85q-9 0 -15 9l-72 137q-7 14 9 14h120q10 0 13 -10zM370 10l-7 29q-5 10 -10 9.5t-18 -9.5q-61 -50 -134 -50q-89 0 -130 52t-25 141l51 295q2 11 13 11h112q13 0 11 -13l-50 -287q-13 -78 50 -78q49 0 82.5 35t44.5 96l40 236
q2 11 13 11h112q13 0 11 -13l-80 -464q-2 -11 -13 -11h-60q-12 0 -13 10z" />
    <glyph glyph-name="uacute" unicode="&#xfa;" 
d="M373 722h123q8 0 10 -4.5t-3 -10.5l-120 -138q-6 -7 -15 -7h-89q-17 0 -8 14l88 138q4 8 14 8zM370 10l-7 29q-5 10 -10 9.5t-18 -9.5q-61 -50 -134 -50q-89 0 -130 52t-25 141l51 295q2 11 13 11h112q13 0 11 -13l-50 -287q-13 -78 50 -78q49 0 82.5 35t44.5 96l40 236
q2 11 13 11h112q13 0 11 -13l-80 -464q-2 -11 -13 -11h-60q-12 0 -13 10z" />
    <glyph glyph-name="ucircumflex" unicode="&#xfb;" 
d="M343 635l-69 -67q-6 -6 -15 -6h-80q-8 0 -9.5 4.5t3.5 10.5l119 138q6 7 15 7h99q9 0 15 -9l72 -137q7 -14 -9 -14h-82q-10 0 -14 8zM413 488h112q13 0 11 -13l-80 -464q-2 -11 -13 -11h-60q-12 0 -13 10l-7 29q-5 10 -10 9.5t-18 -9.5q-61 -50 -134 -50q-89 0 -130 52
t-25 141l51 295q2 11 13 11h112q13 0 11 -13l-50 -287q-13 -78 50 -78q49 0 82.5 35t44.5 96l40 236q2 11 13 11z" />
    <glyph glyph-name="udieresis" unicode="&#xfc;" 
d="M260 740q32 0 49.5 -16.5t17.5 -46.5q0 -35 -19 -59.5t-57 -24.5q-32 0 -49.5 17t-17.5 47q0 40 20.5 61.5t55.5 21.5zM449 740q32 0 49.5 -16.5t17.5 -46.5q0 -35 -19 -59.5t-57 -24.5q-32 0 -49.5 17t-17.5 47q0 40 20.5 61.5t55.5 21.5zM370 10l-7 29q-5 10 -10 9.5
t-18 -9.5q-61 -50 -134 -50q-89 0 -130 52t-25 141l51 295q2 11 13 11h112q13 0 11 -13l-50 -287q-13 -78 50 -78q49 0 82.5 35t44.5 96l40 236q2 11 13 11h112q13 0 11 -13l-80 -464q-2 -11 -13 -11h-60q-12 0 -13 10z" />
    <glyph glyph-name="yacute" unicode="&#xfd;" horiz-adv-x="563" 
d="M372 722h123q8 0 10 -4.5t-3 -10.5l-120 -138q-6 -7 -15 -7h-89q-17 0 -8 14l88 138q4 8 14 8zM175 -217h-116q-7 0 -9.5 4t1.5 10l63 113q31 59 33 129t-21 183l-57 253q-3 13 11 13h114q12 0 13 -11l34 -149q17 -83 15 -160q0 -8 3 -11t7.5 0t7.5 11q28 78 71 159
l86 153q6 8 15 8h119q7 0 9.5 -4t-1.5 -10l-383 -683q-6 -8 -15 -8z" />
    <glyph glyph-name="thorn" unicode="&#xfe;" horiz-adv-x="573" 
d="M277 709l-22 -131q-12 -67 -41 -115q-5 -9 -0.5 -13t14.5 2q61 47 123 47q90 0 138 -52t48 -145q0 -54 -15.5 -106.5t-46.5 -100t-88 -77t-131 -29.5q-39 0 -74 16l-25 12l-38 -223q-2 -11 -13 -11h-112q-13 0 -11 13l159 915q2 11 13 11h111q13 0 11 -13zM176 131l21 -9
q27 -12 63 -12q71 0 107.5 59t36.5 125q0 84 -74 84q-54 0 -90.5 -41.5t-48.5 -114.5z" />
    <glyph glyph-name="ydieresis" unicode="&#xff;" horiz-adv-x="563" 
d="M258 740q32 0 49.5 -16.5t17.5 -46.5q0 -35 -19 -59.5t-57 -24.5q-32 0 -49.5 17t-17.5 47q0 40 20.5 61.5t55.5 21.5zM447 740q32 0 49.5 -16.5t17.5 -46.5q0 -35 -19 -59.5t-57 -24.5q-32 0 -49.5 17t-17.5 47q0 40 20.5 61.5t55.5 21.5zM175 -217h-116q-7 0 -9.5 4
t1.5 10l63 113q31 59 33 129t-21 183l-57 253q-3 13 11 13h114q12 0 13 -11l34 -149q17 -83 15 -160q0 -8 3 -11t7.5 0t7.5 11q28 78 71 159l86 153q6 8 15 8h119q7 0 9.5 -4t-1.5 -10l-383 -683q-6 -8 -15 -8z" />
    <glyph glyph-name="Amacron" unicode="&#x100;" horiz-adv-x="735" 
d="M335 893h304q13 0 11 -13l-13 -72q-2 -11 -13 -11h-304q-13 0 -11 13l13 72q2 11 13 11zM199 114l-57 -106q-6 -8 -15 -8h-124q-7 0 -9.5 4t1.5 10l228 411q95 176 134 270q5 9 14 9h155q12 0 13 -12q7 -102 38 -267l84 -412q3 -13 -10 -13h-114q-11 0 -13 11l-21 103
h-304zM479 235l-18 85q-27 147 -27 212q-1 9 -7.5 9t-10.5 -9q-34 -87 -103 -212l-47 -85h213z" />
    <glyph glyph-name="amacron" unicode="&#x101;" horiz-adv-x="567" 
d="M242 686h253q13 0 11 -13l-12 -68q-2 -11 -13 -11h-254q-13 0 -11 13l13 68q2 11 13 11zM384 12v47q-2 16 -7 17t-22 -16q-61 -71 -143 -71q-84 0 -130.5 49t-46.5 138q0 54 16.5 108.5t50 103.5t93 80t136.5 31q43 0 105 -15l100 -24q11 -3 9 -14l-74 -435
q-2 -11 -13 -11h-62q-12 0 -12 12zM397 364l-22 7q-24 7 -50 7q-52 0 -89.5 -34.5t-52.5 -76t-15 -79.5q0 -37 18.5 -57.5t50.5 -20.5q53 0 93.5 58t58.5 154z" />
    <glyph glyph-name="Abreve" unicode="&#x102;" horiz-adv-x="735" 
d="M637 901l-2 -11q-22 -120 -168 -120q-76 0 -107 29t-20 91l2 13q2 11 13 11h80q13 0 11 -13l-1 -3q-7 -39 37 -39q42 0 49 39l1 5q2 11 13 11h81q13 0 11 -13zM199 114l-57 -106q-6 -8 -15 -8h-124q-7 0 -9.5 4t1.5 10l228 411q95 176 134 270q5 9 14 9h155q12 0 13 -12
q7 -102 38 -267l84 -412q3 -13 -10 -13h-114q-11 0 -13 11l-21 103h-304zM479 235l-18 85q-27 147 -27 212q-1 9 -7.5 9t-10.5 -9q-34 -87 -103 -212l-47 -85h213z" />
    <glyph glyph-name="abreve" unicode="&#x103;" horiz-adv-x="567" 
d="M510 709l-5 -28q-10 -61 -51 -94t-103 -33q-66 0 -96 37t-19 100l3 20q2 11 13 11h69q13 0 10 -13l-6 -34q-5 -36 34 -36q22 0 36.5 13.5t16.5 32.5l5 26q2 11 13 11h69q13 0 11 -13zM384 12v47q-2 16 -7 17t-22 -16q-61 -71 -143 -71q-84 0 -130.5 49t-46.5 138
q0 54 16.5 108.5t50 103.5t93 80t136.5 31q43 0 105 -15l100 -24q11 -3 9 -14l-74 -435q-2 -11 -13 -11h-62q-12 0 -12 12zM397 364l-22 7q-24 7 -50 7q-52 0 -89.5 -34.5t-52.5 -76t-15 -79.5q0 -37 18.5 -57.5t50.5 -20.5q53 0 93.5 58t58.5 154z" />
    <glyph glyph-name="Aogonek" unicode="&#x104;" horiz-adv-x="735" 
d="M621 -54l-56 -43q-14 -12 -14 -24q0 -13 14 -13q12 0 29 5l9 3q12 5 14 -9l12 -64q2 -11 -9 -14l-18 -6q-24 -9 -55 -9q-46 0 -73.5 20t-27.5 55q0 49 49 88l37 31q13 9 17 16.5t1 12t-13 5.5q-11 0 -13 11l-21 103h-304l-57 -106q-6 -8 -15 -8h-124q-7 0 -9.5 4t1.5 10
l228 411q95 176 134 270q5 9 14 9h155q12 0 13 -12q7 -102 38 -267l86 -418q1 -7 0 -14q-4 -17 -42 -47zM479 235l-18 85q-27 147 -27 212q-1 9 -7.5 9t-10.5 -9q-34 -87 -103 -212l-47 -85h213z" />
    <glyph glyph-name="aogonek" unicode="&#x105;" horiz-adv-x="567" 
d="M436 484l100 -24q11 -3 9 -14l-76 -446q-4 -24 -43 -54l-55 -43q-15 -12 -15 -24q0 -13 14 -13q12 0 29 5l9 3q12 5 14 -9l13 -64q2 -11 -9 -14l-18 -6q-26 -9 -55 -9q-47 0 -74 20t-27 55q0 51 49 88l54 41q25 18 29 28v55q-2 16 -7 17t-22 -16q-61 -71 -143 -71
q-84 0 -130.5 49t-46.5 138q0 54 16.5 108.5t50 103.5t93 80t136.5 31q43 0 105 -15zM397 364l-22 7q-24 7 -50 7q-52 0 -89.5 -34.5t-52.5 -76t-15 -79.5q0 -37 18.5 -57.5t50.5 -20.5q53 0 93.5 58t58.5 154z" />
    <glyph glyph-name="Cacute" unicode="&#x106;" horiz-adv-x="627" 
d="M467 912h146q8 0 9.5 -4.5t-4.5 -10.5l-129 -112q-6 -6 -14 -6h-104q-8 0 -10 4.5t3 10.5l88 111q6 7 15 7zM525 25l-52 -16q-67 -20 -149 -20q-125 0 -194.5 74.5t-69.5 204.5q0 57 12.5 116t41.5 119t71.5 106.5t109 75.5t146.5 29q71 0 146 -27l40 -14q12 -3 6 -16
l-47 -89q-5 -11 -16 -6l-42 14q-40 15 -97 15q-60 0 -107 -32t-73 -82t-39 -102t-13 -100q0 -162 140 -162q49 0 113 19l48 14q12 5 14 -8l20 -99q2 -11 -9 -14z" />
    <glyph glyph-name="cacute" unicode="&#x107;" horiz-adv-x="477" 
d="M356 722h123q8 0 10 -4.5t-3 -10.5l-120 -138q-6 -7 -15 -7h-89q-17 0 -8 14l88 138q4 8 14 8zM384 14l-48 -13q-42 -12 -89 -12q-103 0 -157.5 53.5t-54.5 147.5q0 42 9 83.5t30.5 82.5t53 72.5t81.5 51t112 19.5q35 0 84 -14l51 -15q13 -5 7 -16l-43 -88q-4 -10 -16 -7
l-33 10q-28 9 -54 9q-41 0 -72 -18.5t-46.5 -48t-23 -58.5t-7.5 -56q0 -87 85 -87q33 0 74 11l41 11q12 4 14 -10l12 -94q2 -11 -10 -14z" />
    <glyph glyph-name="Ccircumflex" unicode="&#x108;" horiz-adv-x="627" 
d="M442 836l-72 -52q-6 -5 -15 -5h-94q-8 0 -10 4.5t4 10.5l116 112q6 6 15 6h135q10 0 14 -8l78 -110q8 -15 -8 -15h-97q-9 0 -15 6zM570 562l-42 14q-40 15 -97 15q-60 0 -107 -32t-73 -82t-39 -102t-13 -100q0 -162 140 -162q49 0 113 19l48 14q12 5 14 -8l20 -99
q2 -11 -9 -14l-52 -16q-67 -20 -149 -20q-125 0 -194.5 74.5t-69.5 204.5q0 57 12.5 116t41.5 119t71.5 106.5t109 75.5t146.5 29q71 0 146 -27l40 -14q12 -3 6 -16l-47 -89q-5 -11 -16 -6z" />
    <glyph glyph-name="ccircumflex" unicode="&#x109;" horiz-adv-x="477" 
d="M326 635l-69 -67q-6 -6 -15 -6h-80q-8 0 -9.5 4.5t3.5 10.5l119 138q6 7 15 7h99q9 0 15 -9l72 -137q7 -14 -9 -14h-82q-10 0 -14 8zM384 14l-48 -13q-42 -12 -89 -12q-103 0 -157.5 53.5t-54.5 147.5q0 42 9 83.5t30.5 82.5t53 72.5t81.5 51t112 19.5q35 0 84 -14
l51 -15q13 -5 7 -16l-43 -88q-4 -10 -16 -7l-33 10q-28 9 -54 9q-41 0 -72 -18.5t-46.5 -48t-23 -58.5t-7.5 -56q0 -87 85 -87q33 0 74 11l41 11q12 4 14 -10l12 -94q2 -11 -10 -14z" />
    <glyph glyph-name="Cdotaccent" unicode="&#x10a;" horiz-adv-x="627" 
d="M455 917q73 0 73 -56q0 -34 -23.5 -60.5t-74.5 -26.5q-73 0 -73 55q0 36 23 62t75 26zM525 25l-52 -16q-67 -20 -149 -20q-125 0 -194.5 74.5t-69.5 204.5q0 57 12.5 116t41.5 119t71.5 106.5t109 75.5t146.5 29q71 0 146 -27l40 -14q12 -3 6 -16l-47 -89q-5 -11 -16 -6
l-42 14q-40 15 -97 15q-60 0 -107 -32t-73 -82t-39 -102t-13 -100q0 -162 140 -162q49 0 113 19l48 14q12 5 14 -8l20 -99q2 -11 -9 -14z" />
    <glyph glyph-name="cdotaccent" unicode="&#x10b;" horiz-adv-x="477" 
d="M336 734q34 0 53 -18.5t19 -50.5q0 -38 -20 -64.5t-62 -26.5q-35 0 -54 18t-19 51q0 44 22 67.5t61 23.5zM384 14l-48 -13q-42 -12 -89 -12q-103 0 -157.5 53.5t-54.5 147.5q0 42 9 83.5t30.5 82.5t53 72.5t81.5 51t112 19.5q35 0 84 -14l51 -15q13 -5 7 -16l-43 -88
q-4 -10 -16 -7l-33 10q-28 9 -54 9q-41 0 -72 -18.5t-46.5 -48t-23 -58.5t-7.5 -56q0 -87 85 -87q33 0 74 11l41 11q12 4 14 -10l12 -94q2 -11 -10 -14z" />
    <glyph glyph-name="Ccaron" unicode="&#x10c;" horiz-adv-x="627" 
d="M501 778h-135q-10 0 -14 8l-78 110q-8 15 8 15h97q9 0 15 -6l51 -51l72 52q6 5 15 5h94q8 0 10 -4.5t-4 -10.5l-116 -112q-6 -6 -15 -6zM525 25l-52 -16q-67 -20 -149 -20q-125 0 -194.5 74.5t-69.5 204.5q0 57 12.5 116t41.5 119t71.5 106.5t109 75.5t146.5 29
q71 0 146 -27l40 -14q12 -3 6 -16l-47 -89q-5 -11 -16 -6l-42 14q-40 15 -97 15q-60 0 -107 -32t-73 -82t-39 -102t-13 -100q0 -162 140 -162q49 0 113 19l48 14q12 5 14 -8l20 -99q2 -11 -9 -14z" />
    <glyph glyph-name="ccaron" unicode="&#x10d;" horiz-adv-x="477" 
d="M364 562h-99q-9 0 -15 9l-72 137q-7 14 9 14h82q10 0 14 -8l45 -65l69 67q6 6 15 6h80q8 0 9.5 -4.5t-3.5 -10.5l-119 -138q-6 -7 -15 -7zM384 14l-48 -13q-42 -12 -89 -12q-103 0 -157.5 53.5t-54.5 147.5q0 42 9 83.5t30.5 82.5t53 72.5t81.5 51t112 19.5q35 0 84 -14
l51 -15q13 -5 7 -16l-43 -88q-4 -10 -16 -7l-33 10q-28 9 -54 9q-41 0 -72 -18.5t-46.5 -48t-23 -58.5t-7.5 -56q0 -87 85 -87q33 0 74 11l41 11q12 4 14 -10l12 -94q2 -11 -10 -14z" />
    <glyph glyph-name="Dcaron" unicode="&#x10e;" horiz-adv-x="687" 
d="M492 780h-135q-10 0 -14 8l-78 110q-8 15 8 15h97q9 0 15 -6l51 -51l72 52q6 5 15 5h94q8 0 10 -4.5t-4 -10.5l-116 -112q-6 -6 -15 -6zM162 704h239q125 0 194 -72t69 -198q0 -57 -12.5 -115t-42 -116t-71.5 -102.5t-107 -72.5t-143 -28h-246q-13 0 -11 13l118 680
q2 11 13 11zM188 121h112q58 0 104 31t71 79.5t37.5 99t12.5 97.5q0 75 -35 115t-102 40h-120z" />
    <glyph glyph-name="dcaron" unicode="&#x10f;" horiz-adv-x="578" 
d="M591 709l-120 -698q-2 -11 -13 -11h-59q-11 0 -13 11l-6 27q-4 11 -9 11.5t-19 -10.5q-60 -50 -133 -50q-88 0 -136 52.5t-48 144.5q0 52 15 104t45 100t84.5 78.5t125.5 30.5q52 0 84 -16l25 -12l42 240q2 11 13 11h111q13 0 11 -13zM663 722h77q13 0 10 -13l-6 -33
q-5 -43 -38 -91l-10 -15q-4 -8 -14 -8h-62q-16 0 -9 14l8 20q15 28 24 75l7 40q2 11 13 11zM396 356l-22 10q-26 12 -64 12q-49 0 -83 -32t-46.5 -71t-12.5 -77q0 -88 79 -88q50 0 83.5 33t43.5 90z" />
    <glyph glyph-name="Dcroat" unicode="&#x110;" horiz-adv-x="742" 
d="M217 704h239q125 0 194 -72t69 -198q0 -57 -12.5 -115t-42 -116t-71.5 -102.5t-107 -72.5t-143 -28h-246q-13 0 -11 13l50 286h-81q-13 0 -11 13l17 97q2 11 13 11h83l47 273q2 11 13 11zM243 121h112q58 0 104 31t71 79.5t37.5 99t12.5 97.5q0 75 -35 115t-102 40h-120
l-28 -163h117q13 0 11 -13l-17 -97q-2 -11 -13 -11h-119z" />
    <glyph glyph-name="dcroat" unicode="&#x111;" horiz-adv-x="577" 
d="M646 633l-11 -63q-2 -11 -13 -11h-57l-94 -548q-2 -11 -13 -11h-59q-11 0 -13 11l-6 27q-4 11 -9 11.5t-19 -10.5q-60 -50 -133 -50q-88 0 -136 52.5t-48 144.5q0 52 15 104t45 100t84.5 78.5t125.5 30.5q52 0 84 -16l25 -12l15 88h-111q-13 0 -11 13l12 63q2 11 13 11
h113l11 65q2 11 13 11h111q13 0 11 -13l-11 -63h55q13 0 11 -13zM396 356l-22 10q-26 12 -64 12q-49 0 -83 -32t-46.5 -71t-12.5 -77q0 -88 79 -88q50 0 83.5 33t43.5 90z" />
    <glyph glyph-name="Emacron" unicode="&#x112;" horiz-adv-x="611" 
d="M282 893h304q13 0 11 -13l-13 -72q-2 -11 -13 -11h-304q-13 0 -11 13l13 72q2 11 13 11zM241 422h260q13 0 11 -13l-17 -97q-2 -11 -13 -11h-263l-31 -180h342q13 0 11 -13l-18 -97q-2 -11 -13 -11h-468q-13 0 -11 13l118 680q2 11 13 11h471q14 0 9 -14l-45 -98
q-5 -9 -14 -9h-315z" />
    <glyph glyph-name="emacron" unicode="&#x113;" horiz-adv-x="511" 
d="M209 686h253q13 0 11 -13l-12 -68q-2 -11 -13 -11h-254q-13 0 -11 13l13 68q2 11 13 11zM397 15l-56 -14q-45 -12 -96 -12q-101 0 -155.5 53.5t-54.5 147.5q0 41 9 82.5t30 83t51.5 73t78.5 51t106 19.5q84 0 131 -38t47 -104q0 -65 -38.5 -108t-136.5 -57l-145 -20
q5 -62 81 -62q43 0 84 10l52 14q12 3 14 -10l8 -95q2 -11 -10 -14zM177 274l125 17q56 9 56 49q0 38 -55 38q-90 0 -126 -104z" />
    <glyph glyph-name="Ebreve" unicode="&#x114;" horiz-adv-x="611" 
d="M584 901l-2 -11q-22 -120 -168 -120q-76 0 -107 29t-20 91l2 13q2 11 13 11h80q13 0 11 -13l-1 -3q-6 -39 37 -39t49 39l1 5q2 11 13 11h81q13 0 11 -13zM241 422h260q13 0 11 -13l-17 -97q-2 -11 -13 -11h-263l-31 -180h342q13 0 11 -13l-18 -97q-2 -11 -13 -11h-468
q-13 0 -11 13l118 680q2 11 13 11h471q14 0 9 -14l-45 -98q-5 -9 -14 -9h-315z" />
    <glyph glyph-name="ebreve" unicode="&#x115;" horiz-adv-x="511" 
d="M477 709l-5 -28q-10 -61 -51 -94t-103 -33q-66 0 -96 37t-19 100l3 20q2 11 13 11h69q13 0 10 -13l-6 -34q-5 -36 34 -36q22 0 36.5 13.5t16.5 32.5l5 26q2 11 13 11h69q13 0 11 -13zM397 15l-56 -14q-45 -12 -96 -12q-101 0 -155.5 53.5t-54.5 147.5q0 41 9 82.5t30 83
t51.5 73t78.5 51t106 19.5q84 0 131 -38t47 -104q0 -65 -38.5 -108t-136.5 -57l-145 -20q5 -62 81 -62q43 0 84 10l52 14q12 3 14 -10l8 -95q2 -11 -10 -14zM177 274l125 17q56 9 56 49q0 38 -55 38q-90 0 -126 -104z" />
    <glyph glyph-name="Edotaccent" unicode="&#x116;" horiz-adv-x="611" 
d="M438 919q73 0 73 -56q0 -34 -23.5 -60.5t-74.5 -26.5q-73 0 -73 55q0 36 23 62t75 26zM241 422h260q13 0 11 -13l-17 -97q-2 -11 -13 -11h-263l-31 -180h342q13 0 11 -13l-18 -97q-2 -11 -13 -11h-468q-13 0 -11 13l118 680q2 11 13 11h471q14 0 9 -14l-45 -98
q-5 -9 -14 -9h-315z" />
    <glyph glyph-name="edotaccent" unicode="&#x117;" horiz-adv-x="511" 
d="M336 734q34 0 53 -18.5t19 -50.5q0 -38 -20 -64.5t-62 -26.5q-35 0 -54 18t-19 51q0 44 22 67.5t61 23.5zM397 15l-56 -14q-45 -12 -96 -12q-101 0 -155.5 53.5t-54.5 147.5q0 41 9 82.5t30 83t51.5 73t78.5 51t106 19.5q84 0 131 -38t47 -104q0 -65 -38.5 -108
t-136.5 -57l-145 -20q5 -62 81 -62q43 0 84 10l52 14q12 3 14 -10l8 -95q2 -11 -10 -14zM177 274l125 17q56 9 56 49q0 38 -55 38q-90 0 -126 -104z" />
    <glyph glyph-name="Eogonek" unicode="&#x118;" horiz-adv-x="612" 
d="M268 583l-27 -161h260q13 0 11 -13l-17 -97q-2 -11 -13 -11h-263l-31 -180h342q13 0 11 -13l-20 -108q1 0 -0.5 -1t-4.5 -5l-105 -91q-14 -14 -14 -24q0 -13 13 -13q12 0 30 5l10 4q12 4 14 -9l12 -64q2 -10 -9 -15l-19 -6q-24 -9 -55 -9q-46 0 -73.5 20t-27.5 55
q0 44 52 88l35 32q34 29 17 32q-4 1 -10 1h-344q-13 0 -11 13l118 680q2 11 13 11h471q14 0 9 -14l-45 -98q-5 -9 -14 -9h-315z" />
    <glyph glyph-name="eogonek" unicode="&#x119;" horiz-adv-x="511" 
d="M195 -60l49 37q6 4 8.5 7.5t0.5 4.5h-8q-101 0 -155.5 53.5t-54.5 147.5q0 41 9 82.5t30 83t51.5 73t78.5 51t106 19.5q84 0 131 -38t47 -104q0 -65 -38.5 -108t-136.5 -57l-145 -20q5 -62 81 -62q43 0 84 10l52 14q12 3 14 -10l9 -101q5 -3 -8 -13l-142 -109
q-14 -10 -14 -23t16 -13q9 0 27 6l13 4q12 3 14 -9l11 -64q2 -11 -9 -14l-23 -8q-28 -8 -51 -8q-49 0 -75.5 19t-26.5 54q0 54 55 95zM177 274l125 17q56 9 56 49q0 38 -55 38q-90 0 -126 -104z" />
    <glyph glyph-name="Ecaron" unicode="&#x11a;" horiz-adv-x="611" 
d="M484 780h-135q-10 0 -14 8l-78 110q-8 15 8 15h97q9 0 15 -6l51 -51l72 52q6 5 15 5h94q8 0 10 -4.5t-4 -10.5l-116 -112q-6 -6 -15 -6zM268 583l-27 -161h260q13 0 11 -13l-17 -97q-2 -11 -13 -11h-263l-31 -180h342q13 0 11 -13l-18 -97q-2 -11 -13 -11h-468
q-13 0 -11 13l118 680q2 11 13 11h471q14 0 9 -14l-45 -98q-5 -9 -14 -9h-315z" />
    <glyph glyph-name="ecaron" unicode="&#x11b;" horiz-adv-x="511" 
d="M364 562h-99q-9 0 -15 9l-72 137q-7 14 9 14h82q10 0 14 -8l45 -65l69 67q6 6 15 6h80q8 0 9.5 -4.5t-3.5 -10.5l-119 -138q-6 -7 -15 -7zM397 15l-56 -14q-45 -12 -96 -12q-101 0 -155.5 53.5t-54.5 147.5q0 41 9 82.5t30 83t51.5 73t78.5 51t106 19.5q84 0 131 -38
t47 -104q0 -65 -38.5 -108t-136.5 -57l-145 -20q5 -62 81 -62q43 0 84 10l52 14q12 3 14 -10l8 -95q2 -11 -10 -14zM177 274l125 17q56 9 56 49q0 38 -55 38q-90 0 -126 -104z" />
    <glyph glyph-name="Gcircumflex" unicode="&#x11c;" horiz-adv-x="680" 
d="M447 836l-72 -52q-6 -5 -15 -5h-94q-8 0 -10 4.5t4 10.5l116 112q6 6 15 6h135q10 0 14 -8l78 -110q8 -15 -8 -15h-97q-9 0 -15 6zM427 385h204q13 0 11 -13l-54 -314q-1 -10 -11 -13l-42 -14l-60 -22q-67 -20 -148 -20q-127 0 -197 74t-70 204q0 57 12 115.5t41 119
t71 107t107.5 76t145.5 29.5q76 0 147 -25l43 -15q12 -3 6 -16l-47 -90q-5 -11 -16 -6l-38 13q-42 16 -101 16q-61 0 -108 -32.5t-72.5 -83t-38.5 -102.5t-13 -101q0 -77 34.5 -118t99.5 -41q63 0 112 16l24 7l22 128h-114q-14 0 -9 14l45 98q5 9 14 9z" />
    <glyph glyph-name="gcircumflex" unicode="&#x11d;" horiz-adv-x="567" 
d="M355 635l-69 -67q-6 -6 -15 -6h-80q-8 0 -9.5 4.5t3.5 10.5l119 138q6 7 15 7h99q9 0 15 -9l72 -137q7 -14 -9 -14h-82q-10 0 -14 8zM437 475l96 -38q10 -4 8 -15l-71 -414q-20 -116 -94 -176t-191 -60q-59 0 -108 14l-53 16q-12 5 -6 16l42 89q4 10 16 7l34 -11
q35 -10 74 -10q120 0 166 90q13 37 15 50q1 10 -3 10q-3 0 -18 -10q-61 -44 -121 -44q-93 0 -142.5 56t-45.5 153q2 55 19 106.5t49 96t87 71.5t126 27q60 0 121 -24zM395 356l-21 10q-31 12 -64 12q-66 0 -102 -53.5t-40 -117.5q-3 -45 15.5 -71t58.5 -26q110 0 132 129z
" />
    <glyph glyph-name="Gbreve" unicode="&#x11e;" horiz-adv-x="680" 
d="M605 899l-2 -11q-22 -120 -168 -120q-76 0 -107 29t-20 91l2 13q2 11 13 11h80q13 0 11 -13l-1 -3q-7 -39 37 -39q42 0 49 39l1 5q2 11 13 11h81q13 0 11 -13zM642 372l-54 -314q-1 -10 -11 -13l-42 -14l-60 -22q-67 -20 -148 -20q-127 0 -197 74t-70 204q0 57 12 115.5
t41 119t71 107t107.5 76t145.5 29.5q76 0 147 -25l43 -15q12 -3 6 -16l-47 -90q-5 -11 -16 -6l-38 13q-42 16 -101 16q-61 0 -108 -32.5t-72.5 -83t-38.5 -102.5t-13 -101q0 -77 34.5 -118t99.5 -41q63 0 112 16l24 7l22 128h-114q-14 0 -9 14l45 98q5 9 14 9h204
q13 0 11 -13z" />
    <glyph glyph-name="gbreve" unicode="&#x11f;" horiz-adv-x="567" 
d="M506 709l-5 -28q-10 -61 -51 -94t-103 -33q-66 0 -96 37t-19 100l3 20q2 11 13 11h69q13 0 10 -13l-6 -34q-5 -36 34 -36q22 0 36.5 13.5t16.5 32.5l5 26q2 11 13 11h69q13 0 11 -13zM76 -86l34 -11q35 -10 74 -10q120 0 166 90q13 37 15 50q1 10 -3 10q-3 0 -18 -10
q-61 -44 -121 -44q-93 0 -142.5 56t-45.5 153q2 55 19 106.5t49 96t87 71.5t126 27q60 0 121 -24l96 -38q10 -4 8 -15l-71 -414q-20 -116 -94 -176t-191 -60q-59 0 -108 14l-53 16q-12 5 -6 16l42 89q4 10 16 7zM395 356l-21 10q-31 12 -64 12q-66 0 -102 -53.5t-40 -117.5
q-3 -45 15.5 -71t58.5 -26q110 0 132 129z" />
    <glyph glyph-name="Gdotaccent" unicode="&#x120;" horiz-adv-x="680" 
d="M459 917q73 0 73 -56q0 -34 -23.5 -60.5t-74.5 -26.5q-73 0 -73 55q0 36 23 62t75 26zM642 372l-54 -314q-1 -10 -11 -13l-42 -14l-60 -22q-67 -20 -148 -20q-127 0 -197 74t-70 204q0 57 12 115.5t41 119t71 107t107.5 76t145.5 29.5q76 0 147 -25l43 -15q12 -3 6 -16
l-47 -90q-5 -11 -16 -6l-38 13q-42 16 -101 16q-61 0 -108 -32.5t-72.5 -83t-38.5 -102.5t-13 -101q0 -77 34.5 -118t99.5 -41q63 0 112 16l24 7l22 128h-114q-14 0 -9 14l45 98q5 9 14 9h204q13 0 11 -13z" />
    <glyph glyph-name="gdotaccent" unicode="&#x121;" horiz-adv-x="567" 
d="M365 734q34 0 53 -18.5t19 -50.5q0 -38 -20 -64.5t-62 -26.5q-35 0 -54 18t-19 51q0 44 22 67.5t61 23.5zM76 -86l34 -11q35 -10 74 -10q120 0 166 90q13 37 15 50q1 10 -3 10q-3 0 -18 -10q-61 -44 -121 -44q-93 0 -142.5 56t-45.5 153q2 55 19 106.5t49 96t87 71.5
t126 27q60 0 121 -24l96 -38q10 -4 8 -15l-71 -414q-20 -116 -94 -176t-191 -60q-59 0 -108 14l-53 16q-12 5 -6 16l42 89q4 10 16 7zM395 356l-21 10q-31 12 -64 12q-66 0 -102 -53.5t-40 -117.5q-3 -45 15.5 -71t58.5 -26q110 0 132 129z" />
    <glyph glyph-name="Gcommaaccent" unicode="&#x122;" horiz-adv-x="680" 
d="M642 372l-54 -314q-1 -10 -11 -13l-42 -14l-60 -22q-67 -20 -148 -20q-127 0 -197 74t-70 204q0 57 12 115.5t41 119t71 107t107.5 76t145.5 29.5q76 0 147 -25l43 -15q12 -3 6 -16l-47 -90q-5 -11 -16 -6l-38 13q-42 16 -101 16q-61 0 -108 -32.5t-72.5 -83
t-38.5 -102.5t-13 -101q0 -77 34.5 -118t99.5 -41q63 0 112 16l24 7l22 128h-114q-14 0 -9 14l45 98q5 9 14 9h204q13 0 11 -13zM233 -218l23 31q17 23 -2 28q-26 8 -26 42q0 25 17.5 43.5t49.5 18.5q50 0 50 -46q0 -39 -46 -97l-20 -28q-4 -7 -14 -7h-24q-16 0 -8 15z" />
    <glyph glyph-name="gcommaaccent" unicode="&#x123;" horiz-adv-x="567" 
d="M391 716l-23 -31q-17 -23 2 -28q26 -8 26 -42q0 -25 -17.5 -43.5t-49.5 -18.5q-50 0 -50 46q0 39 46 97l20 28q4 7 14 7h24q16 0 8 -15zM76 -86l34 -11q35 -10 74 -10q120 0 166 90q13 37 15 50q1 10 -3 10q-3 0 -18 -10q-61 -44 -121 -44q-93 0 -142.5 56t-45.5 153
q2 55 19 106.5t49 96t87 71.5t126 27q60 0 121 -24l96 -38q10 -4 8 -15l-71 -414q-20 -116 -94 -176t-191 -60q-59 0 -108 14l-53 16q-12 5 -6 16l42 89q4 10 16 7zM395 356l-21 10q-31 12 -64 12q-66 0 -102 -53.5t-40 -117.5q-3 -45 15.5 -71t58.5 -26q110 0 132 129z" />
    <glyph glyph-name="Hcircumflex" unicode="&#x124;" horiz-adv-x="709" 
d="M459 838l-72 -52q-6 -5 -15 -5h-94q-8 0 -10 4.5t4 10.5l116 112q6 6 15 6h135q10 0 14 -8l78 -110q8 -15 -8 -15h-97q-9 0 -15 6zM590 704h115q13 0 11 -13l-118 -680q-2 -11 -13 -11h-114q-13 0 -11 13l50 288h-291l-50 -290q-2 -11 -13 -11h-114q-13 0 -11 13l118 680
q2 11 13 11h114q13 0 11 -13l-46 -269h290l46 271q2 11 13 11z" />
    <glyph glyph-name="hcircumflex" unicode="&#x125;" 
d="M233 857l-72 -52q-6 -5 -15 -5h-94q-8 0 -10 4.5t4 10.5l116 112q6 6 15 6h135q10 0 14 -8l78 -110q8 -15 -8 -15h-97q-9 0 -15 6zM277 709l-22 -131q-12 -65 -42 -118q-4 -7 0.5 -11.5t12.5 1.5q60 49 122 49q90 0 134.5 -52.5t28.5 -140.5l-51 -295q-2 -11 -13 -11
h-112q-13 0 -11 13l50 287q13 78 -50 78q-50 0 -83 -36t-43 -95l-41 -236q-2 -11 -13 -11h-112q-13 0 -11 13l121 698q2 11 13 11h111q13 0 11 -13z" />
    <glyph glyph-name="Hbar" unicode="&#x126;" horiz-adv-x="709" 
d="M590 704h115q13 0 11 -13l-118 -680q-2 -11 -13 -11h-114q-13 0 -11 13l50 288h-291l-50 -290q-2 -11 -13 -11h-114q-13 0 -11 13l118 680q2 11 13 11h114q13 0 11 -13l-19 -112h290l19 114q2 11 13 11zM531 422l11 67h-290l-11 -67h290z" />
    <glyph glyph-name="hbar" unicode="&#x127;" horiz-adv-x="562" 
d="M369 559h-113q-10 -51 -38 -99q-4 -7 0.5 -11.5t12.5 1.5q60 49 122 49q90 0 134.5 -52.5t28.5 -140.5l-51 -295q-2 -11 -13 -11h-112q-13 0 -11 13l50 287q13 78 -50 78q-50 0 -83 -36t-43 -95l-41 -236q-2 -11 -13 -11h-112q-13 0 -11 13l95 546h-56q-13 0 -11 13
l12 63q2 11 13 11h57l11 65q2 11 13 11h111q13 0 11 -13l-11 -63h111q13 0 11 -13l-11 -63q-2 -11 -13 -11z" />
    <glyph glyph-name="Itilde" unicode="&#x128;" horiz-adv-x="280" 
d="M54 803l34 48q35 55 105 55q28 0 60 -16l32 -15q16 -7 23 -7q16 0 27 16l9 12q4 7 14 7h70q18 0 8 -15l-34 -48q-38 -55 -106 -55q-23 0 -59 16l-33 15q-14 7 -24 7q-15 0 -26 -15l-9 -12q-4 -8 -14 -8h-69q-18 0 -8 15zM156 0h-114q-13 0 -11 13l118 680q2 11 13 11h114
q13 0 11 -13l-118 -680q-2 -11 -13 -11z" />
    <glyph glyph-name="itilde" unicode="&#x129;" horiz-adv-x="295" 
d="M65 596l26 42q41 63 92 63q28 0 51 -20l17 -13q7 -6 15 -6q13 0 26 18l6 11q6 8 15 8h59q17 0 8 -14l-26 -42q-41 -63 -92 -63q-28 0 -50 19l-17 14q-8 7 -16 7q-14 0 -25 -20l-7 -10q-4 -8 -14 -8h-60q-17 0 -8 14zM181 0h-112q-13 0 -11 13l62 356h-49q-13 0 -11 13
l16 95q2 11 13 11h174q13 0 11 -13l-80 -464q-2 -11 -13 -11z" />
    <glyph glyph-name="Imacron" unicode="&#x12a;" horiz-adv-x="280" 
d="M100 893h304q13 0 11 -13l-13 -72q-2 -11 -13 -11h-304q-13 0 -11 13l13 72q2 11 13 11zM156 0h-114q-13 0 -11 13l118 680q2 11 13 11h114q13 0 11 -13l-118 -680q-2 -11 -13 -11z" />
    <glyph glyph-name="imacron" unicode="&#x12b;" horiz-adv-x="295" 
d="M113 686h218q13 0 11 -13l-12 -68q-2 -11 -13 -11h-219q-13 0 -11 13l13 68q2 11 13 11zM181 0h-112q-13 0 -11 13l62 356h-49q-13 0 -11 13l16 95q2 11 13 11h174q13 0 11 -13l-80 -464q-2 -11 -13 -11z" />
    <glyph glyph-name="Ibreve" unicode="&#x12c;" horiz-adv-x="280" 
d="M402 901l-2 -11q-22 -120 -168 -120q-76 0 -107 29t-20 91l2 13q2 11 13 11h80q13 0 11 -13l-1 -3q-6 -39 37 -39t49 39l1 5q2 11 13 11h81q13 0 11 -13zM156 0h-114q-13 0 -11 13l118 680q2 11 13 11h114q13 0 11 -13l-118 -680q-2 -11 -13 -11z" />
    <glyph glyph-name="ibreve" unicode="&#x12d;" horiz-adv-x="295" 
d="M354 709l-5 -28q-10 -59 -47.5 -92t-96.5 -33q-58 0 -85 33t-16 92l5 30q2 11 13 11h68q13 0 11 -13l-6 -36q-3 -18 2 -25.5t21 -7.5q13 0 23.5 8t13.5 25l6 38q2 11 13 11h69q13 0 11 -13zM181 0h-112q-13 0 -11 13l62 356h-49q-13 0 -11 13l16 95q2 11 13 11h174
q13 0 11 -13l-80 -464q-2 -11 -13 -11z" />
    <glyph glyph-name="Iogonek" unicode="&#x12e;" horiz-adv-x="280" 
d="M162 704h114q13 0 11 -13l-120 -691q-4 -25 -43 -54l-55 -43q-15 -12 -15 -25q0 -12 16 -12q10 0 27 5l9 3q12 5 14 -9l12 -64q2 -11 -9 -14l-17 -6q-25 -9 -55 -9q-47 0 -74 19.5t-27 55.5q0 52 49 88l40 31q12 9 16 16.5t1 12t-12 5.5h-2q-13 0 -11 13l118 680
q2 11 13 11z" />
    <glyph glyph-name="iogonek" unicode="&#x12f;" horiz-adv-x="295" 
d="M230 732q35 0 54 -18t19 -51q0 -43 -22 -66.5t-61 -23.5q-35 0 -54 18t-19 51q0 43 22 66.5t61 23.5zM60 382l16 95q2 11 13 11h174q13 0 11 -13l-82 -475q-4 -25 -43 -54l-55 -43q-15 -12 -15 -25q0 -12 16 -12q10 0 27 5l9 3q12 5 14 -9l12 -64q2 -11 -9 -14l-17 -6
q-25 -9 -55 -9q-47 0 -74 19.5t-27 55.5q0 52 49 88l40 31q12 9 16 16.5t1 12t-12 5.5q-13 0 -11 13l62 356h-49q-13 0 -11 13z" />
    <glyph glyph-name="Idotaccent" unicode="&#x130;" horiz-adv-x="280" 
d="M256 919q73 0 73 -56q0 -34 -23.5 -60.5t-74.5 -26.5q-73 0 -73 55q0 36 23 62t75 26zM156 0h-114q-13 0 -11 13l118 680q2 11 13 11h114q13 0 11 -13l-118 -680q-2 -11 -13 -11z" />
    <glyph glyph-name="dotlessi" unicode="&#x131;" horiz-adv-x="295" 
d="M274 475l-80 -464q-2 -11 -13 -11h-112q-13 0 -11 13l62 356h-49q-13 0 -11 13l16 95q2 11 13 11h174q13 0 11 -13z" />
    <glyph glyph-name="IJ" unicode="&#x132;" horiz-adv-x="700" 
d="M156 0h-114q-13 0 -11 13l118 680q2 11 13 11h114q13 0 11 -13l-118 -680q-2 -11 -13 -11zM710 691l-82 -471q-18 -110 -79 -170.5t-158 -60.5q-43 0 -92 20l-12 5q-11 5 -5 16l47 90q4 9 16 6l13 -6q18 -7 39 -7q34 0 58.5 25.5t33.5 76.5l82 478q2 11 13 11h115
q13 0 11 -13z" />
    <glyph glyph-name="ij" unicode="&#x133;" horiz-adv-x="590" 
d="M230 732q35 0 54 -18t19 -51q0 -43 -22 -66.5t-61 -23.5q-35 0 -54 18t-19 51q0 43 22 66.5t61 23.5zM525 732q35 0 54 -18t19 -51q0 -43 -22 -67t-61 -24q-35 0 -54 18.5t-19 51.5q0 43 22 66.5t61 23.5zM181 0h-112q-13 0 -11 13l62 356h-49q-13 0 -11 13l16 95
q2 11 13 11h174q13 0 11 -13l-80 -464q-2 -11 -13 -11zM569 475l-83 -483q-26 -143 -163 -204l-29 -14q-12 -5 -15 7l-36 92q-5 11 6 16l21 11q71 32 82 102l63 367h-49q-13 0 -11 13l16 95q2 11 13 11h174q13 0 11 -13z" />
    <glyph glyph-name="Jcircumflex" unicode="&#x134;" horiz-adv-x="462" 
d="M521 906l78 -110q10 -15 -8 -15h-97q-9 0 -15 6l-51 51l-72 -52q-6 -5 -15 -5h-94q-8 0 -10 4.5t4 10.5l116 112q6 6 15 6h135q10 0 14 -8zM252 219l82 474q2 11 13 11h114q13 0 11 -13l-81 -467q-19 -111 -84.5 -173t-167.5 -62q-54 0 -106 21l-25 10q-12 5 -6 16l47 90
q5 11 16 6l26 -11q24 -8 54 -8q40 0 69 27t38 79z" />
    <glyph glyph-name="jcircumflex" unicode="&#x135;" horiz-adv-x="295" 
d="M222 630l-54 -61q-6 -7 -15 -7h-76q-16 0 -8 15l99 138q4 7 14 7h108q10 0 14 -10l51 -136q5 -14 -10 -14h-77q-9 0 -15 9zM60 382l16 95q2 11 13 11h174q13 0 11 -13l-83 -483q-26 -143 -163 -204l-29 -14q-12 -5 -15 7l-36 92q-5 11 6 16l21 11q71 32 82 102l63 367
h-49q-13 0 -11 13z" />
    <glyph glyph-name="Kcommaaccent" unicode="&#x136;" horiz-adv-x="685" 
d="M709 689l-152 -208q-61 -80 -150 -113q-5 -2 -5.5 -6t3.5 -6q82 -38 118 -130l83 -212q5 -14 -10 -14h-117q-9 0 -14 9l-62 158q-51 131 -163 131h-21l-50 -287q-2 -11 -13 -11h-114q-13 0 -11 13l118 680q2 11 13 11h114q13 0 11 -13l-46 -267h20q92 0 183 124l112 149
q4 7 14 7h132q7 0 9.5 -4.5t-2.5 -10.5zM226 -218l23 31q17 23 -2 28q-26 8 -26 42q0 25 17.5 43.5t49.5 18.5q50 0 50 -46q0 -39 -46 -97l-20 -28q-4 -7 -14 -7h-24q-16 0 -8 15z" />
    <glyph glyph-name="kcommaaccent" unicode="&#x137;" horiz-adv-x="562" 
d="M548 473l-109 -148q-40 -51 -97 -71q-11 -4 -2 -10q52 -23 72 -72l61 -158q5 -14 -10 -14h-114q-9 0 -14 9l-43 108q-30 71 -93 71h-12l-29 -177q-2 -11 -13 -11h-112q-13 0 -11 13l78 457l42 241q2 11 13 11h111q13 0 11 -13l-38 -221l-30 -181h11q46 0 103 75l75 99
q4 7 14 7h129q7 0 9.5 -4.5t-2.5 -10.5zM162 -218l23 31q17 23 -2 28q-26 8 -26 42q0 25 17.5 43.5t49.5 18.5q50 0 50 -46q0 -39 -46 -97l-20 -28q-4 -7 -14 -7h-24q-16 0 -8 15z" />
    <glyph glyph-name="kgreenlandic" unicode="&#x138;" horiz-adv-x="561" 
d="M208 307h11q46 0 103 75l75 99q4 7 14 7h129q7 0 9.5 -4.5t-2.5 -10.5l-109 -148q-40 -51 -97 -71q-11 -4 -2 -10q52 -23 72 -72l61 -158q5 -14 -10 -14h-114q-10 0 -14 9l-43 108q-30 71 -93 71h-12l-29 -177q-2 -11 -13 -11h-112q-13 0 -11 13l80 464q2 11 13 11h111
q13 0 11 -13z" />
    <glyph glyph-name="Lacute" unicode="&#x139;" horiz-adv-x="572" 
d="M269 914h146q8 0 9.5 -4.5t-4.5 -10.5l-129 -112q-6 -6 -14 -6h-104q-8 0 -10 4.5t3 10.5l88 111q6 7 15 7zM189 123h302q13 0 11 -13l-17 -99q-2 -11 -13 -11h-430q-13 0 -11 13l118 680q2 11 13 11h114q13 0 11 -13z" />
    <glyph glyph-name="lacute" unicode="&#x13a;" horiz-adv-x="303" 
d="M260 933h146q8 0 9.5 -4.5t-4.5 -10.5l-129 -112q-6 -6 -14 -6h-104q-8 0 -10 4.5t3 10.5l88 111q6 7 15 7zM277 709l-99 -577q-5 -22 12 -22h7q12 2 15 -9l20 -87q2 -11 -8 -15q-24 -10 -55 -10q-71 0 -105 38t-22 105l100 579q2 11 13 11h111q13 0 11 -13z" />
    <glyph glyph-name="Lcommaaccent" unicode="&#x13b;" horiz-adv-x="572" 
d="M189 123h302q13 0 11 -13l-17 -99q-2 -11 -13 -11h-430q-13 0 -11 13l118 680q2 11 13 11h114q13 0 11 -13zM188 -218l23 31q17 23 -2 28q-26 8 -26 42q0 25 17.5 43.5t49.5 18.5q50 0 50 -46q0 -39 -46 -97l-20 -28q-4 -7 -14 -7h-24q-16 0 -8 15z" />
    <glyph glyph-name="lcommaaccent" unicode="&#x13c;" horiz-adv-x="303" 
d="M277 709l-99 -577q-5 -22 12 -22h7q12 2 15 -9l20 -87q2 -11 -8 -15q-24 -10 -55 -10q-71 0 -105 38t-22 105l100 579q2 11 13 11h111q13 0 11 -13zM42 -218l23 31q17 23 -2 28q-26 8 -26 42q0 25 17.5 43.5t49.5 18.5q50 0 50 -46q0 -39 -46 -97l-20 -28q-4 -7 -14 -7
h-24q-16 0 -8 15z" />
    <glyph glyph-name="Lcaron" unicode="&#x13d;" horiz-adv-x="572" 
d="M189 123h302q13 0 11 -13l-17 -99q-2 -11 -13 -11h-430q-13 0 -11 13l118 680q2 11 13 11h114q13 0 11 -13zM393 703h77q13 0 10 -13l-6 -33q-5 -43 -38 -91l-10 -15q-4 -8 -14 -8h-62q-16 0 -9 14l8 20q15 28 24 75l7 40q2 11 13 11z" />
    <glyph glyph-name="lcaron" unicode="&#x13e;" horiz-adv-x="316" 
d="M277 709l-99 -577q-5 -22 12 -22h7q12 2 15 -9l20 -87q2 -11 -8 -15q-24 -10 -55 -10q-71 0 -105 38t-22 105l100 579q2 11 13 11h111q13 0 11 -13zM354 722h77q13 0 10 -13l-6 -33q-5 -43 -38 -91l-10 -15q-4 -8 -14 -8h-62q-16 0 -9 14l8 20q15 28 24 75l7 40
q2 11 13 11z" />
    <glyph glyph-name="Ldot" unicode="&#x13f;" horiz-adv-x="572" 
d="M189 123h302q13 0 11 -13l-17 -99q-2 -11 -13 -11h-430q-13 0 -11 13l118 680q2 11 13 11h114q13 0 11 -13zM494 477q41 0 61 -24.5t12 -66.5q-14 -74 -85 -74q-41 0 -61 24.5t-12 66.5q13 74 85 74z" />
    <glyph glyph-name="ldot" unicode="&#x140;" horiz-adv-x="398" 
d="M277 709l-99 -577q-5 -22 12 -22h7q12 2 15 -9l20 -87q2 -11 -8 -15q-24 -10 -55 -10q-71 0 -105 38t-22 105l100 579q2 11 13 11h111q13 0 11 -13zM392 477q41 0 61 -24.5t12 -66.5q-14 -74 -85 -74q-41 0 -61 24.5t-12 66.5q13 74 85 74z" />
    <glyph glyph-name="Lslash" unicode="&#x141;" horiz-adv-x="633" 
d="M250 123h302q13 0 11 -13l-17 -99q-2 -11 -13 -11h-430q-13 0 -11 13l40 231l-85 -36q-7 -3 -10.5 0t-2.5 10l19 106q1 8 11 13l91 39l55 317q2 11 13 11h114q13 0 11 -13l-43 -251l176 76q7 3 10.5 0t2.5 -10l-18 -107q-3 -9 -11 -13l-183 -78z" />
    <glyph glyph-name="lslash" unicode="&#x142;" horiz-adv-x="383" 
d="M265 328l-34 -196q-5 -22 12 -22h7q12 2 15 -9l20 -87q2 -11 -8 -15q-24 -10 -55 -10q-71 0 -105 38t-22 105l25 144l-70 -25q-7 -3 -11 0t-2 10l17 103q3 9 11 12l77 28l53 307q2 11 13 11h111q13 0 11 -13l-44 -253l81 29q7 3 11 0t2 -10l-18 -104q-1 -9 -11 -12z" />
    <glyph glyph-name="Nacute" unicode="&#x143;" horiz-adv-x="725" 
d="M484 914h146q8 0 9.5 -4.5t-4.5 -10.5l-129 -112q-6 -6 -14 -6h-104q-8 0 -10 4.5t3 10.5l88 111q6 7 15 7zM601 0h-141q-11 0 -14 10q-14 50 -34 103l-126 315q-2 7 -26 77q-2 6 -6.5 7.5t-8 -2t-3.5 -9.5q-1 -66 -16 -161l-57 -329q-2 -11 -13 -11h-114q-13 0 -11 13
l118 680q2 11 13 11h141q11 0 14 -10q9 -29 34 -103l124 -309l29 -83q3 -10 9.5 -8t5.5 12q1 69 17 159l57 331q2 11 13 11h115q13 0 11 -13l-118 -680q-2 -11 -13 -11z" />
    <glyph glyph-name="nacute" unicode="&#x144;" 
d="M384 722h123q8 0 10 -4.5t-3 -10.5l-120 -138q-6 -7 -15 -7h-89q-17 0 -8 14l88 138q4 8 14 8zM187 478l7 -29q5 -10 10 -9.5t18 9.5q61 50 134 50q89 0 130 -52t25 -141l-51 -295q-2 -11 -13 -11h-112q-13 0 -11 13l50 287q14 78 -50 78q-49 0 -82.5 -35t-44.5 -96
l-40 -236q-2 -11 -13 -11h-112q-13 0 -11 13l80 464q2 11 13 11h60q12 0 13 -10z" />
    <glyph glyph-name="Ncommaaccent" unicode="&#x145;" horiz-adv-x="725" 
d="M601 0h-141q-11 0 -14 10q-14 50 -34 103l-126 315q-2 7 -26 77q-2 6 -6.5 7.5t-8 -2t-3.5 -9.5q-1 -66 -16 -161l-57 -329q-2 -11 -13 -11h-114q-13 0 -11 13l118 680q2 11 13 11h141q11 0 14 -10q9 -29 34 -103l124 -309l29 -83q3 -10 9.5 -8t5.5 12q1 69 17 159
l57 331q2 11 13 11h115q13 0 11 -13l-118 -680q-2 -11 -13 -11zM242 -218l23 31q17 23 -2 28q-26 8 -26 42q0 25 17.5 43.5t49.5 18.5q50 0 50 -46q0 -39 -46 -97l-20 -28q-4 -7 -14 -7h-24q-16 0 -8 15z" />
    <glyph glyph-name="ncommaaccent" unicode="&#x146;" 
d="M187 478l7 -29q5 -10 10 -9.5t18 9.5q61 50 134 50q89 0 130 -52t25 -141l-51 -295q-2 -11 -13 -11h-112q-13 0 -11 13l50 287q14 78 -50 78q-49 0 -82.5 -35t-44.5 -96l-40 -236q-2 -11 -13 -11h-112q-13 0 -11 13l80 464q2 11 13 11h60q12 0 13 -10zM166 -218l23 31
q17 23 -2 28q-26 8 -26 42q0 25 17.5 43.5t49.5 18.5q50 0 50 -46q0 -39 -46 -97l-20 -28q-4 -7 -14 -7h-24q-16 0 -8 15z" />
    <glyph glyph-name="Ncaron" unicode="&#x147;" horiz-adv-x="725" 
d="M518 780h-135q-10 0 -14 8l-78 110q-8 15 8 15h97q9 0 15 -6l51 -51l72 52q6 5 15 5h94q8 0 10 -4.5t-4 -10.5l-116 -112q-6 -6 -15 -6zM606 704h115q13 0 11 -13l-118 -680q-2 -11 -13 -11h-141q-11 0 -14 10q-14 50 -34 103l-126 315q-2 7 -26 77q-2 6 -6.5 7.5t-8 -2
t-3.5 -9.5q-1 -66 -16 -161l-57 -329q-2 -11 -13 -11h-114q-13 0 -11 13l118 680q2 11 13 11h141q11 0 14 -10q9 -29 34 -103l124 -309l29 -83q3 -10 9.5 -8t5.5 12q1 69 17 159l57 331q2 11 13 11z" />
    <glyph glyph-name="ncaron" unicode="&#x148;" 
d="M391 562h-99q-9 0 -15 9l-72 137q-7 14 9 14h82q10 0 14 -8l45 -65l69 67q6 6 15 6h80q8 0 9.5 -4.5t-3.5 -10.5l-119 -138q-6 -7 -15 -7zM187 478l7 -29q5 -10 10 -9.5t18 9.5q61 50 134 50q89 0 130 -52t25 -141l-51 -295q-2 -11 -13 -11h-112q-13 0 -11 13l50 287
q14 78 -50 78q-49 0 -82.5 -35t-44.5 -96l-40 -236q-2 -11 -13 -11h-112q-13 0 -11 13l80 464q2 11 13 11h60q12 0 13 -10z" />
    <glyph glyph-name="Eng" unicode="&#x14a;" horiz-adv-x="708" 
d="M238 693l10 -48q7 -16 14 -16.5t21 11.5q90 79 198 79q117 0 167.5 -73.5t27.5 -204.5l-73 -417q-17 -102 -84.5 -159.5t-169.5 -57.5q-48 0 -97 18l-23 9q-13 3 -6 15l48 91q5 11 16 6l20 -7q29 -9 62 -9q37 0 63.5 26t33.5 68l69 401q14 81 -10.5 123.5t-85.5 42.5
q-81 0 -136.5 -63.5t-75.5 -180.5l-59 -336q-2 -11 -13 -11h-113q-13 0 -11 13l118 680q2 11 13 11h63q11 0 13 -11z" />
    <glyph glyph-name="eng" unicode="&#x14b;" 
d="M315 -44l59 344q14 78 -51 78q-49 0 -82 -35t-44 -96l-41 -236q-2 -11 -13 -11h-111q-13 0 -11 13l80 464q2 11 13 11h60q11 0 13 -11l4 -23q6 -14 11.5 -15t18.5 9q3 2 5 3q60 48 129 48q89 0 130.5 -52t25.5 -141l-62 -360q-15 -84 -71 -129t-143 -45q-41 0 -82 14
l-30 10q-12 4 -6 16l45 87q5 11 16 6l17 -6q19 -6 44 -6q29 0 50 18t26 45z" />
    <glyph glyph-name="Omacron" unicode="&#x14c;" horiz-adv-x="720" 
d="M325 893h304q13 0 11 -13l-13 -72q-2 -11 -13 -11h-304q-13 0 -11 13l13 72q2 11 13 11zM433 714q126 0 195 -73t69 -203q0 -47 -9 -96t-26.5 -100t-48.5 -96t-70.5 -80.5t-96 -56t-122.5 -20.5q-125 0 -194.5 74t-69.5 204q0 57 12 115.5t40.5 119t70 107t106.5 76
t144 29.5zM428 591q-60 0 -106.5 -32.5t-72 -83t-38 -103t-12.5 -101.5q0 -75 34 -116.5t97 -41.5q59 0 105.5 33t72 83.5t38 103.5t12.5 101q0 76 -33.5 116.5t-96.5 40.5z" />
    <glyph glyph-name="omacron" unicode="&#x14d;" horiz-adv-x="555" 
d="M226 686h253q13 0 11 -13l-12 -68q-2 -11 -13 -11h-254q-13 0 -11 13l13 68q2 11 13 11zM313 499q98 0 152 -54t54 -148q0 -40 -9 -81t-30 -82.5t-52 -73t-79 -51.5t-107 -20q-98 0 -152.5 54t-54.5 148q0 40 9 81t30.5 82.5t52.5 73t79.5 51.5t106.5 20zM308 378
q-48 0 -81.5 -32t-46 -70.5t-12.5 -76.5q0 -89 78 -89q47 0 81 32t47 70.5t13 76.5q0 43 -20.5 66t-58.5 23z" />
    <glyph glyph-name="Obreve" unicode="&#x14e;" horiz-adv-x="720" 
d="M626 901l-2 -11q-22 -120 -168 -120q-76 0 -107 29t-20 91l2 13q2 11 13 11h80q13 0 11 -13l-1 -3q-6 -39 37 -39t49 39l1 5q2 11 13 11h81q13 0 11 -13zM433 714q126 0 195 -73t69 -203q0 -47 -9 -96t-26.5 -100t-48.5 -96t-70.5 -80.5t-96 -56t-122.5 -20.5
q-125 0 -194.5 74t-69.5 204q0 57 12 115.5t40.5 119t70 107t106.5 76t144 29.5zM428 591q-60 0 -106.5 -32.5t-72 -83t-38 -103t-12.5 -101.5q0 -75 34 -116.5t97 -41.5q59 0 105.5 33t72 83.5t38 103.5t12.5 101q0 76 -33.5 116.5t-96.5 40.5z" />
    <glyph glyph-name="obreve" unicode="&#x14f;" horiz-adv-x="555" 
d="M494 709l-5 -28q-10 -61 -51 -94t-103 -33q-66 0 -96 37t-19 100l3 20q2 11 13 11h69q13 0 10 -13l-6 -34q-5 -36 34 -36q22 0 36.5 13.5t16.5 32.5l5 26q2 11 13 11h69q13 0 11 -13zM313 499q98 0 152 -54t54 -148q0 -40 -9 -81t-30 -82.5t-52 -73t-79 -51.5t-107 -20
q-98 0 -152.5 54t-54.5 148q0 40 9 81t30.5 82.5t52.5 73t79.5 51.5t106.5 20zM308 378q-48 0 -81.5 -32t-46 -70.5t-12.5 -76.5q0 -89 78 -89q47 0 81 32t47 70.5t13 76.5q0 43 -20.5 66t-58.5 23z" />
    <glyph glyph-name="Ohungarumlaut" unicode="&#x150;" horiz-adv-x="720" 
d="M488 899l-74 -110q-4 -8 -14 -8h-96q-7 0 -9.5 4t1.5 10l59 111q6 8 15 8h110q18 0 8 -15zM693 899l-84 -111q-6 -7 -15 -7h-101q-7 0 -9 4t2 11l73 110q4 8 14 8h113q7 0 9.5 -4.5t-2.5 -10.5zM433 714q126 0 195 -73t69 -203q0 -47 -9 -96t-26.5 -100t-48.5 -96
t-70.5 -80.5t-96 -56t-122.5 -20.5q-125 0 -194.5 74t-69.5 204q0 57 12 115.5t40.5 119t70 107t106.5 76t144 29.5zM428 591q-60 0 -106.5 -32.5t-72 -83t-38 -103t-12.5 -101.5q0 -75 34 -116.5t97 -41.5q59 0 105.5 33t72 83.5t38 103.5t12.5 101q0 76 -33.5 116.5
t-96.5 40.5z" />
    <glyph glyph-name="ohungarumlaut" unicode="&#x151;" horiz-adv-x="555" 
d="M367 708l-72 -137q-6 -9 -15 -9h-84q-16 0 -9 14l60 137q5 9 14 9h97q16 0 9 -14zM552 708l-84 -138q-5 -8 -14 -8h-84q-16 0 -9 14l71 137q4 9 14 9h98q17 0 8 -14zM313 499q98 0 152 -54t54 -148q0 -40 -9 -81t-30 -82.5t-52 -73t-79 -51.5t-107 -20q-98 0 -152.5 54
t-54.5 148q0 40 9 81t30.5 82.5t52.5 73t79.5 51.5t106.5 20zM308 378q-48 0 -81.5 -32t-46 -70.5t-12.5 -76.5q0 -89 78 -89q47 0 81 32t47 70.5t13 76.5q0 43 -20.5 66t-58.5 23z" />
    <glyph glyph-name="OE" unicode="&#x152;" horiz-adv-x="1056" 
d="M507 13l5 33q2 13 -3.5 13.5t-19.5 -10.5q-71 -60 -174 -60q-119 0 -186.5 75t-67.5 207q0 61 13 122t43 119t73 102.5t107.5 72t141.5 27.5q99 0 153 -60q21 -21 26 2l6 37q2 11 13 11h448q14 0 9 -14l-45 -98q-5 -9 -14 -9h-315l-28 -162h261q13 0 11 -13l-17 -97
q-2 -11 -13 -11h-263l-31 -179h341q13 0 11 -13l-17 -97q-2 -11 -13 -11h-444q-13 0 -11 13zM423 591q-100 0 -161.5 -94.5t-61.5 -220.5q0 -163 132 -163q95 0 156 94.5t61 213.5q0 79 -31 124.5t-95 45.5z" />
    <glyph glyph-name="oe" unicode="&#x153;" horiz-adv-x="851" 
d="M737 16l-56 -14q-55 -13 -96 -13q-107 0 -157 69q-9 13 -23 -1q-60 -68 -166 -68q-96 0 -150 54t-54 148q0 51 15.5 103t46.5 99t86 76.5t126 29.5q104 0 150 -70q9 -12 22 1q29 32 74 50.5t95 18.5q84 0 131 -38t47 -104q0 -65 -38.5 -108t-136.5 -57l-143 -20
q2 -29 22 -45.5t56 -16.5q49 0 85 10l52 13q12 3 14 -10l8 -93q2 -11 -10 -14zM305 378q-49 0 -82.5 -33t-46 -72t-12.5 -76q0 -87 79 -87q38 0 67.5 19.5t44.5 49.5t22 58.5t7 53.5q0 42 -20.5 64.5t-58.5 22.5zM520 274l121 17q57 8 57 49q0 38 -55 38q-91 0 -123 -104z
" />
    <glyph glyph-name="Racute" unicode="&#x154;" horiz-adv-x="678" 
d="M452 914h146q8 0 9.5 -4.5t-4.5 -10.5l-129 -112q-6 -6 -14 -6h-104q-8 0 -10 4.5t3 10.5l88 111q6 7 15 7zM162 704h276q99 0 152 -51t53 -135q0 -145 -155 -203q-22 -8 -6 -18q52 -34 72 -114l43 -170q3 -13 -11 -13h-114q-11 0 -14 10l-29 117q-17 70 -53 102t-114 32
h-50l-43 -250q-2 -11 -13 -11h-114q-13 0 -11 13l118 680q2 11 13 11zM234 383h104q76 0 121 32.5t45 84.5q0 39 -23.5 61t-64.5 22h-148z" />
    <glyph glyph-name="racute" unicode="&#x155;" horiz-adv-x="405" 
d="M309 722h123q8 0 10 -4.5t-3 -10.5l-120 -138q-6 -7 -15 -7h-89q-17 0 -8 14l88 138q4 8 14 8zM400 486l-17 -97q-2 -11 -13 -11q-83 -3 -127.5 -62.5t-69.5 -203.5l-16 -101q-2 -11 -13 -11h-112q-13 0 -11 13l80 464q2 11 13 11h60q11 0 14 -10l13 -48q6 -17 21 -3
q38 37 76 54t91 18q13 0 11 -13z" />
    <glyph glyph-name="Rcommaaccent" unicode="&#x156;" horiz-adv-x="678" 
d="M162 704h276q99 0 152 -51t53 -135q0 -145 -155 -203q-22 -8 -6 -18q52 -34 72 -114l43 -170q3 -13 -11 -13h-114q-11 0 -14 10l-29 117q-17 70 -53 102t-114 32h-50l-43 -250q-2 -11 -13 -11h-114q-13 0 -11 13l118 680q2 11 13 11zM234 383h104q76 0 121 32.5t45 84.5
q0 39 -23.5 61t-64.5 22h-148zM211 -218l23 31q17 23 -2 28q-26 8 -26 42q0 25 17.5 43.5t49.5 18.5q50 0 50 -46q0 -39 -46 -97l-20 -28q-4 -7 -14 -7h-24q-16 0 -8 15z" />
    <glyph glyph-name="rcommaaccent" unicode="&#x157;" horiz-adv-x="405" 
d="M400 486l-17 -97q-2 -11 -13 -11q-83 -3 -127.5 -62.5t-69.5 -203.5l-16 -101q-2 -11 -13 -11h-112q-13 0 -11 13l80 464q2 11 13 11h60q11 0 14 -10l13 -48q6 -17 21 -3q38 37 76 54t91 18q13 0 11 -13zM15 -218l23 31q17 23 -2 28q-26 8 -26 42q0 25 17.5 43.5
t49.5 18.5q50 0 50 -46q0 -39 -46 -97l-20 -28q-4 -7 -14 -7h-24q-16 0 -8 15z" />
    <glyph glyph-name="Rcaron" unicode="&#x158;" horiz-adv-x="678" 
d="M487 780h-135q-10 0 -14 8l-78 110q-8 15 8 15h97q9 0 15 -6l51 -51l72 52q6 5 15 5h94q8 0 10 -4.5t-4 -10.5l-116 -112q-6 -6 -15 -6zM162 704h276q99 0 152 -51t53 -135q0 -145 -155 -203q-22 -8 -6 -18q52 -34 72 -114l43 -170q3 -13 -11 -13h-114q-11 0 -14 10
l-29 117q-17 70 -53 102t-114 32h-50l-43 -250q-2 -11 -13 -11h-114q-13 0 -11 13l118 680q2 11 13 11zM234 383h104q76 0 121 32.5t45 84.5q0 39 -23.5 61t-64.5 22h-148z" />
    <glyph glyph-name="rcaron" unicode="&#x159;" horiz-adv-x="405" 
d="M317 562h-99q-9 0 -15 9l-72 137q-7 14 9 14h82q10 0 14 -8l45 -65l69 67q6 6 15 6h80q8 0 9.5 -4.5t-3.5 -10.5l-119 -138q-6 -7 -15 -7zM188 478l13 -48q6 -17 21 -3q38 37 76 54t91 18q13 0 11 -13l-17 -97q-2 -11 -13 -11q-83 -3 -127.5 -62.5t-69.5 -203.5l-16 -101
q-2 -11 -13 -11h-112q-13 0 -11 13l80 464q2 11 13 11h60q11 0 14 -10z" />
    <glyph glyph-name="Sacute" unicode="&#x15a;" horiz-adv-x="612" 
d="M426 912h146q8 0 9.5 -4.5t-4.5 -10.5l-129 -112q-6 -6 -14 -6h-104q-8 0 -10 4.5t3 10.5l88 111q6 7 15 7zM344 283l-97 38q-79 32 -112.5 67t-33.5 94q0 43 14.5 82t45.5 74t87.5 55.5t132.5 20.5q74 0 158 -29l58 -20q12 -3 6 -16l-49 -90q-5 -11 -15 -6l-53 18
q-58 20 -116 20q-60 0 -95 -24.5t-35 -66.5q0 -21 17 -37.5t57 -32.5l92 -36q81 -32 117.5 -70t36.5 -97q0 -44 -14.5 -84t-46 -76t-90.5 -57t-140 -21q-83 0 -188 37l-57 20q-13 3 -6 15l46 91q5 11 16 6l52 -19q75 -26 148 -26q63 0 102 23.5t39 66.5q0 49 -77 80z" />
    <glyph glyph-name="sacute" unicode="&#x15b;" horiz-adv-x="490" 
d="M335 722h123q8 0 10 -4.5t-3 -10.5l-120 -138q-6 -7 -15 -7h-89q-17 0 -8 14l88 138q4 8 14 8zM267 183l-89 23q-112 29 -112 117q0 75 52 125.5t158 50.5q61 0 130 -19l47 -12q13 -3 7 -15l-41 -91q-4 -10 -16 -7l-42 12q-40 11 -89 11q-34 0 -54 -11t-20 -28
q0 -19 29 -26l89 -24q115 -30 115 -123q0 -32 -10.5 -61.5t-34 -56.5t-67 -43t-102.5 -16q-77 0 -153 21l-46 13q-13 3 -7 15l42 90q4 10 16 7l34 -10q53 -15 119 -15q37 0 56.5 12.5t19.5 31.5q0 21 -31 29z" />
    <glyph glyph-name="Scircumflex" unicode="&#x15c;" horiz-adv-x="612" 
d="M402 836l-72 -52q-6 -5 -15 -5h-94q-8 0 -10 4.5t4 10.5l116 112q6 6 15 6h135q10 0 14 -8l78 -110q8 -15 -8 -15h-97q-9 0 -15 6zM314 430l92 -36q81 -32 117.5 -70t36.5 -97q0 -44 -14.5 -84t-46 -76t-90.5 -57t-140 -21q-83 0 -188 37l-57 20q-13 3 -6 15l46 91
q5 11 16 6l52 -19q75 -26 148 -26q63 0 102 23.5t39 66.5q0 49 -77 80l-97 38q-79 32 -112.5 67t-33.5 94q0 43 14.5 82t45.5 74t87.5 55.5t132.5 20.5q74 0 158 -29l58 -20q12 -3 6 -16l-49 -90q-5 -11 -15 -6l-53 18q-58 20 -116 20q-60 0 -95 -24.5t-35 -66.5
q0 -21 17 -37.5t57 -32.5z" />
    <glyph glyph-name="scircumflex" unicode="&#x15d;" horiz-adv-x="490" 
d="M304 635l-69 -67q-6 -6 -15 -6h-80q-8 0 -9.5 4.5t3.5 10.5l119 138q6 7 15 7h99q9 0 15 -9l72 -137q7 -14 -9 -14h-82q-10 0 -14 8zM227 313l89 -24q115 -30 115 -123q0 -32 -10.5 -61.5t-34 -56.5t-67 -43t-102.5 -16q-77 0 -153 21l-46 13q-13 3 -7 15l42 90
q4 10 16 7l34 -10q53 -15 119 -15q37 0 56.5 12.5t19.5 31.5q0 21 -31 29l-89 23q-112 29 -112 117q0 75 52 125.5t158 50.5q61 0 130 -19l47 -12q13 -3 7 -15l-41 -91q-4 -10 -16 -7l-42 12q-40 11 -89 11q-34 0 -54 -11t-20 -28q0 -19 29 -26z" />
    <glyph glyph-name="Scedilla" unicode="&#x15e;" horiz-adv-x="612" 
d="M314 430l92 -36q81 -32 117.5 -70t36.5 -97q0 -42 -13 -80.5t-41.5 -73.5t-82 -57t-125.5 -26l-15 -26h7q27 0 44 -18.5t17 -51.5q0 -47 -32 -84.5t-96 -37.5q-24 0 -51 9l-15 5q-12 4 -6 16l32 62q5 11 16 6l12 -4q12 -4 28 -4q30 0 30 28q0 20 -25 20h-35q-9 0 -14 9
q-4 5 1 13l31 59q-65 7 -146 35l-57 20q-13 3 -6 15l46 91q5 11 16 6l52 -19q75 -26 148 -26q63 0 102 23.5t39 66.5q0 49 -77 80l-97 38q-79 32 -112.5 67t-33.5 94q0 43 14.5 82t45.5 74t87.5 55.5t132.5 20.5q74 0 158 -29l58 -20q12 -3 6 -16l-49 -90q-5 -11 -15 -6
l-53 18q-58 20 -116 20q-60 0 -95 -24.5t-35 -66.5q0 -21 17 -37.5t57 -32.5z" />
    <glyph glyph-name="scedilla" unicode="&#x15f;" horiz-adv-x="490" 
d="M227 313l89 -24q115 -30 115 -123q0 -67 -46 -119t-147 -57l-15 -26h7q27 0 44 -18.5t17 -51.5q0 -47 -32 -84.5t-96 -37.5q-24 0 -51 9l-15 5q-12 4 -6 16l32 62q5 11 16 6l12 -4q12 -4 28 -4q30 0 30 28q0 20 -25 20h-35q-9 0 -14 9q-4 5 1 13l31 59q-47 4 -103 19
l-46 13q-13 3 -7 15l42 90q4 10 16 7l34 -10q53 -15 119 -15q37 0 56.5 12.5t19.5 31.5q0 21 -31 29l-89 23q-112 29 -112 117q0 75 52 125.5t158 50.5q61 0 130 -19l47 -12q13 -3 7 -15l-41 -91q-4 -10 -16 -7l-42 12q-40 11 -89 11q-34 0 -54 -11t-20 -28q0 -19 29 -26z
" />
    <glyph glyph-name="Scaron" unicode="&#x160;" horiz-adv-x="612" 
d="M461 778h-135q-10 0 -14 8l-78 110q-8 15 8 15h97q9 0 15 -6l51 -51l72 52q6 5 15 5h94q8 0 10 -4.5t-4 -10.5l-116 -112q-6 -6 -15 -6zM314 430l92 -36q81 -32 117.5 -70t36.5 -97q0 -44 -14.5 -84t-46 -76t-90.5 -57t-140 -21q-83 0 -188 37l-57 20q-13 3 -6 15l46 91
q5 11 16 6l52 -19q75 -26 148 -26q63 0 102 23.5t39 66.5q0 49 -77 80l-97 38q-79 32 -112.5 67t-33.5 94q0 43 14.5 82t45.5 74t87.5 55.5t132.5 20.5q74 0 158 -29l58 -20q12 -3 6 -16l-49 -90q-5 -11 -15 -6l-53 18q-58 20 -116 20q-60 0 -95 -24.5t-35 -66.5
q0 -21 17 -37.5t57 -32.5z" />
    <glyph glyph-name="scaron" unicode="&#x161;" horiz-adv-x="490" 
d="M342 562h-99q-9 0 -15 9l-72 137q-7 14 9 14h82q10 0 14 -8l45 -65l69 67q6 6 15 6h80q8 0 9.5 -4.5t-3.5 -10.5l-119 -138q-6 -7 -15 -7zM403 355l-42 12q-40 11 -89 11q-34 0 -54 -11t-20 -28q0 -19 29 -26l89 -24q115 -30 115 -123q0 -32 -10.5 -61.5t-34 -56.5
t-67 -43t-102.5 -16q-77 0 -153 21l-46 13q-13 3 -7 15l42 90q4 10 16 7l34 -10q53 -15 119 -15q37 0 56.5 12.5t19.5 31.5q0 21 -31 29l-89 23q-112 29 -112 117q0 75 52 125.5t158 50.5q61 0 130 -19l47 -12q13 -3 7 -15l-41 -91q-4 -10 -16 -7z" />
    <glyph glyph-name="Tcedilla" unicode="&#x162;" horiz-adv-x="646" 
d="M128 704h548q13 0 11 -13l-17 -97q-2 -11 -13 -11h-205l-99 -572q-2 -11 -13 -11h-15l-21 -36h7q27 0 44 -18.5t17 -51.5q0 -47 -32 -84.5t-96 -37.5q-24 0 -51 9l-15 5q-12 4 -6 16l32 62q5 11 16 6l12 -4q12 -4 28 -4q30 0 30 28q0 20 -25 20h-35q-10 0 -14 9
q-4 5 1 13l36 68h-27q-13 0 -11 13l98 570h-204q-13 0 -11 13l17 97q2 11 13 11z" />
    <glyph glyph-name="tcedilla" unicode="&#x163;" horiz-adv-x="401" 
d="M256 369l-37 -213q-8 -46 24 -46q15 0 27 4t16 -7l25 -83q3 -10 -6 -15q-40 -20 -82 -20h-15l-15 -25h7q27 0 44 -18.5t17 -51.5q0 -47 -32 -84.5t-96 -37.5q-24 0 -51 9l-15 5q-12 4 -6 16l32 62q5 11 16 6l12 -4q12 -4 28 -4q30 0 30 28q0 20 -25 20h-35q-9 0 -14 9
q-4 5 1 13l38 73q-80 38 -60 152l36 212h-49q-13 0 -11 13l16 95q2 11 13 11h51l19 112q1 10 11 13l120 37q7 2 10.5 -1t1.5 -10l-26 -151h112q13 0 11 -13l-17 -95q-2 -11 -13 -11h-113z" />
    <glyph glyph-name="Tcaron" unicode="&#x164;" horiz-adv-x="646" 
d="M486 780h-135q-10 0 -14 8l-78 110q-8 15 8 15h97q9 0 15 -6l51 -51l72 52q6 5 15 5h94q8 0 10 -4.5t-4 -10.5l-116 -112q-6 -6 -15 -6zM128 704h548q13 0 11 -13l-17 -97q-2 -11 -13 -11h-205l-99 -572q-2 -11 -13 -11h-114q-13 0 -11 13l98 570h-204q-13 0 -11 13
l17 97q2 11 13 11z" />
    <glyph glyph-name="tcaron" unicode="&#x165;" horiz-adv-x="401" 
d="M386 722h77q13 0 10 -13l-6 -33q-5 -43 -38 -91l-10 -15q-4 -8 -14 -8h-62q-16 0 -9 14l8 20q15 28 24 75l7 40q2 11 13 11zM276 488h112q13 0 11 -13l-17 -95q-2 -11 -13 -11h-113l-37 -213q-8 -46 24 -46q15 0 27 4t16 -7l25 -83q3 -10 -6 -15q-40 -20 -82 -20
q-80 0 -116.5 44.5t-22.5 123.5l36 212h-49q-13 0 -11 13l16 95q2 11 13 11h51l19 112q1 10 11 13l120 37q7 2 10.5 -1t1.5 -10z" />
    <glyph glyph-name="Tbar" unicode="&#x166;" horiz-adv-x="666" 
d="M462 583l-29 -166h126q13 0 11 -13l-17 -97q-2 -11 -13 -11h-128l-49 -285q-2 -11 -13 -11h-114q-13 0 -11 13l49 283h-125q-13 0 -11 13l18 97q2 11 13 11h126l28 166h-204q-13 0 -11 13l17 97q2 11 13 11h548q13 0 11 -13l-17 -97q-2 -11 -13 -11h-205z" />
    <glyph glyph-name="tbar" unicode="&#x167;" horiz-adv-x="411" 
d="M269 369l-12 -69h112q13 0 11 -13l-12 -67q-2 -11 -13 -11h-114l-9 -53q-8 -46 24 -46q15 0 27 4t16 -7l25 -83q3 -10 -6 -15q-40 -20 -82 -20q-80 0 -116.5 44.5t-22.5 123.5l9 52h-51q-13 0 -11 13l13 67q2 11 13 11h51l12 69h-49q-13 0 -11 13l16 95q2 11 13 11h51
l19 112q1 10 11 13l120 37q7 2 10.5 -1t1.5 -10l-26 -151h112q13 0 11 -13l-17 -95q-2 -11 -13 -11h-113z" />
    <glyph glyph-name="Utilde" unicode="&#x168;" horiz-adv-x="676" 
d="M251 803l34 48q35 55 105 55q28 0 60 -16l32 -15q16 -7 23 -7q16 0 27 16l9 12q4 7 14 7h70q18 0 8 -15l-34 -48q-38 -55 -106 -55q-23 0 -59 16l-33 15q-14 7 -24 7q-15 0 -26 -15l-9 -12q-4 -8 -14 -8h-69q-18 0 -8 15zM692 691l-72 -408q-24 -141 -109 -217.5
t-213 -76.5q-133 0 -193.5 80t-35.5 222l70 402q2 11 13 11h113q13 0 11 -13l-71 -408q-13 -84 13.5 -127t89.5 -43q68 0 115 47t61 131l70 402q2 11 13 11h114q13 0 11 -13z" />
    <glyph glyph-name="utilde" unicode="&#x169;" 
d="M170 599l32 49q38 58 105 58q26 0 50 -17l29 -20q10 -8 19 -8t22 17l13 17q4 7 14 7h68q7 0 9 -4t-2 -11l-32 -49q-37 -57 -103 -57q-26 0 -50 16l-28 18q-16 10 -21 10q-11 0 -23 -16l-13 -18q-4 -7 -14 -7h-68q-7 0 -9 4t2 11zM370 10l-7 29q-5 10 -10 9.5t-18 -9.5
q-61 -50 -134 -50q-89 0 -130 52t-25 141l51 295q2 11 13 11h112q13 0 11 -13l-50 -287q-13 -78 50 -78q49 0 82.5 35t44.5 96l40 236q2 11 13 11h112q13 0 11 -13l-80 -464q-2 -11 -13 -11h-60q-12 0 -13 10z" />
    <glyph glyph-name="Umacron" unicode="&#x16a;" horiz-adv-x="676" 
d="M297 893h304q13 0 11 -13l-13 -72q-2 -11 -13 -11h-304q-13 0 -11 13l13 72q2 11 13 11zM692 691l-72 -408q-24 -141 -109 -217.5t-213 -76.5q-133 0 -193.5 80t-35.5 222l70 402q2 11 13 11h113q13 0 11 -13l-71 -408q-13 -84 13.5 -127t89.5 -43q68 0 115 47t61 131
l70 402q2 11 13 11h114q13 0 11 -13z" />
    <glyph glyph-name="umacron" unicode="&#x16b;" 
d="M225 686h253q13 0 11 -13l-12 -68q-2 -11 -13 -11h-254q-13 0 -11 13l13 68q2 11 13 11zM370 10l-7 29q-5 10 -10 9.5t-18 -9.5q-61 -50 -134 -50q-89 0 -130 52t-25 141l51 295q2 11 13 11h112q13 0 11 -13l-50 -287q-13 -78 50 -78q49 0 82.5 35t44.5 96l40 236
q2 11 13 11h112q13 0 11 -13l-80 -464q-2 -11 -13 -11h-60q-12 0 -13 10z" />
    <glyph glyph-name="Ubreve" unicode="&#x16c;" horiz-adv-x="676" 
d="M598 901l-2 -11q-22 -120 -168 -120q-76 0 -107 29t-20 91l2 13q2 11 13 11h80q13 0 11 -13l-1 -3q-6 -39 37 -39t49 39l1 5q2 11 13 11h81q13 0 11 -13zM692 691l-72 -408q-24 -141 -109 -217.5t-213 -76.5q-133 0 -193.5 80t-35.5 222l70 402q2 11 13 11h113
q13 0 11 -13l-71 -408q-13 -84 13.5 -127t89.5 -43q68 0 115 47t61 131l70 402q2 11 13 11h114q13 0 11 -13z" />
    <glyph glyph-name="ubreve" unicode="&#x16d;" 
d="M493 709l-5 -28q-10 -61 -51 -94t-103 -33q-66 0 -96 37t-19 100l3 20q2 11 13 11h69q13 0 10 -13l-6 -34q-5 -36 34 -36q22 0 36.5 13.5t16.5 32.5l5 26q2 11 13 11h69q13 0 11 -13zM370 10l-7 29q-5 10 -10 9.5t-18 -9.5q-61 -50 -134 -50q-89 0 -130 52t-25 141
l51 295q2 11 13 11h112q13 0 11 -13l-50 -287q-13 -78 50 -78q49 0 82.5 35t44.5 96l40 236q2 11 13 11h112q13 0 11 -13l-80 -464q-2 -11 -13 -11h-60q-12 0 -13 10z" />
    <glyph glyph-name="Uring" unicode="&#x16e;" horiz-adv-x="676" 
d="M455 931q41 0 64.5 -19t23.5 -53q0 -46 -32 -72.5t-87 -26.5q-41 0 -64.5 18.5t-23.5 52.5q0 46 32 73t87 27zM445 880q-20 0 -32 -11.5t-12 -30.5q0 -28 33 -28q20 0 32 11t12 30q0 29 -33 29zM692 691l-72 -408q-24 -141 -109 -217.5t-213 -76.5q-133 0 -193.5 80
t-35.5 222l70 402q2 11 13 11h113q13 0 11 -13l-71 -408q-13 -84 13.5 -127t89.5 -43q68 0 115 47t61 131l70 402q2 11 13 11h114q13 0 11 -13z" />
    <glyph glyph-name="uring" unicode="&#x16f;" 
d="M359 731q40 0 62.5 -19t22.5 -53q0 -39 -27.5 -72t-84.5 -33q-42 0 -64 18.5t-22 51.5q0 44 28 75.5t85 31.5zM353 677q-19 0 -30.5 -12t-12.5 -31q-1 -12 6.5 -19.5t21.5 -7.5q19 0 30.5 12.5t11.5 32.5q0 25 -27 25zM370 10l-7 29q-5 10 -10 9.5t-18 -9.5
q-61 -50 -134 -50q-89 0 -130 52t-25 141l51 295q2 11 13 11h112q13 0 11 -13l-50 -287q-13 -78 50 -78q49 0 82.5 35t44.5 96l40 236q2 11 13 11h112q13 0 11 -13l-80 -464q-2 -11 -13 -11h-60q-12 0 -13 10z" />
    <glyph glyph-name="Uhungarumlaut" unicode="&#x170;" horiz-adv-x="676" 
d="M460 899l-74 -110q-4 -8 -14 -8h-96q-7 0 -9.5 4t1.5 10l59 111q6 8 15 8h110q18 0 8 -15zM665 899l-84 -111q-6 -7 -15 -7h-101q-7 0 -9 4t2 11l73 110q4 8 14 8h113q7 0 9.5 -4.5t-2.5 -10.5zM692 691l-72 -408q-24 -141 -109 -217.5t-213 -76.5q-133 0 -193.5 80
t-35.5 222l70 402q2 11 13 11h113q13 0 11 -13l-71 -408q-13 -84 13.5 -127t89.5 -43q68 0 115 47t61 131l70 402q2 11 13 11h114q13 0 11 -13z" />
    <glyph glyph-name="uhungarumlaut" unicode="&#x171;" 
d="M366 708l-72 -137q-6 -9 -15 -9h-84q-16 0 -9 14l60 137q4 9 14 9h97q16 0 9 -14zM551 708l-84 -138q-5 -8 -14 -8h-84q-16 0 -9 14l71 137q5 9 14 9h98q17 0 8 -14zM370 10l-7 29q-5 10 -10 9.5t-18 -9.5q-61 -50 -134 -50q-89 0 -130 52t-25 141l51 295q2 11 13 11h112
q13 0 11 -13l-50 -287q-13 -78 50 -78q49 0 82.5 35t44.5 96l40 236q2 11 13 11h112q13 0 11 -13l-80 -464q-2 -11 -13 -11h-60q-12 0 -13 10z" />
    <glyph glyph-name="Uogonek" unicode="&#x172;" horiz-adv-x="676" 
d="M567 704h114q13 0 11 -13l-72 -408q-29 -168 -140 -242l-185 -138q-15 -10 -15 -24q0 -13 14 -13q12 0 29 5l10 4q12 4 14 -9l12 -64q1 -10 -9 -15l-18 -6q-26 -9 -56 -9q-47 0 -74 20t-27 55q0 51 50 89l31 23q32 24 3 32q-113 12 -163 90.5t-27 209.5l70 402
q2 11 13 11h113q13 0 11 -13l-71 -408q-13 -84 13.5 -127t89.5 -43q68 0 115 47t61 131l70 402q2 11 13 11z" />
    <glyph glyph-name="uogonek" unicode="&#x173;" 
d="M413 488h112q13 0 11 -13l-82 -475q-4 -24 -43 -54l-55 -43q-15 -12 -15 -24q0 -13 14 -13q12 0 29 5l9 3q12 5 14 -9l13 -64q2 -11 -9 -14l-18 -6q-25 -9 -55 -9q-47 0 -74 20t-27 55q0 51 49 88l54 41q30 21 30 33l-7 30q-5 10 -10 9.5t-18 -9.5q-61 -50 -134 -50
q-89 0 -130 52t-25 141l51 295q2 11 13 11h112q13 0 11 -13l-50 -287q-13 -78 50 -78q49 0 82.5 35t44.5 96l40 236q2 11 13 11z" />
    <glyph glyph-name="Wcircumflex" unicode="&#x174;" horiz-adv-x="1008" 
d="M603 838l-72 -52q-6 -5 -15 -5h-94q-8 0 -10 4.5t4 10.5l116 112q6 6 15 6h135q10 0 14 -8l78 -110q8 -15 -8 -15h-97q-9 0 -15 6zM918 704h120q16 0 9 -14l-215 -489q-51 -117 -77 -191q-3 -10 -13 -10h-153q-12 0 -12 12q-2 98 -9 162l-20 181q-2 53 -1 93q0 6 -3 8.5
t-7 0t-6 -8.5q-22 -61 -35 -93l-82 -183q-34 -84 -64 -162q-3 -10 -13 -10h-153q-12 0 -12 12q-2 101 -10 189l-47 490q-2 13 12 13h113q10 0 12 -11l31 -314q7 -92 0 -195q-1 -9 6 -9t10 9q31 101 73 195l146 316q4 9 14 9h94q10 0 12 -11l38 -314q8 -71 6 -195q-1 -8 5 -9
q8 -1 10 9q20 81 68 195l139 316q4 9 14 9z" />
    <glyph glyph-name="wcircumflex" unicode="&#x175;" horiz-adv-x="817" 
d="M470 635l-69 -67q-6 -6 -15 -6h-80q-8 0 -9.5 4.5t3.5 10.5l119 138q6 7 15 7h99q9 0 15 -9l72 -137q7 -14 -9 -14h-82q-10 0 -14 8zM693 488h118q15 0 10 -14l-121 -262q-64 -140 -89 -203q-5 -9 -14 -9h-141q-11 0 -13 11l-8 94l-11 74q-6 42 -6 82q0 7 -2.5 9t-6 -0.5
t-5.5 -8.5q-25 -57 -34 -82l-36 -74q-5 -11 -20 -44.5t-22 -51.5q-4 -9 -14 -9h-139q-11 0 -13 12q-3 40 -19 200l-31 263q0 13 12 13h111q10 0 12 -11l15 -135q7 -101 7 -180q0 -9 7 -9t10 9q14 34 47 107.5t43 95.5l55 114q5 9 14 9h73q11 0 13 -11l18 -112
q16 -170 18 -203q1 -9 7.5 -9t9.5 9q29 83 70 180l61 137q5 9 14 9z" />
    <glyph glyph-name="Ycircumflex" unicode="&#x176;" horiz-adv-x="688" 
d="M439 838l-72 -52q-6 -5 -15 -5h-94q-8 0 -10 4.5t4 10.5l116 112q6 6 15 6h135q10 0 14 -8l78 -110q8 -15 -8 -15h-97q-9 0 -15 6zM592 704h133q7 0 9.5 -4.5t-2.5 -10.5l-177 -241q-63 -89 -85.5 -122.5t-45 -86t-32.5 -113.5l-19 -115q-2 -11 -13 -11h-114
q-13 0 -11 13l19 113q8 47 9.5 82t-7.5 76t-18.5 70.5t-33.5 93.5l-95 242q-5 14 10 14h118q9 0 14 -9l62 -152q34 -87 43 -146q1 -5 4 -7t7 0t7 7q47 88 89 146l115 154q4 7 14 7z" />
    <glyph glyph-name="ycircumflex" unicode="&#x177;" horiz-adv-x="563" 
d="M342 635l-69 -67q-6 -6 -15 -6h-80q-8 0 -9.5 4.5t3.5 10.5l119 138q6 7 15 7h99q9 0 15 -9l72 -137q7 -14 -9 -14h-82q-10 0 -14 8zM446 488h119q7 0 9.5 -4t-1.5 -10l-383 -683q-6 -8 -15 -8h-116q-7 0 -9.5 4t1.5 10l63 113q31 59 33 129t-21 183l-57 253q-3 13 11 13
h114q12 0 13 -11l34 -149q17 -83 15 -160q0 -8 3 -11t7.5 0t7.5 11q28 78 71 159l86 153q6 8 15 8z" />
    <glyph glyph-name="Ydieresis" unicode="&#x178;" horiz-adv-x="688" 
d="M349 919q67 0 67 -56q0 -34 -21.5 -60.5t-68.5 -26.5q-67 0 -67 55q0 36 21 62t69 26zM558 919q67 0 67 -56q0 -34 -21.5 -60.5t-68.5 -26.5q-67 0 -67 55q0 36 21 62t69 26zM732 689l-177 -241q-63 -89 -85.5 -122.5t-45 -86t-32.5 -113.5l-19 -115q-2 -11 -13 -11h-114
q-13 0 -11 13l19 113q8 47 9.5 82t-7.5 76t-18.5 70.5t-33.5 93.5l-95 242q-5 14 10 14h118q9 0 14 -9l62 -152q34 -87 43 -146q1 -5 4 -7t7 0t7 7q47 88 89 146l115 154q4 7 14 7h133q7 0 9.5 -4.5t-2.5 -10.5z" />
    <glyph glyph-name="Zacute" unicode="&#x179;" horiz-adv-x="639" 
d="M445 914h146q8 0 9.5 -4.5t-4.5 -10.5l-129 -112q-6 -6 -14 -6h-104q-8 0 -10 4.5t3 10.5l88 111q6 7 15 7zM662 695l1 -3q4 -8 -2 -17q-73 -88 -118 -151l-211 -289q-3 -4 -31.5 -42.5t-42.5 -55.5t6 -17q28 1 82 1h197q14 0 9 -14l-45 -98q-5 -9 -14 -9h-461
q-10 0 -14 9l-1 3q-4 8 2 17q50 58 118 154l208 284q46 66 77 98q7 7 5 12.5t-11 5.5h-279q-13 0 -11 13l17 97q2 11 13 11h492q10 0 14 -9z" />
    <glyph glyph-name="zacute" unicode="&#x17a;" horiz-adv-x="498" 
d="M351 722h123q8 0 10 -4.5t-3 -10.5l-120 -138q-6 -7 -15 -7h-89q-17 0 -8 14l88 138q4 8 14 8zM496 480q3 -8 -3 -15q-22 -26 -63 -82l-139 -192q-28 -37 -54 -62q-11 -11 3 -11q11 0 30.5 0.5t28.5 0.5h120q7 0 9.5 -4t-1.5 -10l-51 -96q-6 -9 -15 -9h-338q-10 0 -14 10
q-2 6 4 13q33 40 67 87l136 186q22 33 54 63q11 11 -3 11q-18 -1 -58 -1h-116q-13 0 -11 13l16 95q2 11 13 11h371q10 0 14 -8z" />
    <glyph glyph-name="Zdotaccent" unicode="&#x17b;" horiz-adv-x="639" 
d="M433 919q73 0 73 -56q0 -34 -23.5 -60.5t-74.5 -26.5q-73 0 -73 55q0 36 23 62t75 26zM662 695l1 -3q4 -8 -2 -17q-73 -88 -118 -151l-211 -289q-3 -4 -31.5 -42.5t-42.5 -55.5t6 -17q28 1 82 1h197q14 0 9 -14l-45 -98q-5 -9 -14 -9h-461q-10 0 -14 9l-1 3q-4 8 2 17
q50 58 118 154l208 284q46 66 77 98q7 7 5 12.5t-11 5.5h-279q-13 0 -11 13l17 97q2 11 13 11h492q10 0 14 -9z" />
    <glyph glyph-name="zdotaccent" unicode="&#x17c;" horiz-adv-x="498" 
d="M330 734q34 0 53 -18.5t19 -50.5q0 -38 -20 -64.5t-62 -26.5q-35 0 -54 18t-19 51q0 44 22 67.5t61 23.5zM496 480q3 -8 -3 -15q-22 -26 -63 -82l-139 -192q-28 -37 -54 -62q-11 -11 3 -11q11 0 30.5 0.5t28.5 0.5h120q7 0 9.5 -4t-1.5 -10l-51 -96q-6 -9 -15 -9h-338
q-10 0 -14 10q-2 6 4 13q33 40 67 87l136 186q22 33 54 63q11 11 -3 11q-18 -1 -58 -1h-116q-13 0 -11 13l16 95q2 11 13 11h371q10 0 14 -8z" />
    <glyph glyph-name="Zcaron" unicode="&#x17d;" horiz-adv-x="639" 
d="M479 780h-135q-10 0 -14 8l-78 110q-8 15 8 15h97q9 0 15 -6l51 -51l72 52q6 5 15 5h94q8 0 10 -4.5t-4 -10.5l-116 -112q-6 -6 -15 -6zM543 524l-211 -289q-3 -4 -31.5 -42.5t-42.5 -55.5t6 -17q28 1 82 1h197q14 0 9 -14l-45 -98q-5 -9 -14 -9h-461q-10 0 -14 9l-1 3
q-4 8 2 17q50 58 118 154l208 284q46 66 77 98q7 7 5 12.5t-11 5.5h-279q-13 0 -11 13l17 97q2 11 13 11h492q10 0 14 -9l1 -3q4 -8 -2 -17q-73 -88 -118 -151z" />
    <glyph glyph-name="zcaron" unicode="&#x17e;" horiz-adv-x="498" 
d="M358 562h-99q-9 0 -15 9l-72 137q-7 14 9 14h82q10 0 14 -8l45 -65l69 67q6 6 15 6h80q8 0 9.5 -4.5t-3.5 -10.5l-119 -138q-6 -7 -15 -7zM430 383l-139 -192q-28 -37 -54 -62q-11 -11 3 -11q11 0 30.5 0.5t28.5 0.5h120q7 0 9.5 -4t-1.5 -10l-51 -96q-6 -9 -15 -9h-338
q-10 0 -14 10q-2 6 4 13q33 40 67 87l136 186q22 33 54 63q11 11 -3 11q-18 -1 -58 -1h-116q-13 0 -11 13l16 95q2 11 13 11h371q10 0 14 -9q3 -7 -3 -14q-22 -26 -63 -82z" />
    <glyph glyph-name="Schwa" unicode="&#x18f;" horiz-adv-x="657" 
d="M168 678l54 15q69 21 151 21q123 0 192 -72.5t70 -201.5q0 -58 -12.5 -118.5t-41 -120.5t-70 -107t-106 -76t-141.5 -29q-108 0 -169 50t-61 138q0 102 56 157.5t178 80.5l224 46q-5 54 -34.5 92t-88.5 38q-63 0 -126 -19l-50 -14q-12 -5 -14 8l-20 98q-2 11 9 14z
M483 336l-208 -43q-53 -10 -77.5 -35.5t-24.5 -69.5q0 -35 25 -55t70 -20q80 0 138.5 63.5t76.5 159.5z" />
    <glyph glyph-name="LJ" unicode="&#x1c7;" horiz-adv-x="955" 
d="M189 123h267q13 0 11 -13l-17 -99q-2 -11 -13 -11h-395q-13 0 -11 13l118 680q2 11 13 11h114q13 0 11 -13zM964 691l-81 -471q-19 -110 -79.5 -170.5t-157.5 -60.5q-43 0 -92 20l-12 5q-11 5 -5 16l47 90q5 10 16 5l12 -5q19 -7 40 -7q33 0 58 26t34 76l82 478
q2 11 13 11h114q13 0 11 -13z" />
    <glyph glyph-name="lj" unicode="&#x1c9;" horiz-adv-x="579" 
d="M514 732q35 0 54 -18t19 -51q0 -43 -22 -67t-61 -24q-35 0 -54 18.5t-19 51.5q0 43 22 66.5t61 23.5zM277 709l-99 -577q-5 -22 12 -22h7q12 2 15 -9l20 -87q2 -11 -8 -15q-24 -10 -55 -10q-71 0 -105 38t-22 105l100 579q2 11 13 11h111q13 0 11 -13zM558 475l-83 -483
q-26 -143 -163 -204l-29 -14q-12 -5 -15 7l-36 92q-5 11 6 16l21 11q71 32 82 102l63 367h-49q-13 0 -11 13l16 95q2 11 13 11h174q13 0 11 -13z" />
    <glyph glyph-name="NJ" unicode="&#x1ca;" horiz-adv-x="1148" 
d="M601 0h-141q-11 0 -14 10q-14 50 -34 103l-126 315q-2 7 -26 77q-2 6 -6.5 7.5t-8 -2t-3.5 -9.5q-1 -66 -16 -161l-57 -329q-2 -11 -13 -11h-114q-13 0 -11 13l118 680q2 11 13 11h141q11 0 14 -10q9 -29 34 -103l124 -309l29 -83q3 -10 9.5 -8t5.5 12q1 69 17 159
l57 331q2 11 13 11h115q13 0 11 -13l-118 -680q-2 -11 -13 -11zM1157 691l-82 -479q-19 -106 -84 -164.5t-163 -58.5q-38 0 -83 17l-13 5q-13 3 -6 15l52 98q5 11 16 6l14 -5q23 -7 43 -7q33 0 56 24.5t30 69.5l83 481q2 11 13 11h113q13 0 11 -13z" />
    <glyph glyph-name="nj" unicode="&#x1cc;" horiz-adv-x="850" 
d="M785 732q35 0 54 -18t19 -51q0 -43 -22 -67t-61 -24q-35 0 -54 18.5t-19 51.5q0 43 22 66.5t61 23.5zM187 478l7 -29q5 -10 10 -9.5t18 9.5q61 50 134 50q89 0 130 -52t25 -141l-51 -295q-2 -11 -13 -11h-112q-13 0 -11 13l50 287q14 78 -50 78q-49 0 -82.5 -35
t-44.5 -96l-40 -236q-2 -11 -13 -11h-112q-13 0 -11 13l80 464q2 11 13 11h60q12 0 13 -10zM829 475l-83 -483q-26 -143 -163 -204l-29 -14q-12 -5 -15 7l-36 92q-5 11 6 16l21 11q71 32 82 102l63 367h-49q-13 0 -11 13l16 95q2 11 13 11h174q13 0 11 -13z" />
    <glyph glyph-name="Acaron" unicode="&#x1cd;" horiz-adv-x="735" 
d="M538 780h-135q-10 0 -14 8l-78 110q-8 15 8 15h97q9 0 15 -6l51 -51l72 52q6 5 15 5h94q8 0 10 -4.5t-4 -10.5l-116 -112q-6 -6 -15 -6zM371 704h155q12 0 13 -12q7 -102 38 -267l84 -412q3 -13 -10 -13h-114q-11 0 -13 11l-21 103h-304l-57 -106q-6 -8 -15 -8h-124
q-7 0 -9.5 4t1.5 10l228 411q95 176 134 270q5 9 14 9zM479 235l-18 85q-27 147 -27 212q-1 9 -7.5 9t-10.5 -9q-34 -87 -103 -212l-47 -85h213z" />
    <glyph glyph-name="acaron" unicode="&#x1ce;" horiz-adv-x="567" 
d="M397 562h-99q-9 0 -15 9l-72 137q-7 14 9 14h82q10 0 14 -8l45 -65l69 67q6 6 15 6h80q8 0 9.5 -4.5t-3.5 -10.5l-119 -138q-6 -7 -15 -7zM436 484l100 -24q11 -3 9 -14l-74 -435q-2 -11 -13 -11h-62q-12 0 -12 12v47q-2 16 -7 17t-22 -16q-61 -71 -143 -71
q-84 0 -130.5 49t-46.5 138q0 54 16.5 108.5t50 103.5t93 80t136.5 31q43 0 105 -15zM397 364l-22 7q-24 7 -50 7q-52 0 -89.5 -34.5t-52.5 -76t-15 -79.5q0 -37 18.5 -57.5t50.5 -20.5q53 0 93.5 58t58.5 154z" />
    <glyph glyph-name="Icaron" unicode="&#x1cf;" horiz-adv-x="280" 
d="M333 913h94q8 0 10 -4.5t-4 -10.5l-116 -112q-6 -6 -15 -6h-135q-10 0 -14 8l-78 110q-8 15 8 15h97q9 0 15 -6l51 -51l72 52q6 5 15 5zM31 13l118 680q2 11 13 11h114q13 0 11 -13l-118 -680q-2 -11 -13 -11h-114q-13 0 -11 13z" />
    <glyph glyph-name="icaron" unicode="&#x1d0;" horiz-adv-x="295" 
d="M264 562h-108q-10 0 -14 10l-51 136q-5 14 10 14h77q9 0 15 -9l31 -59l54 61q6 7 15 7h76q16 0 8 -15l-99 -138q-4 -7 -14 -7zM60 382l16 95q2 11 13 11h174q13 0 11 -13l-80 -464q-2 -11 -13 -11h-112q-13 0 -11 13l62 356h-49q-13 0 -11 13z" />
    <glyph glyph-name="Ocaron" unicode="&#x1d1;" horiz-adv-x="720" 
d="M527 780h-135q-10 0 -14 8l-78 110q-8 15 8 15h97q9 0 15 -6l51 -51l72 52q6 5 15 5h94q8 0 10 -4.5t-4 -10.5l-116 -112q-6 -6 -15 -6zM433 714q126 0 195 -73t69 -203q0 -47 -9 -96t-26.5 -100t-48.5 -96t-70.5 -80.5t-96 -56t-122.5 -20.5q-125 0 -194.5 74t-69.5 204
q0 57 12 115.5t40.5 119t70 107t106.5 76t144 29.5zM330 113q59 0 105.5 33t72 83.5t38 103.5t12.5 101q0 76 -33.5 116.5t-96.5 40.5q-60 0 -106.5 -32.5t-72 -83t-38 -103t-12.5 -101.5q0 -75 34 -116.5t97 -41.5z" />
    <glyph glyph-name="ocaron" unicode="&#x1d2;" horiz-adv-x="555" 
d="M382 562h-99q-9 0 -15 9l-72 137q-7 14 9 14h82q10 0 14 -8l45 -65l69 67q6 6 15 6h80q8 0 9.5 -4.5t-3.5 -10.5l-119 -138q-6 -7 -15 -7zM313 499q98 0 152 -54t54 -148q0 -40 -9 -81t-30 -82.5t-52 -73t-79 -51.5t-107 -20q-98 0 -152.5 54t-54.5 148q0 40 9 81
t30.5 82.5t52.5 73t79.5 51.5t106.5 20zM246 110q47 0 81 32t47 70.5t13 76.5q0 43 -20.5 66t-58.5 23q-48 0 -81.5 -32t-46 -70.5t-12.5 -76.5q0 -89 78 -89z" />
    <glyph glyph-name="Ucaron" unicode="&#x1d3;" horiz-adv-x="676" 
d="M499 780h-135q-10 0 -14 8l-78 110q-8 15 8 15h97q9 0 15 -6l51 -51l72 52q6 5 15 5h94q8 0 10 -4.5t-4 -10.5l-116 -112q-6 -6 -15 -6zM567 704h114q13 0 11 -13l-72 -408q-24 -141 -109 -217.5t-213 -76.5q-133 0 -193.5 80t-35.5 222l70 402q2 11 13 11h113
q13 0 11 -13l-71 -408q-13 -84 13.5 -127t89.5 -43q68 0 115 47t61 131l70 402q2 11 13 11z" />
    <glyph glyph-name="ucaron" unicode="&#x1d4;" 
d="M381 562h-99q-9 0 -15 9l-72 137q-7 14 9 14h82q10 0 14 -8l45 -65l69 67q6 6 15 6h80q8 0 9.5 -4.5t-3.5 -10.5l-119 -138q-6 -7 -15 -7zM413 488h112q13 0 11 -13l-80 -464q-2 -11 -13 -11h-60q-12 0 -13 10l-7 29q-5 10 -10 9.5t-18 -9.5q-61 -50 -134 -50
q-89 0 -130 52t-25 141l51 295q2 11 13 11h112q13 0 11 -13l-50 -287q-13 -78 50 -78q49 0 82.5 35t44.5 96l40 236q2 11 13 11z" />
    <glyph glyph-name="Udieresismacron" unicode="&#x1d5;" horiz-adv-x="676" 
d="M327 1041h304q13 0 11 -13l-13 -72q-2 -11 -13 -11h-304q-13 0 -11 13l13 72q2 11 13 11zM343 896q67 0 67 -56q0 -34 -21.5 -60.5t-68.5 -26.5q-67 0 -67 55q0 36 21 62t69 26zM552 896q67 0 67 -56q0 -34 -21.5 -60.5t-68.5 -26.5q-67 0 -67 55q0 36 21 62t69 26z
M692 691l-72 -408q-24 -141 -109 -217.5t-213 -76.5q-133 0 -193.5 80t-35.5 222l70 402q2 11 13 11h113q13 0 11 -13l-71 -408q-13 -84 13.5 -127t89.5 -43q68 0 115 47t61 131l70 402q2 11 13 11h114q13 0 11 -13z" />
    <glyph glyph-name="udieresismacron" unicode="&#x1d6;" 
d="M253 859h253q13 0 11 -13l-12 -68q-2 -11 -13 -11h-254q-13 0 -11 13l13 68q2 11 13 11zM245 694q32 0 49.5 -16.5t17.5 -46.5q0 -35 -19 -59.5t-57 -24.5q-32 0 -49.5 17t-17.5 47q0 40 20.5 61.5t55.5 21.5zM434 694q32 0 49.5 -16.5t17.5 -46.5q0 -35 -19 -59.5
t-57 -24.5q-32 0 -49.5 17t-17.5 47q0 40 20.5 61.5t55.5 21.5zM370 10l-7 29q-5 10 -10 9.5t-18 -9.5q-61 -50 -134 -50q-89 0 -130 52t-25 141l51 295q2 11 13 11h112q13 0 11 -13l-50 -287q-13 -78 50 -78q49 0 82.5 35t44.5 96l40 236q2 11 13 11h112q13 0 11 -13
l-80 -464q-2 -11 -13 -11h-60q-12 0 -13 10z" />
    <glyph glyph-name="Udieresisacute" unicode="&#x1d7;" horiz-adv-x="676" 
d="M506 1062h146q8 0 9.5 -4.5t-4.5 -10.5l-129 -112q-6 -6 -14 -6h-104q-8 0 -10 4.5t3 10.5l88 111q6 7 15 7zM343 896q67 0 67 -56q0 -34 -21.5 -60.5t-68.5 -26.5q-67 0 -67 55q0 36 21 62t69 26zM552 896q67 0 67 -56q0 -34 -21.5 -60.5t-68.5 -26.5q-67 0 -67 55
q0 36 21 62t69 26zM692 691l-72 -408q-24 -141 -109 -217.5t-213 -76.5q-133 0 -193.5 80t-35.5 222l70 402q2 11 13 11h113q13 0 11 -13l-71 -408q-13 -84 13.5 -127t89.5 -43q68 0 115 47t61 131l70 402q2 11 13 11h114q13 0 11 -13z" />
    <glyph glyph-name="udieresisacute" unicode="&#x1d8;" 
d="M399 902h123q8 0 10 -4.5t-3 -10.5l-120 -138q-6 -7 -15 -7h-89q-17 0 -8 14l88 138q4 8 14 8zM245 694q32 0 49.5 -16.5t17.5 -46.5q0 -35 -19 -59.5t-57 -24.5q-32 0 -49.5 17t-17.5 47q0 40 20.5 61.5t55.5 21.5zM434 694q32 0 49.5 -16.5t17.5 -46.5q0 -35 -19 -59.5
t-57 -24.5q-32 0 -49.5 17t-17.5 47q0 40 20.5 61.5t55.5 21.5zM370 10l-7 29q-5 10 -10 9.5t-18 -9.5q-61 -50 -134 -50q-89 0 -130 52t-25 141l51 295q2 11 13 11h112q13 0 11 -13l-50 -287q-13 -78 50 -78q49 0 82.5 35t44.5 96l40 236q2 11 13 11h112q13 0 11 -13
l-80 -464q-2 -11 -13 -11h-60q-12 0 -13 10z" />
    <glyph glyph-name="Udieresiscaron" unicode="&#x1d9;" horiz-adv-x="676" 
d="M530 928h-135q-10 0 -14 8l-78 110q-8 15 8 15h97q9 0 15 -6l51 -51l72 52q6 5 15 5h94q8 0 10 -4.5t-4 -10.5l-116 -112q-6 -6 -15 -6zM320 753q-67 0 -67 55q0 36 21 62t69 26q67 0 67 -56q0 -34 -21.5 -60.5t-68.5 -26.5zM462 808q0 36 21 62t69 26q67 0 67 -56
q0 -34 -21.5 -60.5t-68.5 -26.5q-67 0 -67 55zM567 704h114q13 0 11 -13l-72 -408q-24 -141 -109 -217.5t-213 -76.5q-133 0 -193.5 80t-35.5 222l70 402q2 11 13 11h113q13 0 11 -13l-71 -408q-13 -84 13.5 -127t89.5 -43q68 0 115 47t61 131l70 402q2 11 13 11z" />
    <glyph glyph-name="udieresiscaron" unicode="&#x1da;" 
d="M410 742h-99q-9 0 -15 9l-72 137q-7 14 9 14h82q10 0 14 -8l45 -65l69 67q6 6 15 6h80q8 0 9.5 -4.5t-3.5 -10.5l-119 -138q-6 -7 -15 -7zM236 547q-32 0 -49.5 17t-17.5 47q0 40 20.5 61.5t55.5 21.5q32 0 49.5 -16.5t17.5 -46.5q0 -35 -19 -59.5t-57 -24.5zM358 611
q0 40 20.5 61.5t55.5 21.5q32 0 49.5 -16.5t17.5 -46.5q0 -35 -19 -59.5t-57 -24.5q-32 0 -49.5 17t-17.5 47zM360 241l40 236q2 11 13 11h112q13 0 11 -13l-80 -464q-2 -11 -13 -11h-60q-12 0 -13 10l-7 29q-5 10 -10 9.5t-18 -9.5q-61 -50 -134 -50q-89 0 -130 52t-25 141
l51 295q2 11 13 11h112q13 0 11 -13l-50 -287q-13 -78 50 -78q49 0 82.5 35t44.5 96z" />
    <glyph glyph-name="Udieresisgrave" unicode="&#x1db;" horiz-adv-x="676" 
d="M483 1052l31 -110q5 -13 -10 -13h-107q-10 0 -14 8l-70 111q-9 14 8 14h148q11 0 14 -10zM343 896q67 0 67 -56q0 -34 -21.5 -60.5t-68.5 -26.5q-67 0 -67 55q0 36 21 62t69 26zM552 896q67 0 67 -56q0 -34 -21.5 -60.5t-68.5 -26.5q-67 0 -67 55q0 36 21 62t69 26z
M692 691l-72 -408q-24 -141 -109 -217.5t-213 -76.5q-133 0 -193.5 80t-35.5 222l70 402q2 11 13 11h113q13 0 11 -13l-71 -408q-13 -84 13.5 -127t89.5 -43q68 0 115 47t61 131l70 402q2 11 13 11h114q13 0 11 -13z" />
    <glyph glyph-name="udieresisgrave" unicode="&#x1dc;" 
d="M370 892l40 -136q3 -14 -10 -14h-85q-9 0 -15 9l-72 137q-7 14 9 14h120q10 0 13 -10zM245 694q32 0 49.5 -16.5t17.5 -46.5q0 -35 -19 -59.5t-57 -24.5q-32 0 -49.5 17t-17.5 47q0 40 20.5 61.5t55.5 21.5zM434 694q32 0 49.5 -16.5t17.5 -46.5q0 -35 -19 -59.5
t-57 -24.5q-32 0 -49.5 17t-17.5 47q0 40 20.5 61.5t55.5 21.5zM370 10l-7 29q-5 10 -10 9.5t-18 -9.5q-61 -50 -134 -50q-89 0 -130 52t-25 141l51 295q2 11 13 11h112q13 0 11 -13l-50 -287q-13 -78 50 -78q49 0 82.5 35t44.5 96l40 236q2 11 13 11h112q13 0 11 -13
l-80 -464q-2 -11 -13 -11h-60q-12 0 -13 10z" />
    <glyph glyph-name="Oogonek" unicode="&#x1ea;" horiz-adv-x="720" 
d="M501 36l-185 -133q-15 -12 -15 -24q0 -13 14 -13q12 0 29 5l10 4q12 4 14 -9l13 -64q1 -10 -9 -15l-19 -6q-25 -9 -56 -9q-47 0 -74 20t-27 55q0 51 50 89l31 23q30 22 6 32q-107 12 -165 85t-58 191q0 57 12 115.5t40.5 119t70 107t106.5 76t144 29.5q126 0 195 -73
t69 -203q0 -71 -18.5 -144t-64.5 -145.5t-113 -112.5zM199 271q0 -75 34 -116.5t97 -41.5q59 0 105.5 33t72 83.5t38 103.5t12.5 101q0 76 -33.5 116.5t-96.5 40.5q-60 0 -106.5 -32.5t-72 -83t-38 -103t-12.5 -101.5z" />
    <glyph glyph-name="oogonek" unicode="&#x1eb;" horiz-adv-x="555" 
d="M378 23l-149 -120q-15 -13 -15 -24q0 -13 14 -13q11 0 28 5l9 3q12 3 15 -9l13 -65q2 -11 -9 -14l-18 -6q-29 -8 -55 -8q-49 0 -75.5 19.5t-26.5 53.5q0 48 51 91l29 23q31 25 5 34q-76 13 -117.5 64.5t-41.5 133.5q0 40 9 81t30.5 82.5t52.5 73t79.5 51.5t106.5 20
q98 0 152 -54t54 -148q0 -79 -35 -156.5t-106 -117.5zM308 378q-48 0 -81.5 -32t-46 -70.5t-12.5 -76.5q0 -89 78 -89q47 0 81 32t47 70.5t13 76.5q0 43 -20.5 66t-58.5 23z" />
    <glyph glyph-name="Gacute" unicode="&#x1f4;" horiz-adv-x="680" 
d="M471 912h146q8 0 9.5 -4.5t-4.5 -10.5l-129 -112q-6 -6 -14 -6h-104q-8 0 -10 4.5t3 10.5l88 111q6 7 15 7zM642 372l-54 -314q-1 -10 -11 -13l-42 -14l-60 -22q-67 -20 -148 -20q-127 0 -197 74t-70 204q0 57 12 115.5t41 119t71 107t107.5 76t145.5 29.5q76 0 147 -25
l43 -15q12 -3 6 -16l-47 -90q-5 -11 -16 -6l-38 13q-42 16 -101 16q-61 0 -108 -32.5t-72.5 -83t-38.5 -102.5t-13 -101q0 -77 34.5 -118t99.5 -41q63 0 112 16l24 7l22 128h-114q-14 0 -9 14l45 98q5 9 14 9h204q13 0 11 -13z" />
    <glyph glyph-name="gacute" unicode="&#x1f5;" horiz-adv-x="567" 
d="M386 722h123q8 0 10 -4.5t-3 -10.5l-120 -138q-6 -7 -15 -7h-89q-17 0 -8 14l88 138q4 8 14 8zM76 -86l34 -11q35 -10 74 -10q120 0 166 90q13 37 15 50q1 10 -3 10q-3 0 -18 -10q-61 -44 -121 -44q-93 0 -142.5 56t-45.5 153q2 55 19 106.5t49 96t87 71.5t126 27
q60 0 121 -24l96 -38q10 -4 8 -15l-71 -414q-20 -116 -94 -176t-191 -60q-59 0 -108 14l-53 16q-12 5 -6 16l42 89q4 10 16 7zM395 356l-21 10q-31 12 -64 12q-66 0 -102 -53.5t-40 -117.5q-3 -45 15.5 -71t58.5 -26q110 0 132 129z" />
    <glyph glyph-name="Aringacute" unicode="&#x1fa;" horiz-adv-x="735" 
d="M549 1070h146q8 0 9.5 -4.5t-4.5 -10.5l-129 -112q-6 -6 -14 -6h-104q-8 0 -10 4.5t3 10.5l88 111q6 7 15 7zM491 908q41 0 64.5 -19t23.5 -53q0 -46 -32 -72.5t-87 -26.5q-41 0 -64.5 18.5t-23.5 52.5q0 46 32 73t87 27zM481 857q-20 0 -32 -11.5t-12 -30.5
q0 -28 33 -28q20 0 32 11t12 30q0 29 -33 29zM199 114l-57 -106q-6 -8 -15 -8h-124q-7 0 -9.5 4t1.5 10l228 411q95 176 134 270q5 9 14 9h155q12 0 13 -12q7 -102 38 -267l84 -412q3 -13 -10 -13h-114q-11 0 -13 11l-21 103h-304zM479 235l-18 85q-27 147 -27 212
q-1 9 -7.5 9t-10.5 -9q-34 -87 -103 -212l-47 -85h213z" />
    <glyph glyph-name="aringacute" unicode="&#x1fb;" horiz-adv-x="567" 
d="M429 902h123q8 0 10 -4.5t-3 -10.5l-120 -138q-6 -7 -15 -7h-89q-17 0 -8 14l88 138q4 8 14 8zM363 708q40 0 62.5 -19t22.5 -53q0 -39 -27.5 -72t-84.5 -33q-42 0 -64 18.5t-22 51.5q0 44 28 75.5t85 31.5zM357 654q-19 0 -30.5 -12t-12.5 -31q-1 -12 6.5 -19.5
t21.5 -7.5q19 0 30.5 12.5t11.5 32.5q0 25 -27 25zM384 12v47q-2 16 -7 17t-22 -16q-61 -71 -143 -71q-84 0 -130.5 49t-46.5 138q0 54 16.5 108.5t50 103.5t93 80t136.5 31q43 0 105 -15l100 -24q11 -3 9 -14l-74 -435q-2 -11 -13 -11h-62q-12 0 -12 12zM397 364l-22 7
q-24 7 -50 7q-52 0 -89.5 -34.5t-52.5 -76t-15 -79.5q0 -37 18.5 -57.5t50.5 -20.5q53 0 93.5 58t58.5 154z" />
    <glyph glyph-name="AEacute" unicode="&#x1fc;" horiz-adv-x="934" 
d="M631 914h146q8 0 9.5 -4.5t-4.5 -10.5l-129 -112q-6 -6 -14 -6h-104q-8 0 -10 4.5t3 10.5l88 111q6 7 15 7zM912 583h-344q-13 0 -13 -24q1 -23 9 -60l15 -77h251q13 0 11 -13l-17 -97q-2 -11 -13 -11h-208l38 -180h218q13 0 11 -13l-17 -97q-2 -11 -13 -11h-303
q-11 0 -13 11l-21 103h-303l-59 -106q-6 -8 -15 -8h-123q-7 0 -9.5 4t1.5 10l212 377q98 180 152 304q5 9 14 9h589q14 0 9 -14l-45 -98q-4 -9 -14 -9zM479 235l-22 108q-20 108 -24 187q0 7 -3.5 10t-8 0t-6.5 -10q-29 -77 -88 -184l-62 -111h214z" />
    <glyph glyph-name="aeacute" unicode="&#x1fd;" horiz-adv-x="856" 
d="M501 722h123q8 0 10 -4.5t-3 -10.5l-120 -138q-6 -7 -15 -7h-89q-17 0 -8 14l88 138q4 8 14 8zM482 459l-6 -35q-4 -17 0.5 -18.5t15.5 12.5q68 81 172 81q78 0 123.5 -38t45.5 -104t-39.5 -109t-135.5 -56l-144 -20q8 -62 79 -62q41 0 78 9l58 15q12 3 14 -10l9 -94
q2 -11 -10 -14l-57 -15q-47 -12 -95 -12q-120 0 -172 75q-11 17 -17 18t-20 -15q-68 -78 -167 -78q-88 0 -133.5 49.5t-45.5 141.5q0 52 17.5 106t51.5 102.5t92 79.5t130 31q48 0 123 -19l24 -7q11 -3 9 -14zM398 363l-23 8q-25 7 -55 7q-49 0 -85.5 -33t-51.5 -74t-15 -78
q0 -43 17.5 -63t56.5 -20q47 0 85 48.5t51 111.5zM524 274l122 17q26 4 41 17t15 31q0 39 -54 39q-91 0 -124 -104z" />
    <glyph glyph-name="Oslashacute" unicode="&#x1fe;" horiz-adv-x="730" 
d="M496 914h146q8 0 9.5 -4.5t-4.5 -10.5l-129 -112q-6 -6 -14 -6h-104q-8 0 -10 4.5t3 10.5l88 111q6 7 15 7zM742 689l-80 -87q40 -66 40 -164q0 -47 -9 -96t-26.5 -100t-48.5 -96t-70.5 -80.5t-96 -56t-122.5 -20.5q-109 0 -178 58l-38 -41q-6 -6 -15 -6h-66
q-8 0 -10 4.5t4 10.5l79 86q-40 69 -40 166q0 57 12 115.5t40.5 119t70 107t106.5 76t144 29.5q110 0 178 -57l38 41q6 6 15 6h67q8 0 10 -4.5t-4 -10.5zM210 215l314 341q-33 35 -91 35q-60 0 -106.5 -32.5t-72 -83t-38 -103t-12.5 -101.5q0 -31 6 -56zM558 489l-315 -341
q33 -35 92 -35t105.5 33t72 83.5t38 103.5t12.5 101q0 27 -5 55z" />
    <glyph glyph-name="oslashacute" unicode="&#x1ff;" horiz-adv-x="555" 
d="M382 722h123q8 0 10 -4.5t-3 -10.5l-120 -138q-6 -7 -15 -7h-89q-17 0 -8 14l88 138q4 8 14 8zM542 473l-54 -55q32 -49 32 -121q0 -40 -9 -81t-30.5 -82t-52.5 -73t-79 -52t-107 -20q-85 0 -139 42l-24 -25q-6 -6 -15 -6h-46q-8 0 -10 4.5t4 10.5l55 55q-32 50 -32 121
q0 40 9 81t30.5 82.5t52.5 73t79.5 51.5t106.5 20q85 0 138 -42l25 25q6 6 15 6h45q8 0 10 -4.5t-4 -10.5zM164 168l196 197q-20 13 -51 13q-51 0 -87 -32t-49 -70.5t-13 -76.5q0 -19 4 -31zM391 321l-196 -198q19 -13 51 -13q38 0 68.5 18t47 46.5t25 58t8.5 56.5
q0 19 -4 32z" />
    <glyph glyph-name="Adblgrave" unicode="&#x200;" horiz-adv-x="735" 
d="M253 914h113q10 0 14 -9l54 -110q7 -14 -9 -14h-101q-9 0 -15 8l-65 111q-7 14 9 14zM457 914h113q10 0 14 -10l40 -109q5 -14 -10 -14h-96q-10 0 -14 9l-56 110q-7 14 9 14zM199 114l-57 -106q-6 -8 -15 -8h-124q-7 0 -9.5 4t1.5 10l228 411q95 176 134 270q5 9 14 9
h155q12 0 13 -12q7 -102 38 -267l84 -412q3 -13 -10 -13h-114q-11 0 -13 11l-21 103h-304zM479 235l-18 85q-27 147 -27 212q-1 9 -7.5 9t-10.5 -9q-34 -87 -103 -212l-47 -85h213z" />
    <glyph glyph-name="adblgrave" unicode="&#x201;" horiz-adv-x="567" 
d="M179 722h101q11 0 13 -11l24 -136q2 -13 -11 -13h-88q-11 0 -14 10l-36 137q-3 13 11 13zM359 722h97q10 0 12 -11l12 -136q1 -13 -12 -13h-82q-11 0 -13 11l-25 136q-2 13 11 13zM384 12v47q-2 16 -7 17t-22 -16q-61 -71 -143 -71q-84 0 -130.5 49t-46.5 138
q0 54 16.5 108.5t50 103.5t93 80t136.5 31q43 0 105 -15l100 -24q11 -3 9 -14l-74 -435q-2 -11 -13 -11h-62q-12 0 -12 12zM397 364l-22 7q-24 7 -50 7q-52 0 -89.5 -34.5t-52.5 -76t-15 -79.5q0 -37 18.5 -57.5t50.5 -20.5q53 0 93.5 58t58.5 154z" />
    <glyph glyph-name="Ainvertedbreve" unicode="&#x202;" horiz-adv-x="735" 
d="M322 793l2 11q22 120 168 120q76 0 107 -29t20 -91l-2 -13q-2 -11 -13 -11h-80q-13 0 -11 13l1 3q6 39 -37 39t-49 -39l-1 -5q-2 -11 -13 -11h-81q-13 0 -11 13zM199 114l-57 -106q-6 -8 -15 -8h-124q-7 0 -9.5 4t1.5 10l228 411q95 176 134 270q5 9 14 9h155
q12 0 13 -12q7 -102 38 -267l84 -412q3 -13 -10 -13h-114q-11 0 -13 11l-21 103h-304zM479 235l-18 85q-27 147 -27 212q-1 9 -7.5 9t-10.5 -9q-34 -87 -103 -212l-47 -85h213z" />
    <glyph glyph-name="ainvertedbreve" unicode="&#x203;" horiz-adv-x="567" 
d="M215 576l5 28q10 61 51 94t103 33q66 0 96 -37t19 -100l-3 -20q-2 -11 -13 -11h-69q-13 0 -10 13l6 34q5 36 -34 36q-22 0 -36.5 -13.5t-16.5 -32.5l-5 -26q-2 -11 -13 -11h-69q-13 0 -11 13zM384 12v47q-2 16 -7 17t-22 -16q-61 -71 -143 -71q-84 0 -130.5 49t-46.5 138
q0 54 16.5 108.5t50 103.5t93 80t136.5 31q43 0 105 -15l100 -24q11 -3 9 -14l-74 -435q-2 -11 -13 -11h-62q-12 0 -12 12zM397 364l-22 7q-24 7 -50 7q-52 0 -89.5 -34.5t-52.5 -76t-15 -79.5q0 -37 18.5 -57.5t50.5 -20.5q53 0 93.5 58t58.5 154z" />
    <glyph glyph-name="Edblgrave" unicode="&#x204;" horiz-adv-x="611" 
d="M199 914h113q10 0 14 -9l54 -110q7 -14 -9 -14h-101q-9 0 -15 8l-65 111q-7 14 9 14zM403 914h113q10 0 14 -10l40 -109q5 -14 -10 -14h-96q-10 0 -14 9l-56 110q-7 14 9 14zM241 422h260q13 0 11 -13l-17 -97q-2 -11 -13 -11h-263l-31 -180h342q13 0 11 -13l-18 -97
q-2 -11 -13 -11h-468q-13 0 -11 13l118 680q2 11 13 11h471q14 0 9 -14l-45 -98q-5 -9 -14 -9h-315z" />
    <glyph glyph-name="edblgrave" unicode="&#x205;" horiz-adv-x="511" 
d="M146 722h101q11 0 13 -11l24 -136q2 -13 -11 -13h-88q-11 0 -14 10l-36 137q-3 13 11 13zM326 722h97q10 0 12 -11l12 -136q1 -13 -12 -13h-82q-11 0 -13 11l-25 136q-2 13 11 13zM397 15l-56 -14q-45 -12 -96 -12q-101 0 -155.5 53.5t-54.5 147.5q0 41 9 82.5t30 83
t51.5 73t78.5 51t106 19.5q84 0 131 -38t47 -104q0 -65 -38.5 -108t-136.5 -57l-145 -20q5 -62 81 -62q43 0 84 10l52 14q12 3 14 -10l8 -95q2 -11 -10 -14zM177 274l125 17q56 9 56 49q0 38 -55 38q-90 0 -126 -104z" />
    <glyph glyph-name="Einvertedbreve" unicode="&#x206;" horiz-adv-x="611" 
d="M268 793l2 11q22 120 168 120q76 0 107 -29t20 -91l-2 -13q-2 -11 -13 -11h-80q-13 0 -11 13l1 3q6 39 -37 39t-49 -39l-1 -5q-2 -11 -13 -11h-81q-13 0 -11 13zM241 422h260q13 0 11 -13l-17 -97q-2 -11 -13 -11h-263l-31 -180h342q13 0 11 -13l-18 -97q-2 -11 -13 -11
h-468q-13 0 -11 13l118 680q2 11 13 11h471q14 0 9 -14l-45 -98q-5 -9 -14 -9h-315z" />
    <glyph glyph-name="einvertedbreve" unicode="&#x207;" horiz-adv-x="511" 
d="M182 576l5 28q10 61 51 94t103 33q66 0 96 -37t19 -100l-3 -20q-2 -11 -13 -11h-69q-13 0 -10 13l6 34q5 36 -34 36q-22 0 -36.5 -13.5t-16.5 -32.5l-5 -26q-2 -11 -13 -11h-69q-13 0 -11 13zM397 15l-56 -14q-45 -12 -96 -12q-101 0 -155.5 53.5t-54.5 147.5
q0 41 9 82.5t30 83t51.5 73t78.5 51t106 19.5q84 0 131 -38t47 -104q0 -65 -38.5 -108t-136.5 -57l-145 -20q5 -62 81 -62q43 0 84 10l52 14q12 3 14 -10l8 -95q2 -11 -10 -14zM177 274l125 17q56 9 56 49q0 38 -55 38q-90 0 -126 -104z" />
    <glyph glyph-name="Idblgrave" unicode="&#x208;" horiz-adv-x="280" 
d="M18 914h113q9 0 14 -9l54 -110q7 -14 -9 -14h-101q-9 0 -15 8l-65 111q-7 14 9 14zM222 914h113q10 0 14 -10l40 -109q5 -14 -10 -14h-96q-9 0 -14 9l-56 110q-7 14 9 14zM156 0h-114q-13 0 -11 13l118 680q2 11 13 11h114q13 0 11 -13l-118 -680q-2 -11 -13 -11z" />
    <glyph glyph-name="idblgrave" unicode="&#x209;" horiz-adv-x="295" 
d="M38 722h92q11 0 13 -11l23 -136q2 -13 -11 -13h-78q-11 0 -14 10l-36 137q-3 13 11 13zM209 722h93q10 0 12 -11l12 -136q1 -13 -12 -13h-79q-11 0 -13 11l-24 136q-2 13 11 13zM181 0h-112q-13 0 -11 13l62 356h-49q-13 0 -11 13l16 95q2 11 13 11h174q13 0 11 -13
l-80 -464q-2 -11 -13 -11z" />
    <glyph glyph-name="Iinvertedbreve" unicode="&#x20a;" horiz-adv-x="280" 
d="M87 793l2 11q22 120 168 120q76 0 107 -29t20 -91l-2 -13q-2 -11 -13 -11h-80q-13 0 -11 13l1 3q7 39 -37 39q-42 0 -49 -39l-1 -5q-2 -11 -13 -11h-81q-13 0 -11 13zM156 0h-114q-13 0 -11 13l118 680q2 11 13 11h114q13 0 11 -13l-118 -680q-2 -11 -13 -11z" />
    <glyph glyph-name="iinvertedbreve" unicode="&#x20b;" horiz-adv-x="295" 
d="M85 575l5 28q10 59 47.5 92t96.5 33q58 0 85 -33t16 -92l-5 -30q-2 -11 -13 -11h-68q-13 0 -11 13l6 36q6 33 -23 33q-31 0 -37 -33l-6 -38q-2 -11 -13 -11h-69q-13 0 -11 13zM181 0h-112q-13 0 -11 13l62 356h-49q-13 0 -11 13l16 95q2 11 13 11h174q13 0 11 -13
l-80 -464q-2 -11 -13 -11z" />
    <glyph glyph-name="Odblgrave" unicode="&#x20c;" horiz-adv-x="720" 
d="M242 914h113q9 0 14 -9l54 -110q7 -14 -9 -14h-101q-9 0 -15 8l-65 111q-7 14 9 14zM446 914h113q10 0 14 -10l40 -109q5 -14 -10 -14h-96q-9 0 -14 9l-56 110q-7 14 9 14zM433 714q126 0 195 -73t69 -203q0 -47 -9 -96t-26.5 -100t-48.5 -96t-70.5 -80.5t-96 -56
t-122.5 -20.5q-125 0 -194.5 74t-69.5 204q0 57 12 115.5t40.5 119t70 107t106.5 76t144 29.5zM428 591q-60 0 -106.5 -32.5t-72 -83t-38 -103t-12.5 -101.5q0 -75 34 -116.5t97 -41.5q59 0 105.5 33t72 83.5t38 103.5t12.5 101q0 76 -33.5 116.5t-96.5 40.5z" />
    <glyph glyph-name="odblgrave" unicode="&#x20d;" horiz-adv-x="555" 
d="M164 722h101q11 0 13 -11l24 -136q2 -13 -11 -13h-88q-11 0 -14 10l-36 137q-3 13 11 13zM344 722h97q10 0 12 -11l12 -136q1 -13 -12 -13h-82q-11 0 -13 11l-25 136q-2 13 11 13zM313 499q98 0 152 -54t54 -148q0 -40 -9 -81t-30 -82.5t-52 -73t-79 -51.5t-107 -20
q-98 0 -152.5 54t-54.5 148q0 40 9 81t30.5 82.5t52.5 73t79.5 51.5t106.5 20zM308 378q-48 0 -81.5 -32t-46 -70.5t-12.5 -76.5q0 -89 78 -89q47 0 81 32t47 70.5t13 76.5q0 43 -20.5 66t-58.5 23z" />
    <glyph glyph-name="Oinvertedbreve" unicode="&#x20e;" horiz-adv-x="720" 
d="M311 793l2 11q22 120 168 120q76 0 107 -29t20 -91l-2 -13q-2 -11 -13 -11h-80q-13 0 -11 13l1 3q7 39 -37 39q-42 0 -49 -39l-1 -5q-2 -11 -13 -11h-81q-13 0 -11 13zM433 714q126 0 195 -73t69 -203q0 -47 -9 -96t-26.5 -100t-48.5 -96t-70.5 -80.5t-96 -56
t-122.5 -20.5q-125 0 -194.5 74t-69.5 204q0 57 12 115.5t40.5 119t70 107t106.5 76t144 29.5zM428 591q-60 0 -106.5 -32.5t-72 -83t-38 -103t-12.5 -101.5q0 -75 34 -116.5t97 -41.5q59 0 105.5 33t72 83.5t38 103.5t12.5 101q0 76 -33.5 116.5t-96.5 40.5z" />
    <glyph glyph-name="oinvertedbreve" unicode="&#x20f;" horiz-adv-x="555" 
d="M199 576l5 28q10 61 51 94t103 33q66 0 96 -37t19 -100l-3 -20q-2 -11 -13 -11h-69q-13 0 -10 13l6 34q5 36 -34 36q-22 0 -36.5 -13.5t-16.5 -32.5l-5 -26q-2 -11 -13 -11h-69q-13 0 -11 13zM313 499q98 0 152 -54t54 -148q0 -40 -9 -81t-30 -82.5t-52 -73t-79 -51.5
t-107 -20q-98 0 -152.5 54t-54.5 148q0 40 9 81t30.5 82.5t52.5 73t79.5 51.5t106.5 20zM308 378q-48 0 -81.5 -32t-46 -70.5t-12.5 -76.5q0 -89 78 -89q47 0 81 32t47 70.5t13 76.5q0 43 -20.5 66t-58.5 23z" />
    <glyph glyph-name="Rdblgrave" unicode="&#x210;" horiz-adv-x="678" 
d="M202 914h113q9 0 14 -9l54 -110q7 -14 -9 -14h-101q-9 0 -15 8l-65 111q-7 14 9 14zM406 914h113q10 0 14 -10l40 -109q5 -14 -10 -14h-96q-9 0 -14 9l-56 110q-7 14 9 14zM162 704h276q99 0 152 -51t53 -135q0 -145 -155 -203q-22 -8 -6 -18q52 -34 72 -114l43 -170
q3 -13 -11 -13h-114q-11 0 -14 10l-29 117q-17 70 -53 102t-114 32h-50l-43 -250q-2 -11 -13 -11h-114q-13 0 -11 13l118 680q2 11 13 11zM234 383h104q76 0 121 32.5t45 84.5q0 39 -23.5 61t-64.5 22h-148z" />
    <glyph glyph-name="rdblgrave" unicode="&#x211;" horiz-adv-x="405" 
d="M99 722h101q11 0 13 -11l24 -136q2 -13 -11 -13h-88q-11 0 -14 10l-36 137q-3 13 11 13zM279 722h97q10 0 12 -11l12 -136q1 -13 -12 -13h-82q-11 0 -13 11l-25 136q-2 13 11 13zM400 486l-17 -97q-2 -11 -13 -11q-83 -3 -127.5 -62.5t-69.5 -203.5l-16 -101
q-2 -11 -13 -11h-112q-13 0 -11 13l80 464q2 11 13 11h60q11 0 14 -10l13 -48q6 -17 21 -3q38 37 76 54t91 18q13 0 11 -13z" />
    <glyph glyph-name="Rinvertedbreve" unicode="&#x212;" horiz-adv-x="678" 
d="M271 793l2 11q22 120 168 120q76 0 107 -29t20 -91l-2 -13q-2 -11 -13 -11h-80q-13 0 -11 13l1 3q7 39 -37 39q-42 0 -49 -39l-1 -5q-2 -11 -13 -11h-81q-13 0 -11 13zM162 704h276q99 0 152 -51t53 -135q0 -145 -155 -203q-22 -8 -6 -18q52 -34 72 -114l43 -170
q3 -13 -11 -13h-114q-11 0 -14 10l-29 117q-17 70 -53 102t-114 32h-50l-43 -250q-2 -11 -13 -11h-114q-13 0 -11 13l118 680q2 11 13 11zM234 383h104q76 0 121 32.5t45 84.5q0 39 -23.5 61t-64.5 22h-148z" />
    <glyph glyph-name="rinvertedbreve" unicode="&#x213;" horiz-adv-x="405" 
d="M134 576l5 28q10 61 51 94t103 33q66 0 96 -37t19 -100l-3 -20q-2 -11 -13 -11h-69q-13 0 -10 13l6 34q5 36 -34 36q-22 0 -36.5 -13.5t-16.5 -32.5l-5 -26q-2 -11 -13 -11h-69q-13 0 -11 13zM400 486l-17 -97q-2 -11 -13 -11q-83 -3 -127.5 -62.5t-69.5 -203.5l-16 -101
q-2 -11 -13 -11h-112q-13 0 -11 13l80 464q2 11 13 11h60q11 0 14 -10l13 -48q6 -17 21 -3q38 37 76 54t91 18q13 0 11 -13z" />
    <glyph glyph-name="Udblgrave" unicode="&#x214;" horiz-adv-x="676" 
d="M214 914h113q9 0 14 -9l54 -110q7 -14 -9 -14h-101q-9 0 -15 8l-65 111q-7 14 9 14zM418 914h113q10 0 14 -10l40 -109q5 -14 -10 -14h-96q-9 0 -14 9l-56 110q-7 14 9 14zM692 691l-72 -408q-24 -141 -109 -217.5t-213 -76.5q-133 0 -193.5 80t-35.5 222l70 402
q2 11 13 11h113q13 0 11 -13l-71 -408q-13 -84 13.5 -127t89.5 -43q68 0 115 47t61 131l70 402q2 11 13 11h114q13 0 11 -13z" />
    <glyph glyph-name="udblgrave" unicode="&#x215;" 
d="M163 722h101q11 0 13 -11l24 -136q2 -13 -11 -13h-88q-11 0 -14 10l-36 137q-3 13 11 13zM343 722h97q10 0 12 -11l12 -136q1 -13 -12 -13h-82q-11 0 -13 11l-25 136q-2 13 11 13zM370 10l-7 29q-5 10 -10 9.5t-18 -9.5q-61 -50 -134 -50q-89 0 -130 52t-25 141l51 295
q2 11 13 11h112q13 0 11 -13l-50 -287q-13 -78 50 -78q49 0 82.5 35t44.5 96l40 236q2 11 13 11h112q13 0 11 -13l-80 -464q-2 -11 -13 -11h-60q-12 0 -13 10z" />
    <glyph glyph-name="Uinvertedbreve" unicode="&#x216;" horiz-adv-x="676" 
d="M283 793l2 11q22 120 168 120q76 0 107 -29t20 -91l-2 -13q-2 -11 -13 -11h-80q-13 0 -11 13l1 3q7 39 -37 39q-42 0 -49 -39l-1 -5q-2 -11 -13 -11h-81q-13 0 -11 13zM692 691l-72 -408q-24 -141 -109 -217.5t-213 -76.5q-133 0 -193.5 80t-35.5 222l70 402q2 11 13 11
h113q13 0 11 -13l-71 -408q-13 -84 13.5 -127t89.5 -43q68 0 115 47t61 131l70 402q2 11 13 11h114q13 0 11 -13z" />
    <glyph glyph-name="uinvertedbreve" unicode="&#x217;" 
d="M198 576l5 28q10 61 51 94t103 33q66 0 96 -37t19 -100l-3 -20q-2 -11 -13 -11h-69q-13 0 -10 13l6 34q5 36 -34 36q-22 0 -36.5 -13.5t-16.5 -32.5l-5 -26q-2 -11 -13 -11h-69q-13 0 -11 13zM370 10l-7 29q-5 10 -10 9.5t-18 -9.5q-61 -50 -134 -50q-89 0 -130 52
t-25 141l51 295q2 11 13 11h112q13 0 11 -13l-50 -287q-13 -78 50 -78q49 0 82.5 35t44.5 96l40 236q2 11 13 11h112q13 0 11 -13l-80 -464q-2 -11 -13 -11h-60q-12 0 -13 10z" />
    <glyph glyph-name="Scommaaccent" unicode="&#x218;" horiz-adv-x="612" 
d="M344 283l-97 38q-79 32 -112.5 67t-33.5 94q0 43 14.5 82t45.5 74t87.5 55.5t132.5 20.5q74 0 158 -29l58 -20q12 -3 6 -16l-49 -90q-5 -11 -15 -6l-53 18q-58 20 -116 20q-60 0 -95 -24.5t-35 -66.5q0 -21 17 -37.5t57 -32.5l92 -36q81 -32 117.5 -70t36.5 -97
q0 -44 -14.5 -84t-46 -76t-90.5 -57t-140 -21q-83 0 -188 37l-57 20q-13 3 -6 15l46 91q5 11 16 6l52 -19q75 -26 148 -26q63 0 102 23.5t39 66.5q0 49 -77 80zM189 -218l23 31q17 23 -2 28q-26 8 -26 42q0 25 17.5 43.5t49.5 18.5q50 0 50 -46q0 -39 -46 -97l-20 -28
q-4 -7 -14 -7h-24q-16 0 -8 15z" />
    <glyph glyph-name="scommaaccent" unicode="&#x219;" horiz-adv-x="490" 
d="M267 183l-89 23q-112 29 -112 117q0 75 52 125.5t158 50.5q61 0 130 -19l47 -12q13 -3 7 -15l-41 -91q-4 -10 -16 -7l-42 12q-40 11 -89 11q-34 0 -54 -11t-20 -28q0 -19 29 -26l89 -24q115 -30 115 -123q0 -32 -10.5 -61.5t-34 -56.5t-67 -43t-102.5 -16q-77 0 -153 21
l-46 13q-13 3 -7 15l42 90q4 10 16 7l34 -10q53 -15 119 -15q37 0 56.5 12.5t19.5 31.5q0 21 -31 29zM128 -218l23 31q17 23 -2 28q-26 8 -26 42q0 25 17.5 43.5t49.5 18.5q50 0 50 -46q0 -39 -46 -97l-20 -28q-4 -7 -14 -7h-24q-16 0 -8 15z" />
    <glyph glyph-name="uni021A" unicode="&#x21a;" horiz-adv-x="646" 
d="M452 583l-99 -572q-2 -11 -13 -11h-114q-13 0 -11 13l98 570h-204q-13 0 -11 13l17 97q2 11 13 11h548q13 0 11 -13l-17 -97q-2 -11 -13 -11h-205zM209 -218l23 31q17 23 -2 28q-26 8 -26 42q0 25 17.5 43.5t49.5 18.5q50 0 50 -46q0 -39 -46 -97l-20 -28q-4 -7 -14 -7
h-24q-16 0 -8 15z" />
    <glyph glyph-name="uni021B" unicode="&#x21b;" horiz-adv-x="401" 
d="M276 488h112q13 0 11 -13l-17 -95q-2 -11 -13 -11h-113l-37 -213q-8 -46 24 -46q15 0 27 4t16 -7l25 -83q3 -10 -6 -15q-40 -20 -82 -20q-80 0 -116.5 44.5t-22.5 123.5l36 212h-49q-13 0 -11 13l16 95q2 11 13 11h51l19 112q1 10 11 13l120 37q7 2 10.5 -1t1.5 -10z
M98 -218l23 31q17 23 -2 28q-26 8 -26 42q0 25 17.5 43.5t49.5 18.5q50 0 50 -46q0 -39 -46 -97l-20 -28q-4 -7 -14 -7h-24q-16 0 -8 15z" />
    <glyph glyph-name="schwa" unicode="&#x259;" horiz-adv-x="514" 
d="M117 473l56 13q49 13 96 13q101 0 155.5 -53.5t54.5 -147.5q0 -41 -9 -82.5t-30 -83t-51.5 -73t-78.5 -51t-106 -19.5q-84 0 -131 37.5t-47 103.5q0 141 175 166l145 20q-5 62 -80 62q-45 0 -85 -11l-51 -13q-12 -3 -14 10l-9 95q-2 11 10 14zM337 213l-124 -17
q-56 -7 -56 -48q0 -38 54 -38q90 0 126 103z" />
    <glyph glyph-name="commaturnedmod" unicode="&#x2bb;" horiz-adv-x="221" 
d="M186 704l-32 -34q-60 -60 -60 -113t54 -53q40 0 59.5 25.5t19.5 52.5q0 28 -25 43q-11 7 -10.5 13t11.5 17l48 49h-65z" />
    <glyph glyph-name="circumflex" unicode="&#x2c6;" horiz-adv-x="436" 
d="M425 562h-82q-10 0 -14 8l-45 65l-69 -67q-6 -6 -15 -6h-80q-8 0 -9.5 4.5t3.5 10.5l119 138q6 7 15 7h99q9 0 15 -9l72 -137q7 -14 -9 -14z" />
    <glyph glyph-name="caron" unicode="&#x2c7;" horiz-adv-x="436" 
d="M370 722h80q8 0 9.5 -4.5t-3.5 -10.5l-119 -138q-6 -7 -15 -7h-99q-9 0 -15 9l-72 137q-7 14 9 14h82q10 0 14 -8l45 -65l69 67q6 6 15 6z" />
    <glyph glyph-name="breve" unicode="&#x2d8;" horiz-adv-x="367" 
d="M400 709l-5 -28q-10 -61 -51 -94t-103 -33q-66 0 -96 37t-19 100l3 20q2 11 13 11h69q13 0 10 -13l-6 -34q-5 -36 34 -36q22 0 36.5 13.5t16.5 32.5l5 26q2 11 13 11h69q13 0 11 -13z" />
    <glyph glyph-name="dotaccent" unicode="&#x2d9;" horiz-adv-x="238" 
d="M195 734q34 0 53 -18.5t19 -50.5q0 -38 -20 -64.5t-62 -26.5q-35 0 -54 18t-19 51q0 44 22 67.5t61 23.5z" />
    <glyph glyph-name="ring" unicode="&#x2da;" horiz-adv-x="279" 
d="M222 731q40 0 62.5 -19t22.5 -53q0 -39 -27.5 -72t-84.5 -33q-42 0 -64 18.5t-22 51.5q0 44 28 75.5t85 31.5zM216 677q-19 0 -30.5 -12t-12.5 -31q-1 -12 6.5 -19.5t21.5 -7.5q19 0 30.5 12.5t11.5 32.5q0 25 -27 25z" />
    <glyph glyph-name="ogonek" unicode="&#x2db;" horiz-adv-x="288" 
d="M125 0h109q16 0 10 -13q-7 -17 -39 -41l-55 -43q-15 -12 -15 -25q0 -12 16 -12q10 0 27 5l9 3q12 5 14 -9l12 -64q2 -11 -9 -14l-17 -6q-25 -9 -55 -9q-47 0 -74 19.5t-27 55.5q0 52 49 88l40 31q12 9 16 16.5t1 12t-12 5.5z" />
    <glyph glyph-name="tilde" unicode="&#x2dc;" horiz-adv-x="437" 
d="M108 597l32 49q38 58 105 58q26 0 50 -17l29 -20q10 -8 19 -8t22 17l13 17q4 7 14 7h68q7 0 9 -4t-2 -11l-32 -49q-37 -57 -103 -57q-26 0 -50 16l-28 18q-16 10 -21 10q-11 0 -23 -16l-13 -18q-4 -7 -14 -7h-68q-7 0 -9 4t2 11z" />
    <glyph glyph-name="hungarumlaut" unicode="&#x2dd;" horiz-adv-x="446" 
d="M278 708l-72 -137q-6 -9 -15 -9h-84q-16 0 -9 14l60 137q4 9 14 9h97q16 0 9 -14zM463 708l-84 -138q-5 -8 -14 -8h-84q-16 0 -9 14l71 137q5 9 14 9h98q17 0 8 -14z" />
    <glyph glyph-name="dblgravecmb" unicode="&#x30f;" horiz-adv-x="0" 
d="M144 722h101q11 0 13 -11l24 -136q2 -13 -11 -13h-88q-11 0 -14 10l-36 137q-3 13 11 13zM324 722h97q10 0 12 -11l12 -136q1 -13 -12 -13h-82q-11 0 -13 11l-25 136q-2 13 11 13z" />
    <glyph glyph-name="breveinvertedcomb" unicode="&#x311;" horiz-adv-x="0" 
d="M105 576l5 28q10 61 51 94t103 33q66 0 96 -37t19 -100l-3 -20q-2 -11 -13 -11h-69q-13 0 -10 13l6 34q5 36 -34 36q-22 0 -36.5 -13.5t-16.5 -32.5l-5 -26q-2 -11 -13 -11h-69q-13 0 -11 13z" />
    <glyph glyph-name="commaaccentcomb" unicode="&#x326;" horiz-adv-x="0" 
d="M17 -67l23 31q17 23 -2 28q-26 8 -26 42q0 25 17.5 43.5t49.5 18.5q50 0 50 -46q0 -39 -46 -97l-20 -28q-4 -7 -14 -7h-24q-16 0 -8 15z" />
    <glyph glyph-name="uni0400" unicode="&#x400;" horiz-adv-x="611" 
d="M444 904l31 -110q5 -13 -10 -13h-107q-10 0 -14 8l-70 111q-9 14 8 14h148q11 0 14 -10zM241 422h260q13 0 11 -13l-17 -97q-2 -11 -13 -11h-263l-31 -180h342q13 0 11 -13l-18 -97q-2 -11 -13 -11h-468q-13 0 -11 13l118 680q2 11 13 11h471q14 0 9 -14l-45 -98
q-5 -9 -14 -9h-315z" />
    <glyph glyph-name="uni0401" unicode="&#x401;" horiz-adv-x="611" 
d="M335 919q67 0 67 -56q0 -34 -21.5 -60.5t-68.5 -26.5q-67 0 -67 55q0 36 21 62t69 26zM544 919q67 0 67 -56q0 -34 -21.5 -60.5t-68.5 -26.5q-67 0 -67 55q0 36 21 62t69 26zM241 422h260q13 0 11 -13l-17 -97q-2 -11 -13 -11h-263l-31 -180h342q13 0 11 -13l-18 -97
q-2 -11 -13 -11h-468q-13 0 -11 13l118 680q2 11 13 11h471q14 0 9 -14l-45 -98q-5 -9 -14 -9h-315z" />
    <glyph glyph-name="uni0402" unicode="&#x402;" horiz-adv-x="775" 
d="M377 398l43 15q55 20 113 20q93 0 143 -48.5t50 -136.5q0 -49 -13 -92.5t-41 -82.5t-80.5 -61.5t-123.5 -22.5q-34 0 -76 12l-25 7q-12 5 -6 16l42 90q4 10 16 7l5 -2q24 -6 44 -6q65 0 92 32t27 79q0 85 -74 85q-49 0 -90 -15l-70 -25l-43 -258q-2 -11 -13 -11h-114
q-13 0 -11 13l98 570h-182q-13 0 -11 13l17 97q2 11 13 11h554q13 0 11 -13l-17 -97q-2 -11 -13 -11h-233z" />
    <glyph glyph-name="uni0403" unicode="&#x403;" horiz-adv-x="585" 
d="M411 914h146q8 0 9.5 -4.5t-4.5 -10.5l-129 -112q-6 -6 -14 -6h-104q-8 0 -10 4.5t3 10.5l88 111q6 7 15 7zM268 583l-99 -572q-2 -11 -13 -11h-114q-13 0 -11 13l118 680q2 11 13 11h447q14 0 9 -14l-45 -98q-5 -9 -14 -9h-291z" />
    <glyph glyph-name="uni0404" unicode="&#x404;" horiz-adv-x="627" 
d="M570 562l-42 14q-40 15 -97 15q-75 0 -126 -47t-79 -122h259q13 0 11 -13l-17 -97q-2 -11 -13 -11h-266q-1 -9 -1 -26q0 -162 140 -162q49 0 113 19l48 14q12 5 14 -8l20 -99q2 -11 -9 -14l-52 -16q-67 -20 -149 -20q-125 0 -194.5 74.5t-69.5 204.5q0 57 12.5 116
t41.5 119t71.5 106.5t109 75.5t146.5 29q71 0 146 -27l40 -14q12 -3 6 -16l-47 -89q-5 -11 -16 -6z" />
    <glyph glyph-name="uni0405" unicode="&#x405;" horiz-adv-x="612" 
d="M344 283l-97 38q-79 32 -112.5 67t-33.5 94q0 43 14.5 82t45.5 74t87.5 55.5t132.5 20.5q74 0 158 -29l58 -20q12 -3 6 -16l-49 -90q-5 -11 -15 -6l-53 18q-58 20 -116 20q-60 0 -95 -24.5t-35 -66.5q0 -21 17 -37.5t57 -32.5l92 -36q81 -32 117.5 -70t36.5 -97
q0 -44 -14.5 -84t-46 -76t-90.5 -57t-140 -21q-83 0 -188 37l-57 20q-13 3 -6 15l46 91q5 11 16 6l52 -19q75 -26 148 -26q63 0 102 23.5t39 66.5q0 49 -77 80z" />
    <glyph glyph-name="uni0406" unicode="&#x406;" horiz-adv-x="280" 
d="M156 0h-114q-13 0 -11 13l118 680q2 11 13 11h114q13 0 11 -13l-118 -680q-2 -11 -13 -11z" />
    <glyph glyph-name="uni0407" unicode="&#x407;" horiz-adv-x="280" 
d="M153 919q67 0 67 -56q0 -34 -21.5 -60.5t-68.5 -26.5q-67 0 -67 55q0 36 21 62t69 26zM362 919q67 0 67 -56q0 -34 -21.5 -60.5t-68.5 -26.5q-67 0 -67 55q0 36 21 62t69 26zM156 0h-114q-13 0 -11 13l118 680q2 11 13 11h114q13 0 11 -13l-118 -680q-2 -11 -13 -11z" />
    <glyph glyph-name="uni0408" unicode="&#x408;" horiz-adv-x="462" 
d="M472 691l-81 -467q-19 -111 -84.5 -173t-167.5 -62q-54 0 -106 21l-25 10q-12 5 -6 16l47 90q5 11 16 6l26 -11q24 -8 54 -8q40 0 69 27t38 79l82 474q2 11 13 11h114q13 0 11 -13z" />
    <glyph glyph-name="uni0409" unicode="&#x409;" horiz-adv-x="1039" 
d="M650 431h101q116 0 178 -50t62 -147q0 -45 -14.5 -85t-45.5 -74.5t-86.5 -54.5t-130.5 -20h-264q-13 0 -11 13l97 565h-207l-59 -342q-16 -95 -64 -150.5t-136 -85.5l-45 -16q-12 -4 -14 9l-18 99q-1 10 9 15l39 13q76 25 93 126l76 447q2 11 13 11h460q13 0 11 -13z
M628 310l-32 -189h132q57 0 90 28.5t33 74.5q0 86 -115 86h-108z" />
    <glyph glyph-name="uni040A" unicode="&#x40a;" horiz-adv-x="1018" 
d="M630 430h101q115 0 177.5 -49t62.5 -142q0 -45 -14.5 -85.5t-45 -76t-86.5 -56.5t-130 -21h-264q-13 0 -11 13l51 296h-251l-51 -298q-2 -11 -13 -11h-114q-13 0 -11 13l118 680q2 11 13 11h114q13 0 11 -13l-45 -261h250l45 263q2 11 13 11h115q13 0 11 -13zM609 309
l-31 -188h131q56 0 89 30.5t33 76.5q0 81 -115 81h-107z" />
    <glyph glyph-name="uni040B" unicode="&#x40b;" horiz-adv-x="772" 
d="M376 395l33 13q50 20 113 20q104 0 153 -63.5t30 -175.5l-30 -178q-2 -11 -13 -11h-114q-13 0 -11 13l29 167q10 59 -8 91.5t-60 32.5q-47 0 -86 -15l-59 -23l-43 -255q-2 -11 -13 -11h-114q-13 0 -11 13l98 570h-182q-13 0 -11 13l17 97q2 11 13 11h554q13 0 11 -13
l-17 -97q-2 -11 -13 -11h-233z" />
    <glyph glyph-name="uni040C" unicode="&#x40c;" horiz-adv-x="685" 
d="M466 912h146q8 0 9.5 -4.5t-4.5 -10.5l-129 -112q-6 -6 -14 -6h-104q-8 0 -10 4.5t3 10.5l88 111q6 7 15 7zM709 689l-152 -208q-61 -80 -150 -113q-5 -2 -5.5 -6t3.5 -6q82 -38 118 -130l83 -212q5 -14 -10 -14h-117q-9 0 -14 9l-62 158q-51 131 -163 131h-21l-50 -287
q-2 -11 -13 -11h-114q-13 0 -11 13l118 680q2 11 13 11h114q13 0 11 -13l-46 -267h20q92 0 183 124l112 149q4 7 14 7h132q7 0 9.5 -4.5t-2.5 -10.5z" />
    <glyph glyph-name="uni040E" unicode="&#x40e;" horiz-adv-x="696" 
d="M601 925l-5 -28q-10 -61 -51 -94t-103 -33q-66 0 -96 37t-19 100l3 20q2 11 13 11h69q13 0 10 -13l-6 -34q-5 -36 34 -36q22 0 36.5 13.5t16.5 32.5l5 26q2 11 13 11h69q13 0 11 -13zM745 689l-332 -509q-118 -180 -283 -180h-41q-13 0 -11 13l16 97q2 11 13 11h44
q38 0 65 24t34 63q7 50 -19 122l-126 360q-5 14 10 14h116q10 0 13 -10l76 -214q29 -82 35 -139q0 -5 3 -7.5t7.5 -0.5t7.5 8q40 79 79 140l140 215q4 8 14 8h131q16 0 8 -15z" />
    <glyph glyph-name="uni040F" unicode="&#x40f;" horiz-adv-x="690" 
d="M697 692l-118 -680q-2 -11 -13 -11h-198l-31 -179q-2 -11 -13 -11h-105q-13 0 -11 13l31 177h-197q-13 0 -11 13l118 680q2 11 13 11h114q13 0 11 -13l-98 -570h272l98 572q2 11 13 11h114q13 0 11 -13z" />
    <glyph glyph-name="uni0410" unicode="&#x410;" horiz-adv-x="735" 
d="M199 114l-57 -106q-6 -8 -15 -8h-124q-7 0 -9.5 4t1.5 10l228 411q95 176 134 270q5 9 14 9h155q12 0 13 -12q7 -102 38 -267l84 -412q3 -13 -10 -13h-114q-11 0 -13 11l-21 103h-304zM479 235l-18 85q-27 147 -27 212q-1 9 -7.5 9t-10.5 -9q-34 -87 -103 -212l-47 -85
h213z" />
    <glyph glyph-name="uni0411" unicode="&#x411;" horiz-adv-x="661" 
d="M645 690l-45 -98q-4 -9 -14 -9h-318l-25 -150h138q111 0 171.5 -48.5t60.5 -139.5q0 -45 -14 -86t-44.5 -78t-86.5 -59t-131 -22h-295q-13 0 -11 13l118 680q2 11 13 11h474q14 0 9 -14zM221 312l-33 -191h161q58 0 91.5 32t33.5 81q0 78 -107 78h-146z" />
    <glyph glyph-name="uni0412" unicode="&#x412;" horiz-adv-x="658" 
d="M162 704h272q98 0 151 -41.5t53 -114.5q0 -69 -34.5 -112.5t-77.5 -59.5q-24 -11 -4 -20q34 -12 60 -45t26 -87q0 -103 -75 -163.5t-203 -60.5h-288q-13 0 -11 13l118 680q2 11 13 11zM240 422h125q62 0 97 26t35 71q0 30 -20.5 47t-56.5 17h-152zM188 121h163
q54 0 85.5 27.5t31.5 75.5q0 37 -28 57t-80 20h-141z" />
    <glyph glyph-name="uni0413" unicode="&#x413;" horiz-adv-x="585" 
d="M618 690l-45 -98q-5 -9 -14 -9h-291l-99 -572q-2 -11 -13 -11h-114q-13 0 -11 13l118 680q2 11 13 11h447q14 0 9 -14z" />
    <glyph glyph-name="uni0414" unicode="&#x414;" horiz-adv-x="792" 
d="M648 121h70q13 0 11 -13l-50 -286q-2 -11 -13 -11h-105q-13 0 -11 13l31 176h-461l-31 -178q-2 -11 -13 -11h-105q-13 0 -11 13l50 286q2 11 13 11h55l69 98q32 48 49 141l57 333q2 11 13 11h469q13 0 11 -13zM372 583l-39 -223q-19 -116 -76 -197l-29 -42h283l79 462
h-218z" />
    <glyph glyph-name="uni0415" unicode="&#x415;" horiz-adv-x="611" 
d="M241 422h260q13 0 11 -13l-17 -97q-2 -11 -13 -11h-263l-31 -180h342q13 0 11 -13l-18 -97q-2 -11 -13 -11h-468q-13 0 -11 13l118 680q2 11 13 11h471q14 0 9 -14l-45 -98q-5 -9 -14 -9h-315z" />
    <glyph glyph-name="uni0416" unicode="&#x416;" horiz-adv-x="969" 
d="M993 689l-145 -221q-51 -75 -117 -100q-4 -1 -6 -6q0 -3 1.5 -4.5t4.5 -3t4 -2.5q51 -30 76 -107l75 -231q3 -14 -10 -14h-115q-10 0 -13 10l-50 156q-10 29 -18.5 48t-22.5 41.5t-33 34t-42 11.5h-18l-50 -290q-2 -11 -13 -11h-114q-13 0 -11 13l50 288h-21
q-10 0 -20 -2t-19.5 -8t-17 -11t-17.5 -15.5t-15.5 -16.5t-15.5 -20t-14 -20t-14.5 -22t-13.5 -20l-105 -158q-4 -8 -14 -8h-127q-7 0 -9 4t2 11l153 230q55 81 123 111q4 2 4.5 6.5t-2.5 5.5q-56 26 -81 100l-71 222q-3 14 10 14h114q10 0 13 -10l49 -146
q12 -35 23.5 -58.5t35 -45.5t52.5 -22h19l47 271q2 11 13 11h114q13 0 11 -13l-46 -269h18q21 0 41.5 11t40 33t32 38.5t30.5 43.5l97 148q4 8 14 8h126q16 0 8 -15z" />
    <glyph glyph-name="uni0417" unicode="&#x417;" horiz-adv-x="636" 
d="M144 670l60 19q83 25 174 25q108 0 168 -44.5t60 -123.5q0 -51 -27 -99.5t-89 -75.5q-24 -11 -5 -19q90 -33 90 -131q0 -40 -17.5 -79t-52.5 -74.5t-96.5 -57t-140.5 -21.5q-82 0 -169 28l-68 22q-13 5 -7 16l48 90q4 10 16 7l59 -20q54 -19 122 -19q79 0 126 34.5
t47 86.5q0 67 -120 67h-92q-13 0 -11 13l18 97q2 11 13 11h85q56 0 94.5 28t38.5 70q0 32 -25.5 51.5t-76.5 19.5q-62 0 -136 -21l-61 -18q-12 -5 -14 8l-20 96q-2 11 9 14z" />
    <glyph glyph-name="uni0418" unicode="&#x418;" horiz-adv-x="727" 
d="M603 0h-115q-13 0 -11 13l57 329q18 103 37 159q5 12 -3 12q-5 1 -11 -8q-17 -29 -45 -69l-228 -323q-58 -89 -68 -105q-5 -8 -14 -8h-160q-13 0 -11 13l118 680q2 11 13 11h114q13 0 11 -13l-56 -328q-16 -91 -38 -160q-2 -6 0 -9.5t6.5 -2.5t8.5 8q28 44 36 55l236 336
q32 45 68 106q5 8 14 8h160q13 0 11 -13l-117 -680q-2 -11 -13 -11z" />
    <glyph glyph-name="uni0419" unicode="&#x419;" horiz-adv-x="727" 
d="M616 901l-2 -11q-22 -120 -168 -120q-76 0 -107 29t-20 91l2 13q2 11 13 11h80q13 0 11 -13l-1 -3q-6 -39 37 -39t49 39l1 5q2 11 13 11h81q13 0 11 -13zM477 13l57 329q18 103 37 159q5 12 -3 12q-5 1 -11 -8q-17 -29 -45 -69l-228 -323q-58 -89 -68 -105q-5 -8 -14 -8
h-160q-13 0 -11 13l118 680q2 11 13 11h114q13 0 11 -13l-56 -328q-16 -91 -38 -160q-2 -6 0 -9.5t6.5 -2.5t8.5 8q28 44 36 55l236 336q32 45 68 106q5 8 14 8h160q13 0 11 -13l-117 -680q-2 -11 -13 -11h-115q-13 0 -11 13z" />
    <glyph glyph-name="uni041A" unicode="&#x41a;" horiz-adv-x="685" 
d="M709 689l-152 -208q-61 -80 -150 -113q-5 -2 -5.5 -6t3.5 -6q82 -38 118 -130l83 -212q5 -14 -10 -14h-117q-9 0 -14 9l-62 158q-51 131 -163 131h-21l-50 -287q-2 -11 -13 -11h-114q-13 0 -11 13l118 680q2 11 13 11h114q13 0 11 -13l-46 -267h20q92 0 183 124l112 149
q4 7 14 7h132q7 0 9.5 -4.5t-2.5 -10.5z" />
    <glyph glyph-name="uni041B" unicode="&#x41b;" horiz-adv-x="716" 
d="M723 691l-118 -680q-2 -11 -13 -11h-113q-13 0 -11 13l99 570h-219l-41 -235q-23 -135 -80 -219.5t-157 -130.5l-40 -18q-12 -6 -15 7l-26 94q-3 12 7 16l36 16q107 51 139 243l59 337q2 11 13 11h469q13 0 11 -13z" />
    <glyph glyph-name="uni041C" unicode="&#x41c;" horiz-adv-x="835" 
d="M710 0h-114q-13 0 -11 13l46 267q22 135 50 221q3 10 -3 12t-11 -8q-8 -15 -24.5 -44.5t-19.5 -34.5l-109 -189q-11 -18 -52 -101q-4 -9 -14 -9h-102q-11 0 -13 11q-6 45 -16 96l-44 191q-6 34 -18 80q-2 13 -10 7q-4 -4 -5 -11q-4 -96 -25 -221l-46 -269q-2 -11 -13 -11
h-114q-13 0 -11 13l118 680q2 11 13 11h167q10 0 12 -11q6 -43 11 -70l40 -176q19 -114 23 -154q0 -5 3 -7t7 0t6 7q29 71 72 154l100 176q28 57 35 72q4 9 14 9h178q13 0 11 -13l-118 -680q-2 -11 -13 -11z" />
    <glyph glyph-name="uni041D" unicode="&#x41d;" horiz-adv-x="709" 
d="M585 0h-114q-13 0 -11 13l50 288h-291l-50 -290q-2 -11 -13 -11h-114q-13 0 -11 13l118 680q2 11 13 11h114q13 0 11 -13l-46 -269h290l46 271q2 11 13 11h115q13 0 11 -13l-118 -680q-2 -11 -13 -11z" />
    <glyph glyph-name="uni041E" unicode="&#x41e;" horiz-adv-x="720" 
d="M433 714q126 0 195 -73t69 -203q0 -47 -9 -96t-26.5 -100t-48.5 -96t-70.5 -80.5t-96 -56t-122.5 -20.5q-125 0 -194.5 74t-69.5 204q0 57 12 115.5t40.5 119t70 107t106.5 76t144 29.5zM428 591q-60 0 -106.5 -32.5t-72 -83t-38 -103t-12.5 -101.5q0 -75 34 -116.5
t97 -41.5q59 0 105.5 33t72 83.5t38 103.5t12.5 101q0 76 -33.5 116.5t-96.5 40.5z" />
    <glyph glyph-name="uni041F" unicode="&#x41f;" horiz-adv-x="690" 
d="M697 691l-118 -680q-2 -11 -13 -11h-114q-13 0 -11 13l98 570h-272l-98 -572q-2 -11 -13 -11h-114q-13 0 -11 13l118 680q2 11 13 11h524q13 0 11 -13z" />
    <glyph glyph-name="uni0420" unicode="&#x420;" horiz-adv-x="643" 
d="M162 704h259q103 0 160 -55t54 -153q-4 -123 -91 -191.5t-240 -68.5h-97l-38 -225q-2 -11 -13 -11h-114q-13 0 -11 13l118 680q2 11 13 11zM229 357h89q81 0 128 34t50 96q2 45 -21.5 70.5t-67.5 25.5h-139z" />
    <glyph glyph-name="uni0421" unicode="&#x421;" horiz-adv-x="627" 
d="M525 25l-52 -16q-67 -20 -149 -20q-125 0 -194.5 74.5t-69.5 204.5q0 57 12.5 116t41.5 119t71.5 106.5t109 75.5t146.5 29q71 0 146 -27l40 -14q12 -3 6 -16l-47 -89q-5 -11 -16 -6l-42 14q-40 15 -97 15q-60 0 -107 -32t-73 -82t-39 -102t-13 -100q0 -162 140 -162
q49 0 113 19l48 14q12 5 14 -8l20 -99q2 -11 -9 -14z" />
    <glyph glyph-name="uni0422" unicode="&#x422;" horiz-adv-x="646" 
d="M452 583l-99 -572q-2 -11 -13 -11h-114q-13 0 -11 13l98 570h-204q-13 0 -11 13l17 97q2 11 13 11h548q13 0 11 -13l-17 -97q-2 -11 -13 -11h-205z" />
    <glyph glyph-name="uni0423" unicode="&#x423;" horiz-adv-x="696" 
d="M745 689l-332 -509q-118 -180 -283 -180h-41q-13 0 -11 13l16 97q2 11 13 11h44q38 0 65 24t34 63q7 50 -19 122l-126 360q-5 14 10 14h116q10 0 13 -10l76 -214q29 -82 35 -139q0 -5 3 -7.5t7.5 -0.5t7.5 8q40 79 79 140l140 215q4 8 14 8h131q16 0 8 -15z" />
    <glyph glyph-name="uni0424" unicode="&#x424;" horiz-adv-x="881" 
d="M575 624h55q110 0 170.5 -56t60.5 -156q0 -45 -10 -88t-33.5 -86.5t-58.5 -76t-89.5 -52.5t-122.5 -20h-64l-13 -78q-2 -11 -13 -11h-115q-13 0 -11 13l14 76h-56q-109 0 -169.5 56t-60.5 156q0 44 9.5 87.5t33 86.5t58.5 75.5t90 53t123 20.5h64l12 69q2 11 13 11h114
q13 0 11 -13zM416 502h-55q-54 0 -93 -33t-54.5 -74.5t-15.5 -83.5q0 -49 26.5 -75t77.5 -26h64zM554 502l-50 -292h55q79 0 121 61.5t42 129.5q0 101 -104 101h-64z" />
    <glyph glyph-name="uni0425" unicode="&#x425;" horiz-adv-x="705" 
d="M723 689l-177 -243q-42 -57 -93 -85q-5 -2 -5.5 -7t2.5 -6q41 -27 64 -88l96 -246q5 -14 -10 -14h-117q-9 0 -14 9l-98 248q-5 15 -17 0l-184 -250q-4 -7 -14 -7h-132q-7 0 -9.5 4.5t2.5 10.5l180 245q45 61 95 88q5 2 5 7q0 3 -1 4.5t-4 3t-4 2.5q-35 27 -56 80l-95 245
q-5 14 10 14h118q9 0 14 -9l93 -243q7 -20 21 0l179 245q4 7 14 7h130q7 0 9.5 -4.5t-2.5 -10.5z" />
    <glyph glyph-name="uni0426" unicode="&#x426;" horiz-adv-x="738" 
d="M598 121h67q13 0 11 -13l-51 -286q-2 -11 -13 -11h-106q-13 0 -11 13l31 176h-484q-13 0 -11 13l118 680q2 11 13 11h114q13 0 11 -13l-98 -570h272l98 572q2 11 13 11h114q13 0 11 -13z" />
    <glyph glyph-name="uni0427" unicode="&#x427;" horiz-adv-x="663" 
d="M669 691l-120 -680q-2 -11 -13 -11h-114q-13 0 -11 13l46 259l-40 -13q-66 -21 -125 -21q-112 0 -165 64t-33 175l39 216q2 11 13 11h114q13 0 11 -13l-37 -206q-22 -123 76 -123q51 0 96 15l73 24l52 292q2 11 13 11h114q13 0 11 -13z" />
    <glyph glyph-name="uni0428" unicode="&#x428;" horiz-adv-x="946" 
d="M953 691l-118 -680q-2 -11 -13 -11h-780q-13 0 -11 13l118 680q2 11 13 11h114q13 0 11 -13l-99 -570h195l98 572q2 11 13 11h115q13 0 11 -13l-99 -570h195l98 572q2 11 13 11h115q13 0 11 -13z" />
    <glyph glyph-name="uni0429" unicode="&#x429;" horiz-adv-x="993" 
d="M854 121h66q13 0 11 -13l-51 -286q-2 -11 -13 -11h-106q-13 0 -11 13l31 176h-739q-13 0 -11 13l118 680q2 11 13 11h114q13 0 11 -13l-99 -570h195l98 572q2 11 13 11h115q13 0 11 -13l-99 -570h195l98 572q2 11 13 11h115q13 0 11 -13z" />
    <glyph glyph-name="uni042A" unicode="&#x42a;" horiz-adv-x="777" 
d="M387 469h89q124 0 190.5 -53.5t66.5 -155.5q0 -48 -14.5 -91.5t-46 -82.5t-89.5 -62.5t-136 -23.5h-267q-13 0 -11 13l99 570h-180q-13 0 -11 13l17 97q2 11 13 11h307q13 0 11 -13zM326 121h134q68 0 101 41t33 88q0 98 -132 98h-97z" />
    <glyph glyph-name="uni042B" unicode="&#x42b;" horiz-adv-x="887" 
d="M31 13l118 680q2 11 13 11h114q13 0 11 -13l-38 -222h89q124 0 190.5 -53.5t66.5 -155.5q0 -48 -14.5 -91.5t-46 -82.5t-89.5 -62.5t-136 -23.5h-267q-13 0 -11 13zM763 0h-114q-13 0 -11 13l118 680q2 11 13 11h114q13 0 11 -13l-118 -680q-2 -11 -13 -11zM188 121h134
q68 0 101 41t33 88q0 98 -132 98h-97z" />
    <glyph glyph-name="uni042C" unicode="&#x42c;" horiz-adv-x="640" 
d="M309 0h-267q-13 0 -11 13l118 680q2 11 13 11h114q13 0 11 -13l-38 -222h89q124 0 190.5 -53.5t66.5 -155.5q0 -48 -14.5 -91.5t-46 -82.5t-89.5 -62.5t-136 -23.5zM188 121h134q68 0 101 41t33 88q0 98 -132 98h-97z" />
    <glyph glyph-name="uni042D" unicode="&#x42d;" horiz-adv-x="627" 
d="M139 679l52 16q67 20 149 20q125 0 194.5 -74.5t69.5 -204.5q0 -57 -12.5 -116t-41.5 -119t-71.5 -106.5t-109 -75.5t-146.5 -29q-71 0 -146 27l-40 14q-12 3 -6 16l47 89q5 11 16 6l42 -14q40 -15 97 -15q80 0 133 53.5t79 134.5h-265q-13 0 -11 13l19 97q2 11 13 11
h264v7q0 162 -140 162q-49 0 -113 -19l-48 -14q-12 -5 -14 8l-20 99q-2 11 9 14z" />
    <glyph glyph-name="uni042E" unicode="&#x42e;" horiz-adv-x="998" 
d="M240 422h120q37 126 124 209t227 83q126 0 195 -73t69 -203q0 -47 -9 -96t-26.5 -100t-48.5 -96t-70.5 -80.5t-96 -56t-122.5 -20.5q-125 0 -194.5 74t-69.5 204q0 22 1 34h-120l-50 -290q-2 -11 -13 -11h-114q-13 0 -11 13l118 680q2 11 13 11h114q13 0 11 -13zM608 113
q59 0 105.5 33t72 83.5t38 103.5t12.5 101q0 76 -33.5 116.5t-96.5 40.5q-60 0 -106.5 -32.5t-72 -83t-38 -103t-12.5 -101.5q0 -75 34 -116.5t97 -41.5z" />
    <glyph glyph-name="uni042F" unicode="&#x42f;" horiz-adv-x="678" 
d="M684 691l-117 -680q-2 -11 -13 -11h-114q-13 0 -11 13l42 244h-46q-76 0 -120.5 -32t-86.5 -102l-68 -115q-5 -8 -14 -8h-126q-16 0 -9 14l102 174q43 74 104 110q25 14 2 24q-91 37 -91 144q0 41 14.5 80.5t45 76t87 59t130.5 22.5h278q13 0 11 -13zM526 578h-145
q-60 0 -93 -36t-33 -77q0 -37 30 -59.5t86 -22.5h123z" />
    </font>
</defs>
</svg>
